<svg height="512" viewBox="0 0 512 512" width="512" xmlns="http://www.w3.org/2000/svg"><g id="Layer_2" data-name="Layer 2"><g id="edit"><path d="m502 512h-492a10 10 0 0 1 -10-10.34c.23-6.85 1.44-41.37 2.68-48.25 2.14-11.76 5.74-27.06 14.76-41.21 7-10.94 15.69-18.75 26.64-23.87 11.9-5.55 26.28-10 40.19-14.37s28.15-8.77 39.17-14.07q9.53-4.58 19.08-9.09l7.32-3.47c.37-.19.75-.35 1.27-.58a88.19 88.19 0 0 0 21.89-13.23c13.52-11.32 20.38-25 20.38-40.58a10 10 0 0 1 20 0c0 21.5-9.53 40.83-27.54 55.91a108.23 108.23 0 0 1 -26.84 16.28l-.39.17h-.07l-7.48 3.55q-9.5 4.5-19 9c-12.34 5.94-27.36 10.62-41.89 15.15-13.28 4.13-27 8.41-37.67 13.4-7.4 3.45-13.37 8.85-18.24 16.49-5.58 8.75-9.27 19.24-11.95 34-.54 3-1.36 18.69-2 35h471.32c-.64-16.33-1.46-32-2-35a126.7 126.7 0 0 0 -4.53-18.24 10 10 0 0 1 18.9-6.34 147 147 0 0 1 5.27 21.09c1.24 6.89 2.45 41.41 2.68 48.26a10 10 0 0 1 -9.95 10.34zm-342.85-147-.42.22z"/><path d="m318.54 335.67a10 10 0 0 1 -8.34-4.46 68.05 68.05 0 0 1 -11.55-38.27 10 10 0 1 1 20 0 48.4 48.4 0 0 0 8.21 27.2 10 10 0 0 1 -8.32 15.53z"/><path d="m340.21 200.22h-.34a10 10 0 0 1 -9.66-10.33c.37-11.17 3.18-21.56 6.15-32.55 5.69-21.05 12.13-44.91 5.73-85.83-3-19.34-7.55-35.42-18.94-49.61-13.14 8-27.59 6.42-39.51 5.13-1.35-.15-2.69-.3-4-.43-41.89-4.08-71.92 6-94.47 31.6-2.18 2.48-4.22 4.71-6.19 6.88-12.88 14.15-18.76 20.61-17.86 42.58.92 22.82 7.9 62.07 18.6 76.42a10 10 0 1 1 -16 11.95c-16.4-22-21.91-71.84-22.54-87.56-1.23-30.17 9.48-41.95 23-56.85 1.91-2.11 3.89-4.28 6-6.63 26.75-30.47 63.19-42.99 111.39-38.29l4.22.44c11.87 1.29 22.11 2.4 30.1-4.64a10 10 0 0 1 6.61-2.5h3.5a10 10 0 0 1 7.24 3.1c19.33 20.28 25.17 43.38 28.6 65.32 7.06 45.12-.28 72.3-6.18 94.14-2.78 10.27-5.18 19.14-5.47 28a10 10 0 0 1 -9.98 9.66z"/><path d="m308.66 302.94a10 10 0 0 1 -6.74-17.4l3.48-3.14c11.87-10.71 23.09-20.82 26.58-34.16a93.55 93.55 0 0 1 19.83-38.24c9.66-11.51 9.44-16.64 9.14-17.94-.53-2.28-3.6-4.22-6-5.43a42.46 42.46 0 0 0 -3.21 4.5c-1 1.57-2.19 3.35-3.53 5.14a10 10 0 0 1 -18-5.95c0-2.55 0-5.06 0-7.54 0-20.44-.07-38.09-5.68-54.74-5.12-15.23-11.13-16.78-20.44-14.32-18.88 5-74.82 6.84-96.61-.14-6.89-2.21-14.11-2.91-19.95 14.45-5.61 16.64-5.64 34.27-5.68 54.69q0 3.67 0 7.45v.09a10 10 0 0 1 -17.85 6.23c-.18-.22-.34-.44-.5-.66-1.22-1.65-2.29-3.29-3.24-4.74a42.43 42.43 0 0 0 -3.22-4.5c-.47.23-.9.47-1.3.7l-.32.18c-2.65 1.57-4.14 3.17-4.42 4.75s0 6.8 9.18 17.74a93.49 93.49 0 0 1 19.82 38.28c3.49 13.34 14.71 23.45 26.59 34.16l3.47 3.14a10 10 0 1 1 -13.47 14.79l-3.4-3.08c-12.9-11.64-27.53-24.83-32.53-43.94a73.45 73.45 0 0 0 -15.8-30.48c-10.89-13-15.32-24.12-13.56-34.08.94-5.32 4.19-12.88 14.37-18.75l.28-.16a43.55 43.55 0 0 1 4.16-2.09 9.26 9.26 0 0 1 1.42-.51 19.82 19.82 0 0 1 10.47-.24c.34-15.55 1.61-30.55 6.59-45.35 11-32.62 32.91-31 45-27.12 17.65 5.66 69.45 4.07 85.4-.14 14.8-3.92 34.54-2.36 44.51 27.27 5 14.79 6.25 29.78 6.59 45.32a19.43 19.43 0 0 1 8.41-.16c.74.13 1.38.29 2 .45a10.55 10.55 0 0 1 1.46.52c10.36 4.64 16.6 11.3 18.55 19.8 2.36 10.25-2 21.79-13.31 35.27a73.37 73.37 0 0 0 -15.8 30.49c-5 19.11-19.64 32.3-32.54 43.94l-3.4 3.08a10 10 0 0 1 -6.8 2.57z"/><path d="m256 381.47a10 10 0 0 1 -6.76-2.63l-58.24-53.4a10 10 0 1 1 13.52-14.74l51.48 47.2 51.47-47.2a10 10 0 1 1 13.53 14.74l-58.23 53.4a10 10 0 0 1 -6.77 2.63z"/><path d="m220.86 421.63a10 10 0 0 1 -7.17-3l-57.83-59.49a10 10 0 1 1 14.34-13.94l50.27 51.72 28-32a10 10 0 0 1 15.06 13.17l-35.15 40.17a10 10 0 0 1 -7.26 3.41z"/><path d="m292.21 421.63a10 10 0 0 1 -7.43-3.3l-36.21-40.16a10 10 0 0 1 14.86-13.4l36.21 40.17a10 10 0 0 1 -7.43 16.69z"/><path d="m256 433.8a10 10 0 0 1 -6.89-2.75l-25-23.77a10 10 0 1 1 13.78-14.49l17.75 16.88 17.36-18.22a10 10 0 1 1 14.49 13.78l-24.25 25.47a10 10 0 0 1 -7.24 3.1z"/><path d="m224.23 512a10 10 0 0 1 -9.29-13.7l31.16-78.2a10 10 0 1 1 18.58 7.41l-31.16 78.19a10 10 0 0 1 -9.29 6.3z"/><path d="m286.55 512a10 10 0 0 1 -9.29-6.3l-31.16-78.19a10 10 0 1 1 18.58-7.41l31.16 78.2a10 10 0 0 1 -9.29 13.7z"/><path d="m396.57 512a115.43 115.43 0 1 1 115.43-115.43 115.56 115.56 0 0 1 -115.43 115.43zm0-210.86a95.43 95.43 0 1 0 95.43 95.43 95.54 95.54 0 0 0 -95.43-95.43z"/><path d="m347.48 455.66a10 10 0 0 1 -10-10 78 78 0 0 1 23-55.55l43.82-43.82a30.08 30.08 0 1 1 42.54 42.54l-43.84 43.82a78 78 0 0 1 -55.52 23.01zm78.1-98.17a10.08 10.08 0 0 0 -7.13 2.94l-43.82 43.82a58.21 58.21 0 0 0 -16.12 30.38 58.17 58.17 0 0 0 30.38-16.12l43.82-43.82a10.07 10.07 0 0 0 -7.13-17.2z"/><path d="m425.58 406a9.93 9.93 0 0 1 -7.07-2.93l-28.4-28.4a10 10 0 0 1 14.14-14.14l28.4 28.4a10 10 0 0 1 -7.07 17.07z"/></g></g></svg>