<svg id="apple_icon" xmlns="http://www.w3.org/2000/svg" width="22" height="22" viewBox="0 0 22 22">
  <rect id="Rectangle_18037" data-name="Rectangle 18037" width="22" height="22" fill="#fff" opacity="0"/>
  <path id="Sign_in_with_Apple" data-name="Sign in with Apple" d="M3.161-13.043a4.068,4.068,0,0,1,3.559,1.8l-.092.058a2.355,2.355,0,0,0-.2.138q-.1.081-.259.213a3.628,3.628,0,0,0-.305.294q-.15.161-.311.363a2.808,2.808,0,0,0-.294.455,5.006,5.006,0,0,0-.242.541,3.6,3.6,0,0,0-.173.639,4.048,4.048,0,0,0-.063.72,3.9,3.9,0,0,0,.248,1.4A3.53,3.53,0,0,0,5.6-5.4a4.734,4.734,0,0,0,.708.679,4.3,4.3,0,0,0,.587.4,1.888,1.888,0,0,0,.282.127,2.643,2.643,0,0,1-.121.4q-.109.311-.415.95a8.627,8.627,0,0,1-.7,1.2q-.357.518-.6.829a7.451,7.451,0,0,1-.61.679,2.562,2.562,0,0,1-.754.541,1.992,1.992,0,0,1-.823.173A3.6,3.6,0,0,1,1.745.229,3.793,3.793,0,0,0,.213-.133a4.071,4.071,0,0,0-1.6.374,3.785,3.785,0,0,1-1.4.374A1.865,1.865,0,0,1-3.547.454a2.487,2.487,0,0,1-.731-.53,8.078,8.078,0,0,1-.628-.7q-.259-.328-.674-.9A10.71,10.71,0,0,1-6.927-4.458a10.123,10.123,0,0,1-.53-3.184,6.473,6.473,0,0,1,.392-2.3,4.841,4.841,0,0,1,1.031-1.693A4.55,4.55,0,0,1-4.6-12.646,4.072,4.072,0,0,1-2.943-13a4.581,4.581,0,0,1,1.624.392,4.627,4.627,0,0,0,1.3.392,2.316,2.316,0,0,0,.789-.207q.512-.207,1.157-.415A4.025,4.025,0,0,1,3.161-13.043Zm-.645-1.474a3.6,3.6,0,0,1-1.14.916,2.814,2.814,0,0,1-1.3.363,1.231,1.231,0,0,1-.242-.023A1.339,1.339,0,0,1-.2-13.584,3.261,3.261,0,0,1,.08-14.891a4.271,4.271,0,0,1,.708-1.134,3.89,3.89,0,0,1,1.226-.956,3.381,3.381,0,0,1,1.422-.4,1.707,1.707,0,0,1,.035.357A3.849,3.849,0,0,1,2.516-14.517Z" transform="translate(11.138 19.385)"/>
</svg>
