<svg xmlns="http://www.w3.org/2000/svg" xmlns:xlink="http://www.w3.org/1999/xlink" width="24" height="24" viewBox="0 0 24 24">
  <defs>
    <clipPath id="clip-path">
      <rect id="Rectangle_17594" data-name="Rectangle 17594" width="24" height="24" transform="translate(282 22)" fill="none"/>
    </clipPath>
  </defs>
  <g id="attachment" transform="translate(-282 -22)">
    <g id="Mask_Group_5" data-name="Mask Group 5" clip-path="url(#clip-path)">
      <g id="attach-interface-symbol-diagonal-paperclip-tool_45538" transform="translate(282 22)">
        <g id="Group_7895" data-name="Group 7895">
          <path id="Path_14546" data-name="Path 14546" d="M15.011,5.036a.921.921,0,0,0-.6.222l-.009-.008L7.117,12.514A3.6,3.6,0,0,0,5.948,15.3a3.086,3.086,0,0,0,.936,2.279,3.558,3.558,0,0,0,2.5.9h.021A3.9,3.9,0,0,0,12.19,17.3l8.458-8.456a4.968,4.968,0,0,0,.134-7.26,5.433,5.433,0,0,0-7.677,0L2.511,12.18a6.926,6.926,0,0,0,9.8,9.8L23.273,10.97a.946.946,0,0,0,.242-.638.927.927,0,0,0-1.56-.68l0,0L10.985,20.654A5.058,5.058,0,0,1,3.832,13.5L14.425,2.909a3.566,3.566,0,0,1,5.035,0,3.056,3.056,0,0,1,.974,2.3,3.485,3.485,0,0,1-1.108,2.316L10.851,16a2.044,2.044,0,0,1-1.45.6,1.41,1.41,0,0,1-1.585-1.3,2.051,2.051,0,0,1,.6-1.45l7.307-7.282-.008-.008a.925.925,0,0,0-.707-1.527Z"/>
        </g>
      </g>
    </g>
  </g>
</svg>
