<svg id="blockuser" xmlns="http://www.w3.org/2000/svg" xmlns:xlink="http://www.w3.org/1999/xlink" width="24" height="24" viewBox="0 0 24 24">
  <defs>
    <clipPath id="clip-path">
      <path id="back" d="M0,0H24V24H0Z" transform="translate(318 52)"/>
    </clipPath>
  </defs>
  <g id="Mask_Group_5227" data-name="Mask Group 5227" transform="translate(-318 -52)" clip-path="url(#clip-path)">
    <path id="block-user_10833721" d="M20.923,15.077a5.846,5.846,0,1,0,5.846,5.846A5.853,5.853,0,0,0,20.923,15.077Zm-4,5.846a4,4,0,0,1,4-4,3.955,3.955,0,0,1,2.09.606l-5.484,5.484a3.966,3.966,0,0,1-.606-2.09Zm4,4a3.955,3.955,0,0,1-2.09-.606l5.484-5.484a3.98,3.98,0,0,1-3.394,6.09ZM14.769,14.462a5.846,5.846,0,1,1,5.846-5.846A5.853,5.853,0,0,1,14.769,14.462Zm-1.538,6.462a7.572,7.572,0,0,0,1.194,4.1v.825a.93.93,0,0,1-.923.923H7.385A3.383,3.383,0,0,1,4,23.385a7.086,7.086,0,0,1,7.077-7.077h2.462a.918.918,0,0,1,.849.566A7.619,7.619,0,0,0,13.231,20.923Z" transform="translate(314.615 49.231)"/>
  </g>
</svg>
