<svg xmlns="http://www.w3.org/2000/svg" xmlns:xlink="http://www.w3.org/1999/xlink" width="24" height="24" viewBox="0 0 24 24">
  <defs>
    <clipPath id="clip-path">
      <rect id="Rectangle_17597" data-name="Rectangle 17597" width="24" height="24" transform="translate(38 351)" fill="#fff"/>
    </clipPath>
  </defs>
  <g id="cam" transform="translate(-38 -351)">
    <g id="Mask_Group_10" data-name="Mask Group 10" clip-path="url(#clip-path)">
      <g id="camera_3917108" transform="translate(38 351)">
        <path id="Path_15506" data-name="Path 15506" d="M19,4h-.508L16.308,1.168A3.023,3.023,0,0,0,13.932,0H10.068A3.023,3.023,0,0,0,7.692,1.168L5.508,4H5A5.006,5.006,0,0,0,0,9V19a5.006,5.006,0,0,0,5,5H19a5.006,5.006,0,0,0,5-5V9a5.006,5.006,0,0,0-5-5ZM9.276,2.39A1.006,1.006,0,0,1,10.068,2h3.864a1.008,1.008,0,0,1,.792.39L15.966,4H8.034ZM22,19a3,3,0,0,1-3,3H5a3,3,0,0,1-3-3V9A3,3,0,0,1,5,6H19a3,3,0,0,1,3,3Z" fill="#fff"/>
        <path id="Path_15507" data-name="Path 15507" d="M12,8a6,6,0,1,0,6,6,6,6,0,0,0-6-6Zm0,10a4,4,0,1,1,4-4A4,4,0,0,1,12,18Z" fill="#fff"/>
      </g>
    </g>
  </g>
</svg>
