<svg xmlns="http://www.w3.org/2000/svg" xmlns:xlink="http://www.w3.org/1999/xlink" width="20" height="20" viewBox="0 0 20 20">
  <defs>
    <clipPath id="clip-path">
      <rect id="back" width="20" height="20" transform="translate(35 125)" fill="#f5f5f5"/>
    </clipPath>
  </defs>
  <g id="category_icon" transform="translate(-35 -125)">
    <g id="Mask_Group_3761" data-name="Mask Group 3761" clip-path="url(#clip-path)">
      <path id="Cate" d="M7.5,7.5H1.667A1.668,1.668,0,0,1,0,5.833V4.167A4.171,4.171,0,0,1,4.167,0H7.5A1.668,1.668,0,0,1,9.167,1.667V5.833A1.668,1.668,0,0,1,7.5,7.5ZM15.833,20H12.5a1.668,1.668,0,0,1-1.667-1.667V14.167A1.668,1.668,0,0,1,12.5,12.5h5.833A1.668,1.668,0,0,1,20,14.167v1.667A4.171,4.171,0,0,1,15.833,20Zm2.5-9.167H12.5a1.668,1.668,0,0,1-1.667-1.667v-7.5A1.668,1.668,0,0,1,12.5,0h3.333A4.171,4.171,0,0,1,20,4.167v5A1.668,1.668,0,0,1,18.333,10.833ZM7.5,20H4.167A4.171,4.171,0,0,1,0,15.833v-5A1.668,1.668,0,0,1,1.667,9.167H7.5a1.668,1.668,0,0,1,1.667,1.667v7.5A1.668,1.668,0,0,1,7.5,20Z" transform="translate(35 125)"/>
    </g>
  </g>
</svg>
