<svg id="edit" xmlns="http://www.w3.org/2000/svg" width="24" height="24" viewBox="0 0 24 24">
  <rect id="back" width="24" height="24" fill="none"/>
  <g id="Group_5499" data-name="Group 5499">
    <path id="Path_25794" data-name="Path 25794" d="M18,17.325a.684.684,0,0,1-.692.675H.692a.675.675,0,1,1,0-1.35H17.308a.684.684,0,0,1,.692.675" transform="translate(3 3)" fill="#fff"/>
    <path id="Path_25795" data-name="Path 25795" d="M13.876,7.757a.41.41,0,0,0,.11.014.367.367,0,0,0,.26-.108l1.08-1.091a3.741,3.741,0,0,0,1.329-2.6,3.778,3.778,0,0,0-1.327-2.642c-1.75-1.75-3.452-1.792-5.247,0l-1.1,1.09a.361.361,0,0,0-.09.36,7.315,7.315,0,0,0,4.981,4.978" transform="translate(3 3)" fill="#fff"/>
    <path id="Path_25796" data-name="Path 25796" d="M3.082,15.3a2.184,2.184,0,0,0,.323-.024l3.452-.488a1.035,1.035,0,0,0,.5-.249L13.01,8.884c-.245-.09-.5-.186-.762-.31s-.512-.256-.752-.4a6.314,6.314,0,0,1-.576-.382,6.344,6.344,0,0,1-.508-.386,1.2,1.2,0,0,1-.157-.137,7.939,7.939,0,0,1-.928-.933A.776.776,0,0,1,9.2,6.175a5.413,5.413,0,0,1-.374-.493,5.677,5.677,0,0,1-.349-.533c-.142-.239-.27-.49-.392-.742-.126-.27-.226-.526-.315-.773L2.111,9.292a1.026,1.026,0,0,0-.249.5l-.488,3.449a1.806,1.806,0,0,0,.463,1.572,1.74,1.74,0,0,0,1.246.487Z" transform="translate(3 3)" fill="#fff"/>
  </g>
</svg>
