<svg id="filter" xmlns="http://www.w3.org/2000/svg" width="22.016" height="22" viewBox="0 0 22.016 22">
  <rect id="filter_2_" data-name="filter (2)" width="22" height="22" transform="translate(0.016)" fill="none"/>
  <path id="Path_24171" data-name="Path 24171" d="M21.251.075A2.154,2.154,0,0,0,20.584,0H1.178A1.2,1.2,0,0,0,.213.484a1.105,1.105,0,0,0-.158,1,2.029,2.029,0,0,0,.358.576Q4.447,7.135,8.476,12.2c0,2.174,0,4.39,0,6.587a1.286,1.286,0,0,0,.194.76,1.164,1.164,0,0,0,1.623.292c.768-.531,1.539-1.066,2.293-1.592a3.008,3.008,0,0,0,.609-.515,1.636,1.636,0,0,0,.355-1.047c0-1.5,0-3.017,0-4.51L21.673,1.953a1.292,1.292,0,0,0,.321-.709A1.115,1.115,0,0,0,21.25.075ZM12.346,11.532a.823.823,0,0,0-.138.517c0,1.538,0,3.1,0,4.637,0,.147-.043.213-.218.335L9.821,18.526q0-3.3,0-6.59a.661.661,0,0,0-.223-.5c-.027-.029-.053-.056-.076-.086L4.543,5.1h6.751a.776.776,0,0,0,.437-.125.646.646,0,0,0,.257-.342A.663.663,0,0,0,11.6,3.81a1.191,1.191,0,0,0-.415-.053H3.493L1.563,1.344H20.441Z" transform="translate(0 0.976)"/>
  <path id="Path_24172" data-name="Path 24172" d="M15.263,4.406v.051a.641.641,0,0,1-.64.639h-.746a.641.641,0,0,1-.639-.642V4.4a.64.64,0,0,1,.64-.639h.746a.641.641,0,0,1,.639.642Z" transform="translate(0 0.976)"/>
</svg>
