<svg id="google_icon" xmlns="http://www.w3.org/2000/svg" width="22" height="22" viewBox="0 0 22 22">
  <rect id="Rectangle_18037" data-name="Rectangle 18037" width="22" height="22" fill="#fff" opacity="0"/>
  <g id="google" transform="translate(2.174 2)">
    <path id="Path_25474" data-name="Path 25474" d="M294.528,337.536a11.153,11.153,0,0,0-.153-1.831H285.88v3.466h4.86a4.169,4.169,0,0,1-1.8,2.734v2.251h2.9a8.779,8.779,0,0,0,2.685-6.621Z" transform="translate(-276.881 -328.336)" fill="#4285f4"/>
    <path id="Path_25475" data-name="Path 25475" d="M160.073,398.8a8.6,8.6,0,0,0,5.964-2.173l-2.9-2.25a5.459,5.459,0,0,1-8.119-2.85H152.03v2.32A9.01,9.01,0,0,0,160.073,398.8Z" transform="translate(-151.074 -380.801)" fill="#34a853"/>
    <path id="Path_25476" data-name="Path 25476" d="M140.055,301.274a5.368,5.368,0,0,1,0-3.44v-2.323h-2.988a9.018,9.018,0,0,0,0,8.084Z" transform="translate(-136.11 -290.556)" fill="#fbbc04"/>
    <path id="Path_25477" data-name="Path 25477" d="M160.073,216.611a4.893,4.893,0,0,1,3.454,1.352l2.569-2.569a8.662,8.662,0,0,0-6.023-2.344,9,9,0,0,0-8.042,4.958l2.987,2.322a5.383,5.383,0,0,1,5.054-3.72Z" transform="translate(-151.074 -213.051)" fill="#ea4335"/>
  </g>
</svg>
