<svg id="favorite" xmlns="http://www.w3.org/2000/svg" xmlns:xlink="http://www.w3.org/1999/xlink" width="22" height="22" viewBox="0 0 22 22">
  <defs>
    <clipPath id="clip-path">
      <rect id="back" width="22" height="22" transform="translate(126.999 635.998)"/>
    </clipPath>
  </defs>
  <g id="Mask_Group_109" data-name="Mask Group 109" transform="translate(-126.999 -635.998)" clip-path="url(#clip-path)">
    <g id="Bottom_navigation" data-name="Bottom navigation" transform="translate(127 637.082)">
      <g id="likes" transform="translate(0 0)">
        <path id="Path_24183" data-name="Path 24183" d="M6.055,1.375A4.423,4.423,0,0,1,9.237,2.768a2.842,2.842,0,0,0,1.045.723,2.151,2.151,0,0,0,.74.133A2.316,2.316,0,0,0,12.741,2.8a4.342,4.342,0,0,1,2.226-1.31,4.262,4.262,0,0,1,.99-.117,4.309,4.309,0,0,1,1.994.5A4.761,4.761,0,0,1,19.59,3.315a5.6,5.6,0,0,1,1.034,3.371,5.434,5.434,0,0,1-1.449,3.66c-.872.963-1.757,1.944-2.613,2.892-1.324,1.466-2.692,2.983-4.042,4.469A2.056,2.056,0,0,1,11,18.459,2.078,2.078,0,0,1,9.475,17.7c-2.4-2.643-4.56-5.028-6.734-7.455a5.6,5.6,0,0,1,.224-7.572,4.426,4.426,0,0,1,3.09-1.3M6.055,0a5.783,5.783,0,0,0-4.05,1.688,6.971,6.971,0,0,0-.289,9.475q3.354,3.745,6.74,7.462A3.439,3.439,0,0,0,11,19.833a3.418,3.418,0,0,0,2.535-1.2q3.337-3.674,6.657-7.363A6.812,6.812,0,0,0,22,6.69a6.985,6.985,0,0,0-1.292-4.176A5.857,5.857,0,0,0,15.957,0a5.621,5.621,0,0,0-1.31.155,5.736,5.736,0,0,0-2.911,1.71,1,1,0,0,1-.713.383.774.774,0,0,1-.268-.05,1.532,1.532,0,0,1-.53-.388A5.789,5.789,0,0,0,6.055,0h0Z" transform="translate(0 0)"/>
      </g>
    </g>
  </g>
</svg>
