<svg xmlns="http://www.w3.org/2000/svg" xmlns:xlink="http://www.w3.org/1999/xlink" width="20" height="20" viewBox="0 0 20 20">
  <defs>
    <clipPath id="clip-path">
      <rect id="Rectangle_2292" data-name="Rectangle 2292" width="16" height="16" transform="translate(20 142)" fill="#f5f5f5"/>
    </clipPath>
  </defs>
  <g id="home" transform="translate(-18 -140)">
    <rect id="Rectangle_2291" data-name="Rectangle 2291" width="20" height="20" transform="translate(18 140)" fill="none"/>
    <g id="Mask_Group_1" data-name="Mask Group 1" clip-path="url(#clip-path)">
      <path id="home_5_" data-name="home (5)" d="M8.179,12.595A1.878,1.878,0,0,0,8,13.408q0,1.285,0,2.569a1.6,1.6,0,0,1-1.207,1.574,2.176,2.176,0,0,1-.521.05l-1.116,0a6.536,6.536,0,0,1-.749-.027,3.033,3.033,0,0,1-1.89-.975,3.357,3.357,0,0,1-.909-2.358Q1.6,11.566,1.6,8.889a4.965,4.965,0,0,1,.042-.747,3.392,3.392,0,0,1,.788-1.7A4.753,4.753,0,0,1,2.98,5.93q3.29-2.723,4.156-3.436a3.854,3.854,0,0,1,4.537-.287,6.608,6.608,0,0,1,.6.453l3.693,3.052q.486.4.572.484a3.369,3.369,0,0,1,1.02,1.926,4.744,4.744,0,0,1,.046.747q0,2.583,0,5.167a5.288,5.288,0,0,1-.041.747A3.252,3.252,0,0,1,14.421,17.6l-1.744,0a1.176,1.176,0,0,1-.312-.057,1.6,1.6,0,0,1-1.112-1.148,2.172,2.172,0,0,1-.05-.519q0-1.229,0-2.457a1.769,1.769,0,0,0-.886-1.582A1.542,1.542,0,0,0,8.179,12.595Z" transform="translate(18.398 140.398)"/>
    </g>
  </g>
</svg>
