<svg width="48" height="48" viewBox="0 0 48 48" fill="none" xmlns="http://www.w3.org/2000/svg">
  <!-- Clipboard -->
  <path d="M34 8H28V6C28 4.89543 27.1046 4 26 4H22C20.8954 4 20 4.89543 20 6V8H14C12.8954 8 12 8.89543 12 10V42C12 43.1046 12.8954 44 14 44H34C35.1046 44 36 43.1046 36 42V10C36 8.89543 35.1046 8 34 8Z" stroke="#000" stroke-width="2"/>
  <path d="M20 14H28" stroke="#000" stroke-width="2" stroke-linecap="round"/>
  <path d="M20 20H28" stroke="#000" stroke-width="2" stroke-linecap="round"/>
  
  <!-- Briefcase -->
  <path d="M36 22H12V30H36V22Z" stroke="#000" stroke-width="2"/>
  <path d="M18 22V18C18 16.8954 18.8954 16 20 16H28C29.1046 16 30 16.8954 30 18V22" stroke="#000" stroke-width="2"/>
  <path d="M24 30V22" stroke="#000" stroke-width="2"/>
  
  <!-- Checkmark -->
  <circle cx="36" cy="36" r="6" stroke="#000" stroke-width="2"/>
  <path d="M33 36L35 38L39 34" stroke="#000" stroke-width="2" stroke-linecap="round" stroke-linejoin="round"/>
</svg>
