<svg id="list_view" xmlns="http://www.w3.org/2000/svg" width="24" height="24" viewBox="0 0 24 24">
  <rect id="back" width="24" height="24" fill="none"/>
  <g id="menu_1_-_Copy" data-name="menu (1) - Copy" transform="translate(2.196 2.184)">
    <path id="Path_24175" data-name="Path 24175" d="M2.459.816l1.632,0A1.632,1.632,0,0,1,5.723,2.459l0,1.632A1.632,1.632,0,0,1,4.08,5.723l-1.632,0A1.632,1.632,0,0,1,.816,4.08l0-1.632A1.632,1.632,0,0,1,2.459.816Z"/>
    <path id="Path_24176" data-name="Path 24176" d="M18.8,2.459l0,1.632a1.632,1.632,0,0,1-1.639,1.632l-6.443,0a.769.769,0,0,1-.1,0l-1.632,0A1.632,1.632,0,0,1,7.351,4.08l0-1.632A1.632,1.632,0,0,1,8.994.816h.835l7.336,0A1.632,1.632,0,0,1,18.8,2.459Z"/>
    <path id="Path_24177" data-name="Path 24177" d="M18.8,8.994l0,1.632a1.632,1.632,0,0,1-1.639,1.632l-6.443,0a.769.769,0,0,1-.1,0l-1.632,0a1.632,1.632,0,0,1-1.632-1.639l0-1.632A1.632,1.632,0,0,1,8.994,7.351h.835l7.336,0A1.632,1.632,0,0,1,18.8,8.994Z"/>
    <path id="Path_24178" data-name="Path 24178" d="M18.8,15.552l0,1.632a1.632,1.632,0,0,1-1.639,1.632l-6.443,0a.769.769,0,0,1-.1,0l-1.632,0a1.632,1.632,0,0,1-1.632-1.639l0-1.632a1.632,1.632,0,0,1,1.639-1.632h.835l7.336,0A1.635,1.635,0,0,1,18.8,15.552Z"/>
    <path id="Path_24179" data-name="Path 24179" d="M2.459,7.355l1.628,0A1.638,1.638,0,0,1,5.723,9l0,1.628A1.638,1.638,0,0,1,4.08,12.262l-1.632,0A1.638,1.638,0,0,1,.812,10.618l0-1.628A1.639,1.639,0,0,1,2.459,7.355Z"/>
    <path id="Path_24180" data-name="Path 24180" d="M2.459,13.89l1.628,0a1.638,1.638,0,0,1,1.636,1.639l0,1.628A1.638,1.638,0,0,1,4.08,18.8l-1.628,0A1.638,1.638,0,0,1,.816,17.153l0-1.628A1.638,1.638,0,0,1,2.459,13.89Z"/>
  </g>
</svg>
