<?xml version="1.0"?>
<svg xmlns="http://www.w3.org/2000/svg" id="glipy" viewBox="0 0 64 64"><path d="M27.27844,23.33488C33.76671,26.92331,42.42079,21.83,42.2547,14.24737A10.26137,10.26137,0,0,0,32.00745,4C21.25088,4.13577,17.90225,18.36362,27.27844,23.33488Z"/><path d="M16.47134,41.56036h31.072a3.23,3.23,0,0,0,3.2192-3.21914v-4.019a8.76038,8.76038,0,0,0-5.99846-8.31787l-5.56857-1.8495a12.19784,12.19784,0,0,1-14.36631,0l-5.57858,1.8495a8.76038,8.76038,0,0,0-5.99846,8.31787v4.019A3.23,3.23,0,0,0,16.47134,41.56036Z"/><path d="M57.12088,48.47857h-2.6693a.27.27,0,0,1-.25994-.19l-.82981-2.53926a2.2874,2.2874,0,0,0-4.32884-.00006l-.8198,2.53932a.28991.28991,0,0,1-.25994.19H45.284a2.26944,2.26944,0,0,0-1.33968,4.109l2.15942,1.56954a.3033.3033,0,0,1,.1.30992l-.82981,2.53938A2.27846,2.27846,0,0,0,48.883,59.54573l2.14947-1.5596a.25672.25672,0,0,1,.32987,0l2.15942,1.55948a2.28362,2.28362,0,0,0,3.49917-2.53921l-.8198-2.53938a.28081.28081,0,0,1,.08994-.30992l2.15948-1.56954A2.27987,2.27987,0,0,0,57.12088,48.47857Z"/><path d="M18.73071,48.47857h-2.6693a.28991.28991,0,0,1-.25994-.19l-.8198-2.53926a2.28739,2.28739,0,0,0-4.32884-.00006L9.823,48.28861a.27.27,0,0,1-.25995.19H6.89379a2.26943,2.26943,0,0,0-1.32968,4.109L7.72359,54.1571a.28081.28081,0,0,1,.08994.30992L6.99374,57.0064a2.2742,2.2742,0,0,0,3.4991,2.53933l2.15948-1.5596a.25672.25672,0,0,1,.32987,0l2.14941,1.55948a2.2879,2.2879,0,0,0,3.50917-2.53921L17.811,54.467a.30328.30328,0,0,1,.1-.30992l2.15941-1.56954a2.26944,2.26944,0,0,0-1.33968-4.109Z"/><path d="M37.92579,48.47857H35.2565a.27957.27957,0,0,1-.26-.19l-.8298-2.53926a2.28043,2.28043,0,0,0-4.31884-.00006l-.8298,2.53932a.27957.27957,0,0,1-.25994.19h-2.6693a2.27368,2.27368,0,0,0-1.33968,4.109l2.15947,1.56954a.27029.27029,0,0,1,.09995.30992l-.81979,2.53938a2.27157,2.27157,0,0,0,3.4991,2.53933l2.15948-1.5596a.24317.24317,0,0,1,.31986,0l2.15942,1.55948a2.28153,2.28153,0,0,0,3.49916-2.53921L37.00605,54.467a.27029.27029,0,0,1,.09995-.30992l2.15948-1.56954a2.27369,2.27369,0,0,0-1.33969-4.109Z"/></svg>
