<svg width="40" height="40" viewBox="0 0 40 40" fill="none" xmlns="http://www.w3.org/2000/svg">
<path d="M12.5461 25.5232C12.7602 25.3068 12.8659 24.9752 12.8659 24.5307V24.4084C12.8659 23.9639 12.7601 23.6347 12.5461 23.423C12.3345 23.2089 12.0404 23.1055 11.6618 23.1055H10.4082V25.8455H11.6618C12.0404 25.8455 12.3344 25.7373 12.5461 25.5232Z" fill="black"/>
<path d="M18.0088 28.2774C18.2205 28.0658 18.3263 27.7365 18.3263 27.292V24.4084C18.3263 23.9639 18.2205 23.6347 18.0088 23.423C17.7948 23.2089 17.5008 23.1055 17.1221 23.1055H15.9297V28.5949H17.1221C17.5008 28.5949 17.7948 28.4915 18.0088 28.2774Z" fill="black"/>
<path d="M38.1045 12.8219L27.1468 1.16563C27.0104 1.01977 26.8198 0.9375 26.62 0.9375H11.6875C9.29672 0.9375 7.35289 2.88258 7.35289 5.27211V18.1443H3.12172C2.34086 18.1443 1.70703 18.7793 1.70703 19.5602V32.2159C1.70703 32.9945 2.34086 33.6295 3.12172 33.6295H7.35289V34.7278C7.35289 37.1174 9.2968 39.0624 11.6875 39.0624H33.9651C36.3559 39.0624 38.2997 37.1173 38.2997 34.7278V13.3158C38.2997 13.1323 38.2303 12.9559 38.1045 12.8219ZM36.8556 34.7279C36.8556 36.3225 35.5585 37.6184 33.9651 37.6184H11.6875C10.0941 37.6184 8.79695 36.3225 8.79695 34.7279V33.6295H31.0487C31.8284 33.6295 32.4622 32.9945 32.4622 32.216V19.5602C32.4622 18.7793 31.8284 18.1443 31.0487 18.1443H8.79695V5.27211C8.79695 3.6775 10.0941 2.38156 11.6875 2.38156H25.8862V10.9027C25.8862 12.629 27.2903 14.0331 29.0166 14.0331H36.8557L36.8556 34.7279ZM9.33437 29.1937V22.5002C9.33437 22.4038 9.37203 22.3238 9.44961 22.2555C9.52719 22.1897 9.62836 22.1544 9.74828 22.1544H11.7216C12.1331 22.1544 12.5071 22.2273 12.8434 22.3731C13.1821 22.5189 13.4479 22.7541 13.6431 23.0787C13.8384 23.408 13.9371 23.8407 13.9371 24.3816V24.4616C13.9371 25.0002 13.8359 25.4353 13.6337 25.7599C13.4314 26.0892 13.1586 26.3244 12.8128 26.4749C12.4695 26.6207 12.0861 26.696 11.6604 26.696H10.4068V29.1937C10.4068 29.316 10.3503 29.4054 10.2398 29.4619C10.127 29.5207 10.0047 29.5489 9.87063 29.5489C9.73422 29.5489 9.61187 29.5207 9.50141 29.4619C9.39078 29.4054 9.33437 29.316 9.33437 29.1937ZM14.8567 29.2055V22.5001C14.8567 22.4037 14.8991 22.3237 14.9884 22.2555C15.0755 22.1896 15.1907 22.1543 15.3318 22.1543H17.1216C17.5473 22.1543 17.933 22.2272 18.2812 22.3777C18.6269 22.5259 18.8998 22.7634 19.0997 23.0951C19.2996 23.4267 19.3984 23.8641 19.3984 24.4098V27.2934C19.3984 27.839 19.2996 28.2765 19.0997 28.6081C18.8998 28.9398 18.627 29.1796 18.2812 29.3255C17.933 29.476 17.5473 29.5489 17.1216 29.5489H15.3318C15.1907 29.5489 15.0755 29.5136 14.9884 29.4477C14.8991 29.3819 14.8567 29.2996 14.8567 29.2055ZM23.2931 25.4212C23.4084 25.4212 23.4954 25.4659 23.5519 25.553C23.6084 25.6423 23.6389 25.7411 23.6389 25.8564C23.6389 25.9528 23.6107 26.0445 23.5566 26.1363C23.5025 26.2256 23.4155 26.2727 23.2931 26.2727H21.7267V29.1937C21.7267 29.316 21.6702 29.4054 21.5598 29.4619C21.4469 29.5207 21.3246 29.5489 21.1905 29.5489C21.0541 29.5489 20.9318 29.5207 20.8213 29.4619C20.7108 29.4054 20.6544 29.316 20.6544 29.1937V22.5095C20.6544 22.3943 20.7038 22.3073 20.8049 22.2461C20.906 22.1849 21.0142 22.1544 21.1295 22.1544H24.6809C24.8008 22.1544 24.8878 22.2037 24.942 22.3073C24.996 22.406 25.0243 22.5119 25.0243 22.6201C25.0243 22.7495 24.9961 22.8623 24.9373 22.9588C24.8808 23.0552 24.7938 23.107 24.6809 23.107H21.7269V25.4212H23.2931Z" fill="black"/>
</svg>
