<svg width="50" height="50" viewBox="0 0 50 50" fill="none" xmlns="http://www.w3.org/2000/svg">
<path d="M25.0026 18.7513C25.5552 18.7513 26.0851 18.9708 26.4758 19.3615C26.8665 19.7522 27.086 20.2821 27.086 20.8346V27.0846C27.086 27.6372 26.8665 28.1671 26.4758 28.5578C26.0851 28.9485 25.5552 29.168 25.0026 29.168C24.4501 29.168 23.9202 28.9485 23.5295 28.5578C23.1388 28.1671 22.9193 27.6372 22.9193 27.0846V20.8346C22.9193 20.2821 23.1388 19.7522 23.5295 19.3615C23.9202 18.9708 24.4501 18.7513 25.0026 18.7513ZM10.4193 4.16797H39.586C41.2435 4.16797 42.8333 4.82645 44.0054 5.99855C45.1775 7.17065 45.8359 8.76036 45.8359 10.418V31.2513C45.8359 32.9089 45.1775 34.4986 44.0054 35.6707C42.8333 36.8428 41.2435 37.5013 39.586 37.5013H15.4401L7.73177 45.2305C7.53707 45.4235 7.30627 45.5763 7.05237 45.68C6.79857 45.7837 6.52677 45.8362 6.25257 45.8346C5.97937 45.8417 5.70817 45.7846 5.46097 45.668C5.08047 45.5117 4.75477 45.2463 4.52497 44.9052C4.29507 44.5641 4.17137 44.1626 4.16927 43.7513V10.418C4.16927 8.76036 4.82777 7.17065 5.99987 5.99855C7.17197 4.82645 8.76167 4.16797 10.4193 4.16797ZM8.33597 38.7305L13.1068 33.9388C13.3015 33.7457 13.5323 33.5929 13.7862 33.4893C14.04 33.3856 14.3118 33.333 14.586 33.3346H39.586C40.1385 33.3346 40.6684 33.1151 41.0591 32.7244C41.4498 32.3337 41.6693 31.8038 41.6693 31.2513V10.418C41.6693 9.86543 41.4498 9.33553 41.0591 8.94483C40.6684 8.55413 40.1385 8.33463 39.586 8.33463H10.4193C9.86677 8.33463 9.33687 8.55413 8.94617 8.94483C8.55547 9.33553 8.33597 9.86543 8.33597 10.418V38.7305ZM25.0026 12.5013C25.4147 12.5013 25.8175 12.6235 26.1601 12.8524C26.5027 13.0813 26.7697 13.4067 26.9274 13.7874C27.0851 14.168 27.1263 14.5869 27.0459 14.9911C26.9656 15.3952 26.7671 15.7664 26.4758 16.0578C26.1844 16.3491 25.8132 16.5475 25.4091 16.6279C25.005 16.7083 24.5861 16.6671 24.2054 16.5094C23.8247 16.3517 23.4993 16.0847 23.2704 15.7421C23.0415 15.3995 22.9193 14.9967 22.9193 14.5846C22.9193 14.0321 23.1388 13.5022 23.5295 13.1115C23.9202 12.7208 24.4501 12.5013 25.0026 12.5013Z" fill="black"/>
</svg>
