<svg id="sort_by" data-name="sort by" xmlns="http://www.w3.org/2000/svg" width="22" height="22" viewBox="0 0 22 22">
  <rect id="sort_2_" data-name="sort (2)" width="22" height="22" fill="none"/>
  <path id="Path_24167" data-name="Path 24167" d="M7.458,5.195a.644.644,0,0,1-.952-.1C5.923,4.372,5.34,3.65,4.774,2.945a.117.117,0,0,0-.218.077V14.169a.694.694,0,0,1-1.348.229,1.242,1.242,0,0,1-.038-.372V2.987a.109.109,0,0,0-.11-.11H3.047a.105.105,0,0,0-.1.077L1.224,5.1a.658.658,0,0,1-.715.219.69.69,0,0,1-.5-.6.754.754,0,0,1,.239-.614L3.191.428a1.477,1.477,0,0,1,.279-.3A.74.74,0,0,1,4.23.116,1.145,1.145,0,0,1,4.506.39L7.575,4.226a.663.663,0,0,1-.116.969Z" transform="translate(0.794)"/>
  <path id="Path_24168" data-name="Path 24168" d="M18.131,12.687l-4.742-.008h0a2.287,2.287,0,0,0-2.284,2.28L11.092,19.7a2.287,2.287,0,0,0,2.28,2.288L18.114,22h0a2.287,2.287,0,0,0,2.284-2.28l.008-4.742A2.287,2.287,0,0,0,18.131,12.687Zm.891,7.023a.9.9,0,0,1-.9.9H13.379a.9.9,0,0,1-.9-.9V14.966a.9.9,0,0,1,.9-.9h4.744a.9.9,0,0,1,.9.9Z" transform="translate(0.794)"/>
  <path id="Path_24169" data-name="Path 24169" d="M18.131.008,13.388,0h0A2.287,2.287,0,0,0,11.1,2.28l-.008,4.742a2.287,2.287,0,0,0,2.28,2.288l4.742.008h0A2.287,2.287,0,0,0,20.4,7.039L20.411,2.3A2.287,2.287,0,0,0,18.131.008Zm.891,7.023a.9.9,0,0,1-.9.9H13.379a.9.9,0,0,1-.9-.9V2.287a.9.9,0,0,1,.9-.9h4.744a.9.9,0,0,1,.9.9V7.032Z" transform="translate(0.794)"/>
  <path id="Path_24170" data-name="Path 24170" d="M7.7,17.524a1.862,1.862,0,0,1-.327.505Q5.941,19.812,4.515,21.6a1.325,1.325,0,0,1-.294.3.731.731,0,0,1-.974-.257Q1.788,19.813.327,17.989a1.57,1.57,0,0,1-.3-.483.649.649,0,0,1,.229-.7.716.716,0,0,1,.44-.156.672.672,0,0,1,.327.086,1.109,1.109,0,0,1,.3.281q.826,1.03,1.635,2.045a.115.115,0,0,0,.214-.075q0-.745,0-1.491a1.208,1.208,0,0,1,.059-.435.65.65,0,0,1,.757-.4.694.694,0,0,1,.571.712c-.005.544,0,1.093,0,1.629h0a.11.11,0,0,0,.2.069Q5.621,18,6.489,16.913a.687.687,0,0,1,.881-.175.646.646,0,0,1,.328.786Z" transform="translate(0.794)"/>
</svg>
