<svg width="21" height="20" viewBox="0 0 21 20" fill="none" xmlns="http://www.w3.org/2000/svg">
<path d="M1.75444 8.876V16.355C1.75444 16.878 2.07344 17.302 2.46744 17.302H3.92944C4.32244 17.302 4.64244 16.879 4.64244 16.355V8.876C4.6438 8.85235 4.6438 8.82865 4.64244 8.805H16.0554V16.165C16.0554 16.688 16.3744 17.112 16.7684 17.112H18.2304C18.6234 17.112 18.9434 16.689 18.9434 16.165V8.8H20.3644V6.15L15.4044 3.077L10.4414 0L5.48244 3.077L0.523438 6.154V8.8H1.75844C1.75574 8.82524 1.7544 8.85061 1.75444 8.876ZM18.4304 7.74H2.45144C2.32281 7.74 2.19945 7.6889 2.10849 7.59795C2.01753 7.50699 1.96644 7.38363 1.96644 7.255C1.96644 7.12637 2.01753 7.00301 2.10849 6.91205C2.19945 6.8211 2.32281 6.77 2.45144 6.77H18.4304C18.5591 6.77 18.6824 6.8211 18.7734 6.91205C18.8643 7.00301 18.9154 7.12637 18.9154 7.255C18.9154 7.38363 18.8643 7.50699 18.7734 7.59795C18.6824 7.6889 18.5591 7.74 18.4304 7.74Z" fill="#005093"/>
<path d="M19.936 17.61H0.946999C0.695482 17.6105 0.454462 17.7109 0.276894 17.889C0.0993258 18.0671 -0.000265063 18.3085 5.29858e-07 18.56V18.801C-0.000265063 19.0525 0.0993258 19.2939 0.276894 19.472C0.454462 19.6501 0.695482 19.7504 0.946999 19.751H19.936C20.0606 19.7508 20.1839 19.7262 20.2989 19.6783C20.414 19.6305 20.5184 19.5605 20.6064 19.4723C20.6943 19.384 20.764 19.2793 20.8115 19.1642C20.859 19.049 20.8833 18.9256 20.883 18.801V18.56C20.8833 18.3085 20.7837 18.0671 20.6061 17.889C20.4285 17.7109 20.1875 17.6105 19.936 17.61Z" fill="#005093"/>
<path d="M8.25761 10.169C8.00566 10.169 7.76402 10.2691 7.58586 10.4473C7.4077 10.6254 7.30762 10.8671 7.30762 11.119V15.629C7.30762 15.881 7.4077 16.1226 7.58586 16.3008C7.76402 16.4789 8.00566 16.579 8.25761 16.579H12.6236C12.8756 16.579 13.1172 16.4789 13.2954 16.3008C13.4735 16.1226 13.5736 15.881 13.5736 15.629V11.119C13.5736 10.8671 13.4735 10.6254 13.2954 10.4473C13.1172 10.2691 12.8756 10.169 12.6236 10.169H8.25761ZM10.7736 13.856V14.678C10.7583 14.7612 10.7143 14.8365 10.6492 14.8906C10.5842 14.9447 10.5022 14.9744 10.4176 14.9744C10.333 14.9744 10.251 14.9447 10.186 14.8906C10.121 14.8365 10.077 14.7612 10.0616 14.678V13.834C9.86627 13.7464 9.70732 13.5939 9.61177 13.4023C9.51623 13.2107 9.49 12.992 9.53757 12.7833C9.58513 12.5746 9.70354 12.3888 9.87265 12.2575C10.0418 12.1263 10.2511 12.0576 10.4651 12.0634C10.6791 12.0691 10.8845 12.1488 11.0464 12.2888C11.2083 12.4289 11.3166 12.6208 11.353 12.8317C11.3893 13.0427 11.3515 13.2597 11.2458 13.4459C11.1402 13.6321 10.9734 13.776 10.7736 13.853V13.856Z" fill="#C52114"/>
</svg>
