<svg width="17" height="17" viewBox="0 0 17 17" fill="none" xmlns="http://www.w3.org/2000/svg">
<g clip-path="url(#clip0_33_7387)">
<path d="M0.499951 4.83603C0.481789 4.4564 0.539957 4.07698 0.671013 3.72022C0.80207 3.36347 1.00335 3.03663 1.26295 2.75903L2.16295 3.65903C1.16295 4.65903 2.03695 7.75403 4.88395 10.604C7.73095 13.454 10.831 14.326 11.831 13.328L12.731 14.228C11.045 15.914 7.20495 14.718 3.99195 11.503C1.75895 9.27003 0.499951 6.73903 0.499951 4.83603Z" fill="#009A46"/>
<path d="M6.16595 14.9998C5.78618 15.018 5.4066 14.9598 5.04968 14.8287C4.69277 14.6977 4.36576 14.4964 4.08795 14.2368L4.98795 13.3368C5.98795 14.3368 9.08793 13.4618 11.9339 10.6118C14.7799 7.76185 15.6559 4.66485 14.6579 3.66685L15.558 2.76685C17.245 4.45285 16.0469 8.29185 12.8319 11.5059C10.6019 13.7389 8.07195 14.9968 6.16895 14.9968L6.16595 14.9998Z" fill="#FF5805"/>
<path d="M13.1249 10.2229C12.4379 8.43669 11.3666 6.82329 9.98694 5.49693C6.77594 2.28093 2.93594 1.08493 1.24994 2.77093C1.13094 2.89093 1.23394 3.18893 1.48194 3.43593C1.72994 3.68293 2.02693 3.78693 2.14693 3.66693C3.14693 2.66693 6.24693 3.54193 9.09293 6.39193C10.3373 7.58294 11.3053 9.03231 11.9289 10.6379C12.3529 11.8589 12.3119 12.8439 11.8179 13.3379C11.6979 13.4569 11.8019 13.7559 12.0489 14.0029C12.2959 14.2499 12.5939 14.3539 12.7149 14.2339C13.5779 13.3709 13.7249 11.9439 13.1259 10.2219L13.1249 10.2229Z" fill="#F5AFCB"/>
<path d="M15.5539 2.77092C14.6889 1.90592 13.2639 1.75892 11.5399 2.35792C9.75396 3.04504 8.14063 4.11592 6.81392 5.49492C3.59992 8.70892 2.40294 12.5479 4.08894 14.2349C4.20894 14.3539 4.50692 14.2509 4.75392 14.0039C5.00092 13.7569 5.10494 13.4579 4.98494 13.3379C3.98494 12.3379 4.85995 9.23792 7.70995 6.39092C8.90061 5.14733 10.3492 4.17965 11.9539 3.55592C13.1749 3.13292 14.1599 3.17292 14.6539 3.66692C14.7729 3.78592 15.0719 3.68292 15.3189 3.43492C15.5659 3.18692 15.6699 2.88992 15.5509 2.77092H15.5539Z" fill="#FF9B00"/>
</g>
<defs>
<clipPath id="clip0_33_7387">
<rect width="16" height="16" fill="white" transform="translate(0.5 0.5)"/>
</clipPath>
</defs>
</svg>
