<svg width="30" height="30" viewBox="0 0 30 30" fill="none" xmlns="http://www.w3.org/2000/svg">
<g clip-path="url(#clip0_2088_7829)">
<path d="M14.9839 14.01H1.8139C1.57146 14.034 1.32678 14.0043 1.0971 13.9231C0.867419 13.8419 0.658381 13.7111 0.484919 13.54C0.313056 13.3707 0.181439 13.1649 0.0999092 12.9377C0.018379 12.7106 -0.0109236 12.468 0.0139717 12.228C0.0139717 11.446 0.0139717 10.6644 0.0139717 9.88306C-0.00429452 9.64836 0.0291718 9.41247 0.112116 9.19214C0.195061 8.97182 0.325438 8.77243 0.493952 8.60804C0.664469 8.44162 0.86885 8.31389 1.0932 8.23365C1.31754 8.1534 1.5565 8.12256 1.79388 8.14307H28.207C28.4466 8.12204 28.688 8.15337 28.9144 8.23487C29.1407 8.31637 29.3466 8.44602 29.5179 8.615C29.6875 8.78245 29.8178 8.98553 29.8995 9.20948C29.9811 9.43343 30.012 9.67271 29.9899 9.91004V12.1851C30.0211 12.4308 29.9954 12.6804 29.9147 12.9147C29.8341 13.1489 29.7008 13.3615 29.525 13.536C29.3474 13.7121 29.1326 13.846 28.8963 13.9279C28.66 14.0097 28.4084 14.0375 28.16 14.009L14.9839 14.01Z" fill="#09A4DA"/>
<path d="M14.2662 15.9905H26.6211C26.8606 15.961 27.1037 15.9861 27.3321 16.0639C27.5605 16.1416 27.7683 16.27 27.9401 16.4395C28.1099 16.607 28.2388 16.8115 28.3167 17.037C28.3946 17.2625 28.4193 17.5029 28.3891 17.7395C28.3891 18.5665 28.3891 19.4015 28.3891 20.2225C28.4021 20.44 28.3685 20.6577 28.2903 20.8611C28.2122 21.0645 28.0914 21.2487 27.9361 21.4015C27.7788 21.5564 27.5907 21.6765 27.384 21.754C27.1772 21.8316 26.9565 21.8647 26.7361 21.8515H1.6901C1.4648 21.8602 1.24015 21.8225 1.03007 21.7406C0.819995 21.6587 0.629058 21.5345 0.469158 21.3755C0.310833 21.2179 0.187512 21.0287 0.107219 20.8202C0.0269261 20.6117 -0.00860104 20.3886 0.0030932 20.1655C0.0030932 19.3495 0.0030932 18.5335 0.0030932 17.7175C-0.014423 17.4861 0.0186844 17.2535 0.100017 17.0361C0.18135 16.8187 0.309029 16.6216 0.474163 16.4585C0.641233 16.2939 0.841433 16.1668 1.06144 16.0856C1.28145 16.0044 1.51623 15.9709 1.75016 15.9874L14.2662 15.9905Z" fill="#09A4DA"/>
<path d="M14.2303 6.1679H1.83026C1.58484 6.19475 1.3365 6.16663 1.10333 6.0855C0.870157 6.00438 0.657985 5.87229 0.482235 5.69891C0.308177 5.52722 0.175636 5.31809 0.09454 5.08746C0.0134439 4.85682 -0.0140896 4.61081 0.0142177 4.36797C0.0142177 3.59864 0.0142177 2.82858 0.0142177 2.05791C-0.00252261 1.8204 0.0325094 1.58213 0.116757 1.35943C0.201004 1.13672 0.332501 0.934842 0.502255 0.767875C0.673572 0.599121 0.878711 0.468667 1.10418 0.385063C1.32966 0.301459 1.57032 0.266621 1.81024 0.28289H26.6452C26.8789 0.263614 27.114 0.294721 27.3347 0.374077C27.5553 0.453432 27.7564 0.579272 27.9243 0.742973C28.0905 0.905 28.2191 1.10157 28.301 1.31878C28.3829 1.53599 28.4161 1.76848 28.3983 1.99993C28.3983 2.80526 28.3983 3.6103 28.3983 4.41497C28.4293 4.65138 28.4053 4.8917 28.3279 5.11724C28.2506 5.34279 28.1219 5.54736 27.9522 5.7149C27.7801 5.88445 27.572 6.01292 27.3432 6.09051C27.1144 6.1681 26.871 6.19279 26.6313 6.16289L14.2303 6.1679Z" fill="#09A4DA"/>
<path d="M8.5522 29.717H1.90523C1.64808 29.7514 1.38647 29.7257 1.14082 29.6423C0.895176 29.5588 0.672133 29.4195 0.489211 29.2355C0.306289 29.0515 0.168435 28.8278 0.0863789 28.5817C0.00432325 28.3356 -0.019732 28.0738 0.0161885 27.8168V25.5419C0.0005986 25.3144 0.0338872 25.0861 0.113723 24.8725C0.193558 24.6588 0.31809 24.4647 0.479079 24.3032C0.640068 24.1416 0.833709 24.0163 1.04707 23.9357C1.26044 23.8551 1.48854 23.8211 1.71614 23.8359H15.4442C15.6687 23.8163 15.8949 23.8464 16.1065 23.924C16.3181 24.0017 16.51 24.1249 16.6687 24.2851C16.8273 24.4452 16.9486 24.6384 17.0242 24.8508C17.0999 25.0631 17.1278 25.2895 17.1062 25.5138V27.9638C17.1287 28.2006 17.0984 28.4396 17.0175 28.6633C16.9366 28.887 16.8071 29.0899 16.6383 29.2575C16.4694 29.4251 16.2655 29.5532 16.0412 29.6325C15.8169 29.7118 15.5778 29.74 15.3411 29.7158C13.0765 29.7191 10.8135 29.7196 8.5522 29.717Z" fill="#09A4DA"/>
</g>
<defs>
<clipPath id="clip0_2088_7829">
<rect width="30" height="30" fill="white"/>
</clipPath>
</defs>
</svg>
