<svg width="30" height="30" viewBox="0 0 30 30" fill="none" xmlns="http://www.w3.org/2000/svg">
<path d="M14.2831 29.9928L15.1642 26.7708L17.7231 17.3818L19.7852 9.81982C19.7923 9.8029 19.796 9.78468 19.796 9.7663C19.796 9.74791 19.7923 9.72972 19.7852 9.7128L11.3481 15.0758C11.4031 14.8678 11.4481 14.6878 11.4991 14.5138C11.9325 12.9505 12.3657 11.3885 12.7991 9.82782C12.8079 9.78869 12.8249 9.75184 12.8489 9.71964C12.8728 9.68743 12.9032 9.66058 12.9381 9.64081L20.9252 4.55682L28.0011 0.0568237L28.0812 0.0078125V0.164825C27.8082 1.30483 27.4751 2.42781 27.1711 3.55981C26.9271 4.46681 26.6772 5.37282 26.4312 6.27982C26.0805 7.56848 25.7288 8.85616 25.3761 10.1428C25.0948 11.1762 24.8131 12.2095 24.5311 13.2428L23.3871 17.4118L22.5481 20.4878L21.4801 24.4018L20.5421 27.8468C20.3511 28.5258 20.1741 29.2038 19.9851 29.8808C19.9775 29.9243 19.9586 29.965 19.9302 29.9988L14.2831 29.9928Z" fill="#3394FE"/>
<path d="M1.91309 29.9912C1.97409 29.6532 2.07905 29.3273 2.16705 28.9973C2.83972 26.4773 3.51443 23.9573 4.1911 21.4373C4.2008 21.3977 4.21823 21.3604 4.24243 21.3276C4.26664 21.2949 4.29712 21.2671 4.33209 21.2462L17.3391 12.8542L18.1611 12.3242C18.1151 12.5032 18.0771 12.6562 18.0351 12.8092L13.4771 29.8823C13.4604 29.9186 13.4546 29.9588 13.4601 29.9983L1.91309 29.9912Z" fill="#072654"/>
</svg>
