<svg width="30" height="30" viewBox="0 0 30 30" fill="none" xmlns="http://www.w3.org/2000/svg">
<g clip-path="url(#clip0_2088_7828)">
<path d="M23.233 13.9601C23.1055 13.2157 22.7241 12.5384 22.1539 12.0431C21.7193 11.6496 21.1581 11.4251 20.572 11.4102C20.3006 11.4155 20.0312 11.4592 19.772 11.5402C19.4492 11.6431 19.1557 11.8217 18.916 12.0612V12.0421L18.879 11.9121V11.8931C18.86 11.8191 18.86 11.7632 18.842 11.6702C18.824 11.5772 18.786 11.5581 18.693 11.5581H16.999C16.98 11.5771 16.98 11.5951 16.98 11.6511V21.1061C16.98 21.1251 16.98 21.1621 16.999 21.1621C17.018 21.1621 17.018 21.1812 17.036 21.1812H17.0549C17.7809 21.0322 18.377 20.9022 18.955 20.7902C18.9869 20.7874 19.0164 20.7722 19.0374 20.7479C19.0583 20.7236 19.069 20.6921 19.067 20.6602V18.5201C19.048 18.4831 19.0479 18.4642 19.0859 18.4462H19.105C19.119 18.4483 19.132 18.4549 19.142 18.4651L19.179 18.4841C19.5704 18.7832 20.0456 18.9524 20.538 18.9681C20.9894 18.9478 21.4296 18.8202 21.822 18.5961C22.4104 18.2447 22.8479 17.6879 23.05 17.0331C23.3895 16.0445 23.4527 14.982 23.233 13.9601ZM20.925 16.6031C20.8315 16.756 20.7002 16.8823 20.5438 16.9698C20.3875 17.0574 20.2112 17.1033 20.032 17.1031H20.0129C19.8504 17.1138 19.6875 17.0913 19.5339 17.037C19.3804 16.9827 19.2396 16.8976 19.12 16.7871C19.0861 16.7521 19.0662 16.7058 19.064 16.6571V15.9312C19.064 15.2052 19.045 14.4792 19.045 13.7542C19.0455 13.7226 19.0522 13.6915 19.0649 13.6626C19.0777 13.6337 19.0961 13.6077 19.119 13.5861C19.3582 13.3684 19.6706 13.2489 19.994 13.2511C20.1784 13.251 20.36 13.2967 20.5225 13.3839C20.6849 13.4712 20.8233 13.5973 20.925 13.7511C21.1394 14.0807 21.2673 14.459 21.297 14.8511C21.3117 14.9557 21.3181 15.0614 21.316 15.1671C21.3275 15.6726 21.1916 16.1705 20.925 16.6001V16.6031Z" fill="#6772E4"/>
<path d="M29.6191 13.4953C29.4313 12.8687 29.0453 12.3199 28.519 11.9314C28.0616 11.5917 27.5068 11.4089 26.9371 11.4104C26.622 11.4066 26.308 11.4504 26.006 11.5404C25.5883 11.6584 25.2032 11.8708 24.8805 12.1612C24.5579 12.4517 24.3063 12.8122 24.1451 13.2153C23.8077 13.9287 23.6601 14.7173 23.717 15.5044C23.7418 15.9352 23.8232 16.3608 23.959 16.7704C24.1093 17.2962 24.403 17.7698 24.8073 18.138C25.2116 18.5063 25.7104 18.7547 26.248 18.8553C26.5485 18.9139 26.8538 18.945 27.16 18.9484C27.36 18.9484 27.588 18.9294 27.793 18.9114C28.3393 18.8594 28.8702 18.7015 29.356 18.4464C29.383 18.4369 29.4064 18.4194 29.423 18.3961C29.4397 18.3728 29.4488 18.345 29.449 18.3164V16.7344L29.412 16.7534H29.393L29.319 16.7904C28.7589 17.0493 28.1491 17.1827 27.532 17.1814C27.3313 17.188 27.1305 17.1756 26.9321 17.1444C26.647 17.1196 26.3795 16.9962 26.1756 16.7954C25.9717 16.5946 25.8442 16.329 25.815 16.0443C25.806 16.0305 25.8012 16.0143 25.8012 15.9978C25.8012 15.9813 25.806 15.9652 25.815 15.9514C25.834 15.9324 25.852 15.9324 25.908 15.9324H29.668C29.854 15.9324 29.8541 15.9323 29.8541 15.7463V15.6344C29.9234 14.9117 29.8409 14.1824 29.612 13.4934L29.6191 13.4953ZM27.907 14.4073C27.888 14.4263 27.8701 14.4264 27.8331 14.4264H25.804C25.804 14.4074 25.785 14.3893 25.804 14.3703C25.787 14.1574 25.8261 13.9438 25.9175 13.7507C26.009 13.5577 26.1495 13.3921 26.325 13.2704C26.4843 13.162 26.6724 13.1035 26.865 13.1024C27.0918 13.1093 27.3102 13.1891 27.488 13.3299C27.6658 13.4708 27.7934 13.6653 27.852 13.8844C27.8858 14.0317 27.9104 14.181 27.926 14.3314C27.925 14.3514 27.909 14.3883 27.909 14.4073H27.907Z" fill="#6772E4"/>
<path d="M0.192026 16.5115C0.365026 16.5915 0.533064 16.6754 0.706064 16.7474C1.23229 16.9814 1.79544 17.1212 2.37 17.1604C2.54507 17.1717 2.7208 17.1521 2.88905 17.1024C2.97558 17.0841 3.05455 17.0402 3.11573 16.9763C3.17692 16.9124 3.21749 16.8317 3.23207 16.7445C3.24847 16.6586 3.23969 16.5698 3.20667 16.4889C3.17366 16.4079 3.1178 16.3383 3.04603 16.2884C2.83472 16.1396 2.60114 16.0252 2.35401 15.9495C1.97193 15.8233 1.59882 15.6716 1.23707 15.4955C0.841365 15.3086 0.515293 15.0008 0.30604 14.6164C0.144324 14.2802 0.0798616 13.9054 0.120005 13.5344C0.148966 13.0315 0.359338 12.5561 0.712046 12.1964C1.07263 11.836 1.5364 11.5966 2.03907 11.5115C2.99329 11.3332 3.97817 11.4221 4.88502 11.7684C4.93002 11.7854 4.9651 11.7984 4.9651 11.8614V13.7334C4.92549 13.7282 4.88776 13.7134 4.85511 13.6904C4.22841 13.3779 3.53735 13.2159 2.83705 13.2174C2.71449 13.2158 2.59272 13.2371 2.47804 13.2804C2.42978 13.2959 2.38505 13.3209 2.34645 13.3537C2.30784 13.3866 2.2761 13.4268 2.25306 13.4719C2.23002 13.5171 2.21612 13.5664 2.21217 13.6169C2.20821 13.6675 2.21437 13.7183 2.23011 13.7665C2.25057 13.8318 2.28861 13.8902 2.3401 13.9354C2.49472 14.0709 2.67685 14.1713 2.87403 14.2295C3.23103 14.3655 3.60201 14.4674 3.95301 14.6234C4.37229 14.7838 4.74037 15.0548 5.01808 15.4075C5.26473 15.763 5.38899 16.1891 5.37208 16.6214C5.3812 16.9145 5.32861 17.2061 5.21766 17.4774C5.10671 17.7488 4.93984 17.9937 4.72804 18.1964C4.34111 18.553 3.85634 18.7858 3.33607 18.8645C2.30362 19.0422 1.24184 18.9182 0.278086 18.5074C0.256905 18.5038 0.237823 18.4926 0.224375 18.4758C0.210927 18.4591 0.204045 18.438 0.205088 18.4165V16.5425L0.192026 16.5115Z" fill="#6772E4"/>
<path d="M5.76101 13.6331V10.303C5.76101 10.221 5.77999 10.189 5.86099 10.171C6.46999 10.046 7.07393 9.91607 7.68093 9.78407C7.76293 9.76507 7.78103 9.78398 7.78103 9.87098V11.457C7.78103 11.539 7.80101 11.563 7.88101 11.563H9.24002C9.31802 11.563 9.34793 11.5781 9.34793 11.6631V13.23C9.34793 13.304 9.32596 13.33 9.25296 13.323H7.88296C7.80296 13.323 7.777 13.344 7.777 13.423V16.2991C7.75776 16.4986 7.81842 16.6976 7.9457 16.8524C8.07299 17.0073 8.25648 17.1053 8.45596 17.125C8.50184 17.1297 8.54814 17.1297 8.59402 17.125C8.81907 17.127 9.04275 17.0898 9.25503 17.015C9.32003 16.993 9.34602 16.989 9.34402 17.073V18.5901C9.34727 18.6158 9.34126 18.6418 9.32717 18.6636C9.31309 18.6854 9.2918 18.7014 9.26699 18.709C8.99906 18.8232 8.71434 18.8932 8.42398 18.916C8.02076 18.9743 7.60992 18.9509 7.21597 18.8471C6.83201 18.7329 6.48994 18.5087 6.2322 18.202C5.97446 17.8954 5.81242 17.5199 5.76602 17.1221C5.73649 16.661 5.73011 16.1988 5.74697 15.7371V13.6371L5.76101 13.6331Z" fill="#6772E4"/>
<path d="M11.9261 12.16C12.0728 11.8833 12.3158 11.6697 12.6091 11.5599C12.9237 11.4542 13.2631 11.4466 13.5822 11.538C13.6016 11.5402 13.6194 11.5502 13.6316 11.5656C13.6438 11.5809 13.6495 11.6005 13.6472 11.62V13.385C13.6472 13.459 13.6172 13.45 13.5612 13.439C13.1734 13.3388 12.7619 13.3929 12.4132 13.59C12.3802 13.611 12.3481 13.635 12.3131 13.657C12.232 13.7083 12.1662 13.7805 12.1226 13.866C12.0789 13.9515 12.0591 14.0471 12.0652 14.143C12.0802 15.652 12.0652 17.164 12.0652 18.673C12.0652 18.773 12.0412 18.798 11.9392 18.798H10.0952C10.0192 18.798 9.99512 18.779 9.99512 18.698V11.6589C9.99512 11.5829 10.0142 11.559 10.0952 11.559H11.6952C11.7662 11.559 11.7951 11.574 11.8121 11.652C11.8441 11.812 11.8851 11.972 11.9261 12.16Z" fill="#6772E4"/>
<path d="M16.22 15.1888V18.6807C16.22 18.7807 16.192 18.7997 16.099 18.7957H14.2639C14.1769 18.7957 14.145 18.7808 14.145 18.6838V11.6728C14.145 11.5728 14.1769 11.5587 14.2639 11.5607H16.099C16.192 11.5607 16.22 11.5808 16.22 11.6778C16.2186 12.8411 16.2186 14.0114 16.22 15.1888Z" fill="#6772E4"/>
<path d="M16.217 9.65307V10.4161C16.2194 10.4281 16.2191 10.4403 16.2162 10.4521C16.2133 10.464 16.2078 10.4751 16.2002 10.4846C16.1926 10.4941 16.183 10.5019 16.1721 10.5073C16.1612 10.5128 16.1493 10.5157 16.1371 10.5161C15.5011 10.6501 14.8641 10.7821 14.2291 10.9161C14.1511 10.9331 14.1411 10.9161 14.1411 10.8431V9.33812C14.1411 9.27512 14.1561 9.23809 14.2231 9.23009C14.8598 9.09676 15.4958 8.9634 16.1311 8.83007C16.2131 8.81107 16.2171 8.83904 16.2151 8.90404C16.2151 9.13804 16.217 9.40207 16.217 9.65307Z" fill="#6772E4"/>
</g>
<defs>
<clipPath id="clip0_2088_7828">
<rect width="30" height="30" fill="white"/>
</clipPath>
</defs>
</svg>
