<svg width="62" height="75" viewBox="0 0 62 75" fill="none" xmlns="http://www.w3.org/2000/svg">
<g clip-path="url(#clip0_3_4955)">
<path d="M1.59998 5.59998H60.4V15.1H1.59998V5.59998Z" fill="#00B2CA"/>
<path opacity="0.1" d="M4.20001 15.2H57.8V51.6H4.20001V15.2Z" fill="#00B2CA"/>
<path d="M28.4 51.6H35.8V73H28.4V51.6Z" fill="#B3B0B5"/>
<path d="M26.3 1.5H35.9V9.3H26.3V1.5Z" fill="#F9F9F9"/>
<path d="M9.5 1.5H19.1V9.3H9.5V1.5Z" fill="#F9F9F9"/>
<path d="M43.1 1.5H52.7V9.3H43.1V1.5Z" fill="#F9F9F9"/>
<path d="M14.3 24.8V21H47.9V44.2H14.3V36.6" fill="#FA6E53"/>
<path d="M43.1 74.4001C43.4844 74.3862 43.8476 74.2206 44.11 73.9394C44.3724 73.6582 44.5127 73.2845 44.5 72.9001C44.5045 72.715 44.4714 72.5309 44.4026 72.359C44.3339 72.1871 44.2309 72.031 44.1 71.9C43.9691 71.7691 43.813 71.6662 43.6411 71.5974C43.4692 71.5287 43.2851 71.4955 43.1 71.5001H37.1V60.6001H51.7C52.0844 60.5862 52.4476 60.4206 52.71 60.1394C52.9724 59.8582 53.1127 59.4845 53.1 59.1001C53.1045 58.915 53.0714 58.7309 53.0027 58.559C52.9339 58.3871 52.8309 58.231 52.7 58.1C52.5691 57.9691 52.413 57.8662 52.2411 57.7974C52.0692 57.7287 51.8851 57.6955 51.7 57.7001H46.4V53.2001H57.6C57.9948 53.1904 58.3707 53.0293 58.65 52.7501C58.9292 52.4708 59.0904 52.0949 59.1 51.7001V16.6001H60.3C60.6948 16.5904 61.0707 16.4293 61.35 16.1501C61.6292 15.8708 61.7904 15.4949 61.8 15.1001V5.60006C61.7904 5.20527 61.6292 4.82932 61.35 4.55008C61.0707 4.27083 60.6948 4.1097 60.3 4.10006H54V1.50006C53.9904 1.10527 53.8292 0.729317 53.55 0.450075C53.2707 0.170833 52.8948 0.00970292 52.5 6.34217e-05H42.9C42.5052 0.00970292 42.1293 0.170833 41.85 0.450075C41.5708 0.729317 41.4096 1.10527 41.4 1.50006V4.20006H37V1.50006C37.0263 1.3138 37.0124 1.12407 36.9591 0.943651C36.9059 0.763232 36.8146 0.596322 36.6914 0.454171C36.5682 0.31202 36.416 0.197932 36.245 0.119598C36.0739 0.0412633 35.8881 0.000502642 35.7 6.34217e-05H26.1C25.7052 0.00970292 25.3293 0.170833 25.05 0.450075C24.7708 0.729317 24.6096 1.10527 24.6 1.50006V4.20006H20.3V1.50006C20.3151 1.30768 20.2901 1.11425 20.2264 0.932078C20.1627 0.749905 20.0619 0.582973 19.9302 0.441895C19.7985 0.300818 19.6389 0.188681 19.4616 0.112616C19.2842 0.0365506 19.093 -0.00177927 18.9 6.34217e-05H9.3C8.90521 0.00970292 8.52925 0.170833 8.25001 0.450075C7.97077 0.729317 7.80964 1.10527 7.8 1.50006V4.20006H1.5C1.11559 4.18737 0.741831 4.32762 0.460653 4.59005C0.179475 4.85248 0.0138201 5.21569 0 5.60006L0 15.1001C0.0096395 15.4949 0.170769 15.8708 0.450012 16.1501C0.729254 16.4293 1.10521 16.5904 1.5 16.6001H2.7V51.6001C2.70964 51.9949 2.87077 52.3708 3.15001 52.6501C3.42925 52.9293 3.80521 53.0904 4.2 53.1001H17.5V57.6001H4.1C3.71563 57.6139 3.35242 57.7795 3.08999 58.0607C2.82755 58.3419 2.68731 58.7157 2.7 59.1001C2.69548 59.2851 2.72859 59.4692 2.79735 59.6411C2.8661 59.813 2.96906 59.9692 3.09998 60.1001C3.23089 60.231 3.38704 60.334 3.55894 60.4027C3.73084 60.4715 3.91491 60.5046 4.1 60.5001H26.8V71.4001H20.8C20.4156 71.4139 20.0524 71.5795 19.79 71.8607C19.5276 72.1419 19.3873 72.5157 19.4 72.9001C19.3955 73.0851 19.4286 73.2692 19.4974 73.4411C19.5661 73.613 19.6691 73.7692 19.8 73.9001C19.9309 74.031 20.087 74.134 20.2589 74.2027C20.4308 74.2715 20.6149 74.3046 20.8 74.3001H43.1V74.4001ZM44.5 2.90006H51.1V7.70006H44.5V2.90006ZM27.6 2.90006H34.2V7.70006H27.6V2.90006ZM10.8 2.90006H17.4V7.70006H10.8V2.90006ZM2.9 13.7001V7.10006H7.8V9.20006C7.80964 9.59485 7.97077 9.97081 8.25001 10.2501C8.52925 10.5293 8.90521 10.6904 9.3 10.7001H18.9C19.2948 10.6904 19.6707 10.5293 19.95 10.2501C20.2292 9.97081 20.3904 9.59485 20.4 9.20006V7.10006H24.7V9.20006C24.7096 9.59485 24.8708 9.97081 25.15 10.2501C25.4293 10.5293 25.8052 10.6904 26.2 10.7001H35.8C36.1948 10.6904 36.5707 10.5293 36.85 10.2501C37.1292 9.97081 37.2904 9.59485 37.3 9.20006V7.10006H41.7V9.20006C41.7096 9.59485 41.8708 9.97081 42.15 10.2501C42.4293 10.5293 42.8052 10.6904 43.2 10.7001H52.8C53.1948 10.6904 53.5707 10.5293 53.85 10.2501C54.1292 9.97081 54.2904 9.59485 54.3 9.20006V7.10006H59.1V13.7001H2.9ZM20.4 57.6001V53.1001H26.8V57.6001H20.4ZM34.2 71.5001H29.7V53.1001H34.2V71.5001ZM43.6 57.6001H37.2V53.1001H43.6V57.6001ZM5.6 50.1001V16.6001H56.2V50.1001H5.6Z" fill="black"/>
<path d="M14.1 26.3C14.4948 26.2903 14.8707 26.1292 15.15 25.85C15.4292 25.5707 15.5903 25.1948 15.6 24.8V22.5H46.3V42.8H15.6V36.7C15.5862 36.3156 15.4205 35.9524 15.1393 35.69C14.8581 35.4275 14.4844 35.2873 14.1 35.3C13.9149 35.2954 13.7308 35.3286 13.5589 35.3973C13.387 35.4661 13.2309 35.569 13.1 35.7C12.969 35.8309 12.8661 35.987 12.7973 36.1589C12.7286 36.3308 12.6955 36.5149 12.7 36.7V44.3C12.7096 44.6948 12.8707 45.0707 13.15 45.35C13.4292 45.6292 13.8052 45.7903 14.2 45.8H47.8C48.1948 45.7903 48.5707 45.6292 48.85 45.35C49.1292 45.0707 49.2903 44.6948 49.3 44.3V21.1C49.2903 20.7052 49.1292 20.3292 48.85 20.05C48.5707 19.7707 48.1948 19.6096 47.8 19.6H14.1C13.7052 19.6096 13.3292 19.7707 13.05 20.05C12.7707 20.3292 12.6096 20.7052 12.6 21.1V24.9C12.6096 25.2948 12.7707 25.6707 13.05 25.95C13.3292 26.2292 13.7052 26.3903 14.1 26.4V26.3Z" fill="black"/>
<path d="M23.2 38.1C23.3788 38.0943 23.5515 38.0336 23.6947 37.9263C23.8378 37.8189 23.9444 37.6701 24 37.5C24 37.3 24.5 35.7 24.5 35.7H27.8L28.3 37.6C28.6 38.6 30.9 37.9 30.6 36.9L27.7 27.4C27.3 26.3 24.9 26.3 24.5 27.4C23.6 30.3 22.8 33.1 21.9 36C21.7 36.7 21.3 37.4 22.2 37.9C22.4712 38.0604 22.7864 38.1304 23.1 38.1H23.2ZM26.2 29.7L27.3 33.9H25L26.1 29.7H26.2Z" fill="black"/>
<path d="M33.4 38.1H36.1C37.1058 38.1088 38.0877 37.7932 38.9 37.2C39.3013 36.7792 39.6002 36.2717 39.7736 35.7168C39.947 35.1618 39.9903 34.5744 39.9 34V30.9C39.9633 30.0794 39.826 29.2557 39.5 28.5C39.1599 27.9106 38.6605 27.429 38.0591 27.1106C37.4576 26.7922 36.7786 26.6499 36.1 26.7H33.4C33 26.7 32.3 26.9 32.3 27.4V37.3C32.3 37.8 32.9 38 33.4 38V38.1ZM34.8 28.8C36.1 28.8 37.6 28.6 37.6 30.4V34.4C37.6 36.1 36.1 36 34.8 36V28.8Z" fill="black"/>
<path d="M12.8 31.2C12.9088 31.4671 13.0943 31.6959 13.3331 31.8576C13.572 32.0192 13.8534 32.1064 14.1417 32.1081C14.4301 32.1098 14.7125 32.026 14.9532 31.8672C15.194 31.7083 15.3822 31.4817 15.4941 31.2159C15.606 30.9501 15.6366 30.6571 15.582 30.374C15.5273 30.0908 15.39 29.8302 15.1872 29.6251C14.9845 29.42 14.7254 29.2797 14.4429 29.2218C14.1604 29.1639 13.8671 29.1911 13.6 29.3C13.2518 29.4577 12.976 29.741 12.8277 30.0932C12.6794 30.4455 12.6695 30.8408 12.8 31.2Z" fill="black"/>
<path d="M57.4 57.6C57.1133 57.6495 56.8478 57.7829 56.6369 57.9833C56.4261 58.1837 56.2794 58.4421 56.2154 58.7259C56.1514 59.0097 56.1729 59.3061 56.2774 59.5776C56.3818 59.8491 56.5644 60.0836 56.802 60.2513C57.0397 60.4191 57.3217 60.5126 57.6125 60.5201C57.9034 60.5275 58.1898 60.4486 58.4358 60.2933C58.6818 60.1379 58.8761 59.9132 58.9944 59.6474C59.1126 59.3816 59.1493 59.0867 59.1 58.8C59.1044 58.66 59.0698 58.5215 59 58.4C58.8492 58.1172 58.6142 57.8882 58.3276 57.7449C58.0409 57.6016 57.7167 57.5509 57.4 57.6Z" fill="black"/>
</g>
<defs>
<clipPath id="clip0_3_4955">
<rect width="61.8" height="74.4" fill="white"/>
</clipPath>
</defs>
</svg>
