<svg width="339" height="248" viewBox="0 0 339 248" fill="none" xmlns="http://www.w3.org/2000/svg">
<g clip-path="url(#clip0_3_5298)">
<path d="M270.7 56.6H238.2V119.2H270.7V56.6Z" fill="#F4F5F9"/>
<path d="M108.8 113.9V17.5L230.4 49.2L108.8 113.9Z" fill="#F4F5F9"/>
<path d="M104 0L56.7 49.6V121H104V0Z" fill="#F4F5F9"/>
<path d="M101 203L70.5 180.9V130.9H101V203Z" fill="#F4F5F9"/>
<path d="M109.7 130.5V226.9L231.3 244V130.5H109.7Z" fill="#F4F5F9"/>
<path d="M121.9 222.7H117.8C117.619 222.4 117.548 222.046 117.6 221.7C117.6 221.1 117.8 220.6 118.1 220.6H121.8C122.1 220.6 122.3 221 122.3 221.6C122.334 221.802 122.315 222.01 122.245 222.203C122.174 222.395 122.056 222.567 121.9 222.7Z" fill="#F4CABA"/>
<path d="M230.4 121H108.8L230.4 56.7V121Z" fill="#F4F5F9"/>
<path d="M117.5 221.5L122.5 221.9C122.5 221.9 135.6 180.1 137.7 145.9C137.7 145.9 135.9 187 141.4 221.4H147.4C152.313 190.341 154.788 158.945 154.8 127.5H121.4C118.7 154.4 115.7 189.7 117.6 221.6" fill="#05293C"/>
<path d="M137.7 145.8C137.7 145.8 135.9 186.9 141.4 221.3H147.2C152.283 190.259 154.824 158.855 154.8 127.4C154.8 127.4 118.9 133.6 117.6 221.5H121.8C121.8 221.5 135.6 180 137.7 145.8Z" fill="#011721"/>
<path d="M117.7 222.5L110.7 225.9C110.596 226.139 110.59 226.409 110.683 226.653C110.777 226.896 110.963 227.092 111.2 227.2H122C122.265 227.2 122.52 227.095 122.707 226.907C122.895 226.72 123 226.465 123 226.2V226L122.1 222.5H117.7Z" fill="#00B2CA"/>
<path d="M142 222.5L140.5 225.9C140.396 226.139 140.39 226.409 140.483 226.653C140.577 226.896 140.762 227.092 141 227.2H147.9C148.165 227.2 148.419 227.095 148.607 226.907C148.795 226.72 148.9 226.465 148.9 226.2V226L146.4 222.5H142Z" fill="#00B2CA"/>
<path d="M146.4 222.6H142C141.999 222.192 141.932 221.786 141.8 221.4H147.1C147.1 222.3 146.5 222.4 146.4 222.7" fill="#F4CABA"/>
<path d="M230.4 163.2C230.4 151.477 225.743 140.235 217.454 131.946C209.165 123.657 197.923 119 186.2 119C174.477 119 163.235 123.657 154.946 131.946C146.657 140.235 142 151.477 142 163.2C142.015 172.115 144.696 180.822 149.7 188.2C152 191.5 168.1 211.3 178.1 223.5C179.852 225.646 182.384 227.009 185.14 227.29C187.896 227.571 190.651 226.748 192.8 225C193.349 224.551 193.851 224.049 194.3 223.5C204.4 211.2 220.6 191.4 222.9 188C227.871 180.686 230.52 172.043 230.5 163.2" fill="#011721"/>
<path opacity="0.9" d="M230.4 163.2C230.4 151.477 225.743 140.235 217.454 131.946C209.165 123.657 197.923 119 186.2 119C174.477 119 163.235 123.657 154.946 131.946C146.657 140.235 142 151.477 142 163.2C142.015 172.115 144.696 180.822 149.7 188.2C152 191.5 168.1 211.3 178.1 223.5C179.852 225.646 182.384 227.009 185.14 227.29C187.896 227.571 190.651 226.748 192.8 225C193.349 224.551 193.851 224.049 194.3 223.5C204.4 211.2 220.6 191.4 222.9 188C227.871 180.686 230.52 172.043 230.5 163.2" fill="#00B2CA"/>
<path d="M92 61.9C91.8309 61.8967 91.6641 61.8596 91.5096 61.7909C91.355 61.7222 91.2157 61.6233 91.1 61.5C90.4126 60.7443 89.7778 59.9424 89.2 59.1C88.6709 58.3304 88.4686 57.3825 88.6373 56.464C88.806 55.5455 89.332 54.7313 90.1 54.2C90.6929 53.8071 91.3887 53.5984 92.1 53.6C93.0248 53.6111 93.9085 53.9835 94.5625 54.6374C95.2165 55.2914 95.5888 56.1752 95.6 57.1C95.6016 57.8112 95.3929 58.5071 95 59.1C94.8 59.3 93.8 60.6 93 61.5C92.8921 61.6329 92.7543 61.7384 92.5979 61.8079C92.4415 61.8774 92.2709 61.909 92.1 61.9M92 54.6C91.6708 54.5968 91.3443 54.6593 91.0395 54.7838C90.7347 54.9083 90.4579 55.0923 90.2251 55.3251C89.9923 55.5579 89.8083 55.8347 89.6838 56.1395C89.5593 56.4443 89.4968 56.7708 89.5 57.1C89.5259 57.5909 89.6627 58.0695 89.9 58.5C90 58.7 90.7 59.5 91.8 60.9C91.8 60.9 92 61 92.1 60.9C92.7785 60.1368 93.4129 59.3355 94 58.5C94.1897 58.2261 94.3223 57.9169 94.3898 57.5907C94.4574 57.2645 94.4586 56.928 94.3932 56.6013C94.3279 56.2747 94.1974 55.9645 94.0096 55.6894C93.8218 55.4143 93.5804 55.1798 93.3 55C92.889 54.7186 92.3977 54.5782 91.9 54.6" fill="#F4F5F9"/>
<path d="M152.7 74L129.3 75.2C128.672 75.2552 128.082 75.5233 127.627 75.9597C127.173 76.3962 126.881 76.9749 126.8 77.6C125.4 84.7 121.4 107 122.4 122.8C122.4 122.8 122.5 127.6 126.2 127.6L156.9 126.1C156.9 126.1 158.6 126.1 158.6 123L156 77.4C155.992 76.5271 155.642 75.6921 155.025 75.0749C154.408 74.4577 153.573 74.1076 152.7 74.1" fill="#011721"/>
<path d="M147.5 74.2L146.8 73.1H136.3L134.8 74.9L148 75.4L147.6 74.2H147.5Z" fill="#011721"/>
<path d="M90.2 64.9L88.3 64.7H88.2C88.2 64.8 92.2 73.1 92.2 73.1L93.9 72.5L90.3 64.8L90.2 64.9Z" fill="#011721"/>
<path d="M92.0999 72.9L88.2999 64.8L90.0999 65L93.5999 72.4L92.0999 72.9Z" fill="#F4F5F9"/>
<path d="M141.4 73.9V74V74.1C141.4 74.1 141.4 74.3 141.3 74.3V74.4L141.1 74.6C141.1 74.6265 141.089 74.6519 141.071 74.6707C141.052 74.6894 141.026 74.7 141 74.7H140.9C140.9 74.7 140.7 74.7 140.7 74.8H137.6C137.6 74.8 137.4 74.8 137.4 74.7H137.3C137.3 74.6 137.4 74.4 137.4 74.3C137.4 74.0613 137.305 73.8324 137.136 73.6636C136.968 73.4948 136.739 73.4 136.5 73.4L134.9 73.9C134.769 73.9589 134.628 73.9901 134.485 73.9914C134.342 73.9928 134.2 73.9644 134.068 73.908C133.936 73.8516 133.818 73.7684 133.72 73.6637C133.622 73.559 133.547 73.4352 133.5 73.3L132.4 70.8C132.315 70.6075 132.28 70.3969 132.298 70.1873C132.315 69.9777 132.385 69.7758 132.5 69.6L134.7 66.7L139.6 67.3L141 72.1C141.187 72.6385 141.457 73.1446 141.8 73.6" fill="#EDB29F"/>
<path d="M192.8 117.2L189.3 119.8C178.7 107.9 162.4 96.8 156 92.6C155.825 92.4804 155.627 92.3982 155.419 92.3586C155.211 92.319 154.997 92.3227 154.791 92.3697C154.584 92.4166 154.39 92.5057 154.219 92.6314C154.049 92.7571 153.906 92.9166 153.8 93.1C153.597 93.3933 153.492 93.7433 153.5 94.1C154.3 105.4 154.7 127.5 154.7 127.5C138 135.2 121.3 127.5 121.3 127.5C121.3 126.9 125.4 92.4 125.4 92.4C120.356 97.675 114.162 101.713 107.3 104.2C97.6999 98.7 91.2999 77.8 91.2999 77.8L94.9999 75.6L108.5 93.3C108.5 93.3 115.4 87.2 122 82C126.132 78.7069 131.007 76.4753 136.2 75.5C136.303 75.5019 136.405 75.4747 136.493 75.4217C136.581 75.3687 136.653 75.2918 136.7 75.2V75.1H136.8C136.877 75.1073 136.948 75.1429 137 75.2H140.1C140.1 75.2 140.3 75.2 140.3 75.1H140.4C140.426 75.1 140.452 75.0894 140.471 75.0707C140.489 75.0519 140.5 75.0265 140.5 75L140.7 74.8V74.7C140.7 74.7 140.7 74.5 140.8 74.5V74.4V74.3C141.437 74.9107 142.235 75.327 143.1 75.5C144.269 75.6461 145.412 75.9488 146.5 76.4C170.4 85.2 192.3 117.6 192.3 117.6" fill="#00B2CA"/>
<path d="M133.2 63.3C133.2 63.3 130.5 66.4 134.4 68.2C134.4 68.2 134.1 70.7 137.4 69.8C137.4 69.8 139.3 69 139.2 70.6C139.2 70.6 139.8 73.7 141.3 73.7C141.966 73.299 142.483 72.6911 142.772 71.9689C143.061 71.2468 143.106 70.45 142.9 69.7C142.9 69.7 145 66 141.8 65C141.8 65 141.8 62.1 137.6 63.2C137.6 63.2 136 60.4 133.3 63.2" fill="#011721"/>
<path d="M91.3999 77.7L88.8999 74.5C88.6279 74.1509 88.441 73.7431 88.3542 73.3091C88.2674 72.8751 88.2831 72.4269 88.3999 72L89.6999 68L91.9999 71.8L92.2999 71.2C92.3989 71.0612 92.5394 70.9575 92.7011 70.9036C92.8628 70.8497 93.0374 70.8484 93.1999 70.9C93.2842 70.9291 93.3578 70.9827 93.4112 71.054C93.4647 71.1253 93.4956 71.211 93.4999 71.3L94.9999 75.6L91.2999 77.8L91.3999 77.7Z" fill="#EDB29F"/>
<path d="M121.3 127.5C121.3 127.5 138 135.2 154.7 127.5C154.7 127.5 154.5 114.8 154.1 103.8C135.2 106.4 121.3 127.5 121.3 127.5Z" fill="#011721"/>
<path opacity="0.9" d="M121.3 127.5C121.3 127.5 138 135.2 154.7 127.5C154.7 127.5 154.5 114.8 154.1 103.8C135.2 106.4 121.3 127.5 121.3 127.5Z" fill="#00B2CA"/>
<path d="M123.5 108.5C123.5 108.5 122.5 109.6 122.4 106.6C122.4 101.8 123.7 90.3 128.9 75.1H131.5C131.5 75 125.4 92.4 123.5 108.5Z" fill="#05293C"/>
<path d="M157.9 112.1C151.5 99.1 152.9 78.7 152.2 75.6C152.18 75.2584 152.067 74.9288 151.873 74.6468C151.679 74.3648 151.412 74.1412 151.1 74H148.6C148.98 74.0678 149.326 74.2633 149.581 74.5541C149.835 74.845 149.983 75.2139 150 75.6C150 75.6 149 107.2 158.1 115.9L157.9 112V112.1Z" fill="#05293C"/>
<path d="M156.9 97H158.3L159 108.7H157.2L156.9 97Z" fill="#011721"/>
<path d="M155.6 109.8C155.6 109.8 130.4 128.6 123.6 110.2L122.6 107.9V111C122.5 111 127.2 131 156.4 112.5L155.6 109.8Z" fill="#05293C"/>
<path d="M132.4 118.3C132.395 118.03 132.428 117.76 132.5 117.5C132.9 117.1 134.3 117.5 134.3 117.5C134.392 117.498 134.484 117.514 134.57 117.549C134.656 117.583 134.734 117.635 134.8 117.7C134.865 117.766 134.917 117.844 134.951 117.93C134.986 118.015 135.002 118.107 135 118.2V119.9C135 120.3 134.8 120.7 134.4 120.7H133.2C133.01 120.666 132.837 120.569 132.709 120.423C132.582 120.278 132.508 120.093 132.5 119.9V118.4L132.4 118.3Z" fill="#05293C"/>
<path d="M160.8 202.3C160.815 188.204 166.427 174.691 176.404 164.733C186.381 154.775 199.904 149.188 214 149.2C218.975 149.196 223.925 149.904 228.7 151.3C225.519 140.032 218.003 130.484 207.798 124.744C197.593 119.005 185.53 117.542 174.249 120.677C162.968 123.811 153.388 131.287 147.607 141.468C141.825 151.649 140.312 163.706 143.4 175C144.711 179.668 146.771 184.092 149.5 188.1C151.4 190.9 163 205.2 172.6 216.9C168.7 212.1 164.5 206.9 160.7 202.2" fill="#00B2CA"/>
<path d="M210.8 163.2C210.8 168.065 209.357 172.822 206.654 176.867C203.951 180.912 200.109 184.065 195.614 185.927C191.119 187.789 186.173 188.276 181.401 187.327C176.629 186.378 172.246 184.035 168.805 180.595C165.365 177.154 163.022 172.771 162.073 167.999C161.123 163.227 161.611 158.281 163.473 153.786C165.334 149.291 168.488 145.449 172.533 142.746C176.578 140.043 181.335 138.6 186.2 138.6C189.431 138.598 192.631 139.232 195.617 140.468C198.602 141.703 201.315 143.515 203.6 145.8C205.885 148.085 207.697 150.797 208.932 153.783C210.168 156.769 210.802 159.969 210.8 163.2Z" fill="#FA6E53"/>
<path d="M166.6 178.2C170.483 183.244 176.17 186.588 182.466 187.53C188.761 188.471 195.177 186.937 200.366 183.249C205.555 179.561 209.113 174.006 210.294 167.751C211.475 161.496 210.187 155.026 206.7 149.7C198.216 150.874 190.141 154.078 183.16 159.039C176.179 164.001 170.498 170.574 166.6 178.2Z" fill="#011721"/>
<path opacity="0.9" d="M166.6 178.2C170.483 183.244 176.17 186.588 182.466 187.53C188.761 188.471 195.177 186.937 200.366 183.249C205.555 179.561 209.113 174.006 210.294 167.751C211.475 161.496 210.187 155.026 206.7 149.7C198.216 150.874 190.141 154.078 183.16 159.039C176.179 164.001 170.498 170.574 166.6 178.2Z" fill="#FA6E53"/>
<path d="M247.8 108.1C243.479 108.07 239.227 107.007 235.4 105C229.095 101.715 224.012 96.492 220.9 90.1C213 90.6 205.1 90.8 197.4 91C190.8 91.1 184 91.3 177.2 91.7C177.2 91.7 177 91.7 177 91.6C177 91.5737 177.005 91.5477 177.015 91.5234C177.025 91.4992 177.04 91.4771 177.059 91.4586C177.077 91.44 177.099 91.4253 177.123 91.4152C177.148 91.4052 177.174 91.4 177.2 91.4C184 91 190.8 90.9 197.4 90.7C205.1 90.5 212.9 90.4 220.8 89.8C220.086 88.325 219.517 86.7845 219.1 85.2C216.1 74.8 220.5 61.5 229.3 54.9C236 49.8 243.8 49.7 251.3 54.4C254.045 56.1753 256.269 58.6476 257.744 61.5642C259.22 64.4808 259.895 67.7371 259.7 71C259.522 73.4835 258.804 75.8982 257.595 78.0748C256.385 80.2513 254.715 82.1371 252.7 83.6C249.1 86.1 244.8 87 240.6 87.8C234.28 88.917 227.904 89.6848 221.5 90.1C224.602 96.382 229.606 101.526 235.8 104.8C238.942 106.462 242.391 107.461 245.934 107.736C249.477 108.011 253.039 107.557 256.4 106.4C266.787 102.465 275.364 94.8485 280.5 85C286.3 74 286.3 63.6 280.5 52.2C269.5 30.5 249.7 18.4 221.5 16.4C192.6 14.3 164 23.5 149.6 29.1C142.4 31.9 132.1 34.9 125.9 28.7C123.4 26.2 122.1 22.2 122.2 17.8C122.3 13.8 123.5 9.99999 124.7 6.19999L125 5.39999C125.054 5.34562 125.124 5.31048 125.2 5.29999C125.254 5.35388 125.289 5.42416 125.3 5.49999L125 6.29999C123.8 9.99999 122.6 13.9 122.5 17.8C122.4 22.1 123.7 26 126.1 28.5C132.1 34.6 142.3 31.6 149.4 28.8C163.9 23.2 192.4 14 221.4 16.1C234.5 17 246 20.3 255.6 25.6C266.417 31.7073 275.133 40.9456 280.6 52.1C286.4 63.6 286.4 74.1 280.6 85.2C275.2 95.3 266.4 103.2 256.4 106.8C253.677 107.798 250.8 108.306 247.9 108.3M240.4 51.3C236.427 51.3106 232.578 52.6876 229.5 55.2C220.8 61.7 216.4 74.9 219.4 85.1C219.895 86.7047 220.497 88.2748 221.2 89.8C227.637 89.3789 234.046 88.6111 240.4 87.5C244.6 86.8 248.9 85.8 252.4 83.4C254.381 81.9574 256.024 80.101 257.215 77.9598C258.407 75.8185 259.118 73.4437 259.3 71C259.498 67.8005 258.843 64.6058 257.402 61.7421C255.962 58.8784 253.787 56.4484 251.1 54.7C247.919 52.5938 244.213 51.4164 240.4 51.3Z" fill="#432D29"/>
<path d="M72.3999 217.6C71.1692 217.57 69.9521 217.334 68.7999 216.9C65.2999 215.6 62.4999 212.8 60.5999 210.5C57.6063 207.222 55.2948 203.38 53.7999 199.2C52.2999 194.962 52.2999 190.338 53.7999 186.1C55.5347 181.971 58.6924 178.6 62.6999 176.6C67.6405 174.195 73.1138 173.094 78.5999 173.4C78.6011 167.24 79.3057 161.1 80.6999 155.1C84.1836 140.169 92.6047 126.85 104.6 117.3C107.987 114.631 111.527 112.16 115.2 109.9H115.4V110.1C111.728 112.326 108.189 114.763 104.8 117.4C92.8086 126.85 84.4104 140.118 80.9999 155C79.6058 160.966 78.9011 167.073 78.8999 173.2C92.5999 173.7 107.7 180.1 118.8 184.8L119.9 185.2C124.9 187.3 129.9 189.8 134.8 192.1C153.2 201 172.3 210.3 193.1 205.5C205.8 202.6 218.6 194.2 224.2 185.1H224.4V185.3C218.8 194.4 205.9 202.9 193.1 205.8C172.2 210.6 153.1 201.4 134.6 192.4C129.7 190 124.6 187.6 119.7 185.5L118.6 185.1C107.5 180.4 92.4999 174 78.7999 173.5C78.7999 179.6 79.0999 185.8 79.3999 191.8C79.6999 196.6 79.9999 201.7 79.9999 206.5C79.9999 210.7 78.5999 214.3 76.1999 216C75.0508 216.784 73.6913 217.203 72.2999 217.2M77.2999 173.8C72.2503 173.713 67.2503 174.809 62.6999 177C58.7344 178.928 55.6063 182.234 53.8999 186.3C52.3999 190.435 52.3999 194.965 53.8999 199.1C55.4197 203.239 57.7292 207.042 60.6999 210.3C62.8094 213.065 65.6003 215.236 68.7999 216.6C71.5999 217.6 74.0999 217.5 75.9999 216.2C78.2999 214.5 79.6999 211.1 79.6999 207C79.6999 202.1 79.3999 197.1 79.0999 192.3C78.6999 186.2 78.3999 180.1 78.4999 173.9H77.2999" fill="#432D29"/>
<path d="M125 5.99998C125 5.99998 125.8 6.09998 125.9 5.99998C126.1 5.79998 125.9 5.09998 125.7 4.69998C125.7 4.49998 125.4 4.39998 125.2 4.49998C124.7 4.69998 124 4.99999 124.1 5.29999C124.1 5.59999 125.1 5.99998 125.1 5.99998" fill="#F4F5F9"/>
<path d="M108.7 181L108.4 182C108.4 182.2 108.1 182.3 107.9 182.3C107.823 182.293 107.752 182.257 107.7 182.2L107 181.4L106.3 180.6C106.1 180.4 106.2 180.2 106.3 180H106.5L107.5 179.8L108.5 179.6C108.7 179.6 109 179.7 109 179.9V180.1L108.7 181.1V181Z" fill="#011721"/>
<path d="M79.5999 213.3V214.4C79.6052 214.454 79.5985 214.508 79.5803 214.559C79.562 214.61 79.5327 214.656 79.4945 214.695C79.4562 214.733 79.41 214.762 79.359 214.78C79.3081 214.799 79.2538 214.805 79.1999 214.8H78.9999L78.0999 214.3L77.1999 213.8C77.0997 213.741 77.0242 213.648 76.9875 213.537C76.9507 213.427 76.9551 213.307 76.9999 213.2C76.9999 213.2 76.9999 213.1 77.1999 213L78.0999 212.4L78.9999 211.8C79.1 211.763 79.208 211.753 79.3132 211.77C79.4184 211.788 79.5172 211.833 79.5999 211.9V213.3Z" fill="#011721"/>
<path d="M102.2 120.7L102 121.7C101.991 121.755 101.97 121.807 101.939 121.853C101.908 121.899 101.867 121.937 101.819 121.966C101.772 121.994 101.719 122.012 101.663 122.018C101.608 122.024 101.552 122.018 101.5 122H101.3L100.5 121.3L99.6999 120.6C99.6533 120.565 99.6156 120.52 99.5895 120.468C99.5635 120.416 99.5499 120.358 99.5499 120.3C99.5499 120.242 99.5635 120.184 99.5895 120.132C99.6156 120.08 99.6533 120.035 99.6999 120C99.7767 119.993 99.848 119.957 99.8999 119.9L100.9 119.6L101.9 119.3C102.1 119.3 102.4 119.3 102.4 119.6V119.8L102.2 120.8V120.7Z" fill="#011721"/>
<path d="M253.3 83.9L252.9 84.9C252.9 85.1 252.5 85.2 252.3 85.1C252.223 85.0927 252.152 85.057 252.1 85L251.5 84.1L250.9 83.2C250.863 83.0999 250.853 82.992 250.87 82.8867C250.888 82.7815 250.933 82.6827 251 82.6H252.3L253.4 82.4C253.51 82.4191 253.614 82.4658 253.701 82.5357C253.789 82.6057 253.857 82.6966 253.9 82.8V83L253.4 84L253.3 83.9Z" fill="#011721"/>
<path d="M285.7 66.7L286.3 67.6C286.35 67.6921 286.376 67.7952 286.376 67.9C286.376 68.0048 286.35 68.1079 286.3 68.2H285C285 68.3 283.9 68.4 283.9 68.4C283.783 68.4005 283.67 68.361 283.579 68.2882C283.488 68.2155 283.425 68.1137 283.4 68V67.8L283.8 66.8L284.2 65.8C284.2 65.6 284.5 65.5 284.8 65.6C284.877 65.6073 284.948 65.6429 285 65.7L285.6 66.6L285.7 66.7Z" fill="#011721"/>
<path d="M208.3 16.1V17.2C208.293 17.3038 208.248 17.4015 208.175 17.475C208.101 17.5486 208.004 17.593 207.9 17.6H207.7L206.8 17.1L205.9 16.6C205.847 16.5733 205.801 16.5345 205.766 16.4868C205.731 16.4391 205.707 16.3838 205.698 16.3253C205.688 16.2669 205.692 16.207 205.71 16.1504C205.728 16.0939 205.758 16.0424 205.8 16C205.8 16 205.8 15.9 206 15.8L206.9 15.3L207.8 14.8C207.907 14.7552 208.027 14.7507 208.137 14.7875C208.248 14.8243 208.341 14.8998 208.4 15V16.3L208.3 16.1Z" fill="#011721"/>
<path d="M279.9 164.9L238.3 173.1V130.9H270.8L279.9 164.9Z" fill="#F4F5F9"/>
<path d="M189.4 119.8L189.9 121.2L191.2 124.6C191.352 125.006 191.656 125.337 192.048 125.524C192.44 125.71 192.889 125.738 193.3 125.6C193.4 125.6 193.5 125.5 193.6 125.4L194.6 124.7C195.261 124.248 195.717 123.552 195.867 122.765C196.017 121.978 195.849 121.164 195.4 120.5C195.393 120.423 195.357 120.352 195.3 120.3L192.9 117.2L189.4 119.8Z" fill="#EDB29F"/>
<path d="M238.2 227.5H92.4999C92.4469 227.5 92.396 227.479 92.3585 227.441C92.321 227.404 92.2999 227.353 92.2999 227.3C92.2999 227.247 92.321 227.196 92.3585 227.159C92.396 227.121 92.4469 227.1 92.4999 227.1H238.2C238.253 227.1 238.304 227.121 238.341 227.159C238.379 227.196 238.4 227.247 238.4 227.3C238.4 227.353 238.379 227.404 238.341 227.441C238.304 227.479 238.253 227.5 238.2 227.5Z" fill="#011721"/>
</g>
<defs>
<clipPath id="clip0_3_5298">
<rect width="339" height="248" fill="white"/>
</clipPath>
</defs>
</svg>
