<svg width="186" height="186" viewBox="0 0 186 186" fill="none" xmlns="http://www.w3.org/2000/svg">
<g clip-path="url(#clip0_3_5348)">
<mask id="mask0_3_5348" style="mask-type:luminance" maskUnits="userSpaceOnUse" x="0" y="0" width="186" height="186">
<path d="M186 0H0V186H186V0Z" fill="white"/>
</mask>
<g mask="url(#mask0_3_5348)">
<path opacity="0.1" d="M185.9 93C185.896 103.526 184.104 113.974 180.6 123.9C180.3 124.7 180 125.6 179.7 126.4C179 128.3 178.2 130.1 177.4 131.9C176.5 133.9 175.5 135.9 174.4 137.9C172.79 140.882 170.987 143.755 169 146.5C168.983 146.605 168.949 146.706 168.9 146.8V146.9C168.8 147.1 168.6 147.3 168.5 147.5C165.506 151.557 162.231 155.4 158.7 159L158.1 159.6C140.797 176.555 117.526 186.036 93.3 186C71.1526 186.001 49.7329 178.093 32.9 163.7C31.4 162.4 29.9 161 28.4 159.6L27.8 159C24.2131 155.452 20.9346 151.604 18 147.5C17.9 147.3 17.8 147.2 17.7 147C6.1958 131.352 0.025702 112.421 0.100029 93C0.102415 68.3621 9.89083 44.734 27.3124 27.3124C44.7341 9.89078 68.3622 0.102362 93 0.0999756C117.638 0.102362 141.266 9.89078 158.688 27.3124C176.109 44.734 185.898 68.3621 185.9 93Z" fill="#00B2CA"/>
<path opacity="0.2" d="M168.7 146.6H168.6V146.8C160.022 158.913 148.659 168.787 135.467 175.592C122.276 182.396 107.643 185.932 92.8 185.9C78.0122 185.902 63.4376 182.373 50.2884 175.607C37.1391 168.841 25.7952 159.033 17.2 147L168.7 146.6Z" fill="#00B2CA"/>
<path d="M19.8 145.9H166.2C166.2 145.9 169.2 147 165 148.9C160.8 150.8 124.4 144.7 115.4 149.6C106.4 154.5 128.2 165.6 106 161.7C83.8 157.8 63.1 151 57.4 156C51.7 161 38.5 159.2 31.5 154.2C25.1 149.6 19.8 148.6 19.4 146.6C19.5211 146.36 19.6547 146.126 19.8 145.9Z" fill="white"/>
<path d="M174.9 66.7999C177.926 64.7941 180.095 61.7316 180.983 58.2113C181.871 54.691 181.413 50.9662 179.7 47.7652C177.987 44.5642 175.142 42.1174 171.72 40.9032C168.299 39.689 164.548 39.7948 161.2 41.1999C160.993 36.0004 158.747 31.0914 154.948 27.5355C151.149 23.9796 146.102 22.0628 140.9 22.1999C136.611 22.3298 132.484 23.8697 129.158 26.5812C125.831 29.2927 123.492 33.0247 122.5 37.1999C119.058 36.3787 115.431 36.9459 112.403 38.7789C109.376 40.6119 107.192 43.5632 106.325 46.9941C105.457 50.425 105.976 54.0596 107.768 57.1112C109.56 60.1629 112.481 62.3862 115.9 63.2999C115.303 66.8594 115.414 70.5018 116.228 74.0181C117.041 77.5345 118.541 80.8557 120.64 83.7914C122.74 86.7271 125.398 89.2195 128.463 91.1258C131.528 93.032 134.939 94.3146 138.5 94.8999C142.376 95.524 146.34 95.321 150.131 94.3041C153.923 93.2872 157.457 91.4796 160.5 88.9999C163.408 90.2321 166.657 90.4004 169.677 89.4753C172.697 88.5501 175.294 86.5905 177.013 83.9408C178.732 81.2911 179.462 78.1205 179.076 74.9859C178.689 71.8512 177.211 68.9529 174.9 66.7999Z" fill="#FA6E53"/>
<path d="M139.8 143.8H149.5V80.7999L161.9 72.5999H168.8V71.8999L163.2 71.1999L167.9 62.7999L167.3 62.3999L160.1 70.4999L145.9 77.8999L136.5 73.1999L135.7 74.0999L142.8 81.5999L139.7 143.9L139.8 143.8Z" fill="#2A454D"/>
<path d="M156.3 37.9C157.2 40 155.6 44.1 154.1 44.9C154.1 44.9 157.1 46.5 158.3 42.8C158.496 42.3476 158.6 41.8607 158.606 41.3676C158.611 40.8746 158.518 40.3855 158.331 39.929C158.145 39.4725 157.869 39.0578 157.521 38.7094C157.172 38.361 156.757 38.0858 156.3 37.9Z" fill="#E3F0F0"/>
<path d="M174.6 48.2C175.2 49.7 174.1 52.6 173 53.2C173 53.2 175.1 54.3 176 51.7C176.283 51.0623 176.305 50.3394 176.062 49.6855C175.819 49.0316 175.33 48.4985 174.7 48.2H174.6Z" fill="#E3F0F0"/>
<path d="M176.8 55.7999C176.3 57.4999 173.4 59.1999 172 58.8999C172 58.8999 173 61.2999 175.6 59.6999C176.276 59.3676 176.792 58.7809 177.035 58.0686C177.279 57.3563 177.23 56.5764 176.9 55.8999L176.8 55.7999Z" fill="#E3F0F0"/>
<path d="M168.8 54.2C167.2 55.6 163.2 55.6 162 54.5C162 54.5 161.5 57.6 165.2 57.5C168.9 57.4 168.8 54.2999 168.8 54.2999V54.2Z" fill="#E3F0F0"/>
<path d="M138.1 146.4C138.68 145.785 139.46 145.395 140.3 145.3C140.389 144.137 140.931 143.055 141.811 142.288C142.69 141.521 143.835 141.13 145 141.2C149.4 141.3 149.4 143.9 149.4 143.9C149.4 143.9 151.6 137 156.5 137.4C157.854 137.413 159.158 137.917 160.169 138.818C161.18 139.719 161.831 140.956 162 142.3C162 142.3 168.2 142.2 168.8 146.4H138.1Z" fill="#05293C"/>
<path d="M111.4 146.4C111.765 145.767 112.29 145.24 112.921 144.872C113.553 144.504 114.269 144.306 115 144.3C115 144.3 115.5 138.1 122 138.3C128.5 138.5 128.4 142.4 128.4 142.4C128.4 142.4 131.7 132.4 138.9 133C140.846 133.101 142.698 133.874 144.138 135.187C145.579 136.5 146.519 138.271 146.8 140.2C146.8 140.2 156.1 140.2 156.8 146.4H111.4Z" fill="#05293C"/>
<path d="M165.8 121.3C166.415 120.903 166.945 120.388 167.36 119.785C167.774 119.182 168.064 118.502 168.213 117.785C168.362 117.068 168.367 116.329 168.227 115.611C168.087 114.892 167.806 114.209 167.4 113.6C166.677 112.525 165.608 111.731 164.371 111.349C163.134 110.967 161.803 111.02 160.6 111.5C160.533 109.516 159.687 107.638 158.246 106.272C156.806 104.906 154.885 104.161 152.9 104.2C151.24 104.238 149.64 104.829 148.353 105.88C147.067 106.931 146.169 108.381 145.8 110C144.462 109.707 143.062 109.952 141.902 110.681C140.742 111.411 139.916 112.567 139.6 113.9C139.303 115.184 139.512 116.534 140.182 117.669C140.852 118.804 141.932 119.639 143.2 120C142.76 122.742 143.415 125.547 145.023 127.81C146.632 130.074 149.066 131.614 151.8 132.1C153.283 132.359 154.805 132.286 156.257 131.889C157.709 131.491 159.056 130.778 160.2 129.8C160.817 130.063 161.48 130.202 162.151 130.208C162.822 130.215 163.487 130.089 164.11 129.839C164.732 129.588 165.299 129.217 165.777 128.747C166.256 128.277 166.638 127.717 166.9 127.1C167.31 126.125 167.415 125.049 167.2 124.014C166.986 122.978 166.463 122.032 165.7 121.3H165.8Z" fill="#FA6E53"/>
<path d="M152.4 146.9H156.1V126.3L160.8 123.2H163.5V122.9L161.4 122.6L163.2 119.4L163 119.2L160.3 122.3L154.9 125.1L151.3 123.3L151 123.7L153.7 126.6L152.5 146.9H152.4Z" fill="#2A454D"/>
<path d="M158.7 110.2C158.831 110.689 158.815 111.205 158.655 111.685C158.495 112.165 158.198 112.587 157.8 112.9C157.8 112.9 158.9 113.5 159.4 112.1C159.54 111.753 159.546 111.366 159.417 111.015C159.288 110.663 159.032 110.373 158.7 110.2Z" fill="#E3F0F0"/>
<path d="M165.7 114.2C165.803 114.54 165.801 114.904 165.694 115.243C165.587 115.582 165.38 115.881 165.1 116.1C165.1 116.1 165.9 116.5 166.2 115.5C166.304 115.261 166.31 114.991 166.217 114.747C166.123 114.504 165.937 114.308 165.7 114.2Z" fill="#E3F0F0"/>
<path d="M166.5 117.1C166.349 117.453 166.099 117.755 165.779 117.968C165.459 118.181 165.084 118.297 164.7 118.3C164.804 118.492 164.967 118.645 165.166 118.735C165.365 118.825 165.587 118.848 165.8 118.8C165.863 118.796 165.925 118.776 165.977 118.741C166.03 118.706 166.072 118.657 166.1 118.6C166.362 118.464 166.561 118.231 166.654 117.951C166.747 117.671 166.728 117.366 166.6 117.1H166.5Z" fill="#E3F0F0"/>
<path d="M163.5 116.4C163.111 116.636 162.668 116.769 162.213 116.787C161.758 116.804 161.306 116.706 160.9 116.5C160.9 116.5 160.7 117.7 162.1 117.6C162.439 117.603 162.768 117.484 163.025 117.263C163.283 117.042 163.452 116.736 163.5 116.4Z" fill="#E3F0F0"/>
<path d="M17 107.4C15.4176 106.377 14.2754 104.799 13.7979 102.976C13.3204 101.153 13.5423 99.2174 14.4199 97.5499C15.2976 95.8824 16.7674 94.6037 18.5403 93.9652C20.3132 93.3268 22.2608 93.3748 24 94.1C24.0905 91.3984 25.2447 88.8421 27.2114 86.9878C29.1781 85.1335 31.7979 84.1314 34.5 84.2C36.7265 84.2939 38.8633 85.1036 40.5928 86.5089C42.3223 87.9141 43.5523 89.8399 44.1 92C45.8873 91.595 47.762 91.9059 49.3229 92.8661C50.8837 93.8262 52.0066 95.3594 52.451 97.1372C52.8955 98.915 52.6262 100.796 51.7008 102.378C50.7755 103.96 49.2676 105.116 47.5 105.6C48.1173 109.325 47.2324 113.144 45.0393 116.218C42.8461 119.292 39.5236 121.371 35.8 122C33.7888 122.353 31.7244 122.258 29.754 121.723C27.7835 121.187 25.9554 120.223 24.4 118.9C22.688 119.616 20.763 119.629 19.0413 118.937C17.3196 118.244 15.9397 116.902 15.2 115.2C14.6446 113.883 14.5097 112.427 14.8141 111.031C15.1184 109.634 15.847 108.366 16.9 107.4H17Z" fill="#FA6E53"/>
<path d="M35.3 142.7H30.3V114.7L23.9 110.4H20.3V110L23.2001 109.6L20.7001 105.3L21 105.1L24.7001 109.3L32.1 113.1L37 110.6L37.4001 111.1L33.7001 115L35.3 142.6V142.7Z" fill="#2A454D"/>
<path d="M26.7 92.3999C26.5488 93.0676 26.5805 93.7636 26.7917 94.4148C27.0029 95.066 27.3858 95.6481 27.9 96.0999C27.9 96.0999 26.4 96.8999 25.7 94.9999C25.4977 94.5477 25.4785 94.0347 25.6463 93.5686C25.8141 93.1025 26.1559 92.7194 26.6 92.4999L26.7 92.3999Z" fill="#E3F0F0"/>
<path d="M17.2001 97.7999C17.0682 98.2643 17.0735 98.7569 17.2155 99.2183C17.3575 99.6796 17.6299 100.09 18.0001 100.4C18.0001 100.4 16.9001 101 16.4001 99.5999C16.3265 99.436 16.2863 99.259 16.2817 99.0794C16.2772 98.8997 16.3084 98.721 16.3735 98.5535C16.4386 98.386 16.5364 98.2331 16.6611 98.1038C16.7859 97.9744 16.9351 97.8711 17.1001 97.7999H17.2001Z" fill="#E3F0F0"/>
<path d="M16.0001 101.7C16.2188 102.179 16.571 102.584 17.0144 102.868C17.4578 103.152 17.9736 103.302 18.5001 103.3C18.45 103.445 18.3694 103.577 18.2636 103.688C18.1579 103.799 18.0295 103.886 17.8872 103.943C17.7449 104 17.592 104.025 17.439 104.018C17.2859 104.011 17.1362 103.97 17.0001 103.9C16.8496 103.875 16.7102 103.805 16.6001 103.7C16.2583 103.511 15.9981 103.202 15.869 102.833C15.7399 102.465 15.751 102.061 15.9001 101.7H16.0001Z" fill="#E3F0F0"/>
<path d="M20.2001 100.8C20.719 101.134 21.3193 101.319 21.9362 101.337C22.553 101.355 23.1629 101.204 23.7001 100.9C23.7315 101.113 23.7108 101.331 23.6398 101.534C23.5688 101.738 23.4496 101.921 23.2924 102.068C23.1352 102.216 22.9446 102.323 22.737 102.381C22.5293 102.438 22.3108 102.445 22.1001 102.4C21.6374 102.433 21.1799 102.285 20.8251 101.986C20.4703 101.687 20.246 101.262 20.2001 100.8Z" fill="#E3F0F0"/>
<path d="M45.6 146.6H19.4C19.5591 146.14 19.8553 145.74 20.2486 145.454C20.642 145.168 21.1137 145.01 21.6 145C21.6732 144.008 22.1338 143.085 22.8823 142.43C23.6309 141.775 24.6072 141.441 25.6 141.5C29.3 141.5 29.3 143.8 29.3 143.8C29.3 143.8 31.1 138 35.3 138.3C36.426 138.335 37.5038 138.765 38.3448 139.514C39.1857 140.264 39.7363 141.285 39.9 142.4C39.9 142.4 45.9 142.4 45.7 146.6H45.6Z" fill="#05293C"/>
<path d="M147.2 146.4H146.1V102.9C146.1 100.619 147.006 98.4316 148.619 96.8188C150.232 95.206 152.419 94.2999 154.7 94.2999H170.5V95.3999H154.7C152.715 95.4143 150.816 96.2091 149.413 97.6125C148.009 99.0159 147.214 100.915 147.2 102.9V146.4Z" fill="white"/>
<path d="M154.4 93.9999H154.1V96.7999H154.4V93.9999Z" fill="white"/>
<path d="M170 93.9999H169.7V96.7999H170V93.9999Z" fill="white"/>
<path d="M170.4 96.2999H153.2V112.2H170.4V96.2999Z" fill="white"/>
<path d="M105.7 83.4H39.3V144.9H105.7V83.4Z" fill="#F4F5F9"/>
<path d="M143.3 145H87.5V44.6L143.3 61.8V145Z" fill="#F4F5F9"/>
<path d="M140.2 60.8V145H143.3V61.7L140.2 60.7V60.8Z" fill="url(#paint0_linear_3_5348)"/>
<path d="M143.3 61.7V70.3L87.5 53.1V44.5L143.3 61.7Z" fill="url(#paint1_linear_3_5348)"/>
<path d="M152.8 145H38.3C36.2 145 34.4 144.8 34.4 146.9H156.6C156.6 144.8 154.9 145 152.7 145H152.8Z" fill="white"/>
<path d="M117.8 111V126.8H144.7V111H117.8Z" fill="white"/>
<path d="M143.9 112V125.7H118.6V112H143.9Z" fill="url(#paint2_linear_3_5348)"/>
<path d="M133.5 112L143.7 126H140.6L135.4 119.6L137.4 125.8L129.4 125.6L118.8 111.6L125.7 111.8L130.4 118.8L127.9 111.9H133.6L133.5 112Z" fill="url(#paint3_linear_3_5348)"/>
<path d="M131.6 111.2V126.4H130.9V111.2H131.6Z" fill="white"/>
<path d="M79.5 140.3H48.3V98.3H79.5V140.3Z" fill="white"/>
<path d="M78.3 99.4H49.6V139.1H78.3V99.4Z" fill="url(#paint4_linear_3_5348)"/>
<path d="M64.3 139.1H63.5V98.5H64.3V139.1Z" fill="white"/>
<path d="M62.9 94.5H66.7V96H62.9V94.5Z" fill="white"/>
<path d="M59.1 91.4V92.9H62.9V91.4H59.1Z" fill="white"/>
<path d="M62.9 91.4H66.7V92.9H62.9V91.4Z" fill="#F6F6F6"/>
<path d="M134.3 137.3H130.5V138.8H134.3V137.3Z" fill="white"/>
<path d="M132.5 135.8H128.7V137.3H132.5V135.8Z" fill="white"/>
<path d="M132.5 135.8H136.3V137.3H132.5V135.8Z" fill="white"/>
<path d="M125.6 98.9H121.8V100.4H125.6V98.9Z" fill="white"/>
<path d="M127.3 100.4H123.5V101.9H127.3V100.4Z" fill="white"/>
<path d="M123.5 100.4H119.7V101.9H123.5V100.4Z" fill="white"/>
<path d="M143.8 89.9H86.6V91.6H143.8V89.9Z" fill="url(#paint5_linear_3_5348)"/>
<path d="M47.7 83.4H46.6V74.8H47.7V83.4Z" fill="#E3F0F0"/>
<path d="M55.4 74.8H54.3V83.4H55.4V74.8Z" fill="#E3F0F0"/>
<path d="M63.2 74.8H62.1V83.4H63.2V74.8Z" fill="#E3F0F0"/>
<path d="M71 74.8H69.9V83.4H71V74.8Z" fill="#E3F0F0"/>
<path d="M78.8 74.8H77.7V83.4H78.8V74.8Z" fill="#E3F0F0"/>
<path d="M86.5 74.8H85.4V83.4H86.5V74.8Z" fill="#E1D7DB"/>
<path d="M86.6 79.4L85.5 76.1V74.8H86.6V79.4Z" fill="#E3F0F0"/>
<path d="M87.8 75.3H45.5V74.3H87.8V75.3Z" fill="#E3F0F0"/>
<path d="M149.6 67.5L80 46L81.5 41.1L151.1 62.6L149.6 67.5Z" fill="white"/>
<path d="M122.4 73.1C122.4 74.5438 121.972 75.9552 121.17 77.1556C120.368 78.3561 119.228 79.2918 117.894 79.8443C116.56 80.3968 115.092 80.5414 113.676 80.2597C112.26 79.978 110.959 79.2828 109.938 78.2619C108.917 77.2409 108.222 75.9402 107.94 74.5241C107.659 73.1081 107.803 71.6403 108.356 70.3064C108.908 68.9725 109.844 67.8324 111.044 67.0303C112.245 66.2281 113.656 65.8 115.1 65.8C117.033 65.8108 118.883 66.5833 120.25 67.95C121.617 69.3167 122.389 71.1672 122.4 73.1Z" fill="white"/>
<path d="M121.4 73.1C121.4 74.346 121.031 75.564 120.338 76.6001C119.646 77.6361 118.662 78.4436 117.511 78.9204C116.36 79.3973 115.093 79.522 113.871 79.2789C112.649 79.0358 111.526 78.4358 110.645 77.5547C109.764 76.6737 109.164 75.5511 108.921 74.329C108.678 73.107 108.803 71.8402 109.28 70.6891C109.756 69.5379 110.564 68.554 111.6 67.8617C112.636 67.1695 113.854 66.8 115.1 66.8C115.928 66.7965 116.749 66.9571 117.515 67.2725C118.281 67.5879 118.977 68.0518 119.562 68.6375C120.148 69.2232 120.612 69.9191 120.927 70.685C121.243 71.4509 121.403 72.2717 121.4 73.1Z" fill="url(#paint6_linear_3_5348)"/>
<path d="M115.5 65.8H114.7V80.4H115.5V65.8Z" fill="white"/>
<path d="M122.4 72.7V73.5H107.8V72.7H122.4Z" fill="white"/>
<path d="M114.8 107.3H93.2V145H114.8V107.3Z" fill="white"/>
<path d="M113.6 108.4H94.3V145.1H113.6V108.4Z" fill="url(#paint7_linear_3_5348)"/>
<path d="M98.8 126.7H95.5V126.2H98.8V126.7Z" fill="white"/>
<path d="M104.4 67.7C104.149 67.5803 103.877 67.5123 103.6 67.5C103.6 67 103.6 66.7 103.4 66.7C103.2 66.7 103.2 67.1 103.2 67.5C102.7 67.5 102.4 67.5 102.4 67.7C102.4 67.9 102.8 67.9 103.2 67.9C103.2 68.4 103.2 68.7 103.4 68.7C103.6 68.7 103.6 68.3 103.6 67.9C104.1 67.9 104.4 67.9 104.4 67.7Z" fill="#E3F0F0"/>
<path d="M102.1 59.0999C102.1 58.9999 101.6 58.9 100.9 58.9C100.9 58.2 100.8 57.7 100.7 57.7C100.6 57.7 100.5 58.2 100.5 58.9C99.8 58.9 99.3 58.9999 99.3 59.0999C99.3 59.1999 99.8 59.2999 100.5 59.2999C100.5 59.9999 100.6 60.5 100.7 60.5C100.8 60.5 100.9 59.9999 100.9 59.2999C101.6 59.2999 102.1 59.1999 102.1 59.0999Z" fill="#E3F0F0"/>
<path d="M108.7 62.2999C108.385 62.1632 108.044 62.095 107.7 62.0999C107.7 61.4999 107.6 61.0999 107.5 61.0999C107.4 61.0999 107.3 61.4999 107.3 62.0999C106.7 62.0999 106.3 62.0999 106.3 62.2999C106.3 62.4999 106.7 62.4999 107.3 62.4999C107.3 63.0999 107.4 63.4999 107.5 63.4999C107.6 63.4999 107.7 63.0999 107.7 62.4999C108.3 62.4999 108.7 62.4999 108.7 62.2999Z" fill="url(#paint8_linear_3_5348)"/>
<path d="M38.8001 34.8999H73.3001C73.3001 34.8999 74.5001 24.4999 66.8001 24.4999C59.1001 24.4999 59.9001 31.7999 59.9001 31.7999C59.9001 31.7999 59.3001 27.2999 53.6001 27.5999C49.0001 27.7999 48.6001 31.0999 48.6001 31.0999C48.6001 31.0999 39.9001 30.3999 38.7001 34.8999H38.8001Z" fill="#00B2CA"/>
<path d="M119 24.3999H96.8001C96.8001 24.3999 96.0001 17.6999 101 17.6999C101.532 17.6524 102.069 17.7105 102.578 17.8709C103.088 18.0313 103.561 18.291 103.97 18.6348C104.379 18.9787 104.715 19.4 104.961 19.8746C105.206 20.3491 105.356 20.8675 105.4 21.3999V22.3999C105.4 22.3999 105.8 19.4999 109.5 19.6999C112.5 19.7999 112.7 21.9999 112.7 21.9999C112.7 21.9999 118.3 21.4999 119.1 24.3999H119Z" fill="#00B2CA"/>
<path d="M93.5001 144.6C93.5001 144.8 94.1001 147.8 94.5001 148.1C94.9001 148.4 96.7001 148 96.8001 147.6C96.8001 146.4 96.6001 145.2 96.5001 144L93.5001 144.7V144.6Z" fill="#FFD2B3"/>
<path d="M94.0001 147.4C93.7001 147.2 93.7001 151.1 94.0001 151.2C94.3001 151.3 101.4 151.5 102 151.2C102.115 151.13 102.214 151.038 102.292 150.929C102.369 150.82 102.424 150.696 102.452 150.565C102.48 150.434 102.481 150.298 102.455 150.167C102.429 150.035 102.376 149.91 102.3 149.8C102.111 149.579 101.871 149.407 101.6 149.3C100.5 149.1 98.2001 148.7 97.5001 147.8C97.3001 147.2 97.1001 146.7 96.9001 146.2C96.7001 146.1 96.7001 147.3 96.7001 147.3C96.7001 147.3 94.9001 147.9 94.1001 147.3L94.0001 147.4Z" fill="#D1553D"/>
<path d="M93.7001 150.6C93.7001 150.7 93.7001 151.4 93.9001 151.4C94.1001 151.4 102.1 151.5 102.2 151.4C102.184 151.195 102.219 150.989 102.3 150.8L93.7001 150.6Z" fill="#AE3B2A"/>
<path d="M98.1 149.1C97.9 148.9 98.3 148.4 98.5 148.4C98.7 148.4 98.3 149.3 98.1 149.1Z" fill="white"/>
<path d="M98.7001 149.3C98.5001 149.1 98.9001 148.6 99.1001 148.6C99.3001 148.6 98.9001 149.5 98.7001 149.3Z" fill="white"/>
<path d="M99.6 149.5C99.4 149.3 99.8 148.8 100 148.8C100.2 148.8 99.8 149.7 99.6 149.5Z" fill="white"/>
<path d="M96.5 149.3C96.5 149.438 96.459 149.574 96.3821 149.689C96.3051 149.804 96.1958 149.894 96.0679 149.947C95.94 150 95.7993 150.013 95.6635 149.986C95.5277 149.959 95.403 149.893 95.3051 149.795C95.2072 149.697 95.1405 149.572 95.1135 149.436C95.0865 149.301 95.1003 149.16 95.1533 149.032C95.2063 148.904 95.296 148.795 95.4111 148.718C95.5263 148.641 95.6616 148.6 95.8 148.6C95.8926 148.598 95.9846 148.614 96.0705 148.649C96.1564 148.683 96.2344 148.735 96.2999 148.8C96.3653 148.866 96.4168 148.944 96.4512 149.029C96.4856 149.115 96.5022 149.207 96.5 149.3Z" fill="#AE3B2A"/>
<path d="M94.2001 99.5999C94.9001 108.7 97.6001 140.5 98.0001 144.5C97.3001 144.8 93.8001 145.8 93.0001 145C92.2001 144.2 83.0001 102.5 82.4001 99.6999H94.2001V99.5999Z" fill="#2A454D"/>
<path d="M88.4001 100.1L88.1001 110.3L88.5001 118.6C88.5001 118.6 93.5001 146.5 93.0001 145C90.7001 136.6 82.5001 101.6 82.0001 99.7L88.3001 100.2L88.4001 100.1Z" fill="#1B2E36"/>
<path d="M79.9001 147.1C78.9001 147.1 78.0001 147.1 78.0001 147.5C77.9589 148.803 78.0258 150.108 78.2001 151.4C78.4001 151.5 85.0001 151.4 85.6001 151.4C86.2001 151.4 86.0001 149.1 84.0001 149.1L81.6001 147.1H79.9001Z" fill="#D1553D"/>
<path d="M78.1 150.9C78.1 150.9 80.9 151 82.5 151C83.0653 150.638 83.7299 150.463 84.4 150.5C84.6641 150.465 84.9325 150.482 85.1899 150.551C85.4473 150.619 85.6886 150.738 85.9 150.9C85.9 150.9 86.1 151.7 85.9 151.7C85.7 151.7 78.4 151.8 78.3 151.7C78.1 151.5 78.1 150.9 78.1 150.9Z" fill="#AE3B2A"/>
<path d="M78.1 143.7C78.1 143.9 78.3 146.9 78.3 147.7C78.7 148.1 81 148.2 81.2 147.8C81.2 147.1 81.5 143.7 81.5 143.7H78.1Z" fill="#FFD2B3"/>
<path d="M79.2001 148.2C79.0001 148 78.9001 146.6 79.5001 146.2C80.1001 145.8 81.1001 145.8 81.3001 146.2C81.5716 146.836 81.7404 147.511 81.8001 148.2C81.8001 148.5 79.6001 148.9 79.1001 148.2H79.2001Z" fill="#D1553D"/>
<path d="M81.0001 150.2C81.4144 149.82 81.9058 149.534 82.4409 149.361C82.9759 149.189 83.5418 149.134 84.1001 149.2C83.776 148.988 83.4008 148.866 83.0138 148.849C82.6267 148.831 82.2421 148.918 81.9001 149.1C80.8001 149.5 81.0001 150.2 81.0001 150.2Z" fill="#AE3B2A"/>
<path d="M78.8 149.9C79.0762 149.9 79.3 149.587 79.3 149.2C79.3 148.813 79.0762 148.5 78.8 148.5C78.5239 148.5 78.3 148.813 78.3 149.2C78.3 149.587 78.5239 149.9 78.8 149.9Z" fill="#AE3B2A"/>
<path d="M81.3 148.8C81.6 148.6 83 148.6 82.7 148.4C82.4 148.2 81.3 148.4 81.3 148.7V148.8Z" fill="white"/>
<path d="M80.9001 148.4C81.2001 148.2 82.6001 148.2 82.3001 148C82.0001 147.8 80.9001 148 80.9001 148.3V148.4Z" fill="white"/>
<path d="M80.5001 147.9C80.8001 147.7 82.2001 147.7 81.9001 147.5C81.6001 147.3 80.5001 147.5 80.5001 147.8V147.9Z" fill="white"/>
<path d="M88.2 100.8C87.8 102.2 86.7 107.3 86.7 107.3C86.7 107.3 82.9 144.4 82.6 144.7C82.2 145.2 79.7 145.5 78 144.7C77.4 143.3 76.9 104.1 76.8 100.1L88.2 100.8Z" fill="#2A454D"/>
<path d="M78.5001 105C78.5001 104.7 79.6001 104.6 80.7001 103.9C81.9001 103.3 82.7001 102.6 82.9001 102.7C82.8819 102.991 82.7774 103.269 82.6001 103.5C82.1939 104.005 81.6818 104.415 81.1001 104.7C80.5469 105.004 79.9307 105.175 79.3001 105.2C78.8001 105.2 78.5001 105.2 78.5001 105Z" fill="#1B2E36"/>
<path d="M103.8 82.6999C104.267 82.2447 104.808 81.8726 105.4 81.5999C105.8 81.5999 107.5 80.9999 107.6 81.0999C107.7 81.1999 107.7 81.5999 107.2 81.7999C106.7 81.9999 106 81.9999 106.2 82.2999C106.4 82.5999 107.3 82.7999 107.3 82.7999C107.886 82.5871 108.488 82.4199 109.1 82.2999C109.154 82.3538 109.19 82.4241 109.2 82.4999C109.5 82.2999 109.8 82.2999 109.9 82.4999C109.9 82.4999 109.4 82.9999 108.9 83.3999C108.562 83.7262 108.15 83.9663 107.7 84.0999H107L106.6 84.4999H105.4L104.4 85.2999L103 83.2999L103.7 82.7999L103.8 82.6999Z" fill="#FFD2B3"/>
<path d="M105.1 83.0999H105.5C105.594 83.0877 105.689 83.0997 105.776 83.1347C105.864 83.1697 105.941 83.2266 106 83.3C106.108 83.2995 106.214 83.3346 106.3 83.4H106.5L106.8 83.1999L107.1 83C107.3 83 107.5 82.7999 107.7 82.6999C107.808 82.7004 107.914 82.6653 108 82.5999H108.1V82.8C108.1 82.8 108.1 82.9 107.9 83C107.7 83.2 107.5 83.4999 107.3 83.6999L106.9 84.0999L106.7 84.3C106.777 84.2927 106.848 84.257 106.9 84.1999C107 84.1999 107.2 84 107.4 83.8C107.624 83.5885 107.825 83.3539 108 83.0999L108.2 82.9V82.5999H108.1C107.992 82.5995 107.886 82.6346 107.8 82.6999C107.6 82.6999 107.4 82.9 107.2 83L106.9 83.1999H106.7V83.3C106.623 83.2927 106.552 83.257 106.5 83.1999C106.446 83.2067 106.391 83.2012 106.339 83.1839C106.287 83.1666 106.239 83.1379 106.2 83.0999C106 83.0999 105.9 83 105.7 83H105.4L105.1 83.0999Z" fill="url(#paint9_linear_3_5348)"/>
<path d="M105.5 84.5C105.423 84.4927 105.352 84.457 105.3 84.4C105.274 84.4 105.248 84.3894 105.229 84.3707C105.211 84.3519 105.2 84.3265 105.2 84.3C105.077 84.186 104.975 84.0504 104.9 83.9C104.9 84 105.1 84.2 105.2 84.3C105.277 84.3072 105.348 84.3429 105.4 84.4L105.6 84.5H105.5Z" fill="url(#paint10_linear_3_5348)"/>
<path d="M107.9 83.3H108C108.1 83.3 108.2 83.1999 108.3 83.0999L108.5 82.8999L108.7 82.6999H109.2L109 82.8999L108.4 83.4999L108.1 83.8H108.2L108.5 83.4999L109.1 82.8999L109.3 82.6999H109.1C109.046 82.6932 108.991 82.6987 108.939 82.716C108.887 82.7333 108.839 82.762 108.8 82.8C108.8 82.8 108.6 82.8999 108.6 82.9999L108.4 83.1999C108.4 83.1999 108.2 83.3999 108.1 83.3999H108L107.9 83.3Z" fill="url(#paint11_linear_3_5348)"/>
<path d="M87.9001 77.6999L89.7001 78.0999L95.3001 86.0999L103.6 82.6999L105.3 85.0999C105.3 85.0999 98.2001 92.1999 95.3001 92.7999C93.9001 93.0999 90.0001 90.3999 90.0001 90.3999L88.0001 77.5999L87.9001 77.6999Z" fill="#00B2CA"/>
<path d="M95.3001 86.2999C95.1001 85.6999 94.3001 88.9999 94.4001 89.2999C94.5001 89.5999 95.5001 86.6999 95.3001 86.2999Z" fill="#05293C"/>
<path d="M87.9001 77.7H81.8001C81.8001 77.7 77.1001 92.5 75.7001 100C78.3001 102.1 87.5001 103.5 94.6001 100.5C94.5001 97.3 88.0001 77.7 88.0001 77.7H87.9001Z" fill="#00B2CA"/>
<path d="M84.0001 78.8L86.8001 94.7L83.1001 84.8L83.7001 84L81.9001 81.5L84.0001 78.9V78.8Z" fill="#05293C"/>
<path d="M86.7001 78.5999L86.9001 94.6999L88.5001 84.4999L87.6001 83.4999L88.9001 81.1999L86.7001 78.6999V78.5999Z" fill="#05293C"/>
<path d="M83.9001 77.8H86.9001C86.9001 77.8 87.2001 93.9 86.9001 95C86.9001 95 83.3001 80.4 83.9001 77.8Z" fill="#E3F0F0"/>
<path d="M82.5001 69.1999C82.5075 68.7511 82.6566 68.316 82.926 67.9569C83.1953 67.5977 83.5712 67.3328 84.0001 67.1999C84.4975 67.1351 85.0032 67.1923 85.4736 67.3665C85.9439 67.5407 86.3649 67.8268 86.7 68.1999C86.7 67.7999 86.9001 67.3999 87.3001 67.3999H87.6001C88.6001 67.3999 88.4001 68.5999 88.4001 68.5999C88.587 68.4997 88.8052 68.475 89.0098 68.5308C89.2144 68.5866 89.3899 68.7187 89.5001 68.8999C89.6832 69.3256 89.7238 69.7991 89.6156 70.2497C89.5075 70.7003 89.2565 71.1038 88.9001 71.3999C89.0008 71.5105 89.0782 71.6401 89.1278 71.7812C89.1775 71.9223 89.1982 72.0719 89.1889 72.2211C89.1796 72.3704 89.1403 72.5162 89.0735 72.65C89.0067 72.7838 88.9137 72.9028 88.8001 72.9999C88.5826 73.2002 88.2956 73.3079 88.0001 73.2999C87.9886 73.4543 87.9448 73.6046 87.8713 73.7408C87.7978 73.8771 87.6964 73.9963 87.5737 74.0907C87.451 74.1851 87.3098 74.2525 87.1592 74.2886C87.0087 74.3246 86.8522 74.3285 86.7 74.2999H86.5001C86.4737 74.6971 86.3349 75.0786 86.1001 75.3999C85.5001 75.9999 82.6001 75.2999 82.9001 74.3999V74.0999C82.591 74.0518 82.3096 73.8939 82.1076 73.6551C81.9055 73.4164 81.7963 73.1127 81.8001 72.7999V72.6999C79.1001 69.5999 82.4001 69.1999 82.4001 69.1999H82.5001Z" fill="#1B2E36"/>
<path d="M83.4 71.3999C82.7 71.7999 83.1 74.4999 84.3 74.5999C84.7852 73.8598 85.1561 73.0507 85.4 72.1999C85.4 72.1999 83.9 71.0999 83.4 71.2999V71.3999Z" fill="#1B2E36"/>
<path d="M83.9 73.0999L86.2 74.5999C86.1455 75.4775 86.247 76.3578 86.5 77.1999C86.6214 77.3382 86.6883 77.5159 86.6883 77.6999C86.6883 77.8839 86.6214 78.0617 86.5 78.1999C86.392 78.2538 86.2913 78.321 86.2 78.3999C85.1 78.7999 84.3 78.1999 83.6 77.2999C84.2 77.2999 84 73.0999 84 73.0999H83.9Z" fill="#FFD2B3"/>
<path d="M86.6 77.3C85 76.8 84.9 74.8 84.9 74.8L86.3 75.7C86.2532 76.2506 86.3569 76.8037 86.6 77.3Z" fill="url(#paint12_linear_3_5348)"/>
<path d="M88.5 70.2C88.6001 70.7286 88.6001 71.2713 88.5 71.8C88.3 72.7 87.4 70.5 87.4 70.5L88.5 70.2Z" fill="#1B2E36"/>
<path d="M86.8 76.0999C85.4 76.2999 84.4 75.2999 84.1 73.5999C84.0075 73.6021 83.9155 73.5855 83.8296 73.5511C83.7437 73.5167 83.6656 73.4652 83.6002 73.3998C83.5347 73.3343 83.4833 73.2563 83.4489 73.1704C83.4145 73.0845 83.3978 72.9925 83.4 72.8999C83.4 72.2999 83.6 72.2999 83.8 72.2999H85C85.1379 72.2848 85.2712 72.2415 85.3916 72.1727C85.512 72.1038 85.617 72.011 85.7 71.8999C86 71.4999 86.3 71.2999 87.5 71.2999C87.6481 71.3273 87.8007 71.3138 87.9417 71.2609C88.0826 71.2081 88.2065 71.1179 88.3 70.9999C88.4393 71.5863 88.6404 72.1561 88.9 72.6999C89.0324 73.0018 89.1038 73.3269 89.1101 73.6565C89.1164 73.9861 89.0574 74.3137 88.9366 74.6204C88.8158 74.9271 88.6355 75.2069 88.4061 75.4436C88.1767 75.6804 87.9028 75.8695 87.6 75.9999C87.4 75.9999 87.3 76.0999 87.1 76.1999L86.8 76.0999Z" fill="#FFD2B3"/>
<path d="M86.4 72.3C86.2686 72.2827 86.1353 72.3138 86.025 72.3874C85.9147 72.4609 85.8347 72.572 85.8 72.6999C85.8469 72.6081 85.9186 72.5313 86.007 72.4782C86.0954 72.4252 86.197 72.3981 86.3 72.3999L86.4 72.3Z" fill="#1B2E36"/>
<path d="M87.5001 74.1C87.5475 74.0548 87.5853 74.0006 87.6111 73.9404C87.6369 73.8802 87.6502 73.8154 87.6502 73.75C87.6502 73.6845 87.6369 73.6197 87.6111 73.5595C87.5853 73.4994 87.5475 73.4451 87.5001 73.4V74V74.1Z" fill="#1B2E36"/>
<path d="M83.7 72.5999C83.7 72.6999 83.6 72.8999 83.6 72.9999V72.6999C83.6035 72.648 83.6257 72.5992 83.6625 72.5624C83.6993 72.5256 83.7482 72.5034 83.8 72.4999L83.7 72.5999Z" fill="#1B2E36"/>
<path d="M86.2001 73C86.2036 73.0518 86.2258 73.1007 86.2625 73.1375C86.2993 73.1742 86.3482 73.1964 86.4001 73.2C86.5001 73.2 86.5001 73 86.4001 72.9C86.3966 72.8481 86.3744 72.7992 86.3376 72.7624C86.3008 72.7257 86.2519 72.7035 86.2001 72.7C86.1001 72.7 86.1001 72.9 86.2001 73Z" fill="#1B2E36"/>
<path d="M88.4 72.0999C88.3262 72.05 88.2391 72.0233 88.15 72.0233C88.0609 72.0233 87.9738 72.05 87.9 72.0999C88 72.0999 88.2 71.9999 88.4 72.0999Z" fill="#1B2E36"/>
<path d="M87.9 72.6999C87.9 72.7999 87.9 72.8999 88 72.8999C88.1 72.8999 88.2 72.8999 88.2 72.6999C88.2 72.4999 88.2 72.4999 88.1 72.4999C88 72.4999 87.9 72.4999 87.9 72.6999Z" fill="#1B2E36"/>
<path d="M86.6 74.5999C87.1287 74.7 87.6714 74.7 88.2 74.5999C88.2 74.5999 87.5 75.9999 86.6 74.5999Z" fill="white"/>
<path d="M83.2001 77.7L83.7001 76.8C84.6093 77.1 85.5909 77.1 86.5001 76.8C86.6906 76.9956 86.8282 77.2365 86.9001 77.5C86.9001 77.6 87.9001 78.9 86.6001 79.3C86.1001 79.5 85.7001 78.7 85.7001 78.7C85.6444 78.8974 85.5271 79.0719 85.3651 79.1978C85.2032 79.3238 85.0052 79.3946 84.8001 79.4C84.5892 79.4026 84.38 79.3631 84.1846 79.2836C83.9893 79.2042 83.8118 79.0864 83.6627 78.9373C83.5136 78.7882 83.3959 78.6107 83.3164 78.4154C83.2369 78.2201 83.1974 78.0108 83.2001 77.8V77.7Z" fill="#05293C"/>
<path d="M86.8001 94.9C86.8001 94.9 87.2001 101.9 87.2001 101.8C86.6166 99.5483 86.4807 97.204 86.8001 94.9Z" fill="#05293C"/>
<path d="M91.2001 77.4999C91.4903 76.8919 91.9395 76.3736 92.5001 75.9999C93.2888 75.5644 94.1286 75.2285 95.0001 74.9999C95.0001 75.0999 95.1001 75.1999 95.1001 75.3999C95.1001 75.5999 94.8001 75.7999 94.5001 75.9999C94.7749 75.9715 95.0443 75.9042 95.3001 75.7999V76.1999C95.1872 76.4129 95.013 76.587 94.8001 76.6999C94.9703 76.6877 95.1383 76.6541 95.3001 76.5999V77.0999C95.0732 77.3231 94.8001 77.4937 94.5001 77.5999H95.2001V78.0999C95.0001 78.4999 93.8001 78.9999 93.8001 78.9999C93.8446 79.4186 93.7959 79.8419 93.6576 80.2395C93.5193 80.6371 93.2948 80.9993 93.0001 81.2999C92.2585 80.7502 91.5568 80.1487 90.9001 79.4999C90.9263 78.9133 91.062 78.3367 91.3001 77.7999L91.2001 77.4999Z" fill="#FFD2B3"/>
<path d="M93.2001 76.4999H93.4001C93.5764 76.4604 93.7452 76.3929 93.9001 76.2999C94.1496 76.2431 94.3868 76.1414 94.6001 75.9999C94.3558 76.0197 94.1179 76.0877 93.9001 76.1999C93.7001 76.1999 93.6001 76.2999 93.4001 76.3999C93.3242 76.4104 93.254 76.4456 93.2001 76.4999Z" fill="url(#paint13_linear_3_5348)"/>
<path d="M93.5001 77.2H93.7001L94.2001 77C94.4001 77 94.6001 76.8 94.8001 76.7C94.5558 76.7197 94.3179 76.7877 94.1001 76.9C94.0227 76.9014 93.9467 76.9202 93.8775 76.9548C93.8083 76.9894 93.7477 77.039 93.7001 77.1C93.6242 77.1104 93.554 77.1456 93.5001 77.2Z" fill="url(#paint14_linear_3_5348)"/>
<path d="M93.9001 77.8999C94.1925 77.8907 94.4737 77.7852 94.7001 77.5999C94.4077 77.6092 94.1265 77.7147 93.9001 77.8999Z" fill="url(#paint15_linear_3_5348)"/>
<path d="M79.1001 78.4C79.1001 78.4 76.4001 82.3 76.1001 83.8C75.5001 86.5 77.0001 93.1 80.8001 93.7C83.4001 94.1 94.1001 80.7 94.1001 80.7L90.8001 78.6L81.3001 86.7L81.9001 77.7L79.3001 78.3L79.1001 78.4Z" fill="#00B2CA"/>
<path d="M81.2 86.7C81 87 80.1001 88.9 80.6001 89.3C81.1001 89.7 81.2 86.7 81.2 86.7Z" fill="#05293C"/>
<path d="M76.3001 134.7H74.3001C73.5726 134.693 72.8715 134.972 72.3478 135.477C71.8241 135.982 71.5197 136.673 71.5001 137.4V141.2C71.5001 141.439 71.5949 141.668 71.7637 141.836C71.9324 142.005 72.1614 142.1 72.4001 142.1V137.1C72.4001 136.5 72.8001 135.9 73.1001 135.9H77.4001C77.8001 135.9 78.1001 136.5 78.1001 137.1V142.1C78.2182 142.1 78.3353 142.077 78.4445 142.031C78.5537 141.986 78.6529 141.92 78.7365 141.836C78.82 141.753 78.8863 141.654 78.9315 141.544C78.9768 141.435 79.0001 141.318 79.0001 141.2V137.4C79.0069 136.672 78.7277 135.971 78.2227 135.448C77.7178 134.924 77.0273 134.62 76.3001 134.6V134.7Z" fill="#1B2E36"/>
<path d="M86.3001 139.2V143.6L64.2001 143.4V139C64.2146 138.465 64.4271 137.953 64.7965 137.566C65.1659 137.178 65.666 136.941 66.2001 136.9L84.4001 137.1C84.9297 137.129 85.4265 137.365 85.7824 137.759C86.1383 138.152 86.3243 138.67 86.3001 139.2Z" fill="#395B64"/>
<path d="M86.2001 143.5V149.9C86.1985 150.43 85.9873 150.938 85.6125 151.312C85.2378 151.687 84.73 151.898 84.2001 151.9L66.0001 151.7C65.4704 151.671 64.9736 151.434 64.6177 151.041C64.2619 150.648 64.0758 150.13 64.1001 149.6V143.2L86.1001 143.4L86.2001 143.5Z" fill="#395B64"/>
<path d="M86.2001 144.6L64.2001 144.1V143.1L86.2001 143.4V144.5V144.6Z" fill="#2A454D"/>
<path d="M74.9 145H75.6C75.8387 145 76.0677 144.905 76.2364 144.736C76.4052 144.568 76.5 144.339 76.5 144.1V142.9C76.5059 142.859 76.5022 142.818 76.4892 142.779C76.4762 142.739 76.4542 142.704 76.4251 142.675C76.396 142.646 76.3605 142.624 76.3214 142.611C76.2824 142.598 76.2408 142.594 76.2 142.6V144.3C76.2 144.5 76.1 144.7 76 144.7H74.6C74.5 144.7 74.4 144.5 74.4 144.3V142.6C74.3593 142.594 74.3177 142.598 74.2787 142.611C74.2396 142.624 74.2041 142.646 74.175 142.675C74.1458 142.704 74.1239 142.739 74.1109 142.779C74.0979 142.818 74.0942 142.859 74.1 142.9V144.1C74.1 144.339 74.1949 144.568 74.3636 144.736C74.5324 144.905 74.7614 145 75 145H74.9Z" fill="#1B2E36"/>
<path d="M157.2 103.3C157.096 103.293 156.999 103.249 156.925 103.175C156.851 103.101 156.807 103.004 156.8 102.9V100.1C156.8 99.9939 156.842 99.8921 156.917 99.8171C156.992 99.7421 157.094 99.7 157.2 99.7C157.306 99.7 157.408 99.7421 157.483 99.8171C157.558 99.8921 157.6 99.9939 157.6 100.1V102.9C157.593 103.004 157.549 103.101 157.475 103.175C157.402 103.249 157.304 103.293 157.2 103.3Z" fill="url(#paint16_linear_3_5348)"/>
<path d="M161.7 101.3V103C161.693 103.104 161.649 103.201 161.575 103.275C161.502 103.349 161.404 103.393 161.3 103.4C161.192 103.4 161.086 103.365 161 103.3C160.8 103.3 160.6 103.5 160.4 103.5C160.082 103.5 159.777 103.374 159.552 103.148C159.327 102.923 159.2 102.618 159.2 102.3C159.2 101.982 159.327 101.676 159.552 101.451C159.777 101.226 160.082 101.1 160.4 101.1C160.509 101.087 160.619 101.098 160.723 101.132C160.826 101.167 160.921 101.224 161 101.3C161.094 101.251 161.195 101.217 161.3 101.2C161.404 101.207 161.502 101.251 161.575 101.325C161.649 101.398 161.693 101.496 161.7 101.6V101.3ZM160.9 102.1C160.9 102.001 160.871 101.904 160.816 101.822C160.761 101.74 160.683 101.676 160.591 101.638C160.5 101.6 160.4 101.59 160.303 101.61C160.206 101.629 160.116 101.676 160.047 101.746C159.977 101.816 159.929 101.905 159.91 102.002C159.89 102.099 159.9 102.2 159.938 102.291C159.976 102.383 160.04 102.461 160.122 102.516C160.205 102.571 160.301 102.6 160.4 102.6C160.467 102.604 160.534 102.594 160.596 102.57C160.659 102.547 160.715 102.51 160.763 102.463C160.81 102.415 160.847 102.359 160.87 102.296C160.894 102.234 160.904 102.167 160.9 102.1Z" fill="url(#paint17_linear_3_5348)"/>
<path d="M165.5 101.9V102.9C165.5 103.006 165.458 103.108 165.383 103.183C165.308 103.258 165.206 103.3 165.1 103.3C164.994 103.3 164.892 103.258 164.817 103.183C164.742 103.108 164.7 103.006 164.7 102.9V101.9C164.7 101.82 164.668 101.744 164.612 101.688C164.556 101.632 164.48 101.6 164.4 101.6C164.32 101.6 164.244 101.632 164.188 101.688C164.132 101.744 164.1 101.82 164.1 101.9V102.9C164.1 103.006 164.058 103.108 163.983 103.183C163.908 103.258 163.806 103.3 163.7 103.3C163.594 103.3 163.492 103.258 163.417 103.183C163.342 103.108 163.3 103.006 163.3 102.9V101.9C163.3 101.82 163.268 101.744 163.212 101.688C163.156 101.632 163.08 101.6 163 101.6C162.92 101.6 162.844 101.632 162.788 101.688C162.732 101.744 162.7 101.82 162.7 101.9V102.9C162.7 103.006 162.658 103.108 162.583 103.183C162.508 103.258 162.406 103.3 162.3 103.3C162.194 103.3 162.092 103.258 162.017 103.183C161.942 103.108 161.9 103.006 161.9 102.9V101.3C161.907 101.196 161.951 101.098 162.025 101.025C162.099 100.951 162.196 100.907 162.3 100.9H162.5C162.665 100.857 162.832 100.823 163 100.8C163.185 100.946 163.414 101.025 163.65 101.025C163.886 101.025 164.115 100.946 164.3 100.8C164.565 100.8 164.82 100.905 165.007 101.093C165.195 101.28 165.3 101.535 165.3 101.8L165.5 101.9Z" fill="url(#paint18_linear_3_5348)"/>
<path d="M160.1 108.4C160.161 108.467 160.194 108.556 160.191 108.646C160.189 108.737 160.152 108.824 160.088 108.888C160.024 108.952 159.937 108.989 159.846 108.991C159.756 108.994 159.667 108.961 159.6 108.9H159.5C159.2 108.9 158.9 109 158.6 109C158.244 109 157.896 108.894 157.6 108.697C157.304 108.499 157.073 108.218 156.937 107.889C156.801 107.56 156.765 107.198 156.835 106.849C156.904 106.5 157.076 106.179 157.327 105.927C157.579 105.675 157.9 105.504 158.249 105.435C158.598 105.365 158.96 105.401 159.289 105.537C159.618 105.673 159.899 105.904 160.097 106.2C160.294 106.496 160.4 106.844 160.4 107.2C160.411 107.401 160.38 107.602 160.312 107.791C160.243 107.98 160.137 108.153 160 108.3H160.1V108.4ZM159 108.2C158.951 108.108 158.925 108.005 158.925 107.9C158.925 107.795 158.951 107.692 159 107.6C159.074 107.55 159.161 107.523 159.25 107.523C159.339 107.523 159.426 107.55 159.5 107.6H159.6C159.66 107.475 159.694 107.339 159.7 107.2C159.7 107.002 159.641 106.809 159.532 106.644C159.422 106.48 159.265 106.352 159.083 106.276C158.9 106.2 158.699 106.181 158.505 106.219C158.311 106.258 158.133 106.353 157.993 106.493C157.853 106.633 157.758 106.811 157.719 107.005C157.681 107.199 157.7 107.4 157.776 107.583C157.852 107.765 157.98 107.922 158.144 108.031C158.309 108.141 158.502 108.2 158.7 108.2H159Z" fill="url(#paint19_linear_3_5348)"/>
<path d="M161.7 109C161.435 109 161.181 108.895 160.993 108.707C160.805 108.52 160.7 108.265 160.7 108V107C160.707 106.896 160.751 106.798 160.825 106.725C160.899 106.651 160.996 106.607 161.1 106.6C161.204 106.607 161.302 106.651 161.375 106.725C161.449 106.798 161.493 106.896 161.5 107V108C161.5 108.08 161.532 108.156 161.588 108.212C161.644 108.268 161.721 108.3 161.8 108.3C161.88 108.3 161.956 108.268 162.012 108.212C162.068 108.156 162.1 108.08 162.1 108V107C162.1 106.894 162.142 106.792 162.217 106.717C162.292 106.642 162.394 106.6 162.5 106.6C162.606 106.6 162.708 106.642 162.783 106.717C162.858 106.792 162.9 106.894 162.9 107V108C162.9 108.265 162.795 108.52 162.607 108.707C162.42 108.895 162.165 109 161.9 109H161.7Z" fill="url(#paint20_linear_3_5348)"/>
<path d="M163.5 109C163.396 108.993 163.299 108.949 163.225 108.875C163.152 108.801 163.107 108.704 163.1 108.6V107C163.1 106.894 163.142 106.792 163.217 106.717C163.292 106.642 163.394 106.6 163.5 106.6C163.606 106.6 163.708 106.642 163.783 106.717C163.858 106.792 163.9 106.894 163.9 107V108.6C163.893 108.704 163.849 108.801 163.775 108.875C163.702 108.949 163.604 108.993 163.5 109ZM163.8 106.1C163.8 106.159 163.782 106.217 163.75 106.267C163.717 106.316 163.67 106.354 163.615 106.377C163.56 106.4 163.5 106.406 163.442 106.394C163.383 106.383 163.33 106.354 163.288 106.312C163.246 106.27 163.217 106.217 163.206 106.158C163.194 106.1 163.2 106.04 163.223 105.985C163.246 105.93 163.284 105.883 163.333 105.851C163.383 105.818 163.441 105.8 163.5 105.8C163.541 105.794 163.582 105.798 163.621 105.811C163.661 105.824 163.696 105.846 163.725 105.875C163.754 105.904 163.776 105.94 163.789 105.979C163.802 106.018 163.806 106.059 163.8 106.1Z" fill="url(#paint21_linear_3_5348)"/>
<path d="M165.6 108.6C165.593 108.704 165.549 108.801 165.475 108.875C165.402 108.949 165.304 108.993 165.2 109C164.95 109.004 164.709 108.914 164.523 108.747C164.337 108.58 164.222 108.349 164.2 108.1V106.3C164.2 106.194 164.242 106.092 164.317 106.017C164.392 105.942 164.494 105.9 164.6 105.9C164.706 105.9 164.808 105.942 164.883 106.017C164.958 106.092 165 106.194 165 106.3V106.7H165.3C165.341 106.694 165.382 106.698 165.421 106.711C165.461 106.724 165.496 106.746 165.525 106.775C165.554 106.804 165.576 106.84 165.589 106.879C165.602 106.918 165.606 106.959 165.6 107C165.606 107.041 165.602 107.082 165.589 107.121C165.576 107.16 165.554 107.196 165.525 107.225C165.496 107.254 165.461 107.276 165.421 107.289C165.382 107.302 165.341 107.306 165.3 107.3H165V108C165 108.1 165 108.2 165.2 108.2C165.304 108.207 165.402 108.251 165.475 108.325C165.549 108.398 165.593 108.496 165.6 108.6Z" fill="url(#paint22_linear_3_5348)"/>
</g>
</g>
<defs>
<linearGradient id="paint0_linear_3_5348" x1="-282.7" y1="599.967" x2="-282.297" y2="599.968" gradientUnits="userSpaceOnUse">
<stop stop-color="#F4F5F9"/>
<stop offset="1" stop-color="#D2D4E0"/>
</linearGradient>
<linearGradient id="paint1_linear_3_5348" x1="-410.515" y1="589.293" x2="-409.511" y2="589.293" gradientUnits="userSpaceOnUse">
<stop stop-color="#F4F5F9"/>
<stop offset="1" stop-color="#D2D4E0"/>
</linearGradient>
<linearGradient id="paint2_linear_3_5348" x1="-401.492" y1="575.005" x2="-400.505" y2="575.005" gradientUnits="userSpaceOnUse">
<stop stop-color="#F4F5F9"/>
<stop offset="1" stop-color="#D2D4E0"/>
</linearGradient>
<linearGradient id="paint3_linear_3_5348" x1="-400.788" y1="577.195" x2="-400.788" y2="575.899" gradientUnits="userSpaceOnUse">
<stop stop-color="#F4F5F9"/>
<stop offset="1" stop-color="#D2D4E0"/>
</linearGradient>
<linearGradient id="paint4_linear_3_5348" x1="-403.401" y1="595.015" x2="-402.396" y2="595.015" gradientUnits="userSpaceOnUse">
<stop stop-color="#F4F5F9"/>
<stop offset="1" stop-color="#D2D4E0"/>
</linearGradient>
<linearGradient id="paint5_linear_3_5348" x1="-410.697" y1="357.9" x2="-409.724" y2="357.9" gradientUnits="userSpaceOnUse">
<stop stop-color="#F4F5F9"/>
<stop offset="1" stop-color="#D2D4E0"/>
</linearGradient>
<linearGradient id="paint6_linear_3_5348" x1="-384.303" y1="572.705" x2="-383.9" y2="571.306" gradientUnits="userSpaceOnUse">
<stop stop-color="#F4F5F9"/>
<stop offset="1" stop-color="#D2D4E0"/>
</linearGradient>
<linearGradient id="paint7_linear_3_5348" x1="-396.306" y1="594.088" x2="-395.302" y2="594.088" gradientUnits="userSpaceOnUse">
<stop stop-color="#F4F5F9"/>
<stop offset="1" stop-color="#D2D4E0"/>
</linearGradient>
<linearGradient id="paint8_linear_3_5348" x1="-247.999" y1="435.399" x2="-247.001" y2="435.399" gradientUnits="userSpaceOnUse">
<stop stop-color="#F4F5F9"/>
<stop offset="1" stop-color="#D2D4E0"/>
</linearGradient>
<linearGradient id="paint9_linear_3_5348" x1="-285.8" y1="368.603" x2="-284.799" y2="368.603" gradientUnits="userSpaceOnUse">
<stop stop-color="#EDAC80"/>
<stop offset="0.3" stop-color="#E6A579"/>
<stop offset="0.7" stop-color="#D39367"/>
<stop offset="1" stop-color="#BD7E52"/>
</linearGradient>
<linearGradient id="paint10_linear_3_5348" x1="-26.4998" y1="222.618" x2="-25.5002" y2="222.618" gradientUnits="userSpaceOnUse">
<stop stop-color="#EDAC80"/>
<stop offset="0.3" stop-color="#E6A579"/>
<stop offset="0.7" stop-color="#D39367"/>
<stop offset="1" stop-color="#BD7E52"/>
</linearGradient>
<linearGradient id="paint11_linear_3_5348" x1="-127.162" y1="338.348" x2="-126.462" y2="338.348" gradientUnits="userSpaceOnUse">
<stop stop-color="#EDAC80"/>
<stop offset="0.3" stop-color="#E6A579"/>
<stop offset="0.7" stop-color="#D39367"/>
<stop offset="1" stop-color="#BD7E52"/>
</linearGradient>
<linearGradient id="paint12_linear_3_5348" x1="-178.899" y1="439.3" x2="-177.899" y2="439.3" gradientUnits="userSpaceOnUse">
<stop stop-color="#EDAC80"/>
<stop offset="0.3" stop-color="#E6A579"/>
<stop offset="0.7" stop-color="#D39367"/>
<stop offset="1" stop-color="#BD7E52"/>
</linearGradient>
<linearGradient id="paint13_linear_3_5348" x1="-105.1" y1="-104.2" x2="-104.101" y2="-104.2" gradientUnits="userSpaceOnUse">
<stop stop-color="#EDAC80"/>
<stop offset="0.3" stop-color="#E6A579"/>
<stop offset="0.7" stop-color="#D39367"/>
<stop offset="1" stop-color="#BD7E52"/>
</linearGradient>
<linearGradient id="paint14_linear_3_5348" x1="-91.701" y1="-177.3" x2="-90.7013" y2="-177.3" gradientUnits="userSpaceOnUse">
<stop stop-color="#EDAC80"/>
<stop offset="0.3" stop-color="#E6A579"/>
<stop offset="0.7" stop-color="#D39367"/>
<stop offset="1" stop-color="#BD7E52"/>
</linearGradient>
<linearGradient id="paint15_linear_3_5348" x1="130.6" y1="-821.1" x2="131.6" y2="-821.1" gradientUnits="userSpaceOnUse">
<stop stop-color="#EDAC80"/>
<stop offset="0.3" stop-color="#E6A579"/>
<stop offset="0.7" stop-color="#D39367"/>
<stop offset="1" stop-color="#BD7E52"/>
</linearGradient>
<linearGradient id="paint16_linear_3_5348" x1="139.2" y1="486.6" x2="148.042" y2="486.461" gradientUnits="userSpaceOnUse">
<stop stop-color="#F4F5F9"/>
<stop offset="1" stop-color="#D2D4E0"/>
</linearGradient>
<linearGradient id="paint17_linear_3_5348" x1="-246.2" y1="435.166" x2="-243.646" y2="430.968" gradientUnits="userSpaceOnUse">
<stop stop-color="#F4F5F9"/>
<stop offset="1" stop-color="#D2D4E0"/>
</linearGradient>
<linearGradient id="paint18_linear_3_5348" x1="-296.402" y1="432.6" x2="-295.443" y2="428.196" gradientUnits="userSpaceOnUse">
<stop stop-color="#F4F5F9"/>
<stop offset="1" stop-color="#D2D4E0"/>
</linearGradient>
<linearGradient id="paint19_linear_3_5348" x1="-301.558" y1="489.801" x2="-299.658" y2="486.999" gradientUnits="userSpaceOnUse">
<stop stop-color="#F4F5F9"/>
<stop offset="1" stop-color="#D2D4E0"/>
</linearGradient>
<linearGradient id="paint20_linear_3_5348" x1="-220.302" y1="435.1" x2="-216.769" y2="431.203" gradientUnits="userSpaceOnUse">
<stop stop-color="#F4F5F9"/>
<stop offset="1" stop-color="#D2D4E0"/>
</linearGradient>
<linearGradient id="paint21_linear_3_5348" x1="126.6" y1="475.708" x2="135.269" y2="475.507" gradientUnits="userSpaceOnUse">
<stop stop-color="#F4F5F9"/>
<stop offset="1" stop-color="#D2D4E0"/>
</linearGradient>
<linearGradient id="paint22_linear_3_5348" x1="-131.17" y1="474.417" x2="-126.207" y2="473.711" gradientUnits="userSpaceOnUse">
<stop stop-color="#F4F5F9"/>
<stop offset="1" stop-color="#D2D4E0"/>
</linearGradient>
<clipPath id="clip0_3_5348">
<rect width="186" height="186" fill="white"/>
</clipPath>
</defs>
</svg>
