<svg width="339" height="221" viewBox="0 0 339 221" fill="none" xmlns="http://www.w3.org/2000/svg">
<g clip-path="url(#clip0_3_4438)">
<path d="M176.116 0.302979L37.178 89.552L56.107 220.552H274.587L301.822 107.919L176.116 0.302979Z" fill="#F6F5FA"/>
<path opacity="0.1" d="M176.116 0.302979L37.178 89.551L56.108 220.551H274.587L301.822 107.918L176.116 0.302979Z" fill="#00B2CA"/>
<path fill-rule="evenodd" clip-rule="evenodd" d="M134.678 94.387C134.681 93.8984 134.587 93.414 134.403 92.9615C134.218 92.509 133.947 92.0972 133.603 91.7497C133.259 91.4022 132.851 91.1258 132.4 90.9363C131.95 90.7468 131.467 90.6478 130.978 90.645H65.744C65.2533 90.6433 64.767 90.7383 64.3129 90.9245C63.8589 91.1107 63.446 91.3846 63.0977 91.7304C62.7495 92.0762 62.4728 92.4872 62.2834 92.9399C62.0941 93.3927 61.9957 93.8783 61.994 94.369V135.552C61.9969 136.545 62.3932 137.496 63.0961 138.198C63.7989 138.899 64.7511 139.293 65.744 139.294H130.936C131.427 139.295 131.913 139.198 132.366 139.011C132.82 138.824 133.232 138.549 133.579 138.203C133.926 137.856 134.202 137.445 134.39 136.991C134.578 136.538 134.675 136.053 134.676 135.562V94.387H134.678Z" fill="#000045"/>
<path fill-rule="evenodd" clip-rule="evenodd" d="M126.214 63.982C126.214 63.5739 126.134 63.1697 125.978 62.7926C125.822 62.4155 125.593 62.0728 125.304 61.7841C125.016 61.4954 124.673 61.2663 124.296 61.11C123.919 60.9537 123.515 60.8732 123.107 60.873H73.884C73.0584 60.8723 72.2662 61.1993 71.6815 61.7822C71.0969 62.3652 70.7676 63.1564 70.766 63.982V96.8251L95.284 115.314C96.2071 116.012 97.3327 116.39 98.49 116.39C99.6472 116.39 100.773 116.012 101.696 115.314L126.214 96.8251V63.982Z" fill="white"/>
<path fill-rule="evenodd" clip-rule="evenodd" d="M126.669 63.983C126.667 63.0381 126.291 62.1324 125.622 61.465C124.953 60.7975 124.047 60.4227 123.102 60.423H73.8839C73.4163 60.4222 72.9531 60.5135 72.5207 60.6917C72.0884 60.87 71.6954 61.1316 71.3642 61.4617C71.0329 61.7918 70.77 62.184 70.5903 62.6157C70.4106 63.0474 70.3177 63.5103 70.3169 63.978V96.826C70.316 96.8959 70.3322 96.9649 70.3643 97.027C70.3964 97.0891 70.4434 97.1423 70.5009 97.182C70.5009 97.182 87.7089 110.175 95.0109 115.671C96.0115 116.43 97.233 116.841 98.4889 116.841C99.7449 116.841 100.966 116.43 101.967 115.671C109.267 110.171 126.485 97.182 126.485 97.182C126.543 97.1423 126.589 97.0891 126.622 97.027C126.654 96.9649 126.67 96.8959 126.669 96.826V63.983ZM125.769 63.983V96.603C123.931 97.985 108.296 109.784 101.435 114.956C100.586 115.593 99.5543 115.937 98.4934 115.937C97.4326 115.937 96.4004 115.593 95.5519 114.956L71.2179 96.603V63.983C71.2198 63.2754 71.5017 62.5974 72.002 62.097C72.5023 61.5967 73.1804 61.3148 73.8879 61.313H123.107C123.814 61.3156 124.49 61.598 124.989 62.0984C125.488 62.5988 125.768 63.2764 125.769 63.983Z" fill="#000045"/>
<path fill-rule="evenodd" clip-rule="evenodd" d="M63.054 91.581C63.054 91.581 86.286 109.103 94.989 115.656C95.9973 116.417 97.226 116.828 98.489 116.828C99.7521 116.828 100.981 116.417 101.989 115.656C110.678 109.103 133.923 91.581 133.923 91.581C134.015 91.5067 134.075 91.4 134.091 91.2828C134.106 91.1656 134.076 91.0469 134.007 90.951C133.935 90.856 133.828 90.7935 133.71 90.7772C133.592 90.7609 133.472 90.7921 133.377 90.864C133.377 90.864 110.145 108.388 101.453 114.939C100.599 115.584 99.5578 115.933 98.4875 115.933C97.4173 115.933 96.3762 115.584 95.522 114.939C86.83 108.388 63.599 90.864 63.599 90.864C63.5036 90.7974 63.3861 90.7703 63.2711 90.7883C63.1562 90.8063 63.0526 90.868 62.9821 90.9606C62.9116 91.0532 62.8796 91.1695 62.8928 91.2851C62.906 91.4007 62.9644 91.5068 63.054 91.581Z" fill="white"/>
<path fill-rule="evenodd" clip-rule="evenodd" d="M79.434 72.503H99.089C99.2084 72.503 99.3228 72.4556 99.4072 72.3712C99.4916 72.2868 99.539 72.1724 99.539 72.053C99.539 71.9337 99.4916 71.8192 99.4072 71.7348C99.3228 71.6504 99.2084 71.603 99.089 71.603H79.434C79.3147 71.603 79.2002 71.6504 79.1158 71.7348C79.0314 71.8192 78.984 71.9337 78.984 72.053C78.984 72.1724 79.0314 72.2868 79.1158 72.3712C79.2002 72.4556 79.3147 72.503 79.434 72.503Z" fill="#00B2CA"/>
<path fill-rule="evenodd" clip-rule="evenodd" d="M79.406 80.403H117.213C117.334 80.403 117.449 80.3551 117.534 80.2699C117.62 80.1847 117.667 80.0691 117.667 79.9485C117.667 79.828 117.62 79.7124 117.534 79.6271C117.449 79.5419 117.334 79.494 117.213 79.494H79.403C79.2824 79.494 79.1668 79.5419 79.0816 79.6271C78.9964 79.7124 78.9485 79.828 78.9485 79.9485C78.9485 80.0691 78.9964 80.1847 79.0816 80.2699C79.1668 80.3551 79.2824 80.403 79.403 80.403" fill="#00B2CA"/>
<path fill-rule="evenodd" clip-rule="evenodd" d="M79.406 88.314H117.213C117.275 88.3169 117.336 88.3073 117.394 88.2858C117.451 88.2642 117.504 88.2312 117.548 88.1887C117.593 88.1462 117.628 88.0952 117.653 88.0386C117.677 87.982 117.689 87.9211 117.689 87.8595C117.689 87.798 117.677 87.7371 117.653 87.6805C117.628 87.6239 117.593 87.5728 117.548 87.5304C117.504 87.4879 117.451 87.4549 117.394 87.4333C117.336 87.4118 117.275 87.4022 117.213 87.405H79.403C79.2862 87.4105 79.1759 87.4608 79.0952 87.5454C79.0144 87.6301 78.9694 87.7426 78.9694 87.8595C78.9694 87.9765 79.0144 88.089 79.0952 88.1736C79.1759 88.2583 79.2862 88.3086 79.403 88.314" fill="#00B2CA"/>
<path fill-rule="evenodd" clip-rule="evenodd" d="M79.406 96.209H117.213C117.333 96.209 117.449 96.1612 117.534 96.076C117.619 95.9909 117.667 95.8754 117.667 95.755C117.667 95.6346 117.619 95.5191 117.534 95.434C117.449 95.3489 117.333 95.301 117.213 95.301H79.403C79.2826 95.301 79.1671 95.3489 79.0819 95.434C78.9968 95.5191 78.949 95.6346 78.949 95.755C78.949 95.8754 78.9968 95.9909 79.0819 96.076C79.1671 96.1612 79.2826 96.209 79.403 96.209" fill="#00B2CA"/>
<path fill-rule="evenodd" clip-rule="evenodd" d="M128.791 120.862L130.759 124.405C130.816 124.509 130.912 124.586 131.026 124.62C131.141 124.653 131.263 124.64 131.367 124.583C131.472 124.525 131.549 124.429 131.582 124.315C131.616 124.201 131.602 124.078 131.545 123.974L129.578 120.421C129.519 120.318 129.423 120.241 129.309 120.208C129.195 120.175 129.073 120.187 128.968 120.243C128.863 120.303 128.786 120.401 128.754 120.517C128.721 120.633 128.734 120.757 128.792 120.863" fill="#000045"/>
<path fill-rule="evenodd" clip-rule="evenodd" d="M68.571 58.233L56.278 45.945C56.2363 45.9033 56.1868 45.8702 56.1323 45.8477C56.0778 45.8251 56.0195 45.8135 55.9605 45.8135C55.9015 45.8135 55.8431 45.8251 55.7887 45.8477C55.7342 45.8702 55.6847 45.9033 55.643 45.945C55.6013 45.9867 55.5682 46.0362 55.5457 46.0907C55.5231 46.1451 55.5115 46.2035 55.5115 46.2625C55.5115 46.3215 55.5231 46.3798 55.5457 46.4343C55.5682 46.4888 55.6013 46.5383 55.643 46.58L67.935 58.868C68.0192 58.9522 68.1334 58.9995 68.2525 58.9995C68.3716 58.9995 68.4858 58.9522 68.57 58.868C68.6542 58.7838 68.7015 58.6696 68.7015 58.5505C68.7015 58.4314 68.6552 58.3172 68.571 58.233Z" fill="#00B2CA"/>
<path fill-rule="evenodd" clip-rule="evenodd" d="M73.878 52.803L71.448 43.733C71.4141 43.6215 71.3383 43.5276 71.2365 43.471C71.1346 43.4144 71.0148 43.3996 70.9023 43.4297C70.7897 43.4598 70.6933 43.5325 70.6334 43.6324C70.5734 43.7323 70.5546 43.8515 70.581 43.965L73.011 53.035C73.0448 53.1465 73.1207 53.2404 73.2225 53.297C73.3243 53.3536 73.4441 53.3684 73.5567 53.3383C73.6692 53.3082 73.7657 53.2355 73.8256 53.1357C73.8856 53.0358 73.9043 52.9165 73.878 52.803Z" fill="#00B2CA"/>
<path fill-rule="evenodd" clip-rule="evenodd" d="M62.734 63.303L52.934 60.677C52.8205 60.6507 52.7012 60.6695 52.6014 60.7294C52.5015 60.7894 52.4288 60.8858 52.3987 60.9983C52.3686 61.1109 52.3834 61.2307 52.44 61.3325C52.4966 61.4344 52.5905 61.5102 52.702 61.544L62.502 64.17C62.5588 64.1887 62.6188 64.1958 62.6784 64.191C62.738 64.1862 62.7961 64.1695 62.8491 64.1419C62.9022 64.1143 62.9492 64.0764 62.9875 64.0304C63.0257 63.9844 63.0543 63.9312 63.0717 63.874C63.0891 63.8168 63.0949 63.7566 63.0887 63.6972C63.0825 63.6377 63.0645 63.58 63.0358 63.5276C63.007 63.4751 62.9681 63.429 62.9212 63.3918C62.8744 63.3546 62.8206 63.3272 62.763 63.311L62.734 63.303Z" fill="#00B2CA"/>
<path fill-rule="evenodd" clip-rule="evenodd" d="M197.778 83.0511C198.684 83.1671 199.59 83.2441 200.488 83.2921C200.546 83.2963 200.604 83.2891 200.659 83.2709C200.714 83.2526 200.765 83.2238 200.809 83.1859C200.852 83.148 200.888 83.1018 200.914 83.05C200.94 82.9983 200.956 82.9419 200.96 82.8841V82.8681C200.965 82.7494 200.924 82.6334 200.844 82.5451C200.765 82.4568 200.654 82.4033 200.535 82.3961C199.657 82.3571 198.781 82.2711 197.884 82.1641C197.827 82.1553 197.769 82.1579 197.713 82.1717C197.657 82.1855 197.604 82.2103 197.557 82.2445C197.511 82.2788 197.472 82.322 197.442 82.3715C197.412 82.421 197.392 82.4759 197.384 82.5331V82.5501C197.371 82.6694 197.406 82.7889 197.481 82.8826C197.556 82.9763 197.665 83.0365 197.784 83.0501M205.939 83.1661C206.856 83.0661 207.762 82.9441 208.639 82.7801C208.755 82.7609 208.86 82.6964 208.929 82.6006C208.998 82.5048 209.026 82.3856 209.007 82.2691V82.2601C208.984 82.144 208.917 82.0412 208.82 81.9731C208.723 81.9049 208.604 81.8766 208.487 81.8941C207.62 82.0581 206.743 82.1834 205.855 82.2701C205.737 82.2827 205.629 82.3414 205.554 82.4333C205.479 82.5252 205.444 82.643 205.455 82.7611C205.472 82.8774 205.532 82.9832 205.623 83.0574C205.714 83.1315 205.83 83.1685 205.947 83.1611M189.847 81.1561C190.714 81.4641 191.583 81.7341 192.447 81.9751C192.562 82.0029 192.683 81.9854 192.785 81.9261C192.887 81.8669 192.962 81.7705 192.995 81.6571C193.026 81.5433 193.011 81.4218 192.953 81.3192C192.894 81.2166 192.798 81.1414 192.684 81.1101H192.678C191.841 80.8791 190.992 80.6101 190.144 80.3101C190.032 80.2724 189.909 80.2806 189.803 80.3329C189.696 80.3851 189.615 80.4772 189.576 80.5891C189.556 80.6431 189.546 80.7006 189.549 80.7582C189.551 80.8159 189.564 80.8726 189.588 80.925C189.612 80.9775 189.646 81.0247 189.688 81.064C189.73 81.1033 189.78 81.1339 189.834 81.1541H189.845M213.915 81.3861C214.782 81.0861 215.63 80.7501 216.46 80.3931C216.57 80.3445 216.656 80.2543 216.7 80.1423C216.743 80.0302 216.74 79.9055 216.692 79.7956C216.643 79.6856 216.553 79.5995 216.441 79.5561C216.329 79.5127 216.204 79.5155 216.094 79.5641C215.294 79.9211 214.464 80.2481 213.625 80.5381C213.569 80.5578 213.517 80.5884 213.473 80.6282C213.429 80.6679 213.392 80.716 213.367 80.7697C213.341 80.8233 213.326 80.8816 213.323 80.941C213.32 81.0004 213.328 81.0599 213.348 81.1161C213.367 81.171 213.397 81.2215 213.436 81.2649C213.475 81.3082 213.522 81.3435 213.574 81.3686C213.627 81.3938 213.684 81.4084 213.742 81.4115C213.8 81.4147 213.858 81.4064 213.913 81.3871M182.438 77.7531C183.238 78.2161 184.038 78.6401 184.838 79.0351C184.889 79.0622 184.945 79.079 185.002 79.0846C185.059 79.0902 185.117 79.0844 185.173 79.0676C185.228 79.0508 185.279 79.0233 185.324 78.9867C185.368 78.95 185.405 78.905 185.432 78.8541L185.438 78.8421C185.49 78.7347 185.498 78.6115 185.46 78.4983C185.423 78.3851 185.343 78.2908 185.238 78.2351C184.455 77.8491 183.675 77.4251 182.886 76.9821C182.785 76.9205 182.664 76.9016 182.549 76.9293C182.435 76.9571 182.336 77.0293 182.274 77.1301C182.212 77.2309 182.194 77.352 182.221 77.4667C182.249 77.5815 182.321 77.6805 182.422 77.7421L182.442 77.7531M221.26 77.8111C222.032 77.3111 222.773 76.7801 223.488 76.2301C223.54 76.196 223.584 76.1516 223.617 76.0997C223.651 76.0477 223.673 75.9894 223.683 75.9283C223.693 75.8673 223.69 75.8048 223.675 75.7449C223.659 75.685 223.632 75.629 223.593 75.5804C223.555 75.5318 223.507 75.4916 223.452 75.4625C223.398 75.4334 223.338 75.4159 223.276 75.4112C223.215 75.4064 223.153 75.4146 223.094 75.435C223.036 75.4555 222.982 75.4879 222.937 75.5301C222.243 76.0601 221.519 76.5711 220.769 77.0531C220.667 77.1169 220.595 77.2185 220.568 77.3356C220.541 77.4527 220.562 77.5757 220.626 77.6776C220.689 77.7794 220.791 77.8517 220.908 77.8787C221.025 77.9056 221.148 77.8849 221.25 77.8211L221.259 77.8151M175.693 73.2751C176.319 73.6891 176.946 74.1331 177.572 74.5961C177.678 74.6631 177.772 74.7401 177.882 74.8081C177.929 74.8422 177.983 74.8667 178.04 74.8801C178.097 74.8934 178.156 74.8955 178.214 74.886C178.272 74.8766 178.327 74.8559 178.377 74.8251C178.426 74.7943 178.469 74.754 178.504 74.7066C178.538 74.6591 178.562 74.6054 178.576 74.5484C178.589 74.4915 178.591 74.4325 178.581 74.3748C178.572 74.3171 178.551 74.2618 178.521 74.2121C178.49 74.1624 178.449 74.1192 178.402 74.0851C178.302 74.0081 178.209 73.9401 178.112 73.8631C177.466 73.3904 176.824 72.9471 176.185 72.5331C176.087 72.4678 175.966 72.4443 175.851 72.4678C175.735 72.4912 175.633 72.5597 175.568 72.6581C175.503 72.7565 175.479 72.8768 175.503 72.9925C175.526 73.1082 175.595 73.2098 175.693 73.2751ZM227.515 72.5621C228.142 71.8867 228.733 71.1927 229.288 70.4801C229.357 70.3849 229.387 70.2667 229.371 70.15C229.356 70.0333 229.295 69.9273 229.203 69.8541C229.157 69.8177 229.104 69.7908 229.047 69.775C228.991 69.7591 228.932 69.7545 228.873 69.7614C228.815 69.7684 228.759 69.7868 228.708 69.8155C228.656 69.8443 228.611 69.8829 228.575 69.9291C228.035 70.6231 227.467 71.2981 226.86 71.9531C226.781 72.0417 226.739 72.1579 226.744 72.2768C226.75 72.3957 226.801 72.5078 226.888 72.5891C226.931 72.6283 226.981 72.6586 227.036 72.6784C227.091 72.6982 227.149 72.707 227.207 72.7043C227.265 72.7016 227.322 72.6875 227.375 72.6627C227.428 72.638 227.475 72.6031 227.514 72.5601M138.014 72.2031C138.748 71.7208 139.511 71.283 140.298 70.8921C140.351 70.8663 140.398 70.8303 140.437 70.786C140.476 70.7417 140.506 70.6901 140.524 70.6342C140.543 70.5783 140.55 70.5192 140.546 70.4605C140.541 70.4017 140.525 70.3445 140.498 70.2921V70.2871C140.442 70.1816 140.348 70.1018 140.235 70.0644C140.122 70.0271 139.998 70.0352 139.891 70.0871C139.071 70.4995 138.276 70.9596 137.51 71.4651C137.462 71.4968 137.421 71.5376 137.389 71.5853C137.356 71.633 137.334 71.6866 137.322 71.743C137.311 71.7994 137.311 71.8575 137.322 71.914C137.333 71.9705 137.355 72.0242 137.387 72.0721L137.394 72.0821C137.459 72.1799 137.559 72.2481 137.674 72.2718C137.789 72.2954 137.908 72.2725 138.006 72.2081L138.021 72.1981M168.627 69.5571C169.436 69.8751 170.246 70.2421 171.066 70.6371C171.173 70.685 171.294 70.6896 171.404 70.65C171.514 70.6104 171.605 70.5297 171.656 70.4248C171.708 70.3199 171.717 70.199 171.682 70.0876C171.646 69.9761 171.569 69.8827 171.466 69.8271C170.627 69.4271 169.788 69.0561 168.966 68.7271C168.913 68.7049 168.856 68.6935 168.798 68.6934C168.74 68.6934 168.683 68.7046 168.63 68.7266C168.577 68.7487 168.528 68.781 168.487 68.8217C168.447 68.8624 168.414 68.9108 168.392 68.9641V68.9781C168.348 69.087 168.349 69.2089 168.394 69.3173C168.44 69.4256 168.526 69.5115 168.635 69.5561M145.22 68.8621C146.02 68.6021 146.868 68.3511 147.774 68.1291C147.89 68.0991 147.99 68.0245 148.051 67.9215C148.113 67.8185 148.131 67.6955 148.102 67.5791C148.073 67.4644 148 67.3657 147.899 67.3044C147.798 67.243 147.677 67.2238 147.562 67.2511C146.627 67.4821 145.762 67.7421 144.94 68.0031C144.884 68.0215 144.832 68.0508 144.787 68.0893C144.741 68.1278 144.705 68.1749 144.678 68.2277C144.651 68.2806 144.635 68.3382 144.63 68.3972C144.626 68.4563 144.633 68.5157 144.651 68.5721C144.669 68.6284 144.699 68.6806 144.737 68.7256C144.776 68.7706 144.823 68.8076 144.876 68.8344C144.929 68.8613 144.986 68.8774 145.045 68.882C145.104 68.8866 145.164 68.8805 145.22 68.8621ZM160.961 67.4611C161.819 67.5861 162.686 67.7501 163.573 67.9611C163.689 67.9877 163.811 67.9673 163.913 67.9041C164.014 67.8409 164.086 67.7402 164.113 67.6241C164.138 67.5081 164.116 67.3871 164.054 67.2864C163.991 67.1858 163.892 67.1133 163.777 67.0841C162.871 66.8721 161.977 66.7081 161.096 66.5731C161.037 66.5599 160.977 66.5586 160.918 66.5692C160.859 66.5799 160.802 66.6023 160.752 66.6351C160.702 66.6679 160.659 66.7105 160.625 66.7603C160.591 66.8101 160.568 66.8661 160.557 66.9251C160.545 66.984 160.546 67.0447 160.558 67.1034C160.57 67.1622 160.594 67.2179 160.629 67.2672C160.663 67.3165 160.707 67.3585 160.757 67.3906C160.808 67.4227 160.865 67.4443 160.924 67.4541C160.936 67.4571 160.949 67.4601 160.961 67.4611ZM153.012 67.2421C153.87 67.1651 154.757 67.1171 155.672 67.1071C155.79 67.102 155.901 67.0524 155.984 66.9683C156.066 66.8842 156.113 66.7718 156.116 66.6541C156.114 66.5354 156.066 66.4223 155.981 66.3393C155.896 66.2564 155.782 66.2103 155.663 66.2111C154.728 66.2211 153.812 66.2691 152.935 66.3461C152.819 66.3562 152.712 66.4119 152.637 66.501C152.562 66.59 152.525 66.7051 152.535 66.8211V66.8371C152.548 66.9533 152.605 67.06 152.695 67.1347C152.785 67.2094 152.9 67.2461 153.017 67.2371" fill="#000045"/>
<path fill-rule="evenodd" clip-rule="evenodd" d="M141.394 212.403C142.271 212.453 143.177 212.481 144.103 212.49C144.161 212.491 144.219 212.481 144.274 212.46C144.328 212.438 144.378 212.407 144.42 212.366C144.462 212.326 144.495 212.278 144.519 212.224C144.542 212.171 144.555 212.113 144.556 212.055V212.048C144.557 211.929 144.511 211.815 144.427 211.73C144.344 211.645 144.231 211.597 144.112 211.595C143.196 211.584 142.312 211.556 141.442 211.508C141.323 211.502 141.207 211.543 141.119 211.622C141.03 211.701 140.976 211.812 140.969 211.931C140.96 212.047 140.997 212.161 141.072 212.249C141.147 212.338 141.254 212.393 141.369 212.403H141.392M149.518 212.303C150.405 212.236 151.301 212.149 152.218 212.043C152.277 212.037 152.335 212.019 152.387 211.991C152.44 211.962 152.486 211.924 152.523 211.877C152.56 211.831 152.588 211.777 152.604 211.72C152.621 211.662 152.625 211.602 152.618 211.543C152.604 211.424 152.544 211.315 152.451 211.24C152.357 211.165 152.237 211.13 152.118 211.143C151.221 211.249 150.334 211.336 149.457 211.403C149.339 211.411 149.229 211.466 149.151 211.555C149.074 211.644 149.034 211.76 149.042 211.878V211.886C149.053 212.004 149.11 212.113 149.2 212.19C149.289 212.267 149.406 212.307 149.524 212.3M133.324 211.355C134.192 211.537 135.088 211.702 136.004 211.847C136.122 211.864 136.241 211.834 136.337 211.763C136.432 211.693 136.496 211.587 136.515 211.47C136.533 211.353 136.504 211.234 136.434 211.138C136.364 211.043 136.259 210.979 136.142 210.961C135.236 210.816 134.368 210.661 133.51 210.478C133.394 210.455 133.273 210.478 133.174 210.543C133.075 210.608 133.005 210.709 132.98 210.825C132.968 210.882 132.967 210.941 132.977 210.999C132.988 211.057 133.009 211.112 133.041 211.161C133.073 211.21 133.114 211.253 133.162 211.286C133.21 211.319 133.265 211.343 133.322 211.355M157.584 211.229C158.452 211.066 159.339 210.882 160.235 210.681C160.349 210.657 160.449 210.589 160.512 210.491C160.576 210.394 160.598 210.275 160.574 210.161V210.15C160.549 210.034 160.479 209.933 160.38 209.868C160.281 209.803 160.16 209.78 160.044 209.803C159.157 210.003 158.28 210.178 157.412 210.343C157.354 210.354 157.299 210.376 157.25 210.408C157.201 210.44 157.159 210.481 157.126 210.529C157.093 210.577 157.069 210.632 157.057 210.689C157.045 210.746 157.044 210.805 157.055 210.863C157.077 210.982 157.145 211.087 157.245 211.155C157.344 211.224 157.465 211.25 157.584 211.229ZM125.514 209.029C126.343 209.358 127.192 209.666 128.078 209.955C128.134 209.973 128.192 209.981 128.251 209.976C128.309 209.972 128.366 209.956 128.419 209.929C128.471 209.903 128.518 209.867 128.556 209.822C128.594 209.778 128.623 209.726 128.641 209.671C128.66 209.615 128.667 209.556 128.663 209.498C128.658 209.439 128.642 209.382 128.616 209.33C128.59 209.278 128.553 209.231 128.509 209.193C128.464 209.154 128.413 209.125 128.357 209.107C127.489 208.819 126.651 208.52 125.851 208.192C125.738 208.15 125.614 208.154 125.504 208.202C125.394 208.251 125.308 208.34 125.263 208.452C125.241 208.506 125.231 208.564 125.231 208.622C125.232 208.68 125.244 208.738 125.267 208.791C125.29 208.845 125.323 208.893 125.365 208.934C125.407 208.974 125.456 209.006 125.51 209.028M165.475 209.386L168.075 208.686C168.131 208.671 168.185 208.645 168.231 208.61C168.278 208.575 168.317 208.531 168.346 208.48C168.376 208.43 168.395 208.374 168.403 208.316C168.411 208.258 168.407 208.199 168.392 208.143V208.138C168.361 208.023 168.286 207.925 168.184 207.866C168.081 207.806 167.959 207.789 167.844 207.819C166.966 208.06 166.099 208.291 165.244 208.513C165.129 208.544 165.031 208.62 164.971 208.723C164.911 208.826 164.895 208.949 164.925 209.064C164.957 209.179 165.032 209.278 165.134 209.339C165.237 209.4 165.36 209.419 165.476 209.391M173.276 207.232C174.126 206.991 174.993 206.74 175.86 206.488C175.975 206.455 176.072 206.378 176.13 206.273C176.188 206.168 176.202 206.045 176.169 205.93C176.136 205.815 176.059 205.718 175.954 205.66C175.849 205.602 175.726 205.588 175.611 205.621C174.742 205.872 173.886 206.121 173.027 206.373C172.915 206.403 172.819 206.476 172.76 206.577C172.702 206.677 172.685 206.797 172.715 206.909V206.921C172.747 207.035 172.823 207.133 172.927 207.191C173.03 207.25 173.152 207.265 173.267 207.233H173.272M118.241 205.362C118.983 205.835 119.764 206.288 120.583 206.741C120.688 206.795 120.81 206.807 120.923 206.773C121.037 206.739 121.132 206.662 121.19 206.559C121.247 206.457 121.261 206.337 121.23 206.225C121.198 206.112 121.124 206.017 121.023 205.959H121.017C120.207 205.517 119.446 205.072 118.717 204.611C118.616 204.549 118.494 204.529 118.379 204.556C118.263 204.583 118.163 204.655 118.1 204.756C118.037 204.854 118.015 204.973 118.04 205.087C118.065 205.201 118.134 205.301 118.232 205.364L118.245 205.372M181.036 204.972C181.884 204.721 182.753 204.46 183.609 204.2C183.724 204.168 183.821 204.091 183.879 203.987C183.938 203.883 183.952 203.76 183.92 203.645C183.883 203.533 183.804 203.44 183.7 203.384C183.596 203.328 183.475 203.314 183.361 203.345C182.494 203.605 181.636 203.857 180.777 204.117C180.666 204.147 180.572 204.219 180.515 204.318C180.457 204.417 180.442 204.535 180.471 204.646L180.477 204.665C180.493 204.722 180.52 204.775 180.556 204.822C180.593 204.868 180.638 204.907 180.69 204.936C180.741 204.965 180.798 204.983 180.857 204.99C180.916 204.997 180.975 204.992 181.032 204.976M188.773 202.676C189.631 202.416 190.49 202.164 191.357 201.904C191.413 201.887 191.466 201.859 191.511 201.822C191.557 201.784 191.594 201.738 191.622 201.686C191.65 201.635 191.667 201.578 191.673 201.519C191.679 201.461 191.673 201.401 191.656 201.345C191.639 201.289 191.611 201.236 191.574 201.191C191.536 201.145 191.49 201.108 191.438 201.08C191.386 201.052 191.33 201.035 191.271 201.029C191.212 201.023 191.153 201.029 191.097 201.046C190.239 201.308 189.371 201.558 188.513 201.818C188.457 201.835 188.404 201.863 188.359 201.9C188.313 201.938 188.275 201.984 188.248 202.036C188.22 202.088 188.203 202.144 188.197 202.203C188.191 202.262 188.197 202.321 188.214 202.377C188.231 202.433 188.259 202.486 188.296 202.531C188.334 202.577 188.38 202.615 188.432 202.642C188.483 202.67 188.54 202.687 188.599 202.693C188.657 202.699 188.717 202.693 188.773 202.676ZM111.773 200.402C112.399 200.989 113.073 201.596 113.816 202.202C113.909 202.273 114.025 202.305 114.141 202.292C114.257 202.279 114.363 202.221 114.437 202.132C114.512 202.042 114.549 201.927 114.541 201.811C114.533 201.695 114.48 201.586 114.394 201.508C113.661 200.908 112.994 200.323 112.394 199.754C112.309 199.672 112.195 199.628 112.078 199.63C111.96 199.632 111.848 199.68 111.766 199.765L111.758 199.774C111.718 199.815 111.687 199.863 111.665 199.916C111.644 199.969 111.633 200.025 111.634 200.082C111.634 200.139 111.646 200.196 111.668 200.248C111.691 200.301 111.723 200.348 111.764 200.388L111.777 200.4M196.527 200.389L199.111 199.637C199.168 199.621 199.22 199.594 199.267 199.558C199.313 199.522 199.351 199.477 199.38 199.426C199.409 199.375 199.427 199.318 199.434 199.26C199.441 199.202 199.437 199.143 199.421 199.086C199.405 199.029 199.378 198.977 199.342 198.93C199.306 198.884 199.261 198.846 199.21 198.817C199.159 198.788 199.102 198.77 199.044 198.763C198.986 198.756 198.927 198.76 198.87 198.776H198.86C197.993 199.027 197.135 199.268 196.278 199.52C196.164 199.555 196.068 199.632 196.01 199.737C195.952 199.841 195.937 199.964 195.968 200.079C195.984 200.136 196.012 200.189 196.049 200.235C196.086 200.282 196.131 200.32 196.183 200.349C196.235 200.377 196.292 200.396 196.351 200.402C196.41 200.409 196.469 200.404 196.526 200.387M204.286 198.169C205.153 197.928 206.012 197.696 206.879 197.456C206.993 197.426 207.091 197.353 207.151 197.251C207.211 197.149 207.228 197.027 207.199 196.913C207.166 196.799 207.091 196.702 206.988 196.642C206.885 196.583 206.763 196.566 206.648 196.594L204.048 197.318C203.936 197.346 203.84 197.418 203.781 197.517C203.722 197.616 203.704 197.734 203.732 197.846L203.738 197.866C203.753 197.922 203.779 197.974 203.814 198.02C203.85 198.066 203.894 198.105 203.944 198.134C203.994 198.163 204.05 198.181 204.107 198.189C204.165 198.196 204.223 198.192 204.279 198.177H204.289M106.489 194.167C106.971 194.949 107.502 195.7 108.079 196.415C108.155 196.507 108.264 196.566 108.383 196.579C108.502 196.591 108.621 196.557 108.715 196.482C108.761 196.446 108.798 196.401 108.826 196.349C108.855 196.298 108.872 196.242 108.879 196.184C108.885 196.126 108.88 196.068 108.863 196.012C108.847 195.956 108.82 195.903 108.783 195.858C108.233 195.175 107.725 194.46 107.26 193.716C107.2 193.614 107.102 193.54 106.987 193.51C106.872 193.48 106.75 193.497 106.648 193.557C106.546 193.617 106.472 193.715 106.442 193.83C106.412 193.945 106.429 194.067 106.489 194.169M212.089 196.087L214.689 195.424C214.804 195.396 214.903 195.324 214.964 195.223C215.026 195.123 215.045 195.002 215.017 194.887C214.987 194.771 214.913 194.672 214.81 194.61C214.708 194.549 214.585 194.53 214.469 194.558C213.602 194.771 212.732 194.993 211.857 195.224C211.743 195.253 211.645 195.325 211.585 195.426C211.524 195.526 211.506 195.647 211.534 195.761V195.775C211.566 195.889 211.642 195.985 211.744 196.044C211.846 196.104 211.967 196.121 212.082 196.092M219.897 194.169L222.52 193.569C222.577 193.558 222.632 193.535 222.68 193.502C222.729 193.47 222.77 193.428 222.803 193.379C222.835 193.331 222.858 193.276 222.869 193.219C222.88 193.161 222.88 193.102 222.868 193.045V193.038C222.84 192.921 222.769 192.82 222.668 192.755C222.567 192.691 222.445 192.668 222.328 192.691C221.461 192.884 220.583 193.091 219.696 193.291C219.58 193.318 219.479 193.389 219.416 193.49C219.352 193.591 219.331 193.713 219.358 193.829C219.385 193.945 219.456 194.046 219.557 194.109C219.658 194.173 219.78 194.194 219.896 194.167M267.534 192.173C268.384 192.453 269.212 192.773 270.023 193.107C270.076 193.132 270.133 193.146 270.192 193.148C270.25 193.151 270.308 193.142 270.363 193.122C270.418 193.102 270.469 193.071 270.512 193.032C270.555 192.992 270.59 192.945 270.614 192.892C270.639 192.839 270.653 192.781 270.656 192.723C270.658 192.664 270.649 192.606 270.629 192.551C270.609 192.496 270.579 192.446 270.539 192.403C270.5 192.36 270.452 192.325 270.399 192.3L270.37 192.288C269.551 191.932 268.692 191.614 267.825 191.325C267.77 191.305 267.712 191.297 267.654 191.299C267.596 191.302 267.54 191.316 267.487 191.341C267.435 191.366 267.387 191.401 267.349 191.444C267.31 191.487 267.279 191.537 267.26 191.592V191.605C267.224 191.718 267.233 191.84 267.285 191.946C267.338 192.051 267.429 192.133 267.54 192.173M227.788 192.481C228.675 192.308 229.55 192.145 230.428 191.989C230.546 191.969 230.65 191.902 230.719 191.805C230.788 191.707 230.815 191.586 230.794 191.469C230.774 191.351 230.708 191.246 230.61 191.177C230.513 191.109 230.392 191.082 230.274 191.102C229.387 191.267 228.509 191.431 227.623 191.602C227.566 191.612 227.511 191.632 227.463 191.663C227.414 191.694 227.371 191.734 227.338 191.781C227.304 191.828 227.28 191.881 227.268 191.937C227.255 191.994 227.253 192.052 227.263 192.109V192.122C227.286 192.238 227.354 192.34 227.451 192.406C227.549 192.473 227.669 192.498 227.785 192.477M235.728 191.118C236.628 190.984 237.512 190.869 238.388 190.752C238.446 190.744 238.502 190.726 238.553 190.696C238.604 190.667 238.649 190.628 238.685 190.581C238.721 190.535 238.747 190.482 238.762 190.425C238.778 190.368 238.782 190.309 238.774 190.251C238.766 190.193 238.747 190.137 238.718 190.086C238.689 190.035 238.65 189.99 238.603 189.954C238.557 189.918 238.504 189.892 238.447 189.877C238.39 189.861 238.331 189.857 238.273 189.865C237.386 189.971 236.498 190.097 235.602 190.231C235.544 190.238 235.488 190.257 235.437 190.286C235.386 190.316 235.341 190.354 235.305 190.401C235.269 190.447 235.243 190.5 235.228 190.557C235.212 190.614 235.208 190.673 235.216 190.731C235.233 190.85 235.296 190.957 235.392 191.03C235.488 191.102 235.609 191.134 235.728 191.117M259.749 190.404C260.649 190.53 261.524 190.675 262.391 190.838C262.448 190.849 262.507 190.848 262.565 190.836C262.622 190.824 262.676 190.801 262.725 190.768C262.773 190.735 262.814 190.693 262.846 190.644C262.878 190.595 262.9 190.54 262.911 190.483C262.932 190.365 262.907 190.244 262.84 190.145C262.773 190.046 262.67 189.976 262.553 189.952C261.677 189.789 260.78 189.644 259.874 189.518C259.815 189.509 259.755 189.511 259.698 189.526C259.64 189.54 259.586 189.565 259.538 189.6C259.49 189.636 259.45 189.68 259.42 189.731C259.389 189.782 259.369 189.839 259.361 189.898C259.353 189.956 259.356 190.016 259.371 190.074C259.386 190.131 259.412 190.185 259.448 190.232C259.484 190.28 259.529 190.319 259.581 190.349C259.632 190.378 259.689 190.398 259.748 190.405M243.728 190.193C244.628 190.117 245.521 190.059 246.396 190.011C246.515 190.005 246.627 189.951 246.706 189.862C246.786 189.774 246.827 189.657 246.821 189.538C246.819 189.48 246.806 189.423 246.782 189.371C246.758 189.318 246.724 189.27 246.682 189.231C246.64 189.191 246.591 189.161 246.536 189.14C246.482 189.12 246.425 189.11 246.367 189.112H246.348C245.461 189.162 244.555 189.218 243.648 189.296C243.529 189.305 243.419 189.361 243.342 189.451C243.264 189.541 243.225 189.658 243.234 189.777C243.245 189.897 243.303 190.007 243.395 190.085C243.487 190.162 243.606 190.2 243.726 190.191M251.755 189.875C252.655 189.875 253.548 189.903 254.426 189.942C254.545 189.947 254.662 189.904 254.75 189.823C254.837 189.742 254.89 189.63 254.895 189.511C254.899 189.391 254.857 189.275 254.776 189.187C254.695 189.099 254.582 189.047 254.463 189.042C253.576 189.003 252.67 188.975 251.756 188.975C251.698 188.974 251.641 188.985 251.588 189.006C251.534 189.027 251.486 189.059 251.445 189.099C251.403 189.139 251.37 189.187 251.348 189.24C251.325 189.293 251.313 189.35 251.312 189.407V189.419C251.311 189.538 251.358 189.652 251.441 189.737C251.524 189.822 251.637 189.87 251.756 189.872" fill="#00B2CA"/>
<path fill-rule="evenodd" clip-rule="evenodd" d="M135.363 190.65C134.776 190.652 134.207 190.857 133.754 191.231C133.302 191.605 132.992 192.125 132.88 192.701C132.767 193.277 132.857 193.875 133.135 194.392C133.414 194.909 133.863 195.314 134.406 195.537C134.949 195.761 135.553 195.789 136.114 195.617C136.676 195.445 137.161 195.084 137.486 194.595C137.811 194.106 137.956 193.519 137.898 192.935C137.839 192.35 137.579 191.804 137.163 191.39C136.926 191.154 136.646 190.968 136.337 190.841C136.028 190.714 135.697 190.649 135.363 190.65ZM135.363 191.55C135.688 191.549 136.006 191.645 136.276 191.825C136.547 192.005 136.758 192.261 136.883 192.561C137.008 192.861 137.042 193.191 136.979 193.51C136.917 193.829 136.761 194.122 136.532 194.352C136.302 194.582 136.01 194.74 135.691 194.804C135.373 194.868 135.042 194.836 134.742 194.712C134.441 194.589 134.184 194.379 134.003 194.109C133.822 193.839 133.725 193.522 133.724 193.197V193.189C133.724 192.755 133.897 192.338 134.205 192.031C134.512 191.723 134.928 191.551 135.363 191.55Z" fill="#00B2CA"/>
<path fill-rule="evenodd" clip-rule="evenodd" d="M248.492 121.403C248.101 121.403 247.719 121.519 247.394 121.735C247.069 121.952 246.816 122.261 246.666 122.622C246.516 122.983 246.477 123.38 246.553 123.764C246.629 124.147 246.817 124.499 247.093 124.776C247.369 125.052 247.721 125.24 248.105 125.317C248.488 125.393 248.885 125.354 249.246 125.205C249.607 125.056 249.916 124.802 250.133 124.478C250.351 124.153 250.467 123.771 250.467 123.38C250.467 123.121 250.416 122.864 250.317 122.624C250.218 122.384 250.073 122.167 249.889 121.983C249.706 121.8 249.488 121.654 249.249 121.555C249.009 121.455 248.752 121.404 248.493 121.404L248.492 121.403ZM248.492 122.303C248.779 122.304 249.054 122.419 249.257 122.623C249.459 122.826 249.573 123.102 249.572 123.389C249.571 123.676 249.457 123.951 249.254 124.154C249.051 124.357 248.775 124.471 248.488 124.471C248.201 124.471 247.925 124.357 247.722 124.154C247.519 123.951 247.405 123.676 247.404 123.389C247.403 123.102 247.517 122.826 247.719 122.623C247.922 122.419 248.197 122.304 248.484 122.303H248.492Z" fill="#000045"/>
<path fill-rule="evenodd" clip-rule="evenodd" d="M234.337 101.859L246.214 96.359C246.32 96.3061 246.403 96.2144 246.444 96.1029C246.485 95.9914 246.482 95.8683 246.435 95.759C246.411 95.7054 246.377 95.657 246.334 95.6165C246.292 95.5761 246.242 95.5445 246.187 95.5235C246.132 95.5025 246.074 95.4926 246.015 95.4942C245.956 95.4958 245.899 95.509 245.845 95.533H245.835L233.96 101.033C233.907 101.058 233.859 101.093 233.82 101.136C233.78 101.179 233.75 101.23 233.73 101.285C233.71 101.34 233.701 101.399 233.703 101.457C233.706 101.516 233.72 101.573 233.745 101.626V101.633C233.793 101.738 233.881 101.82 233.989 101.861C234.097 101.901 234.217 101.897 234.322 101.85H234.332" fill="#00B2CA"/>
<path fill-rule="evenodd" clip-rule="evenodd" d="M91.671 168.031C91.5959 167.988 91.5097 167.968 91.4233 167.974C91.3368 167.979 91.254 168.01 91.1851 168.063C91.1162 168.115 91.0644 168.187 91.0361 168.269C91.0078 168.351 91.0043 168.439 91.026 168.523L96.737 192.238C96.7543 192.305 96.7867 192.366 96.8316 192.418C96.8765 192.47 96.9328 192.511 96.996 192.538C97.0597 192.567 97.1293 192.579 97.199 192.575C97.2687 192.571 97.3363 192.55 97.396 192.514L107.587 186.635L117.426 182.967C117.506 182.937 117.575 182.885 117.626 182.816C117.677 182.748 117.706 182.666 117.711 182.581C117.718 182.496 117.701 182.41 117.661 182.334C117.621 182.258 117.56 182.196 117.485 182.154L91.671 168.031ZM92.132 169.303C92.132 169.303 111.802 180.07 116.19 182.474L107.238 185.803C107.214 185.811 107.191 185.823 107.171 185.838L97.471 191.438L92.132 169.303Z" fill="#000045"/>
<path fill-rule="evenodd" clip-rule="evenodd" d="M241.236 48.465C241.257 48.3807 241.254 48.292 241.225 48.2098C241.197 48.1276 241.145 48.0555 241.076 48.0023C241.007 47.9492 240.924 47.9173 240.838 47.9107C240.751 47.9041 240.664 47.923 240.588 47.965L218.869 59.849C218.795 59.8933 218.735 59.9566 218.694 60.0322C218.653 60.1079 218.634 60.1931 218.637 60.279C218.645 60.3654 218.678 60.4476 218.731 60.5162C218.784 60.5849 218.856 60.6371 218.937 60.667L227.207 63.745L235.772 68.69C235.832 68.7252 235.899 68.7461 235.969 68.7509C236.038 68.7558 236.108 68.7445 236.172 68.718C236.236 68.6903 236.292 68.6477 236.337 68.5938C236.381 68.5399 236.411 68.4762 236.426 68.408L241.236 48.465ZM240.13 49.24L235.693 67.612L227.62 62.949C227.598 62.933 227.574 62.9212 227.548 62.914L220.165 60.167L240.13 49.24Z" fill="#00B2CA"/>
<path fill-rule="evenodd" clip-rule="evenodd" d="M107.504 185.874L92.178 168.567C92.1403 168.523 92.0943 168.487 92.0427 168.461C91.991 168.434 91.9347 168.419 91.8769 168.414C91.8192 168.41 91.7611 168.417 91.706 168.435C91.651 168.453 91.6 168.481 91.556 168.519H91.55C91.4603 168.598 91.4056 168.71 91.3977 168.829C91.3898 168.948 91.4295 169.066 91.508 169.156L106.832 186.463C106.87 186.507 106.917 186.542 106.968 186.568C107.02 186.593 107.077 186.608 107.135 186.612C107.192 186.616 107.25 186.608 107.305 186.589C107.36 186.571 107.411 186.541 107.454 186.503H107.46C107.549 186.43 107.605 186.324 107.616 186.21C107.626 186.095 107.591 185.981 107.518 185.892L107.502 185.874" fill="#000045"/>
<path fill-rule="evenodd" clip-rule="evenodd" d="M227.922 63.582L240.807 49.021C240.886 48.9325 240.927 48.8163 240.921 48.6977C240.915 48.5792 240.862 48.4679 240.774 48.388C240.684 48.3106 240.567 48.2717 240.448 48.2796C240.329 48.2874 240.218 48.3414 240.139 48.43L227.239 62.991C227.16 63.0807 227.121 63.1978 227.129 63.3167C227.137 63.4356 227.191 63.5465 227.281 63.625C227.371 63.7035 227.488 63.7432 227.607 63.7353C227.726 63.7275 227.836 63.6727 227.915 63.583" fill="#00B2CA"/>
<path fill-rule="evenodd" clip-rule="evenodd" d="M106.6 186.268L103.978 191.627L102.035 189.275C101.958 189.183 101.849 189.125 101.731 189.113C101.612 189.1 101.493 189.134 101.399 189.208C101.353 189.246 101.315 189.292 101.288 189.344C101.26 189.396 101.243 189.454 101.237 189.513C101.232 189.571 101.238 189.631 101.255 189.687C101.273 189.744 101.301 189.797 101.339 189.842L103.725 192.732C103.774 192.789 103.836 192.833 103.905 192.861C103.975 192.888 104.05 192.898 104.125 192.89C104.199 192.882 104.271 192.856 104.332 192.814C104.394 192.771 104.443 192.714 104.477 192.647L107.399 186.66C107.451 186.555 107.459 186.433 107.421 186.322C107.384 186.211 107.304 186.119 107.199 186.066C107.093 186.014 106.97 186.006 106.858 186.043C106.746 186.081 106.653 186.161 106.599 186.266" fill="#000045"/>
<path fill-rule="evenodd" clip-rule="evenodd" d="M227.317 63.737L229.782 68.767C229.817 68.8335 229.867 68.8906 229.928 68.9335C229.99 68.9763 230.061 69.0036 230.135 69.013C230.21 69.0227 230.286 69.0129 230.356 68.9845C230.426 68.9562 230.488 68.9102 230.535 68.851L232.542 66.421C232.617 66.3297 232.652 66.2125 232.641 66.0952C232.629 65.9778 232.571 65.8698 232.48 65.795C232.436 65.7575 232.385 65.729 232.331 65.7111C232.276 65.6932 232.218 65.6863 232.161 65.6908C232.103 65.6952 232.047 65.711 231.996 65.7371C231.944 65.7632 231.899 65.7992 231.861 65.843L231.854 65.851L230.282 67.751L228.127 63.351C228.103 63.2959 228.069 63.2461 228.026 63.2045C227.983 63.1628 227.932 63.1302 227.876 63.1085C227.82 63.0868 227.76 63.0764 227.701 63.078C227.641 63.0796 227.582 63.0932 227.527 63.1178C227.472 63.1425 227.423 63.1778 227.382 63.2216C227.342 63.2655 227.31 63.3171 227.289 63.3733C227.269 63.4296 227.259 63.4894 227.262 63.5492C227.265 63.6091 227.279 63.6678 227.305 63.722L227.316 63.745" fill="#00B2CA"/>
<path fill-rule="evenodd" clip-rule="evenodd" d="M271.511 140.948C271.422 140.614 271.268 140.301 271.057 140.027C270.847 139.753 270.585 139.522 270.286 139.35C269.986 139.177 269.656 139.064 269.314 139.019C268.971 138.974 268.623 138.997 268.289 139.086H268.278L245.64 145.151C245.306 145.24 244.993 145.395 244.719 145.605C244.444 145.815 244.214 146.078 244.041 146.377C243.868 146.677 243.756 147.007 243.711 147.35C243.666 147.693 243.688 148.041 243.778 148.375L247.387 161.847C247.569 162.521 248.01 163.096 248.615 163.445C249.22 163.794 249.938 163.889 250.613 163.709C255.894 162.293 267.974 159.057 273.251 157.641C273.585 157.552 273.898 157.398 274.172 157.188C274.447 156.977 274.677 156.715 274.85 156.416C275.023 156.117 275.136 155.786 275.181 155.444C275.227 155.101 275.204 154.753 275.115 154.419C274.166 150.873 272.455 144.491 271.506 140.944" fill="#000045"/>
<path fill-rule="evenodd" clip-rule="evenodd" d="M243.736 146.564C243.736 146.564 253.551 150.535 257.744 152.228C258.37 152.483 259.062 152.526 259.715 152.351C260.368 152.176 260.945 151.793 261.36 151.259C264.135 147.708 270.616 139.406 270.616 139.406C270.689 139.313 270.721 139.196 270.707 139.079C270.693 138.962 270.633 138.856 270.541 138.783C270.447 138.71 270.327 138.677 270.209 138.692C270.091 138.706 269.982 138.766 269.908 138.859L260.658 150.71C260.362 151.09 259.951 151.362 259.486 151.487C259.021 151.611 258.529 151.58 258.083 151.399L244.078 145.734C243.968 145.69 243.845 145.692 243.736 145.738C243.627 145.784 243.54 145.872 243.495 145.981C243.473 146.035 243.461 146.093 243.461 146.151C243.462 146.21 243.473 146.268 243.496 146.322C243.518 146.376 243.551 146.425 243.592 146.466C243.634 146.507 243.683 146.54 243.737 146.562H243.742" fill="white"/>
<path fill-rule="evenodd" clip-rule="evenodd" d="M164.31 90.168C164.31 90.168 165.494 96.983 166.835 100.01C166.835 100.01 164.648 106.71 169.263 105.321C169.263 105.321 173.011 116.001 183.006 110.999L184.775 116.281L203.819 112.881L199.564 102.441L189.936 85.483L164.31 90.168Z" fill="white"/>
<path fill-rule="evenodd" clip-rule="evenodd" d="M164.221 89.725C164.105 89.7485 164.003 89.816 163.937 89.9132C163.87 90.0104 163.843 90.1297 163.863 90.246C163.863 90.246 165.036 96.907 166.363 100.04C166.058 101.064 165.894 102.124 165.875 103.192C165.795 103.602 165.825 104.026 165.963 104.421C166.1 104.816 166.34 105.167 166.658 105.439C166.976 105.71 167.36 105.893 167.771 105.967C168.182 106.041 168.606 106.005 168.999 105.862C169.537 107.125 171.535 111.162 175.499 112.407C177.923 113.085 180.515 112.805 182.739 111.626L184.35 116.426C184.384 116.528 184.455 116.615 184.548 116.67C184.641 116.725 184.751 116.745 184.857 116.726L203.901 113.314C203.967 113.304 204.031 113.278 204.086 113.24C204.141 113.201 204.187 113.151 204.22 113.092C204.25 113.033 204.267 112.968 204.271 112.901C204.274 112.835 204.264 112.768 204.24 112.706L199.983 102.266C199.972 102.251 199.962 102.235 199.955 102.218L190.328 85.262C190.282 85.1816 190.212 85.1172 190.129 85.0775C190.045 85.0378 189.951 85.0247 189.86 85.04L164.221 89.725ZM164.828 90.525L189.707 85.985C189.707 85.985 198.746 101.919 199.156 102.633L203.192 112.533L185.078 115.771L183.437 110.855C183.416 110.794 183.383 110.738 183.338 110.691C183.293 110.645 183.239 110.608 183.179 110.585C183.12 110.56 183.057 110.549 182.993 110.55C182.93 110.552 182.867 110.567 182.81 110.595C179.946 112.031 177.618 112.137 175.769 111.549C171.433 110.19 169.693 105.177 169.693 105.177C169.656 105.066 169.576 104.975 169.472 104.923C169.368 104.87 169.247 104.862 169.136 104.898C168.872 105.01 168.588 105.068 168.301 105.07C168.015 105.072 167.73 105.017 167.465 104.908C167.21 104.705 167.012 104.439 166.889 104.137C166.767 103.835 166.724 103.506 166.765 103.183C166.79 102.152 166.958 101.13 167.265 100.146C167.3 100.042 167.296 99.9292 167.254 99.828C166.17 96.8064 165.358 93.6941 164.828 90.528" fill="#000045"/>
<path fill-rule="evenodd" clip-rule="evenodd" d="M189.154 91.069C187.414 92.0828 185.879 93.413 184.628 94.991C184.553 95.0838 184.519 95.2025 184.531 95.3209C184.544 95.4393 184.604 95.5478 184.696 95.6225C184.789 95.6971 184.908 95.7319 185.026 95.719C185.145 95.7062 185.253 95.6468 185.328 95.554C186.503 94.07 187.946 92.8191 189.581 91.866C189.685 91.811 189.764 91.7172 189.799 91.6049C189.835 91.4927 189.825 91.3709 189.771 91.266C189.715 91.1602 189.619 91.081 189.505 91.0454C189.39 91.0099 189.266 91.0208 189.16 91.076" fill="#000045"/>
<path fill-rule="evenodd" clip-rule="evenodd" d="M189.105 94.503C188.307 94.0121 187.465 93.5989 186.588 93.269C186.532 93.2504 186.473 93.243 186.415 93.2472C186.356 93.2514 186.299 93.2671 186.246 93.2935C186.193 93.3199 186.147 93.3564 186.108 93.4009C186.07 93.4455 186.04 93.4971 186.022 93.553V93.559C185.987 93.6728 185.998 93.7959 186.053 93.9016C186.107 94.0074 186.202 94.0873 186.315 94.124C187.123 94.4281 187.899 94.8109 188.632 95.267C188.682 95.2982 188.738 95.3192 188.796 95.3289C188.854 95.3385 188.914 95.3366 188.971 95.3232C189.029 95.3099 189.083 95.2853 189.131 95.2509C189.179 95.2166 189.22 95.1731 189.251 95.123C189.282 95.0729 189.303 95.0172 189.313 94.959C189.322 94.9007 189.321 94.8412 189.307 94.7837C189.294 94.7262 189.269 94.6719 189.235 94.624C189.201 94.576 189.157 94.5352 189.107 94.504" fill="#000045"/>
<path fill-rule="evenodd" clip-rule="evenodd" d="M182.778 91.267C183.075 92.9689 183.185 94.6982 183.105 96.424C183.102 96.4651 183.087 96.5045 183.064 96.5384C183.04 96.5723 183.008 96.5994 182.971 96.617C182.933 96.6347 182.89 96.6404 182.849 96.6334C182.808 96.6265 182.769 96.6071 182.739 96.578C181.345 95.1961 180.166 93.614 179.239 91.884C179.239 91.884 169.56 93.272 164.431 90.65L164.76 92.27C163.532 91.5616 162.559 90.4823 161.982 89.187C161.405 87.8917 161.254 86.4469 161.549 85.06L159.611 87.103C159.611 87.103 161.153 68.325 179.238 64.681C193.778 61.761 199.799 70.703 199.799 70.703C199.799 70.703 211.178 76.192 207.625 87.721C204.579 97.602 203.144 99.105 200.625 104.754L198.214 105.217L190.235 97.187C191.176 96.4065 191.787 95.2992 191.946 94.087C192.105 92.8748 191.799 91.6474 191.091 90.651C189.751 88.501 185.702 87.634 182.773 91.268" fill="#000045"/>
<path fill-rule="evenodd" clip-rule="evenodd" d="M168.411 94.151C169.112 93.4131 169.995 92.8727 170.971 92.584C171.083 92.5453 171.176 92.4639 171.229 92.3574C171.281 92.2509 171.29 92.1279 171.253 92.015C171.235 91.9597 171.206 91.9085 171.168 91.8644C171.13 91.8203 171.083 91.7841 171.031 91.7579C170.979 91.7317 170.923 91.716 170.865 91.7118C170.807 91.7075 170.748 91.7147 170.693 91.733H170.685C169.547 92.0711 168.521 92.7111 167.717 93.585C167.642 93.6783 167.608 93.7974 167.621 93.9163C167.634 94.0351 167.693 94.1439 167.786 94.219C167.832 94.2554 167.884 94.2824 167.94 94.2986C167.996 94.3148 168.054 94.3198 168.112 94.3133C168.17 94.3068 168.226 94.2889 168.278 94.2607C168.329 94.2325 168.374 94.1946 168.41 94.149" fill="#000045"/>
<path fill-rule="evenodd" clip-rule="evenodd" d="M177.878 102.762C177.742 103.739 177.259 104.636 176.519 105.288C175.779 105.941 174.829 106.306 173.842 106.319C173.726 106.332 173.619 106.387 173.541 106.474C173.463 106.561 173.42 106.674 173.421 106.791C173.425 106.907 173.475 107.017 173.56 107.097C173.646 107.176 173.759 107.219 173.875 107.215H173.9C175.099 107.195 176.251 106.744 177.145 105.946C178.04 105.147 178.617 104.054 178.773 102.865C178.784 102.746 178.749 102.627 178.674 102.534C178.599 102.441 178.491 102.38 178.373 102.365C178.255 102.354 178.137 102.389 178.045 102.464C177.953 102.539 177.894 102.647 177.881 102.765" fill="#000045"/>
<path d="M170.85 97.956C171.141 97.9164 171.41 97.777 171.61 97.5615C171.81 97.3461 171.929 97.0679 171.947 96.7744C171.965 96.4809 171.881 96.1903 171.709 95.952C171.537 95.7137 171.287 95.5425 171.003 95.4676C170.718 95.3926 170.417 95.4186 170.149 95.541C169.882 95.6635 169.666 95.8748 169.537 96.1391C169.408 96.4033 169.374 96.7041 169.442 96.9902C169.51 97.2762 169.675 97.5299 169.909 97.708C170.042 97.8091 170.193 97.8831 170.355 97.9256C170.516 97.9682 170.685 97.9785 170.85 97.956Z" fill="#000045"/>
<path fill-rule="evenodd" clip-rule="evenodd" d="M177.852 220.556L173.098 159.103V130.562L204.764 126.321L224.891 134.833C228.526 135.199 240.306 180.88 244.44 220.556H177.852Z" fill="white"/>
<path fill-rule="evenodd" clip-rule="evenodd" d="M177.399 220.586C177.41 220.699 177.463 220.803 177.546 220.88C177.63 220.956 177.739 220.999 177.852 221H244.441C244.504 221.001 244.567 220.989 244.625 220.964C244.683 220.939 244.735 220.902 244.778 220.856C244.821 220.809 244.853 220.754 244.873 220.694C244.893 220.634 244.9 220.571 244.894 220.508C241.58 188.718 233.355 153.089 228.343 139.922C227.774 138.212 226.976 136.587 225.971 135.092C225.742 134.758 225.405 134.513 225.017 134.398L204.937 125.905C204.864 125.876 204.785 125.866 204.707 125.876L173.041 130.117C172.932 130.131 172.832 130.183 172.758 130.265C172.685 130.346 172.643 130.451 172.641 130.561V159.095C172.641 159.105 172.645 159.115 172.652 159.123L177.399 220.586ZM178.266 220.103C177.852 214.792 173.629 160.185 173.551 159.077V130.957C177.032 130.485 202.722 127.044 204.708 126.784C206.316 127.468 224.708 135.238 224.708 135.238C224.751 135.255 224.796 135.268 224.842 135.275C224.925 135.302 224.998 135.353 225.054 135.42C225.236 135.597 225.398 135.794 225.535 136.008C226.328 137.351 226.986 138.77 227.501 140.242C232.476 153.303 240.601 188.535 243.945 220.104L178.266 220.103Z" fill="#000045"/>
<path fill-rule="evenodd" clip-rule="evenodd" d="M175.335 123.361C175.29 121.925 175.599 120.499 176.237 119.211C176.875 117.923 177.82 116.812 178.99 115.977C182.99 113.268 207.639 106.299 218.781 110.502C222.954 112.073 223.899 116.112 225.462 121.983C226.281 125.077 225.75 126.051 228.162 130.456C230.574 134.861 226.736 138.737 221.722 138.717C211.266 138.575 200.907 136.696 191.068 133.155C178.315 128.345 175.588 130.697 172.744 132.162C172.744 132.162 170.672 126.031 175.337 123.362" fill="#00B2CA"/>
<path fill-rule="evenodd" clip-rule="evenodd" d="M177.262 123.539C179.408 123.078 181.622 123.023 183.789 123.377C183.903 123.402 184.023 123.382 184.122 123.319C184.221 123.256 184.292 123.157 184.318 123.043C184.348 122.931 184.332 122.813 184.274 122.713C184.216 122.613 184.121 122.54 184.01 122.51L183.982 122.504C181.687 122.126 179.343 122.177 177.067 122.655C176.952 122.683 176.853 122.756 176.79 122.857C176.728 122.957 176.707 123.078 176.733 123.194C176.756 123.309 176.824 123.41 176.921 123.475C177.019 123.54 177.138 123.564 177.253 123.541H177.262" fill="#000045"/>
<path fill-rule="evenodd" clip-rule="evenodd" d="M224.733 126.577C224.733 126.577 219.983 129.151 208.618 126.544C208.562 126.53 208.505 126.526 208.448 126.534C208.391 126.542 208.336 126.561 208.287 126.59C208.237 126.619 208.194 126.658 208.159 126.703C208.125 126.749 208.099 126.801 208.085 126.857L208.08 126.878C208.054 126.994 208.075 127.115 208.137 127.215C208.2 127.316 208.299 127.388 208.414 127.416C220.23 130.116 225.164 127.362 225.164 127.362C225.261 127.301 225.331 127.205 225.36 127.095C225.389 126.984 225.374 126.866 225.319 126.766C225.264 126.666 225.173 126.59 225.064 126.555C224.955 126.519 224.836 126.528 224.733 126.577Z" fill="#000045"/>
<path fill-rule="evenodd" clip-rule="evenodd" d="M49.138 221.003H283.195C283.314 221.003 283.429 220.956 283.513 220.871C283.598 220.787 283.645 220.672 283.645 220.553C283.645 220.434 283.598 220.319 283.513 220.235C283.429 220.15 283.314 220.103 283.195 220.103H49.138C49.0186 220.103 48.9042 220.15 48.8198 220.235C48.7354 220.319 48.688 220.434 48.688 220.553C48.688 220.672 48.7354 220.787 48.8198 220.871C48.9042 220.956 49.0186 221.003 49.138 221.003Z" fill="#000045"/>
<path fill-rule="evenodd" clip-rule="evenodd" d="M136.485 132.069C135.61 130.205 134.927 128.258 134.446 126.256C134.056 124.181 133.115 122.25 131.721 120.664C130.752 119.695 129.137 120.664 129.137 120.664C129.137 120.664 124.221 114.002 122.162 111.206C121.923 110.887 121.568 110.674 121.174 110.614C120.779 110.553 120.377 110.65 120.053 110.883C119.724 111.128 119.497 111.487 119.417 111.89C119.336 112.292 119.409 112.71 119.619 113.063C121.244 115.778 124.898 121.845 124.898 121.845C124.282 122.07 123.716 122.415 123.235 122.86C122.753 123.306 122.364 123.842 122.092 124.439C122.092 124.439 119.902 125.59 119.792 127.649C119.352 128.131 119.035 128.712 118.87 129.343C118.705 129.974 118.695 130.636 118.843 131.272C119.343 133.472 122.093 135.36 123.643 136.28C124.772 137.04 125.783 137.962 126.643 139.016L131.357 137.603L136.485 132.069Z" fill="white"/>
<path fill-rule="evenodd" clip-rule="evenodd" d="M136.81 132.372C136.873 132.308 136.915 132.227 136.93 132.138C136.944 132.049 136.931 131.959 136.891 131.878C136.031 130.054 135.361 128.146 134.891 126.184C134.482 124.014 133.495 121.995 132.034 120.34C131.814 120.126 131.547 119.965 131.255 119.871C130.963 119.776 130.653 119.75 130.349 119.795C129.98 119.838 129.619 119.937 129.279 120.088L122.516 110.943C122.212 110.527 121.756 110.249 121.248 110.17C120.739 110.091 120.22 110.217 119.804 110.52L119.791 110.529C119.369 110.837 119.078 111.292 118.976 111.804C118.873 112.316 118.966 112.848 119.236 113.295L124.253 121.643C123.149 122.152 122.257 123.03 121.73 124.126C121.118 124.479 120.589 124.959 120.178 125.533C119.767 126.108 119.484 126.764 119.348 127.457C118.899 127.993 118.581 128.625 118.418 129.305C118.255 129.985 118.252 130.693 118.409 131.374C118.691 132.382 119.235 133.297 119.984 134.027C121.004 135.054 122.155 135.944 123.406 136.672C124.494 137.398 125.467 138.283 126.293 139.297C126.348 139.366 126.423 139.418 126.508 139.445C126.592 139.472 126.683 139.473 126.768 139.449L131.482 138.036C131.556 138.009 131.624 137.968 131.682 137.915L136.81 132.372ZM135.952 131.972L131.11 137.203L126.8 138.495C125.95 137.497 124.965 136.622 123.873 135.895C122.69 135.211 121.601 134.376 120.633 133.411C119.998 132.795 119.535 132.023 119.291 131.172C119.161 130.611 119.168 130.026 119.31 129.468C119.453 128.909 119.727 128.393 120.109 127.962C120.186 127.883 120.233 127.779 120.24 127.669C120.34 127.068 120.579 126.498 120.939 126.006C121.298 125.514 121.767 125.112 122.309 124.833C122.36 124.808 122.406 124.773 122.442 124.73C122.479 124.686 122.506 124.636 122.521 124.581C122.767 124.047 123.117 123.568 123.55 123.171C123.983 122.775 124.491 122.468 125.044 122.27C125.107 122.248 125.164 122.211 125.211 122.164C125.258 122.117 125.294 122.061 125.317 121.998C125.343 121.936 125.353 121.869 125.348 121.802C125.343 121.736 125.322 121.671 125.287 121.614L120.008 112.832C119.854 112.576 119.8 112.272 119.858 111.979C119.916 111.686 120.081 111.425 120.321 111.247C120.548 111.082 120.831 111.013 121.108 111.054C121.386 111.096 121.636 111.245 121.805 111.469L128.78 120.927C128.846 121.02 128.944 121.084 129.056 121.107C129.168 121.129 129.283 121.108 129.38 121.048C129.709 120.858 130.073 120.735 130.45 120.685C130.622 120.657 130.797 120.669 130.964 120.719C131.13 120.77 131.282 120.858 131.409 120.977C132.741 122.494 133.64 124.342 134.009 126.327C134.461 128.273 135.114 130.167 135.957 131.979" fill="#000045"/>
<path fill-rule="evenodd" clip-rule="evenodd" d="M141.53 135.932C142.13 135.927 142.724 136.047 143.275 136.284C143.826 136.522 144.322 136.871 144.73 137.311C147.497 139.962 153.049 145.889 162.062 158.065C162.062 158.065 168.173 137.253 172.617 132.365C177.061 127.477 194.509 134.535 190.171 153.565C185.833 172.595 178.708 190.156 166.727 190.436C154.746 190.716 146.339 179.554 137.578 167.203C128.817 154.852 127.418 147.49 128.295 144.956C128.326 144.857 128.365 144.761 128.411 144.668C128.17 144.176 127.341 142.856 126.656 141.568C126.352 140.984 126.238 140.319 126.332 139.667C126.426 139.015 126.721 138.409 127.178 137.934C129.695 135.362 132.7 133.317 136.017 131.919C136.46 131.736 136.949 131.698 137.415 131.81C137.881 131.923 138.299 132.18 138.61 132.545C139.786 133.904 141.531 135.945 141.531 135.945" fill="white"/>
<path fill-rule="evenodd" clip-rule="evenodd" d="M141.742 135.488C141.318 134.996 139.942 133.377 138.942 132.241C138.568 131.809 138.067 131.505 137.511 131.372C136.956 131.238 136.372 131.282 135.842 131.497C132.467 132.92 129.41 135.001 126.848 137.619C126.325 138.16 125.987 138.852 125.881 139.596C125.776 140.341 125.908 141.099 126.26 141.764C126.867 142.93 127.6 144.107 127.918 144.684C127.889 144.762 127.87 144.801 127.87 144.81C127.504 145.881 127.494 147.752 128.227 150.45C129.287 154.335 131.909 159.992 137.211 167.462C141.611 173.67 145.925 179.569 150.639 183.889C155.42 188.263 160.626 191.021 166.739 190.889C171.666 190.774 175.811 187.843 179.271 183.081C184.361 176.103 188.005 165.152 190.617 153.671C193.717 140.012 185.837 132.397 179.301 130.771C176.379 130.039 173.708 130.511 172.282 132.071C170.934 133.554 169.41 136.504 167.964 139.897C165.217 146.357 162.681 154.464 161.891 157.085C153.167 145.364 147.77 139.6 145.041 136.997C144.617 136.541 144.107 136.174 143.541 135.917C142.975 135.66 142.363 135.517 141.741 135.497M141.192 136.23C141.233 136.277 141.283 136.316 141.339 136.342C141.396 136.369 141.458 136.383 141.52 136.384C142.064 136.383 142.603 136.495 143.102 136.713C143.601 136.93 144.05 137.249 144.42 137.648C147.177 140.288 152.71 146.208 161.694 158.348C161.745 158.415 161.813 158.466 161.892 158.497C161.97 158.527 162.055 158.536 162.138 158.521C162.22 158.506 162.296 158.468 162.357 158.411C162.418 158.355 162.462 158.282 162.484 158.202C162.484 158.202 165.473 148.033 168.79 140.264C170.19 136.978 171.632 134.123 172.943 132.688C174.187 131.318 176.528 131.01 179.073 131.647C185.301 133.197 192.695 140.485 189.736 153.48C187.152 164.835 183.575 175.66 178.544 182.571C175.266 187.071 171.371 189.887 166.706 190.002C160.836 190.139 155.842 187.448 151.244 183.236C146.569 178.955 142.299 173.104 137.944 166.954C132.729 159.61 130.136 154.047 129.095 150.221C128.42 147.782 128.382 146.074 128.719 145.112C128.748 145.023 128.784 144.936 128.825 144.852C128.87 144.733 128.866 144.602 128.815 144.486C128.574 143.986 127.745 142.663 127.051 141.362C126.792 140.864 126.696 140.297 126.775 139.741C126.855 139.185 127.107 138.668 127.495 138.262C129.971 135.728 132.929 133.716 136.195 132.344C136.551 132.198 136.943 132.168 137.317 132.258C137.69 132.347 138.026 132.553 138.277 132.844C139.453 134.203 141.198 136.236 141.198 136.236" fill="#000045"/>
<path fill-rule="evenodd" clip-rule="evenodd" d="M161.678 158.29C163.933 162.331 165.577 166.683 166.558 171.205C166.569 171.262 166.592 171.317 166.624 171.366C166.657 171.414 166.698 171.456 166.747 171.489C166.796 171.521 166.85 171.544 166.908 171.555C166.965 171.567 167.024 171.567 167.081 171.556C167.139 171.544 167.193 171.522 167.242 171.489C167.291 171.457 167.333 171.415 167.365 171.366C167.398 171.318 167.42 171.263 167.432 171.206C167.443 171.148 167.443 171.089 167.432 171.032C166.438 166.409 164.76 161.96 162.455 157.832C162.425 157.781 162.386 157.736 162.339 157.701C162.292 157.665 162.238 157.639 162.181 157.624C162.066 157.594 161.943 157.61 161.84 157.671C161.738 157.731 161.663 157.829 161.632 157.944C161.602 158.06 161.619 158.182 161.679 158.285" fill="#000045"/>
<path fill-rule="evenodd" clip-rule="evenodd" d="M130.608 143.974C130.608 143.974 136.08 138.706 139.708 137.596C139.822 137.562 139.917 137.483 139.974 137.379C140.03 137.274 140.042 137.151 140.008 137.037C139.972 136.924 139.893 136.829 139.789 136.773C139.684 136.717 139.562 136.704 139.448 136.737C135.678 137.888 129.979 143.329 129.979 143.329C129.895 143.413 129.846 143.526 129.844 143.644C129.842 143.763 129.887 143.878 129.968 143.964C130.008 144.007 130.057 144.041 130.111 144.064C130.164 144.088 130.222 144.101 130.281 144.102C130.34 144.104 130.398 144.094 130.453 144.072C130.507 144.051 130.557 144.02 130.6 143.979" fill="#000045"/>
</g>
<defs>
<clipPath id="clip0_3_4438">
<rect width="339" height="221.003" fill="white"/>
</clipPath>
</defs>
</svg>
