<svg width="255" height="255" viewBox="0 0 255 255" fill="none" xmlns="http://www.w3.org/2000/svg">
<g clip-path="url(#clip0_3_5505)">
<mask id="mask0_3_5505" style="mask-type:luminance" maskUnits="userSpaceOnUse" x="0" y="0" width="255" height="255">
<path d="M255 0H0V255H255V0Z" fill="white"/>
</mask>
<g mask="url(#mask0_3_5505)">
<path opacity="0.1" d="M254.9 127.4C254.916 141.774 252.481 156.045 247.7 169.6C247.3 170.7 246.9 171.9 246.5 173C242.762 182.711 237.824 191.916 231.8 200.4H231.7C231.683 200.505 231.649 200.606 231.6 200.7C219.9 217.206 204.416 230.669 186.443 239.96C168.47 249.251 148.532 254.1 128.3 254.1C111.668 254.107 95.1974 250.838 79.8287 244.48C64.4601 238.121 50.4944 228.798 38.7291 217.042C26.9638 205.286 17.6294 191.327 11.2587 175.964C4.88809 160.6 1.60605 144.132 1.60001 127.5C1.57372 110.858 4.82893 94.3738 11.1794 78.9909C17.5299 63.608 26.851 49.6281 38.6095 37.851C50.368 26.0739 64.3332 16.7307 79.7061 10.356C95.0789 3.98122 111.558 0.699996 128.2 0.700017C144.84 0.695681 161.317 3.96991 176.691 10.3356C192.065 16.7014 206.034 26.0339 217.8 37.7999C229.566 49.566 238.899 63.535 245.264 78.9089C251.63 94.2828 254.904 110.76 254.9 127.4Z" fill="#00B2CA"/>
<path d="M66.1 161.4C60.0382 161.384 54.0941 159.725 48.9 156.6C43.4013 152.902 39.231 147.54 37 141.3C36.9 140.9 36.7 140.6 36.6 140.2C35.2059 139.93 33.8585 139.458 32.6 138.8C31.8 138.4 31 137.9 30.2 137.4C28.4657 136.1 27.0258 134.448 25.9746 132.552C24.9234 130.656 24.2845 128.56 24.1 126.4C23 117.2 28 105.9 33.5 99.5C40 91.9 48.3 86.8001 58.9 83.8001C69.3 80.9001 80.4 80.5001 89 80.4001C111.4 80.4001 131.6 79.8001 152.1 73.9001C171.519 68.3709 189.547 58.7944 205 45.8H205.2C205.3 45.8 205.2 45.9 205.2 46C189.704 59.0093 171.647 68.6169 152.2 74.2C131.7 80.1 111.5 80.6 89 80.7C69.6 80.7 47.8 83.1 33.7 99.7C28.3 106.1 23.3 117.3 24.3 126.4C24.458 128.527 25.0764 130.595 26.1123 132.46C27.1483 134.325 28.5772 135.942 30.3 137.2C31.0507 137.746 31.8548 138.215 32.7 138.6C33.9111 139.181 35.1866 139.618 36.5 139.9C34.5891 134.095 34.2102 127.895 35.4 121.9C37 114.6 41.9 108.3 48.1 105.6C55.4 102.4 66.2 104.4 70.1 112.3C73 118.1 69.4 124.1 67 127.1C61 134.7 48 142.4 37 140.3C39.3 147.1 43.6 153 49.1 156.5C54.5488 159.801 60.8314 161.467 67.2 161.3C67.2265 161.3 67.252 161.311 67.2707 161.329C67.2895 161.348 67.3 161.374 67.3 161.4C67.3 161.5 67.3 161.5 67.2 161.5H66.1V161.4ZM36.8 140C47.8 142.2 60.7 134.4 66.7 126.9C69.1 123.9 72.6 118.1 69.8 112.4C65.9 104.6 55.3 102.6 48.2 105.8C42.1 108.5 37.3 114.7 35.7 122C34.4098 127.987 34.7903 134.214 36.8 140Z" fill="#011721"/>
<path d="M215 108.7H167.7C167.306 108.689 166.914 108.764 166.551 108.919C166.189 109.075 165.864 109.307 165.6 109.6L159.9 115.8C159.394 116.354 158.69 116.686 157.941 116.723C157.192 116.761 156.458 116.501 155.9 116C155.607 115.736 155.375 115.412 155.219 115.049C155.064 114.686 154.989 114.294 155 113.9V111.6C155.011 111.225 154.947 110.851 154.811 110.501C154.676 110.15 154.471 109.831 154.21 109.561C153.95 109.29 153.637 109.075 153.292 108.927C152.947 108.78 152.576 108.702 152.2 108.7H151.7C151.016 108.705 150.337 108.574 149.704 108.314C149.071 108.054 148.496 107.671 148.012 107.188C147.529 106.704 147.146 106.129 146.886 105.496C146.626 104.863 146.495 104.184 146.5 103.5V58.3C146.495 57.6158 146.626 56.9375 146.886 56.3044C147.146 55.6714 147.529 55.0962 148.012 54.6124C148.496 54.1286 149.071 53.7457 149.704 53.4861C150.337 53.2265 151.016 53.0953 151.7 53.1H215.1C215.784 53.0953 216.463 53.2265 217.096 53.4861C217.729 53.7457 218.304 54.1286 218.788 54.6124C219.271 55.0962 219.654 55.6714 219.914 56.3044C220.174 56.9375 220.305 57.6158 220.3 58.3V103.5C220.305 104.184 220.174 104.863 219.914 105.496C219.654 106.129 219.271 106.704 218.788 107.188C218.304 107.671 217.729 108.054 217.096 108.314C216.463 108.574 215.784 108.705 215.1 108.7H215Z" fill="url(#paint0_linear_3_5505)"/>
<path d="M213.5 59.3C213.111 59.2478 212.715 59.2937 212.348 59.4334C211.982 59.5731 211.656 59.8023 211.4 60.1C211.144 59.8023 210.818 59.5731 210.452 59.4334C210.085 59.2937 209.689 59.2478 209.3 59.3C208.817 59.4744 208.407 59.8057 208.135 60.2409C207.863 60.676 207.745 61.1898 207.8 61.7C207.9 62.8 208.7 64.3 211.3 65.3C213.9 64.3 214.7 62.8 214.8 61.7C214.889 61.1855 214.785 60.6562 214.509 60.2134C214.232 59.7707 213.802 59.4454 213.3 59.3H213.5Z" fill="#00B2CA"/>
<path opacity="0.2" d="M183.8 90.5C188.992 90.5 193.2 86.2915 193.2 81.1C193.2 75.9086 188.992 71.7 183.8 71.7C178.609 71.7 174.4 75.9086 174.4 81.1C174.4 86.2915 178.609 90.5 183.8 90.5Z" fill="#FA6E53"/>
<path d="M186.1 85.9L179 78.8C178.834 78.637 178.702 78.4425 178.612 78.2279C178.522 78.0133 178.475 77.7828 178.475 77.55C178.475 77.3173 178.522 77.0868 178.612 76.8722C178.702 76.6575 178.834 76.463 179 76.3C179.163 76.1339 179.358 76.0019 179.572 75.9117C179.787 75.8216 180.017 75.7752 180.25 75.7752C180.483 75.7752 180.713 75.8216 180.928 75.9117C181.143 76.0019 181.337 76.1339 181.5 76.3L188.6 83.4C188.766 83.563 188.898 83.7575 188.988 83.9722C189.078 84.1868 189.125 84.4173 189.125 84.65C189.125 84.8828 189.078 85.1133 188.988 85.3279C188.898 85.5425 188.766 85.737 188.6 85.9C188.437 86.0662 188.243 86.1982 188.028 86.2883C187.813 86.3784 187.583 86.4249 187.35 86.4249C187.117 86.4249 186.887 86.3784 186.672 86.2883C186.458 86.1982 186.263 86.0662 186.1 85.9Z" fill="white"/>
<path d="M188.6 78.8L181.5 85.9C181.337 86.0662 181.143 86.1982 180.928 86.2883C180.713 86.3784 180.483 86.4249 180.25 86.4249C180.017 86.4249 179.787 86.3784 179.572 86.2883C179.358 86.1982 179.163 86.0662 179 85.9C178.834 85.737 178.702 85.5425 178.612 85.3279C178.522 85.1133 178.475 84.8828 178.475 84.65C178.475 84.4173 178.522 84.1868 178.612 83.9722C178.702 83.7575 178.834 83.563 179 83.4L186.1 76.3C186.263 76.1339 186.458 76.0019 186.672 75.9117C186.887 75.8216 187.117 75.7752 187.35 75.7752C187.583 75.7752 187.813 75.8216 188.028 75.9117C188.243 76.0019 188.437 76.1339 188.6 76.3C188.766 76.463 188.898 76.6575 188.988 76.8722C189.078 77.0868 189.125 77.3173 189.125 77.55C189.125 77.7828 189.078 78.0133 188.988 78.2279C188.898 78.4425 188.766 78.637 188.6 78.8Z" fill="white"/>
<path d="M173.6 61.9C170.453 63.583 167.758 66.0008 165.745 68.9482C163.733 71.8955 162.461 75.2851 162.039 78.8291C161.617 82.373 162.057 85.9665 163.321 89.3041C164.585 92.6418 166.636 95.6249 169.3 98L172.1 95.3C168.455 92.1225 166.217 87.6312 165.874 82.8081C165.532 77.985 167.112 73.2223 170.271 69.5613C173.43 65.9004 177.91 63.6389 182.731 63.2714C187.552 62.9039 192.323 64.4602 196 67.6C196.809 68.2909 197.546 69.0615 198.2 69.9L201 67.2C197.728 63.3157 193.223 60.6707 188.237 59.7062C183.251 58.7417 178.084 59.516 173.6 61.9Z" fill="black"/>
<path opacity="0.7" d="M173.6 61.9C170.453 63.583 167.758 66.0008 165.745 68.9482C163.733 71.8955 162.461 75.2851 162.039 78.8291C161.617 82.373 162.057 85.9665 163.321 89.3041C164.585 92.6418 166.636 95.6249 169.3 98L172.1 95.3C168.455 92.1225 166.217 87.6312 165.874 82.8081C165.532 77.985 167.112 73.2223 170.271 69.5613C173.43 65.9004 177.91 63.6389 182.731 63.2714C187.552 62.9039 192.323 64.4602 196 67.6C196.809 68.2909 197.546 69.0615 198.2 69.9L201 67.2C197.728 63.3157 193.223 60.6707 188.237 59.7062C183.251 58.7417 178.084 59.516 173.6 61.9Z" fill="#00B2CA"/>
<path d="M200.7 72.5C198.93 69.1873 196.217 66.4738 192.905 64.7028C189.593 62.9317 185.829 62.1827 182.091 62.5503C178.353 62.918 174.808 64.3858 171.905 66.7682C169.001 69.1506 166.869 72.3406 165.778 75.9347C164.687 79.5289 164.686 83.3658 165.776 86.9603C166.866 90.5548 168.997 93.7454 171.9 96.1286C174.803 98.5118 178.348 99.9807 182.086 100.349C185.824 100.718 189.587 99.9701 192.9 98.2C195.111 97.0362 197.068 95.4451 198.659 93.519C200.25 91.5929 201.443 89.3701 202.169 86.9795C202.894 84.5889 203.138 82.078 202.886 79.5925C202.634 77.107 201.891 74.6962 200.7 72.5ZM192.6 97.6C189.396 99.3009 185.76 100.013 182.151 99.6476C178.542 99.2818 175.122 97.854 172.325 95.5447C169.527 93.2355 167.477 90.1486 166.434 86.6743C165.391 83.2 165.401 79.4945 166.464 76.0262C167.527 72.5579 169.595 69.4827 172.405 67.1894C175.216 64.8961 178.643 63.4877 182.254 63.1424C185.865 62.7971 189.498 63.5303 192.692 65.2494C195.886 66.9684 198.499 69.5961 200.2 72.8C201.338 74.9256 202.044 77.2553 202.278 79.6549C202.511 82.0545 202.268 84.4766 201.561 86.7818C200.855 89.0869 199.7 91.2295 198.162 93.0862C196.624 94.9429 194.733 96.477 192.6 97.6Z" fill="#00B2CA"/>
<path opacity="0.1" d="M184 99.8C194.107 99.8 202.3 91.6069 202.3 81.5C202.3 71.3932 194.107 63.2 184 63.2C173.893 63.2 165.7 71.3932 165.7 81.5C165.7 91.6069 173.893 99.8 184 99.8Z" fill="#FA6E53"/>
<path opacity="0.1" d="M110.6 109.9C110.076 104.719 108.106 99.7894 104.916 95.6736C101.725 91.5578 97.4423 88.4214 92.5555 86.6222C87.6686 84.8229 82.3745 84.4331 77.2768 85.4973C72.1792 86.5616 67.4831 89.0369 63.7243 92.6411C59.9655 96.2453 57.2952 100.833 56.0179 105.882C54.7406 110.93 54.9077 116.236 56.5003 121.194C58.0928 126.152 61.0466 130.563 65.0248 133.923C69.003 137.284 73.8455 139.459 79 140.2C79.4492 140.25 79.8809 140.403 80.2622 140.645C80.6435 140.888 80.9642 141.214 81.2 141.6L83.5 145C83.9655 145.672 84.6708 146.139 85.4707 146.307C86.2706 146.474 87.1042 146.329 87.8 145.9C88.3208 145.578 88.7106 145.082 88.9 144.5L90.5 140.7C90.6655 140.279 90.9215 139.9 91.2498 139.589C91.5781 139.278 91.9708 139.043 92.4 138.9C98.2542 136.809 103.238 132.816 106.556 127.559C109.873 122.302 111.332 116.084 110.7 109.9H110.6Z" fill="#FA6E53"/>
<path d="M74 116.6C75.7673 116.6 77.2 115.167 77.2 113.4C77.2 111.633 75.7673 110.2 74 110.2C72.2327 110.2 70.8 111.633 70.8 113.4C70.8 115.167 72.2327 116.6 74 116.6Z" fill="#FA6E53"/>
<path d="M82.3 116.1C84.0673 116.1 85.5 114.667 85.5 112.9C85.5 111.133 84.0673 109.7 82.3 109.7C80.5327 109.7 79.1 111.133 79.1 112.9C79.1 114.667 80.5327 116.1 82.3 116.1Z" fill="#FA6E53"/>
<path d="M90.5 115.6C92.2673 115.6 93.7 114.167 93.7 112.4C93.7 110.633 92.2673 109.2 90.5 109.2C88.7327 109.2 87.3 110.633 87.3 112.4C87.3 114.167 88.7327 115.6 90.5 115.6Z" fill="#FA6E53"/>
<path d="M249.9 200.4H0.799993C0.630656 200.413 0.461475 200.372 0.317425 200.282C0.173374 200.192 0.0620871 200.058 -7.30483e-06 199.9C-0.0134788 199.731 0.0278519 199.562 0.117884 199.417C0.207915 199.273 0.341877 199.162 0.499993 199.1H249.8C249.885 199.08 249.974 199.078 250.06 199.092C250.147 199.107 250.229 199.138 250.304 199.184C250.378 199.231 250.442 199.291 250.493 199.363C250.544 199.434 250.58 199.515 250.6 199.6C250.62 199.685 250.622 199.774 250.608 199.86C250.593 199.947 250.562 200.029 250.516 200.104C250.469 200.178 250.409 200.242 250.337 200.293C250.266 200.344 250.185 200.38 250.1 200.4H249.9Z" fill="#011721"/>
<path d="M96.2 121.5L98.7 121.7V133.9L96 134.3L96.2 121.6V121.5Z" fill="#011721"/>
<path d="M98.3 122.2L96.5 122V133.7C96.4 133.7 98.2 133.5 98.2 133.5V122.2H98.3Z" fill="white"/>
<path d="M188.7 123.3H186.2C186.2 123.2 185 135.3 185 135.3L187.5 136L188.7 123.3Z" fill="#011721"/>
<path d="M186.5 123.6H188.3L187.2 135.2L185.4 134.8L186.5 123.5V123.6Z" fill="white"/>
<path d="M99.6 184.1L20.1 194.9C19.8373 194.939 19.5849 195.03 19.3572 195.167C19.1295 195.304 18.9311 195.484 18.7732 195.698C18.6153 195.911 18.5011 196.154 18.437 196.412C18.373 196.669 18.3604 196.937 18.4 197.2C18.4641 197.681 18.704 198.12 19.0734 198.434C19.4428 198.748 19.9154 198.914 20.4 198.9L118.3 200.3L127.7 196.5L99.7 184.1H99.6Z" fill="#011721"/>
<path d="M27.5 194L20.1 195C19.8373 195.039 19.5849 195.13 19.3572 195.267C19.1295 195.404 18.9311 195.584 18.7732 195.798C18.6153 196.011 18.5011 196.254 18.437 196.512C18.373 196.77 18.3604 197.037 18.4 197.3C18.4641 197.781 18.704 198.22 19.0734 198.534C19.4428 198.848 19.9154 199.014 20.4 199H30.1C30.1 199.1 27.6 194 27.6 194H27.5Z" fill="#FFD2B3"/>
<path d="M99.6 184.1L27.5 193.9L28.5 196L106.3 190.4L110.8 188.9L99.7 184L99.6 184.1Z" fill="#05293C"/>
<path d="M138.3 129.5C138.303 130.46 138.116 131.41 137.751 132.297C137.385 133.184 136.847 133.99 136.169 134.669C135.49 135.347 134.684 135.885 133.797 136.251C132.91 136.616 131.96 136.803 131 136.8C126.9 136.8 129.8 134.3 128.6 133.5C126.7 132.2 123.7 132 123.7 129.5C123.7 127.564 124.469 125.707 125.838 124.338C127.207 122.969 129.064 122.2 131 122.2C132.936 122.2 134.793 122.969 136.162 124.338C137.531 125.707 138.3 127.564 138.3 129.5Z" fill="#011721"/>
<path d="M135.2 125.4C136.912 125.4 138.3 124.012 138.3 122.3C138.3 120.588 136.912 119.2 135.2 119.2C133.488 119.2 132.1 120.588 132.1 122.3C132.1 124.012 133.488 125.4 135.2 125.4Z" fill="#011721"/>
<path d="M128.3 136.8V135.5H125.1L122.4 132.1L125.8 128.3C125.8 128.3 126.1 132.5 129.3 132.6L130.8 130.5C130.8 130.5 132.9 132.1 130.8 133.6C130.508 134.145 130.399 134.77 130.489 135.383C130.579 135.995 130.863 136.562 131.3 137L129.6 137.9L128.3 136.8Z" fill="#FFD2B3"/>
<path d="M123.6 200.9C133.1 199.3 135.1 187.1 135.4 183.4C132.4 187.5 116.7 173.4 116.7 173.4C101.5 159.4 92.5 153.1 92.5 153.1C80 167.3 66.1 188.9 59.5 199.7C59.2766 200.075 59.204 200.522 59.2968 200.949C59.3896 201.375 59.6409 201.751 60 202C60.2688 202.172 60.5811 202.263 60.9 202.263C61.219 202.263 61.5312 202.172 61.8 202C76.1 191.5 93 175.2 93 175.2L105.4 192.3C113.5 202.1 123.5 201.1 123.5 201.1L123.6 200.9Z" fill="#05293C"/>
<path d="M135.4 142.7C134.8 136.7 128.8 134.8 124 138.3L106.6 149.3L95.8 127.7C95.6636 127.464 95.448 127.285 95.1916 127.193C94.9353 127.102 94.6548 127.104 94.4 127.2C94.1824 127.302 94.0107 127.482 93.9183 127.703C93.8258 127.925 93.8193 128.174 93.9 128.4L102.9 161.1L117.1 154.8L116.9 173.3C116.9 173.3 132.6 187.4 135.6 183.3V151.4C135.6 150.4 135.6 143.4 135.5 142.5L135.4 142.7Z" fill="#00B2CA"/>
<path d="M116.9 154.9L127.6 150.9L119.4 175.7L116.8 173.5L117 155L116.9 154.9Z" fill="black"/>
<path opacity="0.8" d="M116.9 154.9L127.6 150.9L119.4 175.7L116.8 173.5L117 155L116.9 154.9Z" fill="#00B2CA"/>
<path d="M64.2 192.2C62.4 195 60.8 197.6 59.5 199.7C59.2766 200.075 59.204 200.522 59.2968 200.949C59.3896 201.375 59.6409 201.751 60 202C60.2688 202.172 60.5811 202.263 60.9 202.263C61.219 202.263 61.5312 202.172 61.8 202C63.7 200.6 65.6 199.2 67.4 197.7L64.1 192.4L64.2 192.2Z" fill="#FFD2B3"/>
<path d="M98.7 133.7L95.7 127.7C95.5636 127.464 95.348 127.285 95.0917 127.193C94.8353 127.102 94.5548 127.104 94.3 127.2C94.0825 127.302 93.9107 127.482 93.8183 127.703C93.7258 127.925 93.7193 128.174 93.8 128.4L95.1 133L98.8 133.6L98.7 133.7Z" fill="#FFD2B3"/>
<path d="M123.6 200.9C128.2 200.1 131 196.8 132.8 193.3C132.8 193.3 121 197.6 107.5 181.1L93.2 166.3L67.6 197.6C80.4 187.5 93.2 175.2 93.2 175.2L105.6 192.3C113.7 202.1 123.7 201.1 123.7 201.1L123.6 200.9Z" fill="#011721"/>
<path d="M148.7 132.1L192.7 100.6C192.82 100.501 192.96 100.429 193.11 100.39C193.261 100.351 193.418 100.345 193.571 100.374C193.723 100.403 193.868 100.465 193.994 100.556C194.12 100.646 194.225 100.764 194.3 100.9C194.447 101.123 194.526 101.383 194.526 101.65C194.526 101.917 194.447 102.178 194.3 102.4L158.8 140.4L150 139.6L148.7 132.1Z" fill="#00B2CA"/>
<path d="M188.3 103.8L148.7 132.1L149.1 134.7L153.2 132.3L188.2 103.8H188.3Z" fill="black"/>
<path opacity="0.8" d="M188.3 103.8L148.7 132.1L149.1 134.7L153.2 132.3L188.2 103.8H188.3Z" fill="#00B2CA"/>
<path d="M151.6 121.4L151.3 114.4C148.005 115.764 144.799 117.334 141.7 119.1C140.721 119.629 139.94 120.46 139.471 121.469C139.003 122.478 138.873 123.611 139.1 124.7C139.5 126.5 140.8 128.7 143.9 130.8L145.9 133L147.3 129.5L150.9 125.7L151.6 121.3V121.4Z" fill="#011721"/>
<path d="M148.7 130.8L148.5 129.3L152.3 128.8L155 124.3L150.3 120.3C150.3 120.3 150.6 125.4 146.9 125.9L144.8 123.7C144.8 123.7 142.6 126 145.3 127.4C145.739 127.994 145.975 128.712 145.975 129.45C145.975 130.188 145.739 130.907 145.3 131.5L147.4 132.3L148.8 130.8H148.7Z" fill="#FFD2B3"/>
<path d="M173.9 185.3L189 172.4L227.5 198C227.693 198.143 227.914 198.245 228.148 198.297C228.383 198.35 228.626 198.353 228.861 198.306C229.097 198.259 229.32 198.163 229.516 198.024C229.712 197.885 229.877 197.707 230 197.5C230.229 197.174 230.344 196.781 230.326 196.383C230.308 195.985 230.158 195.604 229.9 195.3C220.3 184.1 204.1 166.1 192.3 156.7L173.9 167.4V185.2V185.3Z" fill="#011721"/>
<path d="M192.3 156.8L183.2 162.1L186.8 163.2L191.8 160.6L222.6 192.2L227.7 192.8C218 181.6 203.3 165.4 192.3 156.8Z" fill="#05293C"/>
<path d="M227.5 198.1C227.693 198.243 227.914 198.345 228.148 198.397C228.383 198.45 228.626 198.453 228.861 198.406C229.097 198.359 229.32 198.263 229.516 198.124C229.712 197.985 229.877 197.807 230 197.6C230.229 197.274 230.344 196.881 230.326 196.483C230.308 196.085 230.158 195.704 229.9 195.4C228.7 194 227.3 192.4 225.9 190.7L222.7 192.2L220.6 193.4L227.6 198.1H227.5Z" fill="#FFD2B3"/>
<path d="M218.1 198.4C210.1 186.2 196 167.9 181.7 155.2C173.939 159.594 166.636 164.753 159.9 170.6C159.9 170.6 149.1 183 135.4 183.4V183.9C135.4 183.9 137.9 201.8 152.8 200.9C154.586 200.716 156.337 200.278 158 199.6C163.105 197.704 167.574 194.412 170.9 190.1L182.8 174.8L215 201C215.374 201.305 215.847 201.464 216.329 201.449C216.812 201.433 217.273 201.243 217.626 200.913C217.98 200.584 218.202 200.138 218.253 199.658C218.303 199.178 218.178 198.695 217.9 198.3L218.1 198.4Z" fill="#05293C"/>
<path d="M160 170.6L158.4 149.6L169.8 158.9C170.252 159.277 170.774 159.561 171.336 159.735C171.898 159.91 172.489 159.971 173.075 159.915C173.661 159.859 174.23 159.688 174.749 159.41C175.269 159.133 175.728 158.756 176.1 158.3L176.7 157.4L189.6 130.9C189.66 130.789 189.697 130.666 189.71 130.54C189.722 130.414 189.709 130.287 189.672 130.166C189.635 130.045 189.574 129.933 189.493 129.836C189.412 129.739 189.312 129.658 189.2 129.6C189.004 129.507 188.783 129.476 188.569 129.511C188.354 129.547 188.156 129.648 188 129.8L172 148.9L159 135.5C157.809 134.157 156.386 133.039 154.8 132.2C147.4 128.1 138.9 130.8 136.3 139C135.928 140.242 135.66 141.513 135.5 142.8V183.5C149.2 183.1 160 170.7 160 170.7V170.6Z" fill="black"/>
<path opacity="0.8" d="M160 170.6L158.4 149.6L169.8 158.9C170.252 159.277 170.774 159.561 171.336 159.735C171.898 159.91 172.489 159.971 173.075 159.915C173.661 159.859 174.23 159.688 174.749 159.41C175.269 159.133 175.728 158.756 176.1 158.3L176.7 157.4L189.6 130.9C189.66 130.789 189.697 130.666 189.71 130.54C189.722 130.414 189.709 130.287 189.672 130.166C189.635 130.045 189.574 129.933 189.493 129.836C189.412 129.739 189.312 129.658 189.2 129.6C189.004 129.507 188.783 129.476 188.569 129.511C188.354 129.547 188.156 129.648 188 129.8L172 148.9L159 135.5C157.809 134.157 156.386 133.039 154.8 132.2C147.4 128.1 138.9 130.8 136.3 139C135.928 140.242 135.66 141.513 135.5 142.8V183.5C149.2 183.1 160 170.7 160 170.7V170.6Z" fill="#00B2CA"/>
<path d="M209.4 196.3L215.2 201C215.574 201.305 216.047 201.464 216.529 201.449C217.012 201.433 217.473 201.243 217.826 200.913C218.18 200.584 218.402 200.138 218.453 199.658C218.503 199.178 218.378 198.695 218.1 198.3C217.1 196.7 215.9 195.1 214.7 193.3L209.3 196.2L209.4 196.3Z" fill="#FFD2B3"/>
<path d="M160 170.6L158.4 149.6L151.9 144.6C151.9 144.6 150.2 172.8 135.6 183.4C149.3 183 160.1 170.6 160.1 170.6H160Z" fill="black"/>
<path d="M160 170.6L158.4 149.6L151.9 144.6C151.9 144.6 150.2 172.8 135.6 183.4C149.3 183 160.1 170.6 160.1 170.6H160Z" fill="#00B2CA"/>
<path d="M152.9 200.9C154.686 200.716 156.437 200.278 158.1 199.6C163.205 197.704 167.674 194.412 171 190.1L182.9 174.8L209.4 196.3L182.3 165.3L159.9 185.6C143 196.6 135.4 183.3 135.4 183.3V183.8C135.4 183.8 137.9 201.7 152.8 200.8L152.9 200.9Z" fill="#011721"/>
<path d="M192.6 100.7L188.9 103.4L190.1 106.8L194.2 102.5C194.394 102.259 194.5 101.959 194.5 101.65C194.5 101.341 194.394 101.041 194.2 100.8C193.998 100.607 193.729 100.499 193.45 100.499C193.171 100.499 192.902 100.607 192.7 100.8L192.6 100.7Z" fill="#FFD2B3"/>
<path d="M188 129.7L184.6 133.7L187 136.1L189.6 130.8C189.66 130.689 189.697 130.566 189.71 130.44C189.722 130.314 189.709 130.187 189.672 130.066C189.635 129.945 189.574 129.833 189.493 129.736C189.412 129.639 189.312 129.558 189.2 129.5C189.004 129.407 188.783 129.376 188.569 129.411C188.354 129.447 188.156 129.548 188 129.7Z" fill="#FFD2B3"/>
<path d="M230.4 112.5H198.4C198.373 112.5 198.348 112.49 198.329 112.471C198.311 112.452 198.3 112.427 198.3 112.4C198.3 112.3 198.3 112.3 198.4 112.3H230.4C230.427 112.3 230.452 112.311 230.471 112.329C230.489 112.348 230.5 112.374 230.5 112.4C230.5 112.5 230.5 112.5 230.4 112.5Z" fill="#011721"/>
<path d="M230.4 189L207.9 166.4V166.2H208.1L230.6 188.8V189H230.4Z" fill="#011721"/>
<path d="M66.4 198.5C66.3735 198.5 66.348 198.489 66.3293 198.471C66.3105 198.452 66.3 198.427 66.3 198.4L88.7 179.1H88.9V179.3L66.5 198.6L66.4 198.5Z" fill="white"/>
<path d="M105.7 66.4C105.713 69.512 106.96 72.4916 109.168 74.685C111.375 76.8785 114.363 78.1066 117.475 78.1C120.587 78.0934 123.569 76.8525 125.767 74.6497C127.965 72.4469 129.2 69.462 129.2 66.35C129.2 63.2381 127.965 60.2532 125.767 58.0504C123.569 55.8475 120.587 54.6067 117.475 54.6001C114.363 54.5934 111.375 55.8216 109.168 58.0151C106.96 60.2085 105.713 63.1881 105.7 66.3V66.4ZM105.7 43.6C103.505 43.6 101.359 44.251 99.5332 45.4707C97.7078 46.6904 96.285 48.424 95.4449 50.4523C94.6048 52.4805 94.385 54.7124 94.8133 56.8655C95.2416 59.0187 96.2987 60.9966 97.8511 62.5489C99.4035 64.1013 101.381 65.1585 103.534 65.5868C105.688 66.015 107.92 65.7952 109.948 64.9551C111.976 64.115 113.71 62.6923 114.929 60.8669C116.149 59.0415 116.8 56.8954 116.8 54.7C116.79 51.7593 115.617 48.9419 113.538 46.8625C111.458 44.7831 108.641 43.6103 105.7 43.6Z" fill="black"/>
<path opacity="0.3" d="M108 59.4L105.7 57.1L103.4 59.4C103.067 59.7227 102.62 59.9014 102.156 59.8977C101.692 59.8939 101.248 59.708 100.92 59.3799C100.592 59.0519 100.406 58.608 100.402 58.1441C100.399 57.6802 100.577 57.2334 100.9 56.9L103.2 54.6L100.9 52.3C100.577 51.9667 100.399 51.5199 100.402 51.056C100.406 50.5921 100.592 50.1482 100.92 49.8202C101.248 49.4921 101.692 49.3062 102.156 49.3024C102.62 49.2986 103.067 49.4774 103.4 49.8L105.7 52.1L108 49.8C108.333 49.4774 108.78 49.2986 109.244 49.3024C109.708 49.3062 110.152 49.4921 110.48 49.8202C110.808 50.1482 110.994 50.5921 110.998 51.056C111.001 51.5199 110.823 51.9667 110.5 52.3L108.2 54.6L110.5 56.9C110.814 57.2408 110.988 57.687 110.988 58.15C110.988 58.6131 110.814 59.0593 110.5 59.4C110.168 59.6902 109.741 59.85 109.3 59.85C108.859 59.85 108.432 59.6902 108.1 59.4H108Z" fill="#00B2CA"/>
</g>
</g>
<defs>
<linearGradient id="paint0_linear_3_5505" x1="-378.294" y1="634.076" x2="-378.294" y2="632.931" gradientUnits="userSpaceOnUse">
<stop stop-color="#F4F5F9"/>
<stop offset="1" stop-color="#D2D4E0"/>
</linearGradient>
<clipPath id="clip0_3_5505">
<rect width="255" height="255" fill="white"/>
</clipPath>
</defs>
</svg>
