<svg width="255" height="255" viewBox="0 0 255 255" fill="none" xmlns="http://www.w3.org/2000/svg">
<g clip-path="url(#clip0_3_5580)">
<mask id="mask0_3_5580" style="mask-type:luminance" maskUnits="userSpaceOnUse" x="0" y="0" width="255" height="255">
<path d="M255 0H0V255H255V0Z" fill="white"/>
</mask>
<g mask="url(#mask0_3_5580)">
<path opacity="0.1" d="M254.9 127.4C254.916 141.839 252.481 156.176 247.7 169.8C247.3 170.9 246.9 172.1 246.5 173.2C245.5 175.8 244.4 178.3 243.3 180.8C242 183.6 240.6 186.3 239.1 189C236.883 193.084 234.411 197.025 231.7 200.8V201C231.6 201 231.5 201.2 231.5 201.2L231.4 201.3C231.2 201.6 231 201.8 230.8 202.1C226.711 207.704 222.197 212.986 217.3 217.9L216.5 218.7C192.772 241.976 160.838 254.979 127.6 254.9C97.2296 254.925 67.8551 244.069 44.8 224.3C42.7 222.5 40.7 220.6 38.7 218.7L37.9 217.9C33.0025 212.986 28.4893 207.704 24.4 202.1C24.3 201.9 24.1 201.7 24 201.5H23.9C8.36441 179.921 0.035505 153.989 0.0999809 127.4C0.103693 93.6126 13.5273 61.21 37.4187 37.3187C61.31 13.4274 93.7125 0.00371229 127.5 0C161.287 0.00371229 193.69 13.4274 217.581 37.3187C241.473 61.21 254.896 93.6126 254.9 127.4Z" fill="#00B2CA"/>
<path opacity="0.2" d="M197.4 209.1C199.6 209.1 215.8 200.4 220.7 196.6C235.2 185.4 244.2 169.2 244.2 150.7C244.2 127.5 232.2 103.1 208.2 96.8C199.9 94.6 192.1 100.5 184.3 102.2C179.6 103.3 174.3 103.3 170.1 100.9C166.5 98.9 163.9 94.8 164.4 90.8C164.9 86.7 168.3 83.4 172.1 81.6C175.9 79.8 180 79.1 184 77.8C189.2 76.1 194.1 72.7 195.1 67C196.172 60.1182 195.126 53.073 192.1 46.8C180.5 23.5 151.4 25.5 129.8 29.7C120 31.6 111.1 37.9 103.9 44.7C96.4176 51.7549 90.795 60.5498 87.5325 70.3025C84.27 80.0551 83.4687 90.4629 85.2 100.6C86.1 106 88.4 111.2 85.2 116.4C80.1 124.5 69.3 127.4 60.2 127C54.0255 126.751 47.881 127.983 42.2795 130.592C36.678 133.201 31.7819 137.113 28 142C19.6 153.1 20.1 166.3 25.4 178.6C25.5 178.9 25.7 179.2 25.8 179.5C28.0874 184.362 30.7978 189.013 33.9 193.4C35.8 196 37.7 198.6 39.8 201.1C40.9 202.4 45.5 209.3 47 209.3H197.3L197.4 209.1Z" fill="#00B2CA"/>
<path d="M250.1 209.1H15.7C15.7 209.1 15.5 209.1 15.5 209C15.5 208.9 15.5 208.8 15.6 208.8H249.9C249.9 208.8 250.1 208.8 250.1 208.9C250.1 209 250.1 209.1 250 209.1H250.1Z" fill="#011721"/>
<path d="M242.6 48.9C242.681 48.7164 242.725 48.5185 242.728 48.3179C242.732 48.1173 242.695 47.918 242.62 47.7318C242.546 47.5455 242.435 47.3759 242.294 47.2331C242.153 47.0903 241.985 46.977 241.8 46.9C241.493 46.7864 241.16 46.7638 240.841 46.8347C240.522 46.9057 240.23 47.0672 240 47.3C225.9 64.6 212.7 76 202.7 78.8C202.536 78.8479 202.364 78.8625 202.194 78.8431C202.024 78.8236 201.86 78.7704 201.711 78.6865C201.562 78.6027 201.431 78.4899 201.326 78.3549C201.221 78.2198 201.144 78.0651 201.1 77.9V77.4L201.4 75.1C201.526 74.7924 201.535 74.4491 201.424 74.1355C201.314 73.8219 201.091 73.5601 200.8 73.4L199.9 74.6C198 74.9 196.5 72 196.5 72L194.4 75.5L196.2 77.7L197.6 77.9C197.686 77.9053 197.771 77.9277 197.848 77.9659C197.926 78.0041 197.995 78.0574 198.052 78.1226C198.109 78.1878 198.152 78.2637 198.179 78.3458C198.206 78.4279 198.217 78.5145 198.21 78.6008C198.204 78.687 198.18 78.771 198.14 78.848C198.101 78.925 198.047 78.9933 197.981 79.0491C197.914 79.1049 197.838 79.1469 197.755 79.1728C197.673 79.1987 197.586 79.208 197.5 79.2C194.609 78.6974 191.832 77.6814 189.3 76.2C186.716 74.7887 184.242 73.1841 181.9 71.4C179.9 64.2 177.9 53.5 175.7 46.5C175.587 46.1599 175.347 45.8764 175.031 45.7088C174.714 45.5411 174.345 45.5021 174 45.6C173.716 45.6683 173.468 45.8385 173.302 46.0783C173.136 46.3181 173.064 46.6106 173.1 46.9C173.7 63.8 174.6 72.3 175.1 75.1C175.266 76.0182 175.722 76.8592 176.4 77.5C181.6 82.1 183.4 84.3 186.8 86.8C187.91 87.6082 188.84 88.6395 189.529 89.8276C190.217 91.0158 190.65 92.3348 190.8 93.7L193.1 115.7C193.1 115.7 198.2 123.4 217.2 115.2C217 114 216.9 113.3 216.9 113.3C215.2 105.4 214.5 94.5 214.2 89.4C214.16 88.6331 214.292 87.8671 214.586 87.1577C214.88 86.4484 215.329 85.8137 215.9 85.3C227.18 75.0597 236.322 62.6889 242.8 48.9H242.6Z" fill="#00B2CA"/>
<path d="M174.7 53.3C174.7 53.3 174 52.7 173.3 52.2C173.9 65.4 174.7 72.7 175.1 75.2C175.266 76.1182 175.722 76.9592 176.4 77.6C181.6 82.2 183.4 84.4 186.8 86.9L177.6 75.9C176.468 74.793 175.821 73.2829 175.8 71.7L174.8 53.4L174.7 53.3Z" fill="black"/>
<path opacity="0.8" d="M174.7 53.3C174.7 53.3 174 52.7 173.3 52.2C173.9 65.4 174.7 72.7 175.1 75.2C175.266 76.1182 175.722 76.9592 176.4 77.6C181.6 82.2 183.4 84.4 186.8 86.9L177.6 75.9C176.468 74.793 175.821 73.2829 175.8 71.7L174.8 53.4L174.7 53.3Z" fill="#00B2CA"/>
<path d="M196 72.9L195 69.8C195 69.8 201.2 69.1 204.1 70.1C204.1 70.1 205.5 74.6 201.3 79.1L201 80.2L199.8 78.9L196.7 75.2L196 72.9Z" fill="#011721"/>
<path d="M201.1 77.4L201.4 75.1C201.526 74.7924 201.535 74.4491 201.424 74.1355C201.314 73.8219 201.091 73.5601 200.8 73.4L199.9 74.6C198 74.9 196.5 72 196.5 72L194.4 75.5L196.2 77.7L197.6 77.9C197.686 77.9053 197.771 77.9277 197.848 77.9659C197.926 78.0041 197.995 78.0574 198.052 78.1226C198.109 78.1878 198.152 78.2637 198.179 78.3458C198.206 78.4279 198.217 78.5146 198.21 78.6008C198.204 78.687 198.18 78.7711 198.14 78.848C198.101 78.925 198.047 78.9934 197.981 79.0491C197.914 79.1049 197.838 79.1469 197.755 79.1728C197.673 79.1987 197.586 79.208 197.5 79.2C197.5 81 199.7 82.5 199.7 82.5C200.988 81.5312 202.018 80.2606 202.7 78.8C202.536 78.8479 202.364 78.8626 202.194 78.8431C202.024 78.8236 201.86 78.7704 201.711 78.6865C201.562 78.6027 201.431 78.49 201.326 78.3549C201.221 78.2198 201.144 78.0652 201.1 77.9V77.4Z" fill="#FFD2B3"/>
<path d="M193.1 115.8C189.112 121.241 185.567 126.992 182.5 133C180.017 137.723 178.103 142.725 176.8 147.9C179.3 158.3 187.6 182.9 193.3 195.6C193.502 196.033 193.849 196.382 194.281 196.586C194.712 196.791 195.202 196.838 195.665 196.719C196.128 196.6 196.535 196.324 196.815 195.937C197.095 195.55 197.232 195.077 197.2 194.6C195.9 175.2 192.9 148.5 192.9 148.5C196.8 143.4 203.7 132.1 203.7 132.1C203.3 139.6 212.3 185.7 215.8 207.3C215.844 207.57 215.942 207.829 216.087 208.061C216.232 208.293 216.421 208.494 216.645 208.652C216.868 208.81 217.12 208.922 217.387 208.982C217.654 209.042 217.931 209.048 218.2 209C218.635 208.953 219.041 208.759 219.35 208.45C219.659 208.141 219.853 207.735 219.9 207.3C225.9 172.2 218.7 125.1 217.1 115.2C198.1 123.4 193 115.7 193 115.7L193.1 115.8Z" fill="#05293C"/>
<path d="M240.1 47.3C238.9 48.7 237.8 50.1 236.7 51.4C236.843 52.1972 237.285 52.9097 237.935 53.3927C238.586 53.8757 239.395 54.0929 240.2 54C241.2 52.2 242 50.4 242.7 48.9C242.781 48.7164 242.825 48.5185 242.828 48.3179C242.832 48.1173 242.795 47.918 242.72 47.7318C242.646 47.5455 242.535 47.3759 242.394 47.2331C242.253 47.0903 242.085 46.977 241.9 46.9C241.593 46.7864 241.26 46.7638 240.941 46.8347C240.622 46.9057 240.33 47.0672 240.1 47.3Z" fill="#FFD2B3"/>
<path d="M214.9 201.6C215.2 203.7 215.5 205.6 215.8 207.3C215.844 207.57 215.942 207.829 216.087 208.061C216.232 208.293 216.421 208.494 216.645 208.652C216.868 208.81 217.12 208.922 217.387 208.982C217.654 209.042 217.931 209.048 218.2 209C218.635 208.953 219.041 208.759 219.35 208.45C219.659 208.141 219.853 207.735 219.9 207.3C220.305 205.25 220.605 203.181 220.8 201.1C219.988 201.781 218.985 202.195 217.929 202.284C216.873 202.374 215.815 202.135 214.9 201.6Z" fill="#FFD2B3"/>
<path d="M194.1 195.2L194.3 190.8L176.8 147.9C179.3 158.1 187.3 182.3 193.1 195.1H194.1V195.2Z" fill="#011721"/>
<path d="M197.3 194.6C197.2 192.6 197 190.6 196.8 188.6C196.267 189.559 195.416 190.304 194.395 190.705C193.373 191.106 192.244 191.14 191.2 190.8C192 192.5 192.7 194.1 193.3 195.6C193.502 196.033 193.849 196.382 194.281 196.586C194.712 196.791 195.202 196.838 195.665 196.719C196.128 196.6 196.535 196.324 196.815 195.937C197.095 195.55 197.232 195.077 197.2 194.6H197.3Z" fill="#D39266"/>
<path d="M192.9 147.7V148.5C196.9 143.4 203.7 132.1 203.7 132.1C203.4 139 211.1 178.2 214.9 201.6L204.3 125L192.9 147.7Z" fill="#011721"/>
<path d="M240.2 54C240.2 54 239.8 52.3 238.6 53.9C234.3 59.7 222.7 76.8 214.4 83C212.957 84.1017 211.772 85.5042 210.925 87.1102C210.079 88.7162 209.593 90.4871 209.5 92.3C209.014 100.701 209.789 109.128 211.8 117.3C213.4 116.8 215.2 116.1 217.2 115.3C217 114.1 216.9 113.4 216.9 113.4C215.412 105.511 214.509 97.5224 214.2 89.5C214.16 88.7331 214.292 87.9671 214.586 87.2578C214.88 86.5484 215.329 85.9137 215.9 85.4C225.771 76.4462 234.025 65.8578 240.3 54.1L240.2 54Z" fill="black"/>
<path opacity="0.8" d="M240.2 54C240.2 54 239.8 52.3 238.6 53.9C234.3 59.7 222.7 76.8 214.4 83C212.957 84.1017 211.772 85.5042 210.925 87.1102C210.079 88.7162 209.593 90.4871 209.5 92.3C209.014 100.701 209.789 109.128 211.8 117.3C213.4 116.8 215.2 116.1 217.2 115.3C217 114.1 216.9 113.4 216.9 113.4C215.412 105.511 214.509 97.5224 214.2 89.5C214.16 88.7331 214.292 87.9671 214.586 87.2578C214.88 86.5484 215.329 85.9137 215.9 85.4C225.771 76.4462 234.025 65.8578 240.3 54.1L240.2 54Z" fill="#00B2CA"/>
<path d="M199.3 82.4C199.3 82.4 197 107 218.6 112.6L222.6 110.7L219.9 107.3C219.9 107.3 200.5 102.1 199.9 82.5H199.4L199.3 82.4Z" fill="#FA6E53"/>
<path d="M199.7 78.9C199.569 78.6887 199.394 78.508 199.187 78.37C198.98 78.232 198.746 78.1399 198.5 78.1H197.6C197.677 78.0909 197.755 78.1012 197.827 78.1299C197.899 78.1586 197.963 78.2049 198.013 78.2644C198.062 78.324 198.096 78.3951 198.112 78.4711C198.127 78.5472 198.123 78.6259 198.1 78.7C198 79.1 197.7 79.3 197.4 79.2C197.4 81 199.6 82.5 199.6 82.5C200.077 82.1885 200.514 81.819 200.9 81.4L199.6 78.9H199.7Z" fill="#D39266"/>
<path d="M242.7 47.7L238.6 53.9C239.113 54.0854 239.668 54.1201 240.2 54C241.2 52.2 242 50.4 242.7 48.9C242.798 48.7154 242.85 48.5093 242.85 48.3C242.85 48.0907 242.798 47.8847 242.7 47.7Z" fill="#D39266"/>
<path d="M194.3 190.8L197 195.8C197.193 195.429 197.296 195.018 197.3 194.6C197.2 192.6 197 190.6 196.8 188.6C196.553 189.105 196.203 189.553 195.772 189.915C195.342 190.276 194.84 190.544 194.3 190.7V190.8Z" fill="#FFD2B3"/>
<path d="M217.5 202.4C216.591 202.369 215.702 202.129 214.9 201.7C215.2 203.8 215.5 205.7 215.8 207.4C215.841 207.872 216.061 208.31 216.414 208.626C216.767 208.942 217.227 209.111 217.7 209.1L217.4 202.4H217.5Z" fill="#D39266"/>
<path d="M177.4 52.5C176.8 50.4 176.3 48.3 175.7 46.4C175.649 46.2302 175.563 46.0731 175.447 45.9388C175.332 45.8045 175.189 45.6961 175.028 45.6206C174.868 45.5451 174.694 45.5043 174.516 45.5007C174.339 45.4972 174.163 45.531 174 45.6C173.727 45.6863 173.491 45.8608 173.328 46.0961C173.165 46.3314 173.085 46.6142 173.1 46.9C173.1 49.1 173.3 51.2 173.4 53.1C173.4 53.1 176.5 54 177.5 52.5H177.4Z" fill="#FFD2B3"/>
<path d="M173.8 45.7C173 46.1 173.1 46.7 173.1 47.3C173.1 49.4 173.3 51.3 173.3 53.1C173.757 53.2225 174.227 53.2897 174.7 53.3L173.8 45.6V45.7Z" fill="#D39266"/>
<path d="M167.1 198.9L173.1 136H97.1V209.1H159.8C166.5 209.1 166.8 202.6 167.2 198.9H167.1Z" fill="white"/>
<path opacity="0.7" d="M167.1 198.9L173.1 136H97.1V209.1H159.8C166.5 209.1 166.8 202.6 167.2 198.9H167.1Z" fill="#00B2CA"/>
<path d="M166.8 153.6L131.1 151.2L134.4 101.1L163.9 103.1L169.6 110.1L166.7 153.6H166.8Z" fill="#FA6E53"/>
<path d="M147.7 131.6V130.3C148.1 125.5 154.3 125.7 154.5 121.8C154.6 120 153.3 118.7 151.2 118.5C149 118.4 147.5 119.6 147.4 121.4V122C147.404 122.067 147.394 122.134 147.37 122.196C147.347 122.259 147.31 122.315 147.263 122.363C147.215 122.41 147.159 122.447 147.096 122.47C147.034 122.494 146.967 122.504 146.9 122.5H146.8L143.8 122.2C143.655 122.185 143.521 122.114 143.428 122.002C143.335 121.889 143.289 121.745 143.3 121.6V121.1C143.6 117 147 114.4 151.6 114.7C156.2 115 159 117.9 158.7 121.9C158.3 127.8 152.1 127.5 151.9 130.8V131.9C151.885 132.045 151.814 132.178 151.702 132.272C151.589 132.365 151.445 132.411 151.3 132.4L148.3 132.2C148.233 132.204 148.166 132.194 148.104 132.17C148.041 132.147 147.985 132.11 147.937 132.063C147.89 132.015 147.853 131.959 147.83 131.896C147.806 131.834 147.796 131.767 147.8 131.7L147.7 131.6ZM146.9 137.2C146.973 136.5 147.318 135.857 147.86 135.408C148.402 134.959 149.099 134.741 149.8 134.8C150.476 134.813 151.12 135.095 151.588 135.582C152.057 136.07 152.313 136.724 152.3 137.4C152.287 138.076 152.005 138.72 151.518 139.188C151.03 139.657 150.376 139.913 149.7 139.9H149.4C148.715 139.861 148.072 139.558 147.606 139.054C147.139 138.551 146.886 137.886 146.9 137.2Z" fill="white"/>
<path d="M163.9 103.1L163.5 109.7L169.6 110.2L163.9 103.2V103.1Z" fill="#05293C"/>
<path opacity="0.8" d="M163.9 103.1L163.5 109.7L169.6 110.2L163.9 103.2V103.1Z" fill="#FA6E53"/>
<path d="M159.7 209.1H43.4C41.2659 209.115 39.2026 208.335 37.6126 206.911C36.0227 205.488 35.0199 203.523 34.8 201.4L28.2 136.6C28.1277 135.965 28.3071 135.327 28.6995 134.822C29.092 134.317 29.6665 133.986 30.3 133.9H96.9C97.3397 133.91 97.7744 133.805 98.1605 133.594C98.5466 133.384 98.8706 133.075 99.1 132.7L101.4 128.7C101.621 128.317 101.943 128.002 102.331 127.79C102.719 127.578 103.158 127.478 103.6 127.5H142.4C143.14 127.519 143.848 127.802 144.398 128.297C144.948 128.792 145.303 129.467 145.4 130.2L152.4 199C152.8 202.7 153.1 209.2 159.8 209.2L159.7 209.1Z" fill="#00B2CA"/>
<path d="M146.7 143.9L145.3 130.1C145.203 129.367 144.848 128.692 144.298 128.197C143.748 127.702 143.04 127.419 142.3 127.4H103.5C103.06 127.39 102.626 127.495 102.239 127.706C101.853 127.916 101.529 128.225 101.3 128.6L99 132.6C98.7794 132.983 98.4573 133.298 98.069 133.51C97.6808 133.722 97.2417 133.822 96.8 133.8H30.7C30.0553 133.804 29.4368 134.055 28.9717 134.502C28.5066 134.948 28.2304 135.556 28.2 136.2V136.6L33 183.9C75.5 143.3 146.7 143.9 146.7 143.9Z" fill="white"/>
<path opacity="0.4" d="M146.7 143.9L145.3 130.1C145.203 129.367 144.848 128.692 144.298 128.197C143.748 127.702 143.04 127.419 142.3 127.4H103.5C103.06 127.39 102.626 127.495 102.239 127.706C101.853 127.916 101.529 128.225 101.3 128.6L99 132.6C98.7794 132.983 98.4573 133.298 98.069 133.51C97.6808 133.722 97.2417 133.822 96.8 133.8H30.7C30.0553 133.804 29.4368 134.055 28.9717 134.502C28.5066 134.948 28.2304 135.556 28.2 136.2V136.6L33 183.9C75.5 143.3 146.7 143.9 146.7 143.9Z" fill="#00B2CA"/>
<path d="M43.4 209.1H159.7C154.8 209.1 153.3 205.6 152.7 202.3H35C35.4049 204.226 36.4613 205.954 37.9913 207.193C39.5213 208.432 41.4315 209.105 43.4 209.1Z" fill="white"/>
<path opacity="0.8" d="M43.4 209.1H159.7C154.8 209.1 153.3 205.6 152.7 202.3H35C35.4049 204.226 36.4613 205.954 37.9913 207.193C39.5213 208.432 41.4315 209.105 43.4 209.1Z" fill="#00B2CA"/>
<path opacity="0.5" d="M107.7 208.6C108.998 207.882 109.964 206.687 110.394 205.267C110.823 203.848 110.682 202.317 110 201L81 146.6C80.8119 146.258 80.4969 146.003 80.1228 145.891C79.7486 145.778 79.3454 145.818 79 146L78.4 146.3L75.6 141.1C78.5148 139.102 81.1108 136.674 83.3 133.9H31.3C31.3072 133.977 31.3429 134.048 31.4 134.1C31.4538 134.208 31.521 134.309 31.6 134.4C31.8907 134.713 32.1581 135.048 32.4 135.4C32.4 135.427 32.4105 135.452 32.4292 135.471C32.448 135.489 32.4734 135.5 32.5 135.5C32.8 135.8 33.1 136.2 33.4 136.5C33.6814 136.881 34.0185 137.219 34.4 137.5L35.4 138.5C39.9638 142.573 45.5783 145.285 51.6059 146.328C57.6336 147.371 63.8329 146.703 69.5 144.4L72.3 149.6L71.7 149.9C71.3576 150.088 71.1029 150.403 70.9906 150.777C70.8784 151.151 70.9177 151.555 71.1 151.9L100.1 206.3C100.534 207.099 101.151 207.784 101.9 208.3C102.1 208.3 102.2 208.5 102.4 208.6C102.815 208.81 103.251 208.977 103.7 209.1H106.3C106.754 208.995 107.192 208.826 107.6 208.6H107.7Z" fill="black"/>
<path opacity="0.7" d="M107.7 208.6C108.998 207.882 109.964 206.687 110.394 205.267C110.823 203.848 110.682 202.317 110 201L81 146.6C80.8119 146.258 80.4969 146.003 80.1228 145.891C79.7486 145.778 79.3454 145.818 79 146L78.4 146.3L75.6 141.1C78.5148 139.102 81.1108 136.674 83.3 133.9H31.3C31.3072 133.977 31.3429 134.048 31.4 134.1C31.4538 134.208 31.521 134.309 31.6 134.4C31.8907 134.713 32.1581 135.048 32.4 135.4C32.4 135.427 32.4105 135.452 32.4292 135.471C32.448 135.489 32.4734 135.5 32.5 135.5C32.8 135.8 33.1 136.2 33.4 136.5C33.6814 136.881 34.0185 137.219 34.4 137.5L35.4 138.5C39.9638 142.573 45.5783 145.285 51.6059 146.328C57.6336 147.371 63.8329 146.703 69.5 144.4L72.3 149.6L71.7 149.9C71.3576 150.088 71.1029 150.403 70.9906 150.777C70.8784 151.151 70.9177 151.555 71.1 151.9L100.1 206.3C100.534 207.099 101.151 207.784 101.9 208.3C102.1 208.3 102.2 208.5 102.4 208.6C102.815 208.81 103.251 208.977 103.7 209.1H106.3C106.754 208.995 107.192 208.826 107.6 208.6H107.7Z" fill="#00B2CA"/>
<path d="M64.3 124.6C71.9767 124.6 78.2 118.377 78.2 110.7C78.2 103.023 71.9767 96.8 64.3 96.8C56.6232 96.8 50.4 103.023 50.4 110.7C50.4 118.377 56.6232 124.6 64.3 124.6Z" fill="white"/>
<path d="M64.3 124.6C71.9767 124.6 78.2 118.377 78.2 110.7C78.2 103.023 71.9767 96.8 64.3 96.8C56.6232 96.8 50.4 103.023 50.4 110.7C50.4 118.377 56.6232 124.6 64.3 124.6Z" fill="#FA6E53"/>
<path d="M67.6999 117.8L57.2999 107.4C56.8188 106.904 56.5497 106.241 56.5497 105.55C56.5497 104.859 56.8188 104.196 57.2999 103.7C57.7956 103.219 58.4592 102.95 59.1499 102.95C59.8407 102.95 60.5043 103.219 60.9999 103.7L71.3999 114.1C71.8811 114.596 72.1502 115.259 72.1502 115.95C72.1502 116.641 71.8811 117.304 71.3999 117.8C70.9043 118.281 70.2407 118.55 69.5499 118.55C68.8592 118.55 68.1956 118.281 67.6999 117.8Z" fill="white"/>
<path d="M71.3999 107.3L60.9999 117.7C60.5043 118.181 59.8407 118.45 59.1499 118.45C58.4592 118.45 57.7956 118.181 57.2999 117.7C56.8188 117.204 56.5497 116.541 56.5497 115.85C56.5497 115.159 56.8188 114.496 57.2999 114L67.6999 103.6C68.1956 103.119 68.8592 102.85 69.5499 102.85C70.2407 102.85 70.9043 103.119 71.3999 103.6C71.8811 104.096 72.1502 104.759 72.1502 105.45C72.1502 106.141 71.8811 106.804 71.3999 107.3Z" fill="white"/>
<path d="M93.5 95.8C90.516 90.2197 85.9792 85.6235 80.4382 82.5673C74.8972 79.511 68.5893 78.1257 62.2776 78.5788C55.9658 79.0318 49.9206 81.304 44.8729 85.1203C39.8252 88.9367 35.9914 94.1338 33.8351 100.083C31.6789 106.032 31.2925 112.479 32.7227 118.643C34.153 124.807 37.3386 130.425 41.8943 134.817C46.4499 139.209 52.1805 142.187 58.393 143.391C64.6054 144.595 71.0336 143.973 76.9 141.6L81 149.4L87 146.2L82.9 138.4C89.621 133.866 94.424 127.003 96.3816 119.136C98.3392 111.268 97.3126 102.955 93.5 95.8ZM77.3 135.1C72.573 137.612 67.2072 138.666 61.8813 138.128C56.5554 137.59 51.5085 135.486 47.3789 132.08C43.2493 128.674 40.2224 124.12 38.681 118.993C37.1396 113.867 37.1529 108.399 38.7193 103.28C40.2856 98.1615 43.3347 93.6223 47.4809 90.2365C51.627 86.8507 56.6841 84.7705 62.0126 84.2588C67.3411 83.7471 72.7016 84.827 77.4163 87.3619C82.131 89.8969 85.9882 93.7729 88.5 98.5C91.866 104.839 92.577 112.255 90.4768 119.119C88.3766 125.982 83.637 131.73 77.3 135.1Z" fill="#00B2CA"/>
<path d="M49.2 82.3C44.5539 84.797 40.5771 88.3756 37.6056 92.7334C34.634 97.0912 32.755 102.1 32.1274 107.337C31.4997 112.574 32.1418 117.886 33.9994 122.822C35.857 127.759 38.8755 132.176 42.8 135.7L46.9 131.7C41.4799 127.001 38.1454 120.343 37.6283 113.188C37.1112 106.034 39.4537 98.9658 44.1418 93.5361C48.8299 88.1064 55.4805 84.7583 62.6343 84.2266C69.7882 83.6949 76.8607 86.023 82.3 90.7C83.4992 91.7326 84.6037 92.8704 85.6 94.1L89.7 90.1C84.8887 84.3247 78.2329 80.3854 70.8551 78.9463C63.4774 77.5072 55.8291 78.6563 49.2 82.2V82.3Z" fill="black"/>
<path opacity="0.7" d="M49.2 82.3C44.5539 84.797 40.5771 88.3756 37.6056 92.7334C34.634 97.0912 32.755 102.1 32.1274 107.337C31.4997 112.574 32.1418 117.886 33.9994 122.822C35.857 127.759 38.8755 132.176 42.8 135.7L46.9 131.7C41.4799 127.001 38.1454 120.343 37.6283 113.188C37.1112 106.034 39.4537 98.9658 44.1418 93.5361C48.8299 88.1064 55.4805 84.7583 62.6343 84.2266C69.7882 83.6949 76.8607 86.023 82.3 90.7C83.4992 91.7326 84.6037 92.8704 85.6 94.1L89.7 90.1C84.8887 84.3247 78.2329 80.3854 70.8551 78.9463C63.4774 77.5072 55.8291 78.6563 49.2 82.2V82.3Z" fill="#00B2CA"/>
<path d="M115 205.9C113.682 206.575 112.153 206.712 110.736 206.283C109.319 205.854 108.123 204.892 107.4 203.6L78.4 149.2C78.2177 148.855 78.1784 148.451 78.2906 148.077C78.4029 147.703 78.6576 147.388 79 147.2L86.2 143.3C86.5454 143.118 86.9486 143.078 87.3228 143.191C87.6969 143.303 88.0119 143.558 88.2 143.9L117.2 198.3C117.875 199.618 118.012 201.147 117.583 202.564C117.154 203.981 116.192 205.177 114.9 205.9H115Z" fill="#011721"/>
<path d="M79.1 147.1C78.7576 147.288 78.5029 147.603 78.3906 147.977C78.2784 148.351 78.3177 148.755 78.5 149.1L107.5 203.5C108.218 204.798 109.413 205.764 110.833 206.194C112.252 206.623 113.783 206.482 115.1 205.8L82.8 145.1L79.2 147L79.1 147.1Z" fill="#05293C"/>
<path d="M89.4 98C86.7892 93.0951 82.7827 89.0744 77.8869 86.4466C72.9911 83.8187 67.4261 82.7016 61.8954 83.2365C56.3648 83.7715 51.117 85.9344 46.8156 89.4519C42.5142 92.9693 39.3525 97.6833 37.7302 102.998C36.1079 108.312 36.098 113.988 37.7016 119.308C39.3052 124.628 42.4504 129.353 46.7394 132.886C51.0284 136.418 56.2686 138.6 61.7973 139.154C67.326 139.708 72.895 138.611 77.8 136C81.0577 134.268 83.9421 131.91 86.2884 129.062C88.6346 126.215 90.3968 122.933 91.474 119.404C92.5513 115.875 92.9226 112.168 92.5667 108.495C92.2108 104.823 91.1348 101.256 89.4 98ZM77.3 135.1C72.573 137.612 67.2072 138.666 61.8813 138.128C56.5554 137.59 51.5085 135.486 47.3789 132.08C43.2493 128.674 40.2224 124.12 38.681 118.993C37.1396 113.867 37.1529 108.399 38.7192 103.28C40.2856 98.1615 43.3347 93.6223 47.4809 90.2365C51.627 86.8507 56.6841 84.7705 62.0126 84.2588C67.341 83.7471 72.7016 84.827 77.4163 87.3619C82.131 89.8969 85.9882 93.7729 88.5 98.5C91.866 104.839 92.577 112.255 90.4768 119.119C88.3766 125.982 83.637 131.73 77.3 135.1Z" fill="black"/>
<path opacity="0.7" d="M89.4 98C86.7892 93.0951 82.7827 89.0744 77.8869 86.4466C72.9911 83.8187 67.4261 82.7016 61.8954 83.2365C56.3648 83.7715 51.117 85.9344 46.8156 89.4519C42.5142 92.9693 39.3525 97.6833 37.7302 102.998C36.1079 108.312 36.098 113.988 37.7016 119.308C39.3052 124.628 42.4504 129.353 46.7394 132.886C51.0284 136.418 56.2686 138.6 61.7973 139.154C67.326 139.708 72.895 138.611 77.8 136C81.0577 134.268 83.9421 131.91 86.2884 129.062C88.6346 126.215 90.3968 122.933 91.474 119.404C92.5513 115.875 92.9226 112.168 92.5667 108.495C92.2108 104.823 91.1348 101.256 89.4 98ZM77.3 135.1C72.573 137.612 67.2072 138.666 61.8813 138.128C56.5554 137.59 51.5085 135.486 47.3789 132.08C43.2493 128.674 40.2224 124.12 38.681 118.993C37.1396 113.867 37.1529 108.399 38.7192 103.28C40.2856 98.1615 43.3347 93.6223 47.4809 90.2365C51.627 86.8507 56.6841 84.7705 62.0126 84.2588C67.341 83.7471 72.7016 84.827 77.4163 87.3619C82.131 89.8969 85.9882 93.7729 88.5 98.5C91.866 104.839 92.577 112.255 90.4768 119.119C88.3766 125.982 83.637 131.73 77.3 135.1Z" fill="#00B2CA"/>
<path opacity="0.3" d="M64.6 138.3C79.5669 138.3 91.7 126.167 91.7 111.2C91.7 96.2331 79.5669 84.1 64.6 84.1C49.6331 84.1 37.5 96.2331 37.5 111.2C37.5 126.167 49.6331 138.3 64.6 138.3Z" fill="white"/>
<path opacity="0.7" d="M51.4 86.4C48.1422 88.1324 45.2578 90.4899 42.9115 93.3375C40.5653 96.1852 38.8032 99.4673 37.7259 102.996C36.6486 106.525 36.2773 110.232 36.6332 113.905C36.9891 117.577 38.0652 121.144 39.8 124.4C41.4407 127.426 43.608 130.135 46.2 132.4L46.9 131.7C41.4798 127.001 38.1454 120.343 37.6283 113.188C37.1112 106.034 39.4537 98.9658 44.1418 93.5361C48.8298 88.1064 55.4805 84.7583 62.6343 84.2266C69.7881 83.6949 76.8607 86.023 82.3 90.7C83.4992 91.7326 84.6036 92.8704 85.6 94.1L86.3 93.4C82.1967 88.3675 76.4719 84.9175 70.1054 83.6406C63.7389 82.3636 57.1265 83.3391 51.4 86.4Z" fill="#00B2CA"/>
<path d="M190.028 64.3739L189.57 64.762L192.545 68.2703L193.003 67.8822L190.028 64.3739Z" fill="#011721"/>
<path d="M196.937 60.9852L196.341 61.053L196.838 65.4266L197.435 65.3588L196.937 60.9852Z" fill="#011721"/>
<path d="M210.116 66.4439L207.299 67.961L207.583 68.4893L210.401 66.9722L210.116 66.4439Z" fill="#011721"/>
<path d="M27.6 110.2C28.9 100.9 32.1 93.2 37.1 87.1C41.2316 82.1543 46.5219 78.3068 52.5 75.9C59.0584 73.2002 66.1102 71.9056 73.2 72.1C66.1419 71.8966 59.1209 73.1918 52.6 75.9C42.9 79.9 30.7 89.1 27.8 110.1L27.6 110.2Z" fill="#011721"/>
<path d="M116 201.2L97.1 168.3V168.2H97.2L116.1 201.1V201.2H116Z" fill="#FFF2E6"/>
</g>
</g>
<defs>
<clipPath id="clip0_3_5580">
<rect width="255" height="255" fill="white"/>
</clipPath>
</defs>
</svg>
