<svg width="255" height="255" viewBox="0 0 255 255" fill="none" xmlns="http://www.w3.org/2000/svg">
<g clip-path="url(#clip0_3_5652)">
<path opacity="0.1" d="M254.9 127.4C254.916 141.839 252.481 156.176 247.7 169.8C247.3 170.9 246.9 172.1 246.5 173.2C245.5 175.8 244.4 178.3 243.3 180.8C242 183.6 240.6 186.3 239.1 189C236.883 193.084 234.411 197.025 231.7 200.8V201C231.6 201 231.5 201.2 231.5 201.2L231.4 201.3C231.2 201.6 231 201.8 230.8 202.1C226.711 207.704 222.197 212.986 217.3 217.9L216.5 218.7C192.772 241.976 160.838 254.979 127.6 254.9C97.2296 254.925 67.8551 244.069 44.8 224.3C42.7 222.5 40.7 220.6 38.7 218.7L37.9 217.9C33.0025 212.986 28.4893 207.704 24.4 202.1C24.3 201.9 24.1 201.7 24 201.5H23.9C8.36441 179.921 0.035505 153.989 0.0999809 127.4C0.103693 93.6126 13.5273 61.21 37.4187 37.3187C61.31 13.4274 93.7125 0.00371229 127.5 0C161.287 0.00371229 193.69 13.4274 217.581 37.3187C241.473 61.21 254.896 93.6126 254.9 127.4Z" fill="#00B2CA"/>
<path opacity="0.22" d="M85.9 213.7H181C197.257 203.4 209.729 188.1 216.542 170.101C223.355 152.102 224.139 132.378 218.776 113.895C213.414 95.4122 202.195 79.1703 186.807 67.6124C171.42 56.0544 152.695 49.8055 133.45 49.8055C114.205 49.8055 95.4803 56.0544 80.0925 67.6124C64.7047 79.1703 53.4859 95.4122 48.1235 113.895C42.7612 132.378 43.5453 152.102 50.3579 170.101C57.1705 188.1 69.6433 203.4 85.9 213.7Z" fill="white"/>
<path opacity="0.2" d="M83.4 175.4C83.379 188.616 86.3175 201.668 92 213.6H181C200.14 201.474 213.926 182.495 219.539 160.544C225.153 138.592 222.17 115.326 211.2 95.5C197.649 88.9144 182.647 85.8796 167.602 86.6805C152.556 87.4815 137.961 92.0918 125.186 100.079C112.411 108.066 101.874 119.168 94.5652 132.343C87.2561 145.518 83.4142 160.333 83.4 175.4Z" fill="#00B2CA"/>
<mask id="mask0_3_5652" style="mask-type:luminance" maskUnits="userSpaceOnUse" x="0" y="0" width="255" height="255">
<path d="M255 0H0V255H255V0Z" fill="white"/>
</mask>
<g mask="url(#mask0_3_5652)">
<path d="M234.2 213.7H24.8C24.7 213.7 24.5 213.7 24.5 213.5C24.5 213.3 24.6 213.3 24.8 213.3H234.2C234.3 213.3 234.5 213.3 234.5 213.5C234.5 213.7 234.4 213.7 234.2 213.7Z" fill="#011721"/>
<path d="M158.4 136.1L144.6 137.5C144.226 137.552 143.882 137.732 143.626 138.008C143.369 138.285 143.216 138.642 143.193 139.018C143.169 139.395 143.277 139.768 143.497 140.074C143.717 140.381 144.036 140.602 144.4 140.7C149.647 141.633 154.971 142.068 160.3 142L167 140.4L158.4 136.2V136.1Z" fill="black"/>
<g opacity="0.8">
<mask id="mask1_3_5652" style="mask-type:luminance" maskUnits="userSpaceOnUse" x="143" y="136" width="24" height="6">
<path d="M166.9 136.1H143.1V141.9H166.9V136.1Z" fill="white"/>
</mask>
<g mask="url(#mask1_3_5652)">
<path d="M158.4 136.1L144.6 137.5C144.226 137.552 143.882 137.732 143.626 138.008C143.369 138.285 143.216 138.642 143.193 139.018C143.169 139.395 143.277 139.768 143.497 140.074C143.717 140.381 144.036 140.602 144.4 140.7C149.647 141.633 154.971 142.068 160.3 142L167 140.4L158.4 136.2V136.1Z" fill="#00B2CA"/>
</g>
</g>
<path d="M151.1 141.6C148.9 140.2 150.1 137 150.1 137L144.6 137.6C144.226 137.652 143.882 137.832 143.626 138.108C143.369 138.385 143.216 138.742 143.193 139.118C143.169 139.495 143.277 139.868 143.497 140.174C143.717 140.481 144.036 140.702 144.4 140.8C146.6 141.2 148.9 141.5 151.2 141.7L151.1 141.6Z" fill="#FFD2B3"/>
<path d="M143.2 139.7C143.293 139.958 143.454 140.187 143.665 140.362C143.876 140.538 144.129 140.655 144.4 140.7C149.647 141.633 154.971 142.068 160.3 142L166.8 140.4L166.6 140.2L164.9 139.4L159.2 139.7C155.5 140.2 145.5 139.8 143.1 139.7H143.2Z" fill="#00B2CA"/>
<path d="M144.4 140.6C146.6 141 148.9 141.3 151.2 141.5C150.609 141.096 150.183 140.492 150 139.8C147.1 139.8 144.4 139.6 143.3 139.6C143.394 139.858 143.554 140.087 143.765 140.262C143.976 140.438 144.229 140.555 144.5 140.6H144.4Z" fill="#D39266"/>
<path d="M175.4 113.2L173.5 110.1L180.5 106.3C181.124 106.06 181.817 106.072 182.433 106.334C183.048 106.595 183.538 107.085 183.8 107.7C184.5 109 185.4 111.5 185.8 116.4L178.7 115.5L175.5 113.2H175.4Z" fill="#011721"/>
<path d="M175.4 117.2L178.8 119L180.6 117.5C180.74 117.415 180.904 117.379 181.067 117.397C181.23 117.415 181.382 117.487 181.5 117.6C181.598 117.748 181.65 117.922 181.65 118.1C181.65 118.278 181.598 118.452 181.5 118.6C181.5 118.6 184.4 116.4 186 116.5C185.291 116.304 184.617 116 184 115.6C181.8 114.6 183 112 181.6 111.6C181.2 111.5 181 113.2 179.7 113.1C178.281 112.812 176.879 112.444 175.5 112V117.3L175.4 117.2Z" fill="#FFD2B3"/>
<path d="M181.4 118.6C181.845 118.176 182.312 117.775 182.8 117.4L182 117C181.852 116.902 181.678 116.85 181.5 116.85C181.322 116.85 181.148 116.902 181 117L180.5 117.4C180.64 117.315 180.804 117.279 180.967 117.297C181.13 117.315 181.282 117.387 181.4 117.5C181.498 117.648 181.55 117.822 181.55 118C181.55 118.178 181.498 118.352 181.4 118.5V118.6Z" fill="#D39266"/>
<path d="M173.5 112.9C169.6 116.5 163.4 124 157.9 137.4C157.722 137.799 157.628 138.23 157.623 138.666C157.618 139.103 157.702 139.536 157.871 139.939C158.039 140.342 158.289 140.706 158.603 141.009C158.918 141.312 159.291 141.547 159.7 141.7C160.132 141.919 160.624 141.989 161.1 141.9C167 141.7 176.4 139.7 181.5 136L190.1 155.6C190.1 155.6 203 160.5 211.7 154.8C211.7 154.8 204.2 132.2 195.8 120.2C194.6 118.441 192.841 117.138 190.809 116.503C188.776 115.867 186.588 115.937 184.6 116.7C183.064 117.313 181.669 118.231 180.5 119.4L168.3 133.1C168.3 133.1 173 121.4 175.8 114.5C175.876 114.33 175.915 114.147 175.915 113.961C175.915 113.775 175.876 113.592 175.8 113.422C175.725 113.252 175.615 113.1 175.477 112.976C175.339 112.852 175.177 112.758 175 112.7C174.761 112.618 174.505 112.602 174.258 112.655C174.011 112.708 173.784 112.827 173.6 113L173.5 112.9Z" fill="#00B2CA"/>
<path d="M168.1 133.1C168.1 133.1 172.8 121.4 175.6 114.5C175.69 114.223 175.7 113.926 175.63 113.643C175.559 113.36 175.41 113.102 175.2 112.9C175.2 112.9 168 130 168.1 133.1Z" fill="#606060"/>
<path d="M173.9 119C174.5 117.4 175.2 115.9 175.7 114.5C175.776 114.33 175.815 114.147 175.815 113.961C175.815 113.775 175.776 113.592 175.7 113.422C175.625 113.252 175.515 113.1 175.377 112.976C175.239 112.852 175.077 112.758 174.9 112.7C174.661 112.618 174.405 112.602 174.158 112.655C173.911 112.708 173.684 112.827 173.5 113C172.4 114 171.4 115.1 170.4 116.2C170.4 116.2 170.4 119.3 173.9 119Z" fill="#FFD2B3"/>
<path d="M172.8 119H173.9L175.7 114.5C175.79 114.223 175.8 113.926 175.73 113.643C175.659 113.36 175.51 113.102 175.3 112.9C175.3 112.9 174.2 115.6 172.8 119Z" fill="#D39266"/>
<path d="M181.7 130.4C178.5 138.6 161.4 141.7 160.3 141.9H161C166.9 141.7 176.3 139.7 181.4 136L190 155.6C190.182 155.62 190.355 155.689 190.5 155.8L202.1 151.2C186.6 146.2 181.7 130.4 181.7 130.4Z" fill="black"/>
<g opacity="0.8">
<mask id="mask2_3_5652" style="mask-type:luminance" maskUnits="userSpaceOnUse" x="160" y="130" width="43" height="26">
<path d="M202.1 130.4H160.3V155.8H202.1V130.4Z" fill="white"/>
</mask>
<g mask="url(#mask2_3_5652)">
<path d="M181.7 130.4C178.5 138.6 161.4 141.7 160.3 141.9H161C166.9 141.7 176.3 139.7 181.4 136L190 155.6C190.182 155.62 190.355 155.689 190.5 155.8L202.1 151.2C186.6 146.2 181.7 130.4 181.7 130.4Z" fill="#00B2CA"/>
</g>
</g>
<path d="M185.1 169.4H203.4V171.9C203.4 172.15 203.351 172.397 203.255 172.627C203.16 172.858 203.02 173.067 202.844 173.243C202.667 173.42 202.458 173.56 202.227 173.655C201.997 173.751 201.75 173.8 201.5 173.8H186.9C186.396 173.8 185.913 173.6 185.557 173.243C185.2 172.887 185 172.404 185 171.9V169.4H185.1Z" fill="#00B2CA"/>
<path d="M203.4 169.4H194L194.3 170.3V173.7H201.3C201.856 173.697 202.388 173.475 202.781 173.081C203.175 172.688 203.397 172.156 203.4 171.6V169.4Z" fill="#00B2CA"/>
<path d="M214.9 208V208.4C214.9 208.665 214.795 208.92 214.607 209.107C214.42 209.295 214.165 209.4 213.9 209.4H174.6C174.335 209.4 174.08 209.295 173.893 209.107C173.705 208.92 173.6 208.665 173.6 208.4V208C173.6 207.735 173.705 207.48 173.893 207.293C174.08 207.105 174.335 207 174.6 207H213.9C214.165 207 214.42 207.105 214.607 207.293C214.795 207.48 214.9 207.735 214.9 208Z" fill="#00B2CA"/>
<path d="M178 207.5C178.613 207.5 179.213 207.682 179.722 208.022C180.232 208.363 180.629 208.847 180.864 209.414C181.099 209.98 181.16 210.603 181.04 211.205C180.921 211.806 180.626 212.358 180.192 212.792C179.759 213.226 179.206 213.521 178.605 213.64C178.003 213.76 177.38 213.699 176.814 213.464C176.247 213.229 175.763 212.832 175.422 212.322C175.082 211.812 174.9 211.213 174.9 210.6C174.904 209.779 175.232 208.993 175.813 208.413C176.393 207.832 177.179 207.504 178 207.5Z" fill="#00B2CA"/>
<path d="M210.4 207.5C211.013 207.5 211.613 207.682 212.122 208.022C212.632 208.363 213.029 208.847 213.264 209.414C213.499 209.98 213.56 210.603 213.44 211.205C213.321 211.806 213.026 212.358 212.592 212.792C212.159 213.226 211.606 213.521 211.005 213.64C210.403 213.76 209.78 213.699 209.214 213.464C208.647 213.229 208.163 212.832 207.822 212.322C207.482 211.812 207.3 211.213 207.3 210.6C207.304 209.779 207.632 208.993 208.213 208.413C208.793 207.832 209.579 207.504 210.4 207.5Z" fill="#00B2CA"/>
<path d="M160.9 164.5C160.9 164.5 144.6 186.8 127.8 210.8C127.538 211.172 127.432 211.633 127.507 212.082C127.582 212.531 127.831 212.933 128.2 213.2C128.478 213.395 128.81 213.5 129.15 213.5C129.49 213.5 129.822 213.395 130.1 213.2C137.8 208.1 151.3 198 167.6 181.2L172.9 171.9L160.8 164.5H160.9Z" fill="#05293C"/>
<path d="M167.7 181.2L173 171.9L170.3 170.2L160.9 164.5L137.6 208.1C148.324 199.975 158.389 191.013 167.7 181.3V181.2Z" fill="#011721"/>
<path d="M207.6 156.5C204.2 149.6 191.7 147.5 191.7 147.5C185.3 151.2 176.3 155.6 169.7 159.2C164.6 162 160.9 164.4 160.9 164.4C166.4 184.4 182.8 204.8 190.1 213.2C190.215 213.337 190.356 213.449 190.516 213.528C190.676 213.608 190.85 213.654 191.028 213.663C191.207 213.673 191.385 213.645 191.552 213.583C191.719 213.52 191.872 213.424 192 213.3C192.185 213.145 192.322 212.94 192.393 212.709C192.463 212.479 192.466 212.232 192.4 212C188.2 195.7 179.5 169.6 179.5 169.6C191.9 166.4 199.3 163.1 203.7 160.2C205.234 159.199 206.559 157.908 207.6 156.4V156.5Z" fill="#05293C"/>
<path d="M179.5 169.6C191.9 166.4 199.3 163.1 203.7 160.2C205.3 159.2 207.6 159.9 208.7 158.4L207.6 156.4C206.321 154.136 204.41 152.294 202.1 151.1C202.1 151.1 181.6 159.6 169.2 167.3C172.1 184.1 179.5 200.4 186.6 209.1L187.5 208.9L190.9 206.3C186.4 190.2 179.5 169.6 179.5 169.6Z" fill="#011721"/>
<path d="M132.4 204.4C130.9 206.5 129.4 208.7 127.9 210.9C127.638 211.272 127.532 211.733 127.607 212.182C127.682 212.631 127.931 213.033 128.3 213.3C128.578 213.495 128.91 213.6 129.25 213.6C129.59 213.6 129.922 213.495 130.2 213.3C132.3 211.9 134.7 210.2 137.6 208.1C136.448 208.135 135.317 207.792 134.378 207.124C133.44 206.456 132.745 205.499 132.4 204.4Z" fill="#FFD2B3"/>
<path d="M192.4 212.1C191.7 209.4 191.2 207.5 190.3 204.4C189.822 205.109 189.287 205.778 188.7 206.4C187.774 207.097 186.721 207.606 185.6 207.9C187.3 210 188.8 211.8 190.1 213.3C190.215 213.437 190.356 213.549 190.516 213.628C190.676 213.708 190.85 213.754 191.028 213.763C191.206 213.773 191.385 213.745 191.552 213.683C191.719 213.62 191.872 213.524 192 213.4C192.185 213.245 192.321 213.04 192.392 212.809C192.463 212.579 192.466 212.332 192.4 212.1Z" fill="#FFD2B3"/>
<path d="M134.3 207L128 213C128.281 213.294 128.658 213.476 129.062 213.512C129.467 213.549 129.871 213.438 130.2 213.2C132.3 211.8 134.7 210.1 137.6 208C136.429 207.976 135.288 207.63 134.3 207Z" fill="#D39266"/>
<path d="M188.5 206.6C187.625 207.215 186.641 207.656 185.6 207.9C187.3 210 188.8 211.8 190.1 213.3C190.284 213.537 190.548 213.698 190.843 213.754C191.138 213.809 191.443 213.754 191.7 213.6L188.5 206.6Z" fill="#D39266"/>
<path d="M220.4 111.5C220.716 110.61 221.29 109.834 222.047 109.27C222.805 108.705 223.713 108.378 224.656 108.33C225.6 108.282 226.536 108.515 227.347 108.999C228.158 109.483 228.808 110.196 229.213 111.049C229.619 111.902 229.763 112.857 229.626 113.791C229.489 114.726 229.078 115.599 228.445 116.3C227.812 117.001 226.986 117.499 226.07 117.731C225.154 117.962 224.19 117.916 223.3 117.6C222.707 117.393 222.161 117.07 221.694 116.65C221.226 116.231 220.847 115.722 220.577 115.155C220.308 114.588 220.153 113.973 220.123 113.345C220.092 112.718 220.187 112.091 220.4 111.5Z" fill="black"/>
<path d="M226 108.4L223.5 117.5C224.093 117.691 224.718 117.763 225.339 117.711C225.96 117.659 226.564 117.485 227.117 117.198C227.67 116.911 228.161 116.517 228.561 116.039C228.96 115.562 229.262 115.009 229.447 114.415C229.632 113.82 229.697 113.194 229.639 112.574C229.581 111.953 229.4 111.351 229.107 110.801C228.815 110.251 228.416 109.764 227.934 109.369C227.452 108.974 226.897 108.679 226.3 108.5H226" fill="#00B2CA"/>
<path d="M199 170.3H177.6C176.407 170.3 175.262 169.826 174.418 168.982C173.574 168.138 173.1 166.993 173.1 165.8C173.1 164.607 173.574 163.462 174.418 162.618C175.262 161.774 176.407 161.3 177.6 161.3H199C201.256 161.297 203.448 160.551 205.238 159.178C207.027 157.804 208.314 155.879 208.9 153.7L218.6 118.6C218.752 118.032 219.017 117.501 219.377 117.036C219.737 116.572 220.187 116.184 220.699 115.895C221.211 115.606 221.776 115.423 222.36 115.355C222.944 115.287 223.535 115.336 224.1 115.5C224.668 115.652 225.199 115.917 225.664 116.277C226.128 116.637 226.516 117.087 226.805 117.599C227.094 118.111 227.277 118.676 227.345 119.26C227.413 119.844 227.364 120.435 227.2 121L217.5 156C216.397 160.066 213.989 163.658 210.647 166.223C207.305 168.789 203.213 170.186 199 170.2V170.3Z" fill="#00B2CA"/>
<path d="M213.8 152.3L223.5 117.3C223.682 116.752 223.717 116.166 223.6 115.6C222.518 115.418 221.407 115.645 220.483 116.236C219.559 116.827 218.888 117.741 218.6 118.8L208.9 153.9C208.314 156.079 207.027 158.004 205.238 159.378C203.448 160.751 201.256 161.497 199 161.5H177.6C177.008 161.497 176.422 161.612 175.875 161.837C175.328 162.063 174.831 162.394 174.412 162.812C173.994 163.231 173.663 163.728 173.437 164.275C173.212 164.822 173.098 165.408 173.1 166V166.5H195.2C199.421 166.515 203.527 165.129 206.875 162.559C210.223 159.99 212.624 156.381 213.7 152.3H213.8Z" fill="black"/>
<path d="M181.6 168.8C181.096 168.8 180.613 168.6 180.256 168.244C179.9 167.887 179.7 167.404 179.7 166.9V166.3L184.2 152.5C184.961 150.161 186.447 148.124 188.442 146.686C190.438 145.248 192.84 144.482 195.3 144.5H221.9C222.404 144.5 222.887 144.7 223.243 145.057C223.6 145.413 223.8 145.896 223.8 146.4C223.808 146.652 223.765 146.903 223.673 147.137C223.58 147.371 223.441 147.584 223.262 147.762C223.084 147.941 222.871 148.08 222.637 148.173C222.403 148.265 222.152 148.309 221.9 148.3H195.3C193.626 148.295 191.995 148.826 190.645 149.816C189.295 150.806 188.298 152.202 187.8 153.8L183.3 167.6C183.171 167.976 182.929 168.303 182.607 168.536C182.284 168.769 181.898 168.896 181.5 168.9L181.6 168.8Z" fill="#00B2CA"/>
<path d="M197.7 173.8H190.9V182.9H197.7V173.8Z" fill="#00B2CA"/>
<path d="M195.9 182.8H192.5V208H195.9V182.8Z" fill="#00B2CA"/>
<path d="M195.9 182.8H194.2V208H195.9V182.8Z" fill="black"/>
<path d="M197.6 173.8H194.2V182.9H197.6V173.8Z" fill="black"/>
<path d="M213.8 207H194.3V208.2H214.9C214.909 208.048 214.887 207.897 214.836 207.754C214.785 207.611 214.706 207.479 214.604 207.368C214.501 207.256 214.377 207.166 214.239 207.102C214.101 207.039 213.952 207.004 213.8 207Z" fill="black"/>
<path d="M222.1 144.5H195.5C193.041 144.488 190.642 145.255 188.648 146.693C186.653 148.13 185.166 150.164 184.4 152.5L184.1 153.3C184.969 151.421 186.313 149.801 188 148.6C190.285 147.093 192.963 146.293 195.7 146.3H224C224 145.796 223.8 145.313 223.443 144.956C223.087 144.6 222.604 144.4 222.1 144.4V144.5Z" fill="black"/>
<g opacity="0.4">
<mask id="mask3_3_5652" style="mask-type:luminance" maskUnits="userSpaceOnUse" x="209" y="148" width="11" height="3">
<path d="M219.7 148.2H209.9V150.2H219.7V148.2Z" fill="white"/>
</mask>
<g mask="url(#mask3_3_5652)">
<path d="M219.7 148.2L219.3 149.6L209.8 150.3L210.4 148.3H219.7V148.2Z" fill="#011721"/>
</g>
</g>
<path d="M84.7 142.9H82.8V213.8H84.7V142.9Z" fill="#00B2CA"/>
<path d="M174.2 142.9H172.3V213.8H174.2V142.9Z" fill="#00B2CA"/>
<path d="M69.8 142H185.2C185.293 141.998 185.385 142.014 185.47 142.049C185.556 142.083 185.634 142.135 185.7 142.2C185.765 142.266 185.817 142.344 185.851 142.43C185.886 142.515 185.902 142.607 185.9 142.7V143C185.902 143.093 185.886 143.185 185.851 143.27C185.817 143.356 185.765 143.434 185.7 143.5C185.634 143.565 185.556 143.617 185.47 143.651C185.385 143.686 185.293 143.702 185.2 143.7H69.8C69.7075 143.702 69.6155 143.686 69.5296 143.651C69.4437 143.617 69.3656 143.565 69.3002 143.5C69.2348 143.434 69.1833 143.356 69.1489 143.27C69.1145 143.185 69.0979 143.093 69.1 143V142.7C69.0979 142.607 69.1145 142.515 69.1489 142.43C69.1833 142.344 69.2348 142.266 69.3002 142.2C69.3656 142.135 69.4437 142.083 69.5296 142.049C69.6155 142.014 69.7075 141.998 69.8 142Z" fill="#00B2CA"/>
<path d="M106.9 142H144.3C144.405 142.001 144.51 141.982 144.608 141.942C144.706 141.902 144.794 141.844 144.869 141.769C144.944 141.694 145.002 141.606 145.042 141.508C145.082 141.41 145.101 141.305 145.1 141.2C145.11 141.092 145.096 140.984 145.059 140.883C145.022 140.781 144.964 140.689 144.887 140.612C144.811 140.536 144.719 140.478 144.617 140.441C144.516 140.404 144.408 140.39 144.3 140.4H106.9C106.795 140.399 106.69 140.418 106.592 140.458C106.494 140.498 106.406 140.556 106.331 140.631C106.256 140.706 106.198 140.794 106.158 140.892C106.118 140.99 106.099 141.095 106.1 141.2C106.09 141.308 106.104 141.416 106.141 141.517C106.178 141.619 106.236 141.711 106.312 141.787C106.389 141.864 106.481 141.922 106.583 141.959C106.684 141.996 106.792 142.01 106.9 142Z" fill="#011721"/>
<path d="M106.9 140.7H135.1L127.3 120.1H99.1L106.9 140.7Z" fill="#00B2CA"/>
<path d="M117.3 129.9C117.53 129.877 117.763 129.901 117.984 129.97C118.205 130.038 118.41 130.15 118.587 130.3C118.764 130.449 118.91 130.632 119.015 130.838C119.12 131.044 119.183 131.269 119.2 131.5C119.286 131.717 119.329 131.948 119.325 132.181C119.322 132.414 119.272 132.644 119.179 132.858C119.086 133.072 118.952 133.265 118.784 133.427C118.616 133.589 118.417 133.715 118.2 133.8C117.97 133.823 117.737 133.799 117.516 133.73C117.295 133.662 117.09 133.55 116.913 133.4C116.736 133.251 116.59 133.068 116.485 132.862C116.38 132.656 116.317 132.431 116.3 132.2C116.203 131.985 116.151 131.751 116.149 131.515C116.148 131.279 116.195 131.045 116.29 130.828C116.384 130.611 116.522 130.417 116.696 130.257C116.871 130.097 117.076 129.976 117.3 129.9Z" fill="#05293C"/>
<path d="M137.1 60.8C136.43 60.8078 135.771 60.6357 135.19 60.3014C134.61 59.9672 134.129 59.4832 133.8 58.9C133.314 58.0721 132.668 57.3494 131.9 56.7742C131.132 56.199 130.256 55.7828 129.325 55.55C128.394 55.3173 127.426 55.2725 126.477 55.4185C125.528 55.5644 124.618 55.8981 123.8 56.4C122.779 57.0213 121.921 57.8787 121.3 58.9C120.764 59.7629 119.909 60.3794 118.921 60.6159C117.933 60.8524 116.891 60.6897 116.022 60.1631C115.153 59.6365 114.527 58.7886 114.28 57.8033C114.032 56.8179 114.183 55.7747 114.7 54.9C116.76 51.47 120.095 48.9965 123.975 48.0218C127.856 47.047 131.964 47.6505 135.4 49.7C137.51 51.0103 139.29 52.7898 140.6 54.9C141.123 55.7771 141.28 56.8247 141.036 57.8165C140.793 58.8082 140.169 59.6644 139.3 60.2C138.707 60.5929 138.011 60.8016 137.3 60.8H137.1Z" fill="black"/>
<path d="M146.8 55C146.13 55.0078 145.471 54.8357 144.89 54.5014C144.31 54.1672 143.83 53.6832 143.5 53.1C140.952 48.8865 136.843 45.8499 132.067 44.6513C127.292 43.4527 122.236 44.189 118 46.7C115.396 48.304 113.204 50.496 111.6 53.1C111.064 53.9629 110.209 54.5794 109.221 54.8159C108.233 55.0524 107.191 54.8897 106.322 54.3631C105.454 53.8365 104.827 52.9886 104.58 52.0033C104.332 51.0179 104.483 49.9747 105 49.1C106.776 46.1347 109.119 43.549 111.896 41.4911C114.673 39.4332 117.828 37.9435 121.182 37.1074C124.536 36.2713 128.021 36.1053 131.439 36.6188C134.857 37.1323 138.14 38.3153 141.1 40.1C144.803 42.3031 147.897 45.3969 150.1 49.1C150.623 49.9771 150.78 51.0247 150.536 52.0165C150.293 53.0082 149.669 53.8644 148.8 54.4C148.207 54.7929 147.511 55.0016 146.8 55Z" fill="black"/>
<path d="M98 48.8C96.9656 48.8 95.9737 48.3891 95.2423 47.6577C94.5109 46.9263 94.1 45.9343 94.1 44.9C94.0984 44.1887 94.3071 43.4929 94.7 42.9C99.9254 34.2017 108.392 27.935 118.237 25.4784C128.083 23.0217 138.501 24.5762 147.2 29.8C152.597 32.9974 157.103 37.5026 160.3 42.9C160.817 43.7747 160.968 44.8179 160.72 45.8032C160.473 46.7886 159.846 47.6365 158.978 48.1631C158.109 48.6897 157.067 48.8524 156.079 48.6159C155.091 48.3794 154.236 47.7629 153.7 46.9C149.531 39.9846 142.796 34.9992 134.965 33.032C127.133 31.0648 118.842 32.2755 111.9 36.4C107.602 38.9984 103.998 42.6016 101.4 46.9C101.061 47.475 100.579 47.9524 100.001 48.2854C99.4223 48.6184 98.7674 48.7957 98.1 48.8H98Z" fill="black"/>
<path d="M127.5 58.5C128.568 58.5 129.612 58.8167 130.5 59.4101C131.388 60.0034 132.08 60.8468 132.489 61.8335C132.898 62.8202 133.005 63.906 132.796 64.9535C132.588 66.001 132.074 66.9632 131.318 67.7184C130.563 68.4736 129.601 68.9879 128.554 69.1962C127.506 69.4046 126.42 69.2977 125.434 68.8889C124.447 68.4802 123.603 67.7881 123.01 66.9001C122.417 66.0121 122.1 64.968 122.1 63.9C122.097 63.19 122.235 62.4865 122.505 61.8301C122.775 61.1736 123.173 60.5772 123.675 60.0751C124.177 59.5731 124.774 59.1755 125.43 58.9051C126.087 58.6348 126.79 58.4971 127.5 58.5Z" fill="black"/>
<g opacity="0.8">
<mask id="mask4_3_5652" style="mask-type:luminance" maskUnits="userSpaceOnUse" x="114" y="47" width="27" height="14">
<path d="M141 47.5H114V60.7H141V47.5Z" fill="white"/>
</mask>
<g mask="url(#mask4_3_5652)">
<path d="M137.1 60.8C136.43 60.8078 135.771 60.6357 135.19 60.3014C134.61 59.9672 134.129 59.4832 133.8 58.9C133.314 58.0721 132.668 57.3494 131.9 56.7742C131.132 56.199 130.256 55.7828 129.325 55.55C128.394 55.3173 127.426 55.2725 126.477 55.4185C125.528 55.5644 124.618 55.8981 123.8 56.4C122.779 57.0213 121.921 57.8787 121.3 58.9C120.764 59.7629 119.909 60.3794 118.921 60.6159C117.933 60.8524 116.891 60.6897 116.022 60.1631C115.153 59.6365 114.527 58.7886 114.28 57.8033C114.032 56.8179 114.183 55.7747 114.7 54.9C116.76 51.47 120.095 48.9965 123.975 48.0218C127.856 47.047 131.964 47.6505 135.4 49.7C137.51 51.0103 139.29 52.7898 140.6 54.9C141.123 55.7771 141.28 56.8247 141.036 57.8165C140.793 58.8082 140.169 59.6644 139.3 60.2C138.707 60.5929 138.011 60.8016 137.3 60.8H137.1Z" fill="#00B2CA"/>
</g>
</g>
<g opacity="0.8">
<mask id="mask5_3_5652" style="mask-type:luminance" maskUnits="userSpaceOnUse" x="104" y="36" width="47" height="19">
<path d="M150.7 36.3H104.4V55H150.7V36.3Z" fill="white"/>
</mask>
<g mask="url(#mask5_3_5652)">
<path d="M146.8 55C146.13 55.0078 145.471 54.8357 144.89 54.5014C144.31 54.1672 143.83 53.6832 143.5 53.1C140.952 48.8865 136.843 45.8499 132.067 44.6513C127.292 43.4527 122.236 44.189 118 46.7C115.396 48.304 113.204 50.496 111.6 53.1C111.064 53.9629 110.209 54.5794 109.221 54.8159C108.233 55.0524 107.191 54.8897 106.322 54.3631C105.454 53.8365 104.827 52.9886 104.58 52.0033C104.332 51.0179 104.483 49.9747 105 49.1C106.776 46.1347 109.119 43.549 111.896 41.4911C114.673 39.4332 117.828 37.9435 121.182 37.1074C124.536 36.2713 128.021 36.1053 131.439 36.6188C134.857 37.1323 138.14 38.3153 141.1 40.1C144.803 42.3031 147.897 45.3969 150.1 49.1C150.623 49.9771 150.78 51.0247 150.536 52.0165C150.293 53.0082 149.669 53.8644 148.8 54.4C148.207 54.7929 147.511 55.0016 146.8 55Z" fill="#00B2CA"/>
</g>
</g>
<g opacity="0.8">
<mask id="mask6_3_5652" style="mask-type:luminance" maskUnits="userSpaceOnUse" x="94" y="24" width="67" height="25">
<path d="M160.9 24.3H94.2V48.8H160.9V24.3Z" fill="white"/>
</mask>
<g mask="url(#mask6_3_5652)">
<path d="M98 48.8C96.9656 48.8 95.9737 48.3891 95.2423 47.6577C94.5109 46.9263 94.1 45.9343 94.1 44.9C94.0984 44.1887 94.3071 43.4929 94.7 42.9C99.9254 34.2017 108.392 27.935 118.237 25.4784C128.083 23.0217 138.501 24.5762 147.2 29.8C152.597 32.9974 157.103 37.5026 160.3 42.9C160.817 43.7747 160.968 44.8179 160.72 45.8032C160.473 46.7886 159.846 47.6365 158.978 48.1631C158.109 48.6897 157.067 48.8524 156.079 48.6159C155.091 48.3794 154.236 47.7629 153.7 46.9C149.531 39.9846 142.796 34.9992 134.965 33.032C127.133 31.0648 118.842 32.2755 111.9 36.4C107.602 38.9984 103.998 42.6016 101.4 46.9C101.061 47.475 100.579 47.9524 100.001 48.2854C99.4223 48.6184 98.7674 48.7957 98.1 48.8H98Z" fill="#00B2CA"/>
</g>
</g>
<g opacity="0.8">
<mask id="mask7_3_5652" style="mask-type:luminance" maskUnits="userSpaceOnUse" x="122" y="58" width="11" height="12">
<path d="M132.9 58.5H122.1V69.3H132.9V58.5Z" fill="white"/>
</mask>
<g mask="url(#mask7_3_5652)">
<path d="M127.5 58.5C128.568 58.5 129.612 58.8167 130.5 59.4101C131.388 60.0034 132.08 60.8468 132.489 61.8335C132.898 62.8202 133.005 63.906 132.796 64.9535C132.588 66.001 132.074 66.9632 131.318 67.7184C130.563 68.4736 129.601 68.9879 128.554 69.1962C127.506 69.4046 126.42 69.2977 125.434 68.8889C124.447 68.4802 123.603 67.7881 123.01 66.9001C122.417 66.0121 122.1 64.968 122.1 63.9C122.097 63.19 122.235 62.4865 122.505 61.8301C122.775 61.1736 123.173 60.5772 123.675 60.0751C124.177 59.5731 124.774 59.1755 125.43 58.9051C126.087 58.6348 126.79 58.4971 127.5 58.5Z" fill="#00B2CA"/>
</g>
</g>
<path d="M127.5 63.9L129.1 58.7C128.417 58.4997 127.701 58.4367 126.994 58.5145C126.287 58.5924 125.602 58.8096 124.979 59.1536C124.356 59.4976 123.807 59.9616 123.365 60.5188C122.922 61.076 122.594 61.7154 122.4 62.4C122.028 63.7261 122.172 65.1438 122.803 66.3681C123.434 67.5925 124.505 68.5327 125.8 69L127.5 63.9Z" fill="#00B2CA"/>
<path d="M130 55.8L132.3 48.3C130.75 47.7916 129.131 47.5218 127.5 47.5C124.903 47.5018 122.35 48.1748 120.09 49.4539C117.83 50.7329 115.939 52.5746 114.6 54.8C114.083 55.6747 113.932 56.7179 114.18 57.7033C114.427 58.6886 115.054 59.5365 115.922 60.0631C116.791 60.5897 117.833 60.7524 118.821 60.5159C119.809 60.2794 120.664 59.6629 121.2 58.8C122.08 57.3434 123.439 56.2379 125.044 55.6725C126.649 55.107 128.401 55.1167 130 55.7V55.8Z" fill="#00B2CA"/>
<path d="M133.3 45L135.6 37.6C132.99 36.7231 130.253 36.2838 127.5 36.3C122.952 36.3205 118.486 37.5082 114.529 39.7494C110.572 41.9906 107.256 45.2103 104.9 49.1C104.383 49.9747 104.232 51.0179 104.48 52.0033C104.727 52.9886 105.354 53.8366 106.222 54.3631C107.091 54.8897 108.133 55.0524 109.121 54.8159C110.109 54.5794 110.964 53.9629 111.5 53.1C113.677 49.5045 117.004 46.7488 120.942 45.2789C124.88 43.8089 129.199 43.7107 133.2 45H133.3Z" fill="#00B2CA"/>
<path d="M136.9 33.6L139.2 26.2C135.441 25.0262 131.537 24.3866 127.6 24.3C120.994 24.313 114.503 26.0322 108.756 29.2909C103.01 32.5496 98.2025 37.2374 94.8 42.9C94.5146 43.3334 94.3183 43.8191 94.2225 44.3291C94.1266 44.8391 94.1332 45.363 94.2418 45.8704C94.3504 46.3778 94.5588 46.8585 94.855 47.2845C95.1512 47.7106 95.5291 48.0735 95.9669 48.352C96.4047 48.6306 96.8935 48.8193 97.4049 48.9072C97.9162 48.995 98.44 48.9802 98.9456 48.8637C99.4513 48.7472 99.9286 48.5313 100.35 48.2285C100.771 47.9257 101.128 47.5421 101.4 47.1V47C104.931 41.0854 110.369 36.5471 116.82 34.1303C123.271 31.7135 130.352 31.5618 136.9 33.7V33.6Z" fill="#00B2CA"/>
<path d="M123.6 110.1L108.6 105.7C108.394 105.645 108.202 105.548 108.034 105.416C107.867 105.285 107.727 105.121 107.625 104.934C107.522 104.747 107.458 104.542 107.436 104.33C107.415 104.118 107.437 103.903 107.5 103.7C107.515 103.562 107.558 103.429 107.627 103.308C107.696 103.188 107.789 103.083 107.9 103L119.2 92.2L130.5 81.4C130.813 81.1104 131.224 80.9495 131.65 80.9495C132.076 80.9495 132.487 81.1104 132.8 81.4C132.97 81.6102 133.105 81.8466 133.2 82.1L136.9 97.3L140.6 112.5C140.654 112.71 140.666 112.929 140.635 113.144C140.604 113.359 140.531 113.565 140.419 113.751C140.307 113.938 140.16 114.1 139.985 114.228C139.81 114.357 139.611 114.449 139.4 114.5H138.5L123.5 110.1H123.6Z" fill="#011721"/>
<path opacity="0.8" d="M123.6 110.1L108.6 105.7C108.394 105.645 108.202 105.548 108.034 105.416C107.867 105.285 107.727 105.121 107.625 104.934C107.522 104.747 107.458 104.542 107.436 104.33C107.415 104.118 107.437 103.903 107.5 103.7C107.515 103.562 107.558 103.429 107.627 103.308C107.696 103.188 107.789 103.083 107.9 103L119.2 92.2L130.5 81.4C130.813 81.1104 131.224 80.9495 131.65 80.9495C132.076 80.9495 132.487 81.1104 132.8 81.4C132.97 81.6102 133.105 81.8466 133.2 82.1L136.9 97.3L140.6 112.5C140.654 112.71 140.666 112.929 140.635 113.144C140.604 113.359 140.531 113.565 140.419 113.751C140.307 113.938 140.16 114.1 139.985 114.228C139.81 114.357 139.611 114.449 139.4 114.5H138.5L123.5 110.1H123.6Z" fill="#FA6E53"/>
<path d="M124 108.7L109.8 104.5C109.5 104.5 109.3 104.1 109.4 103.8C109.404 103.737 109.424 103.675 109.459 103.623C109.494 103.57 109.543 103.528 109.6 103.5L120.3 93.3L131 83.1C131.111 83.0032 131.253 82.9499 131.4 82.9499C131.547 82.9499 131.689 83.0032 131.8 83.1C131.849 83.1941 131.883 83.2954 131.9 83.4L135.4 97.8L138.9 112.2C138.918 112.344 138.889 112.491 138.817 112.617C138.745 112.743 138.634 112.843 138.5 112.9H138.2L124 108.7Z" fill="#FA6E53"/>
<path d="M127.4 101.3L125.2 100.7L127.3 91.1L130.8 92.1L127.4 101.3Z" fill="white"/>
<path d="M124.3 102.1C124.557 101.843 124.885 101.668 125.241 101.597C125.598 101.526 125.967 101.563 126.303 101.702C126.639 101.841 126.926 102.077 127.128 102.379C127.33 102.681 127.437 103.037 127.437 103.4C127.437 103.763 127.33 104.119 127.128 104.421C126.926 104.723 126.639 104.959 126.303 105.098C125.967 105.237 125.598 105.274 125.241 105.203C124.885 105.132 124.557 104.957 124.3 104.7C123.963 104.351 123.775 103.885 123.775 103.4C123.775 102.915 123.963 102.449 124.3 102.1Z" fill="white"/>
<path d="M67.8 198.6H118.4V200.4C118.398 203.98 116.975 207.413 114.444 209.944C111.913 212.475 108.48 213.898 104.9 213.9H81.2C77.6201 213.898 74.1874 212.475 71.6561 209.944C69.1247 207.413 67.7018 203.98 67.7 200.4V198.6H67.8Z" fill="#00B2CA"/>
<path d="M83.1 209.9H103.1C106.466 209.907 109.741 208.804 112.417 206.761C115.093 204.718 117.02 201.849 117.9 198.6H68.3C69.1802 201.849 71.1074 204.718 73.7831 206.761C76.4588 208.804 79.7336 209.907 83.1 209.9Z" fill="black"/>
<g opacity="0.8">
<mask id="mask8_3_5652" style="mask-type:luminance" maskUnits="userSpaceOnUse" x="68" y="198" width="50" height="12">
<path d="M117.9 198.6H68.3V209.9H117.9V198.6Z" fill="white"/>
</mask>
<g mask="url(#mask8_3_5652)">
<path d="M83.1 209.9H103.1C106.466 209.907 109.741 208.804 112.417 206.761C115.093 204.718 117.02 201.849 117.9 198.6H68.3C69.1802 201.849 71.1074 204.718 73.7831 206.761C76.4588 208.804 79.7336 209.907 83.1 209.9Z" fill="#00B2CA"/>
</g>
</g>
<path d="M88.5 194.6C88.5 194.6 76.9 169.8 99.9 153.3C99.9 153.3 116.2 166.2 96.6 194.6H88.5Z" fill="black"/>
<g opacity="0.8">
<mask id="mask9_3_5652" style="mask-type:luminance" maskUnits="userSpaceOnUse" x="85" y="153" width="22" height="42">
<path d="M106.3 153.3H85.6V194.6H106.3V153.3Z" fill="white"/>
</mask>
<g mask="url(#mask9_3_5652)">
<path d="M88.5 194.6C88.5 194.6 76.9 169.8 99.9 153.3C99.9 153.3 116.2 166.2 96.6 194.6H88.5Z" fill="#00B2CA"/>
</g>
</g>
<path d="M99.9 153.3C99.9 153.3 104.2 184.3 91.9 194.6H96.6C116.2 166.2 99.9 153.3 99.9 153.3Z" fill="#00B2CA"/>
<path d="M105.9 173.3C105.9 173.3 92.6 173.3 88.5 186.1L91.8 189.5L105.9 173.3Z" fill="#00B2CA"/>
<path d="M86.8 198.6C86.8 198.6 86.2 164.8 121.1 175.1C121.1 175.1 118 190.4 96.8 198.6H86.8Z" fill="black"/>
<g opacity="0.8">
<mask id="mask10_3_5652" style="mask-type:luminance" maskUnits="userSpaceOnUse" x="86" y="173" width="36" height="26">
<path d="M121.1 173.1H86.8V198.6H121.1V173.1Z" fill="white"/>
</mask>
<g mask="url(#mask10_3_5652)">
<path d="M86.8001 198.6C86.8001 198.6 86.2001 164.8 121.1 175.1C121.1 175.1 118 190.4 96.8001 198.6H86.8001Z" fill="#00B2CA"/>
</g>
</g>
<path d="M121.1 175.1C121.1 175.1 102.6 176.6 91.5 198.6H96.8C118 190.3 121.1 175.1 121.1 175.1Z" fill="#00B2CA"/>
<path d="M85.9 185.2V184.8C85.9 184.8 98 186.8 98 198.2L97.2 198.4L92.7 197L85.5 187.3L85.9 185.2Z" fill="#00B2CA"/>
<path d="M97.2 198.6C97.2 198.6 99.6 183.1 72.8 183.8C72.9507 186.797 73.8311 189.712 75.3647 192.291C76.8984 194.871 79.0389 197.036 81.6 198.6H97.1H97.2Z" fill="black"/>
<g opacity="0.8">
<mask id="mask11_3_5652" style="mask-type:luminance" maskUnits="userSpaceOnUse" x="72" y="183" width="26" height="16">
<path d="M97.2 183.8H72.8V198.6H97.2V183.8Z" fill="white"/>
</mask>
<g mask="url(#mask11_3_5652)">
<path d="M97.2 198.6C97.2 198.6 99.6 183.1 72.8 183.8C72.9507 186.797 73.8311 189.712 75.3647 192.291C76.8984 194.871 79.0389 197.036 81.6 198.6H97.1H97.2Z" fill="#00B2CA"/>
</g>
</g>
<path d="M72.8 183.8C72.9507 186.797 73.8311 189.712 75.3647 192.291C76.8984 194.871 79.0389 197.036 81.6 198.6H87.9C79.1 193.8 72.8 183.8 72.8 183.8Z" fill="#00B2CA"/>
<path d="M95.6 191.9C95.6 191.8 103.2 181.5 111.8 178C103.2 181.5 95.7 191.7 95.7 191.8L95.6 191.9Z" fill="#00B2CA"/>
<path d="M100.1 174.8C100.516 170.915 100.683 167.007 100.6 163.1C100.733 167.007 100.566 170.919 100.1 174.8Z" fill="#00B2CA"/>
<path d="M87.9 198.7C85.5131 197.422 83.3238 195.805 81.4 193.9C83.3458 195.751 85.5321 197.332 87.9 198.6V198.7Z" fill="#00B2CA"/>
<path d="M83.8 83.1L81.2 82.6L82.2 74.8L84.9 74.4L83.8 83.1Z" fill="#05293C"/>
<path d="M84.8 74.3H85.1C85.1 74.4 84 83 84 83H83.7L84.7 74.3H84.8Z" fill="#011721"/>
<path d="M82.3 75L84.5 74.7L83.6 82.8L81.5 82.5L82.4 75H82.3Z" fill="#00B2CA"/>
<path d="M57.6 127L66 163.4L53.5 206.8C53.3235 207.341 52.9416 207.791 52.4365 208.053C51.9315 208.314 51.3438 208.367 50.8 208.2C50.3712 208.067 49.9953 207.802 49.7259 207.443C49.4566 207.084 49.3075 206.649 49.3 206.2L48.4 160.3L57.6 127Z" fill="#011721"/>
<path d="M62 164L54.1 198.8L51.6 208.3C52.0525 208.307 52.4945 208.164 52.8565 207.892C53.2186 207.621 53.4801 207.236 53.6 206.8L66.1 163.4L57.7 127L62 164Z" fill="#05293C"/>
<path d="M49.2 197.6L49.4 206.2C49.4124 206.709 49.6047 207.196 49.9427 207.577C50.2807 207.957 50.7425 208.205 51.2461 208.277C51.7497 208.349 52.2626 208.24 52.6935 207.97C53.1245 207.699 53.4456 207.285 53.5999 206.8L56 198.5C56 198.5 54.1999 199.4 49.2999 197.5L49.2 197.6Z" fill="#D39266"/>
<path d="M56.9999 87.8C56.9999 87.8 69.1999 82.4 72.1999 75.5C65.7465 71.3624 58.2651 69.111 50.5999 69C50.4482 69.0044 50.2989 69.0392 50.1609 69.1024C50.0229 69.1655 49.8989 69.2557 49.7964 69.3676C49.6938 69.4795 49.6147 69.6108 49.5638 69.7538C49.5129 69.8967 49.4912 70.0485 49.4999 70.2C49.499 70.3803 49.5445 70.5579 49.6321 70.7155C49.7196 70.8731 49.8463 71.0055 49.9999 71.1C52.6999 72.8 57.0999 74.6 63.0999 76.8L50.0999 81.1L56.8999 87.8H56.9999Z" fill="black"/>
<g opacity="0.8">
<mask id="mask12_3_5652" style="mask-type:luminance" maskUnits="userSpaceOnUse" x="49" y="69" width="24" height="19">
<path d="M72.2 69H49.5V87.8H72.2V69Z" fill="white"/>
</mask>
<g mask="url(#mask12_3_5652)">
<path d="M56.9999 87.8C56.9999 87.8 69.1999 82.4 72.1999 75.5C65.7465 71.3624 58.2651 69.111 50.5999 69C50.4482 69.0044 50.2989 69.0392 50.1609 69.1024C50.0229 69.1655 49.8989 69.2557 49.7964 69.3676C49.6938 69.4795 49.6147 69.6108 49.5638 69.7538C49.5129 69.8967 49.4912 70.0485 49.4999 70.2C49.499 70.3803 49.5445 70.5579 49.6321 70.7155C49.7196 70.8731 49.8463 71.0055 49.9999 71.1C52.6999 72.8 57.0999 74.6 63.0999 76.8L50.0999 81.1L56.8999 87.8H56.9999Z" fill="#00B2CA"/>
</g>
</g>
<path d="M49.5 70.1C49.5171 70.5178 49.6965 70.9124 50 71.2C52.7 72.9 57.1 74.7 63.1 76.9L64.7 76.6L64.3 76.3C60.6 73.5 51.5 70.7 49.4 70.1H49.5Z" fill="#00B2CA"/>
<path d="M57 87.8C57 87.8 69.1999 82.4 72.1999 75.5C67.7931 79.9197 62.0754 82.7961 55.9 83.7L54.2 85L57.0999 87.8H57Z" fill="#00B2CA"/>
<path d="M49.9999 71.1C51.4601 72.0051 52.9998 72.7749 54.5999 73.4C55.1762 73.0239 55.5891 72.4441 55.756 71.7765C55.9229 71.109 55.8314 70.403 55.4999 69.8C55.3638 69.5764 55.1953 69.3742 54.9999 69.2C53.5417 69.0006 52.0717 68.9003 50.5999 68.9C50.4482 68.9044 50.2989 68.9392 50.1609 69.0024C50.0229 69.0655 49.8989 69.1557 49.7964 69.2676C49.6938 69.3794 49.6147 69.5108 49.5638 69.6537C49.5129 69.7967 49.4912 69.9485 49.4999 70.1C49.499 70.2803 49.5445 70.4578 49.6321 70.6155C49.7196 70.7731 49.8463 70.9055 49.9999 71" fill="#FFD2B3"/>
<path d="M49.5 70.1C49.5171 70.5178 49.6965 70.9124 50 71.2C51.4601 72.1051 52.9999 72.8749 54.6 73.5C55.072 73.1266 55.4489 72.6469 55.7 72.1C53 71.1 50.5 70.4 49.5 70.1Z" fill="#D39266"/>
<path d="M52.8001 73.3L53.3001 70.2C53.3001 70.2 47.6001 70.7 44.9001 71.2C44.9001 71.2 41.2001 74.5 47.5001 81.5L51.3001 76.5L52.8001 73.3Z" fill="#011721"/>
<path d="M51.2 81.1V79.4H53.3L55.3 76.5L52.2 72.5C52.2 72.5 51.2 75.6 48.4 76L47.4 74.3C47.4 74.3 46.1 75.6 47.6 77.8C47.8558 78.3863 47.9795 79.0217 47.9622 79.6611C47.9449 80.3006 47.7871 80.9284 47.5 81.5L51.1 81.1H51.2Z" fill="#FFD2B3"/>
<path d="M85.9001 79.8C85.9751 79.6627 86.0217 79.5117 86.0371 79.3561C86.0525 79.2004 86.0364 79.0432 85.9897 78.8939C85.943 78.7445 85.8668 78.6062 85.7655 78.4869C85.6642 78.3677 85.5399 78.2701 85.4001 78.2C85.1744 78.0855 84.919 78.0433 84.6685 78.0791C84.418 78.1149 84.1846 78.2269 84 78.4C78.3 83.5 69.4 91.4 67.1 92.3L53.4001 81.9C52.8204 81.4481 52.1558 81.1174 51.4457 80.9277C50.7356 80.738 49.9946 80.6931 49.2668 80.7957C48.539 80.8984 47.8393 81.1464 47.2093 81.5251C46.5794 81.9038 46.0321 82.4054 45.6 83C45.2948 83.4785 45.0274 83.98 44.8 84.5C42.3 91.5 39 104.3 37.8 124.7C40.5743 126.854 43.8812 128.216 47.3681 128.638C50.8551 129.061 54.3915 128.529 57.6 127.1C58 117.2 58.1 107 57.8 96.7L67.4001 99.8C67.4001 99.8 74.8001 99.8 85.9001 79.9V79.8Z" fill="#00B2CA"/>
<path d="M37.9001 124.6C38.9001 106.7 41.6001 94.7 43.9001 87.3C38.9001 103.4 32.3001 141.1 43.9001 213.4C43.9978 213.921 44.2892 214.387 44.7159 214.702C45.1426 215.017 45.6728 215.16 46.2001 215.1C46.6077 215.026 46.9851 214.835 47.2868 214.552C47.5885 214.268 47.8015 213.902 47.9001 213.5C53.2582 184.942 56.5335 156.033 57.7001 127C54.4908 128.426 50.9551 128.956 47.4687 128.534C43.9823 128.111 40.6756 126.752 37.9001 124.6Z" fill="#011721"/>
<path d="M85.9001 79.8C86.0418 79.5644 86.0993 79.2875 86.0629 79.015C86.0266 78.7424 85.8986 78.4903 85.7 78.3C85.7 78.3 78.3 91.2 68.2 97.7C63.8734 96.8474 59.5996 95.7456 55.4001 94.4C55.4001 94.4 57.5 116 44.3 127.9C48.7309 129.209 53.484 128.89 57.7001 127C58.1001 117.1 58.2001 106.9 57.9001 96.6L67.5 99.7C67.5 99.7 74.9 99.7 86 79.8H85.9001Z" fill="black"/>
<g opacity="0.8">
<mask id="mask13_3_5652" style="mask-type:luminance" maskUnits="userSpaceOnUse" x="44" y="78" width="42" height="51">
<path d="M86 78.3H44.2V128.7H86V78.3Z" fill="white"/>
</mask>
<g mask="url(#mask13_3_5652)">
<path d="M85.8999 79.8C86.0417 79.5644 86.0991 79.2875 86.0628 79.015C86.0264 78.7424 85.8985 78.4903 85.6999 78.3C85.6999 78.3 78.2999 91.2 68.1999 97.7C63.8733 96.8474 59.5995 95.7456 55.3999 94.4C55.3999 94.4 57.4999 116 44.2999 127.9C48.7308 129.209 53.4839 128.89 57.6999 127C58.0999 117.1 58.1999 106.9 57.8999 96.6L67.4999 99.7C67.4999 99.7 74.8999 99.7 85.9999 79.8H85.8999Z" fill="#00B2CA"/>
</g>
</g>
<path d="M84.1 78.3C83.1 79.2 82 80.1 80.9 81.1C80.9 81.1 81.3 83.6 83.6 83.6C84.3 82.4 85.1 81.1 85.9 79.7C85.975 79.5627 86.0216 79.4117 86.037 79.2561C86.0524 79.1004 86.0363 78.9432 85.9897 78.7939C85.943 78.6445 85.8667 78.5061 85.7654 78.3869C85.6641 78.2677 85.5399 78.1701 85.4 78.1C85.1744 77.9855 84.9189 77.9433 84.6685 77.9791C84.418 78.0149 84.1846 78.1269 84 78.3H84.1Z" fill="#FFD2B3"/>
<path d="M82.3 83.4C82.7024 83.6045 83.1487 83.7075 83.6 83.7C84.3 82.5 85.1 81.2 85.9 79.8C86.0418 79.5644 86.0993 79.2875 86.0629 79.015C86.0266 78.7424 85.8986 78.4903 85.7 78.3C85.7 78.3 84.5 80.4 82.4 83.3" fill="#D39266"/>
<path d="M47.8 213.6C53.1581 185.042 56.4334 156.133 57.6 127.1C55.5309 127.972 53.3373 128.512 51.1 128.7C53 156.1 46.6 210.5 46 215.2C46.4428 215.196 46.8691 215.032 47.2001 214.738C47.531 214.443 47.7442 214.039 47.8 213.6Z" fill="#05293C"/>
<path d="M49.3 205C48.2346 205.494 47.0744 205.75 45.9 205.75C44.7256 205.75 43.5654 205.494 42.5 205C42.9 207.8 43.3 210.6 43.8 213.5C43.8977 214.022 44.1892 214.487 44.6159 214.802C45.0425 215.117 45.5728 215.26 46.1 215.2C46.5076 215.126 46.8851 214.935 47.1867 214.652C47.4884 214.368 47.7014 214.002 47.8 213.6C48.3 211.1 48.8 208.3 49.3 205.1V205Z" fill="#D39266"/>
<path d="M47.8 213.6C48.3 211.1 48.8 208.3 49.3 205.1C48.595 205.392 47.8558 205.594 47.1 205.7C46.6 210.7 46.1 214.2 46 215.2C46.4428 215.196 46.8691 215.032 47.2001 214.738C47.531 214.443 47.7442 214.039 47.8 213.6Z" fill="#FFD2B3"/>
<path d="M53.5 206.8L55.9 198.5C55.2921 198.719 54.6402 198.788 54 198.7L51.5 208.2C51.9525 208.207 52.3945 208.064 52.7565 207.792C53.1186 207.521 53.3801 207.136 53.5 206.7" fill="#FFD2B3"/>
<path d="M89.5 67.8C90.4197 66.8803 91.5914 66.2541 92.867 66.0003C94.1427 65.7466 95.4649 65.8769 96.6665 66.3746C97.8681 66.8723 98.8951 67.7152 99.6176 68.7966C100.34 69.878 100.726 71.1494 100.726 72.45C100.726 73.7506 100.34 75.022 99.6176 76.1034C98.8951 77.1848 97.8681 78.0277 96.6665 78.5254C95.4649 79.0231 94.1427 79.1534 92.867 78.8997C91.5914 78.6459 90.4197 78.0196 89.5 77.1C88.8825 76.4932 88.392 75.7695 88.0572 74.9712C87.7224 74.1728 87.5499 73.3157 87.5499 72.45C87.5499 71.5843 87.7224 70.7272 88.0572 69.9288C88.392 69.1304 88.8825 68.4068 89.5 67.8Z" fill="#FA6E53"/>
<path d="M90.9 75.8C90.7074 75.5979 90.5999 75.3293 90.5999 75.05C90.5999 74.7707 90.7074 74.5022 90.9 74.3L96 69.2C96.2006 69.0093 96.4678 68.9046 96.7445 68.9081C97.0212 68.9116 97.2856 69.0231 97.4813 69.2188C97.677 69.4144 97.7885 69.6788 97.792 69.9556C97.7955 70.2323 97.6907 70.4994 97.5 70.7L92.4 75.8C92.1979 75.9927 91.9293 76.1002 91.65 76.1002C91.3708 76.1002 91.1022 75.9927 90.9 75.8Z" fill="white"/>
<path d="M97.3999 75.8C97.1978 75.9927 96.9292 76.1002 96.6499 76.1002C96.3707 76.1002 96.1021 75.9927 95.8999 75.8L90.8 70.7C90.6093 70.4994 90.5045 70.2323 90.508 69.9556C90.5115 69.6788 90.623 69.4144 90.8187 69.2188C91.0144 69.0231 91.2788 68.9116 91.5555 68.9081C91.8322 68.9046 92.0994 69.0093 92.3 69.2L97.3999 74.3C97.5926 74.5022 97.7001 74.7707 97.7001 75.05C97.7001 75.3293 97.5926 75.5979 97.3999 75.8Z" fill="white"/>
<path d="M164.1 33.9C161.437 30.3184 158.192 27.2086 154.5 24.7C145.961 18.8108 135.633 16.0875 125.3 17C135.664 16.0872 146.024 18.8096 154.6 24.7C158.313 27.1816 161.563 30.2955 164.2 33.9V34L164.1 33.9Z" fill="#011721"/>
</g>
</g>
<defs>
<clipPath id="clip0_3_5652">
<rect width="255" height="255" fill="white"/>
</clipPath>
</defs>
</svg>
