<svg width="339" height="222" viewBox="0 0 339 222" fill="none" xmlns="http://www.w3.org/2000/svg">
<g clip-path="url(#clip0_3_4488)">
<mask id="mask0_3_4488" style="mask-type:luminance" maskUnits="userSpaceOnUse" x="0" y="0" width="339" height="222">
<path d="M339 0H0V221.201H339V0Z" fill="white"/>
</mask>
<g mask="url(#mask0_3_4488)">
<mask id="mask1_3_4488" style="mask-type:luminance" maskUnits="userSpaceOnUse" x="0" y="0" width="339" height="222">
<path d="M338.999 0H0V221.201H338.999V0Z" fill="white"/>
</mask>
<g mask="url(#mask1_3_4488)">
<g opacity="0.59">
<mask id="mask2_3_4488" style="mask-type:luminance" maskUnits="userSpaceOnUse" x="3" y="0" width="336" height="176">
<path d="M339 0H3.58801V175.939H339V0Z" fill="white"/>
</mask>
<g mask="url(#mask2_3_4488)">
<path d="M5.75003 105.022C-10.177 17.8 65.976 -9.25103 100.171 2.65897C114.899 7.78897 111.657 24.449 127.684 39.026C173.458 80.656 261.216 0.534966 310.188 36.893C334.352 54.835 346.336 99.114 334.236 126.149C297.912 207.3 19.688 181.361 5.75003 105.022Z" fill="#F6F5FA"/>
</g>
</g>
</g>
<mask id="mask3_3_4488" style="mask-type:luminance" maskUnits="userSpaceOnUse" x="115" y="2" width="103" height="207">
<path d="M129.793 2.94604C126.021 2.94578 122.404 4.44377 119.737 7.11051C117.069 9.77725 115.571 13.3943 115.57 17.166V194.182C115.57 196.05 115.938 197.899 116.652 199.625C117.367 201.351 118.415 202.919 119.736 204.24C121.056 205.56 122.624 206.608 124.35 207.323C126.076 208.037 127.925 208.405 129.793 208.405H203.279C205.147 208.405 206.997 208.037 208.723 207.323C210.449 206.608 212.017 205.56 213.337 204.239C214.658 202.918 215.706 201.349 216.42 199.623C217.135 197.897 217.502 196.047 217.501 194.179V17.166C217.5 13.3952 216.002 9.77887 213.336 7.11228C210.67 4.44568 207.054 2.94711 203.283 2.94604H129.793Z" fill="white"/>
</mask>
<g mask="url(#mask3_3_4488)">
<path d="M170.042 -47.8076L13.083 98.6301L162.947 259.261L319.906 112.824L170.042 -47.8076Z" fill="url(#paint0_linear_3_4488)"/>
</g>
<mask id="mask4_3_4488" style="mask-type:luminance" maskUnits="userSpaceOnUse" x="0" y="0" width="339" height="222">
<path d="M338.999 0H0V221.201H338.999V0Z" fill="white"/>
</mask>
<g mask="url(#mask4_3_4488)">
<path d="M200.933 8.50098H131.133C129.853 8.50085 128.586 8.75285 127.403 9.2426C126.221 9.73235 125.147 10.4502 124.242 11.3553C123.337 12.2603 122.619 13.3348 122.129 14.5173C121.64 15.6998 121.388 16.9671 121.388 18.247V191.595C121.388 192.875 121.64 194.142 122.13 195.325C122.619 196.507 123.337 197.581 124.242 198.486C125.147 199.391 126.222 200.109 127.404 200.599C128.587 201.088 129.854 201.34 131.134 201.34H200.934C202.214 201.34 203.481 201.088 204.664 200.598C205.846 200.109 206.92 199.391 207.825 198.486C208.73 197.581 209.448 196.506 209.938 195.324C210.427 194.141 210.679 192.874 210.679 191.594V18.246C210.679 16.9661 210.427 15.6988 209.937 14.5163C209.448 13.3339 208.73 12.2595 207.825 11.3546C206.92 10.4496 205.845 9.73184 204.663 9.24221C203.48 8.75259 202.213 8.50071 200.933 8.50098Z" fill="white"/>
<path d="M137.342 16.292H128.488C128.103 16.292 127.735 16.1392 127.463 15.8673C127.191 15.5953 127.038 15.2265 127.038 14.842C127.038 14.4574 127.191 14.0886 127.463 13.8167C127.735 13.5447 128.103 13.392 128.488 13.392H137.342C137.727 13.392 138.095 13.5447 138.367 13.8167C138.639 14.0886 138.792 14.4574 138.792 14.842C138.792 15.2265 138.639 15.5953 138.367 15.8673C138.095 16.1392 137.727 16.292 137.342 16.292Z" fill="#510394"/>
<path d="M195.765 16.292H195.373C194.988 16.292 194.62 16.1392 194.348 15.8673C194.076 15.5953 193.923 15.2265 193.923 14.842C193.923 14.4574 194.076 14.0886 194.348 13.8167C194.62 13.5447 194.988 13.392 195.373 13.392H195.765C196.15 13.392 196.518 13.5447 196.79 13.8167C197.062 14.0886 197.215 14.4574 197.215 14.842C197.215 15.2265 197.062 15.5953 196.79 15.8673C196.518 16.1392 196.15 16.292 195.765 16.292Z" fill="#510394"/>
<path d="M204.228 16.292H200.35C199.965 16.292 199.597 16.1392 199.325 15.8673C199.053 15.5953 198.9 15.2265 198.9 14.842C198.9 14.4574 199.053 14.0886 199.325 13.8167C199.597 13.5447 199.965 13.392 200.35 13.392H204.228C204.613 13.392 204.981 13.5447 205.253 13.8167C205.525 14.0886 205.678 14.4574 205.678 14.842C205.678 15.2265 205.525 15.5953 205.253 15.8673C204.981 16.1392 204.613 16.292 204.228 16.292Z" fill="#510394"/>
<path d="M168.995 14.8419C168.995 15.3283 168.851 15.8037 168.581 16.2081C168.31 16.6125 167.926 16.9276 167.477 17.1138C167.028 17.2999 166.533 17.3486 166.056 17.2537C165.579 17.1588 165.141 16.9246 164.797 16.5807C164.453 16.2368 164.219 15.7987 164.124 15.3217C164.029 14.8447 164.078 14.3502 164.264 13.9009C164.45 13.4516 164.765 13.0676 165.17 12.7974C165.574 12.5272 166.05 12.3829 166.536 12.3829C167.188 12.3829 167.814 12.642 168.275 13.1032C168.736 13.5643 168.995 14.1898 168.995 14.8419Z" fill="#510394"/>
<g opacity="0.3">
<mask id="mask5_3_4488" style="mask-type:luminance" maskUnits="userSpaceOnUse" x="0" y="199" width="311" height="23">
<path d="M310.666 199.405H0V221.201H310.666V199.405Z" fill="white"/>
</mask>
<g mask="url(#mask5_3_4488)">
<mask id="mask6_3_4488" style="mask-type:luminance" maskUnits="userSpaceOnUse" x="-1" y="199" width="312" height="23">
<path d="M15.21 207.585C9.43804 208.26 0.0600439 209.498 4.38821e-05 211.285C-0.0539561 212.893 7.50004 214.211 10.14 214.672C40.365 219.947 46.93 211.103 86.921 214.921C107.896 216.921 104.732 220.245 123.333 221.08C148.784 222.223 187.576 215.28 219.393 215.596C232.968 215.729 233.182 216.853 251.657 217.752C258.914 218.105 309.749 220.524 310.657 216.828C310.821 216.16 309.595 214.298 287.612 209.745C287.612 209.745 182.659 188.008 15.212 207.589" fill="white"/>
</mask>
<g mask="url(#mask6_3_4488)">
<path d="M310.818 188.001H-0.0539551V222.217H310.818V188.001Z" fill="url(#paint1_linear_3_4488)"/>
</g>
</g>
</g>
<path d="M252.086 207.686H229.072C228.701 207.685 228.343 207.548 228.067 207.301C227.79 207.054 227.614 206.714 227.572 206.345L223.943 174.414H257.215L253.587 206.345C253.545 206.714 253.369 207.054 253.092 207.301C252.816 207.548 252.457 207.685 252.086 207.686Z" fill="#00B2CA"/>
<path d="M257.216 174.792C257.216 175.836 249.768 176.682 240.58 176.682C231.392 176.682 223.944 175.836 223.944 174.792C223.944 173.748 231.392 172.902 240.58 172.902C249.768 172.902 257.216 173.748 257.216 174.792Z" fill="#1C2B6B"/>
<path d="M239.073 113.163C229.999 113.919 233.023 141.142 233.023 141.142C235.291 164.584 238.316 175.17 240.585 175.927C242.854 176.684 247.391 142.655 247.391 134.337C247.391 134.337 248.147 112.408 239.073 113.164" fill="#1E3286"/>
<path d="M240.199 172.143C240.145 172.143 240.092 172.132 240.043 172.111C239.994 172.089 239.951 172.057 239.915 172.017C239.879 171.977 239.853 171.93 239.837 171.878C239.821 171.827 239.816 171.773 239.823 171.72C242.807 147.096 239.104 116.163 239.067 115.854C239.058 115.756 239.088 115.659 239.149 115.582C239.211 115.506 239.3 115.457 239.397 115.445C239.495 115.433 239.593 115.459 239.671 115.518C239.75 115.578 239.802 115.665 239.817 115.762C239.855 116.072 243.569 147.097 240.573 171.811C240.562 171.903 240.518 171.987 240.449 172.049C240.38 172.11 240.291 172.143 240.199 172.143Z" fill="white"/>
<path d="M211.846 100.308C211.09 104.089 215.627 104.845 216.383 110.138C217.139 115.431 214.871 116.944 215.627 119.969C216.383 122.994 220.92 123.75 221.676 131.312C222.432 138.874 219.407 138.118 220.164 142.655C220.921 147.192 225.457 147.192 226.213 150.973C226.969 154.754 226.969 160.047 228.482 164.584C229.995 169.121 234.531 175.927 236.8 175.927C239.069 175.927 245.118 163.072 243.606 159.291C242.094 155.51 239.825 154.754 239.825 151.729C239.825 148.704 242.85 141.142 242.093 135.849C241.336 130.556 234.531 128.287 233.775 124.506C233.019 120.725 235.287 110.895 229.994 106.358C224.701 101.821 212.602 96.527 211.846 100.309" fill="#FA6E53"/>
<path d="M283.686 108.626C286.36 111.3 277.636 112.407 276.88 117.7C276.124 122.993 276.124 125.262 273.099 128.287C270.074 131.312 265.537 132.068 266.293 136.605C267.049 141.142 268.561 145.679 266.293 147.948C264.025 150.217 258.731 150.217 257.219 153.998C255.707 157.779 256.463 162.316 253.438 166.098C250.413 169.88 245.876 177.441 242.095 175.929C238.314 174.417 240.583 157.029 242.095 154C243.607 150.971 245.12 148.707 245.12 146.438C245.12 144.169 244.364 140.389 245.876 136.607C247.388 132.825 255.707 131.314 256.463 129.045C257.219 126.776 257.975 114.678 262.513 111.653C267.051 108.628 279.149 104.091 283.686 108.628" fill="#40CD8A"/>
<path d="M243.267 174.624C243.2 174.624 243.134 174.606 243.076 174.573C243.019 174.539 242.971 174.49 242.938 174.432C242.905 174.374 242.888 174.308 242.889 174.241C242.89 174.174 242.908 174.108 242.943 174.051C242.973 174 246.002 168.937 246.643 166.377C246.808 165.718 247.007 164.719 247.237 163.563C248.073 159.363 249.337 153.022 251.28 151.078C254.102 148.256 258.611 139.615 261.77 128.556C265.662 114.931 278.532 110.944 278.661 110.905C278.756 110.879 278.858 110.891 278.945 110.939C279.031 110.986 279.095 111.066 279.124 111.161C279.152 111.255 279.142 111.357 279.096 111.445C279.05 111.533 278.972 111.599 278.878 111.629C278.752 111.667 266.278 115.546 262.497 128.763C259.302 139.945 254.704 148.722 251.814 151.612C250.032 153.394 248.746 159.852 247.979 163.712C247.746 164.878 247.546 165.885 247.379 166.562C246.712 169.231 243.721 174.23 243.594 174.442C243.56 174.498 243.513 174.544 243.456 174.576C243.399 174.608 243.335 174.625 243.27 174.625" fill="white"/>
<path d="M236.757 172.974C236.657 172.974 236.561 172.934 236.49 172.864C236.419 172.793 236.379 172.697 236.379 172.597C236.379 172.497 236.314 162.673 233.434 159.797C230.512 156.875 228.846 147.936 228.034 130.813C227.292 115.254 216.141 102.438 216.029 102.313C215.964 102.238 215.931 102.14 215.938 102.04C215.944 101.941 215.99 101.848 216.065 101.782C216.14 101.716 216.237 101.682 216.337 101.688C216.436 101.694 216.529 101.739 216.596 101.813C216.711 101.942 228.036 114.95 228.789 130.78C229.589 147.473 231.231 156.524 233.972 159.265C237.072 162.365 237.137 172.185 237.139 172.602C237.139 172.652 237.129 172.701 237.111 172.747C237.092 172.793 237.064 172.834 237.029 172.87C236.994 172.905 236.952 172.933 236.907 172.952C236.861 172.971 236.812 172.981 236.762 172.981L236.757 172.974Z" fill="white"/>
<path d="M126.218 64.258L120.029 62.958C119.872 62.925 119.722 62.8614 119.59 62.7707C119.457 62.6801 119.343 62.5642 119.255 62.4296C119.167 62.295 119.107 62.1445 119.077 61.9865C119.047 61.8286 119.049 61.6663 119.082 61.509L122.207 46.6C122.24 46.4426 122.304 46.2934 122.394 46.1606C122.485 46.0279 122.601 45.9143 122.735 45.8264C122.87 45.7384 123.02 45.6779 123.178 45.6481C123.336 45.6184 123.499 45.62 123.656 45.653L129.845 46.953C130.002 46.9859 130.152 47.0495 130.284 47.1402C130.417 47.2309 130.531 47.3468 130.619 47.4813C130.707 47.6159 130.767 47.7664 130.797 47.9244C130.827 48.0824 130.825 48.2446 130.792 48.402L127.667 63.311C127.634 63.4684 127.571 63.6177 127.48 63.7505C127.389 63.8833 127.273 63.997 127.139 64.0849C127.004 64.1729 126.854 64.2334 126.696 64.2631C126.538 64.2928 126.375 64.2911 126.218 64.258Z" fill="white"/>
<path d="M126.47 64.638C126.361 64.6378 126.253 64.6264 126.146 64.604L119.956 63.304C119.753 63.2615 119.561 63.1795 119.39 63.0627C119.218 62.9458 119.072 62.7964 118.959 62.6229C118.845 62.4494 118.767 62.2554 118.729 62.0517C118.69 61.8481 118.693 61.6389 118.735 61.436L121.859 46.53C121.901 46.3272 121.983 46.1347 122.1 45.9636C122.217 45.7925 122.367 45.646 122.54 45.5327C122.714 45.4193 122.908 45.3412 123.111 45.3028C123.315 45.2644 123.524 45.2665 123.727 45.309L129.916 46.609C130.119 46.6513 130.312 46.7332 130.484 46.8501C130.655 46.967 130.802 47.1166 130.915 47.2903C131.029 47.464 131.107 47.6584 131.146 47.8624C131.184 48.0664 131.182 48.2759 131.139 48.479L128.014 63.379C127.94 63.7336 127.746 64.0518 127.465 64.2802C127.183 64.5085 126.832 64.6331 126.47 64.633M126.291 63.906C126.403 63.9296 126.518 63.9309 126.631 63.9098C126.743 63.8887 126.85 63.8457 126.946 63.7832C127.041 63.7207 127.124 63.6399 127.188 63.5455C127.253 63.4511 127.298 63.3449 127.321 63.233L130.446 48.324C130.47 48.2122 130.471 48.0968 130.45 47.9845C130.429 47.8722 130.386 47.7651 130.323 47.6694C130.261 47.5737 130.18 47.4913 130.086 47.4269C129.991 47.3625 129.885 47.3174 129.773 47.294L123.584 45.994C123.472 45.9706 123.357 45.9694 123.245 45.9905C123.132 46.0117 123.025 46.0547 122.93 46.1172C122.834 46.1797 122.752 46.2604 122.687 46.3548C122.623 46.4491 122.577 46.5552 122.554 46.667L119.429 61.579C119.405 61.6909 119.404 61.8062 119.425 61.9186C119.446 62.0309 119.489 62.138 119.552 62.2336C119.614 62.3293 119.695 62.4117 119.79 62.4761C119.884 62.5405 119.99 62.5857 120.102 62.609L126.291 63.906Z" fill="#510394"/>
<path d="M117.446 69.9569C117.446 69.9569 119.822 64.8569 119.964 62.4309C120.106 60.0049 122.013 54.7009 122.013 54.7009V59.7729C122.657 60.8993 123.027 62.1612 123.094 63.4569L126.575 64.1869C126.575 64.1869 122.953 71.1279 122.327 73.6369L117.446 69.9569Z" fill="white"/>
<path d="M122.328 73.9879C122.251 73.9881 122.176 73.9632 122.115 73.9169L117.233 70.241C117.168 70.1921 117.123 70.1226 117.103 70.044C117.083 69.9654 117.091 69.8825 117.125 69.8089C117.149 69.7589 119.474 64.741 119.61 62.409C119.753 59.962 121.6 54.799 121.679 54.58C121.707 54.5016 121.762 54.4357 121.834 54.3939C121.906 54.3521 121.991 54.337 122.073 54.3514C122.155 54.3657 122.229 54.4085 122.283 54.4723C122.337 54.536 122.366 54.6166 122.366 54.7V59.6779C122.966 60.7531 123.337 61.9406 123.456 63.166L126.647 63.8349C126.701 63.8462 126.751 63.8697 126.793 63.9035C126.836 63.9374 126.871 63.9807 126.894 64.0301C126.918 64.0795 126.929 64.1336 126.928 64.1882C126.927 64.2429 126.913 64.2965 126.888 64.345C126.852 64.414 123.278 71.277 122.67 73.717C122.651 73.7936 122.607 73.8616 122.544 73.9102C122.482 73.9588 122.405 73.9851 122.326 73.985M117.885 69.843L122.128 73.043C123.26 70.098 124.568 67.2238 126.045 64.4359L123.019 63.802C122.935 63.7842 122.859 63.7362 122.808 63.6669C122.756 63.5977 122.732 63.512 122.739 63.426C122.666 62.2013 122.311 61.0101 121.702 59.9449C121.672 59.8918 121.657 59.8319 121.657 59.771V56.871C121.025 58.6826 120.576 60.5529 120.316 62.454C120.189 64.627 118.378 68.759 117.885 69.847" fill="#510394"/>
<path d="M86.082 203.366C85.864 203.966 88.046 213.966 90.982 213.895C93.918 213.824 95.226 205.084 94.795 203.148C94.448 201.588 86.303 202.761 86.086 203.366" fill="#00B2CA"/>
<path d="M40.684 205.658C40.684 205.658 38.039 210.409 37.31 212.19C36.581 213.971 44.274 211.11 45.516 210.975C46.758 210.84 51.05 205.118 51.158 204.443C51.266 203.768 51.941 203.903 51.941 204.143L51.709 210.873C51.7101 210.929 51.732 210.983 51.7704 211.025C51.8088 211.066 51.8611 211.092 51.9173 211.097C51.9736 211.103 52.0298 211.087 52.0753 211.054C52.1208 211.02 52.1524 210.971 52.164 210.916C52.519 209.027 53.235 204.386 53.564 203.944C54.131 203.174 55.094 198.597 53.015 196.17C50.936 193.743 40.689 205.654 40.689 205.654" fill="#00B2CA"/>
<path d="M83.078 160.019C83.671 162.811 84.0967 165.635 84.353 168.478C84.353 170.678 83.426 181.225 84.353 184.47C85.28 187.715 87.366 194.088 87.134 196.87C86.902 199.652 86.091 202.896 86.434 203.591C86.777 204.286 90.953 206.372 90.953 206.372C90.953 206.372 94.429 204.75 94.545 203.359C94.661 201.968 92.691 197.565 92.691 195.943C92.691 194.321 92.691 185.843 92.923 181.159C93.155 176.475 91.648 170.797 91.648 167.088C91.648 163.379 92.112 158.165 92.112 158.165L83.078 160.019Z" fill="white"/>
<path d="M90.958 206.724C90.9032 206.724 90.849 206.712 90.8 206.687C89.8 206.187 86.494 204.487 86.122 203.748C85.874 203.248 86.022 202.184 86.339 200.181C86.503 199.13 86.689 197.939 86.781 196.84C86.971 194.558 85.494 189.581 84.517 186.287C84.33 185.655 84.157 185.073 84.017 184.567C83.303 182.067 83.648 175.635 83.877 171.379C83.948 170.057 84.004 169.013 84.004 168.479C83.7469 165.66 83.3235 162.86 82.736 160.091C82.7266 160.045 82.7264 159.999 82.7352 159.953C82.744 159.907 82.7617 159.864 82.7873 159.825C82.813 159.786 82.846 159.753 82.8846 159.727C82.9231 159.701 82.9664 159.682 83.012 159.673L92.051 157.819C92.105 157.808 92.1609 157.81 92.2142 157.824C92.2675 157.838 92.3168 157.865 92.358 157.902C92.3991 157.938 92.4312 157.984 92.4515 158.035C92.4718 158.087 92.4799 158.142 92.475 158.197C92.475 158.249 92.013 163.439 92.013 167.088C92.084 168.982 92.2788 170.869 92.596 172.738C93.0876 175.523 93.3193 178.348 93.288 181.176C93.088 185.244 93.057 192.176 93.057 195.942C93.2286 197.173 93.5392 198.381 93.983 199.542C94.4767 200.771 94.7889 202.066 94.91 203.385C94.781 204.935 91.489 206.514 91.11 206.685C91.063 206.707 91.0118 206.718 90.96 206.718M83.489 160.294C84.0669 162.993 84.4717 165.726 84.701 168.477C84.701 169.03 84.644 170.083 84.573 171.415C84.361 175.368 84.006 181.984 84.687 184.371C84.831 184.871 85.003 185.454 85.187 186.083C86.239 189.627 87.679 194.483 87.478 196.897C87.384 198.022 87.196 199.226 87.03 200.289C86.7913 201.318 86.6957 202.375 86.746 203.43C88.0385 204.448 89.4515 205.303 90.953 205.976C92.229 205.356 94.119 204.157 94.188 203.328C94.0459 202.106 93.7454 200.907 93.294 199.762C92.819 198.532 92.4962 197.249 92.333 195.941C92.333 192.166 92.363 185.223 92.565 181.141C92.5931 178.359 92.3638 175.581 91.88 172.841C91.5573 170.939 91.3602 169.018 91.29 167.09C91.29 164.058 91.602 159.982 91.715 158.609L83.489 160.294Z" fill="#510394"/>
<path d="M58.82 157.042C58.82 157.042 52.678 169.789 51.404 176.162C50.13 182.535 48.199 192.001 46.345 195.478C44.491 198.955 40.551 206.371 40.551 206.371C40.551 206.371 47.151 204.981 49.358 202.315C51.565 199.649 53.421 198.259 53.012 196.173C52.603 194.087 53.993 190.379 56.543 185.86C59.093 181.341 65.466 162.452 65.813 158.16C66.16 153.868 58.821 157.038 58.821 157.038" fill="white"/>
<path d="M40.55 206.725C40.4889 206.725 40.4288 206.709 40.3756 206.679C40.3224 206.649 40.2779 206.606 40.2464 206.554C40.2149 206.501 40.1974 206.442 40.1958 206.38C40.1942 206.319 40.2084 206.259 40.237 206.205C40.237 206.205 44.177 198.788 46.031 195.312C47.92 191.77 49.96 181.572 51.056 176.094C52.325 169.75 58.249 157.411 58.5 156.894C58.5371 156.817 58.6007 156.757 58.679 156.723C58.873 156.64 63.442 154.694 65.345 156.059C65.663 156.308 65.9073 156.638 66.0516 157.015C66.1959 157.392 66.2348 157.802 66.164 158.199C65.823 162.399 59.464 181.399 56.849 186.04C54.195 190.74 52.988 194.227 53.357 196.111C53.712 197.92 52.565 199.211 50.978 200.99C50.546 201.475 50.099 201.977 49.629 202.547C47.374 205.276 40.897 206.666 40.622 206.724C40.598 206.729 40.5736 206.732 40.549 206.732M59.08 157.323C58.453 158.637 52.935 170.31 51.749 176.239C50.222 183.873 48.443 192.298 46.655 195.652C45.145 198.484 42.255 203.93 41.229 205.852C43.003 205.402 47.416 204.114 49.082 202.097C49.561 201.517 50.032 200.988 50.448 200.521C51.954 198.83 52.948 197.713 52.661 196.249C52.253 194.168 53.454 190.616 56.231 185.694C58.831 181.094 65.12 162.294 65.457 158.144C65.5145 157.869 65.4959 157.583 65.4032 157.317C65.3105 157.052 65.1473 156.817 64.931 156.637C63.662 155.726 60.389 156.78 59.079 157.324" fill="#510394"/>
<path d="M61.554 104.864C61.136 112.047 59.464 138.664 56.816 145.907C54.168 153.15 51.382 157.333 54.169 159.144C56.956 160.955 68.66 159.283 72.98 160.537C77.3 161.791 85.242 164.578 95.414 160.537C105.586 156.496 107.397 158.145 104.471 144.78C100.722 128.587 98.1063 112.152 96.643 95.5949C94.591 73.2519 95.503 60.2559 87.751 57.9759C79.999 55.6959 74.071 56.3469 71.335 59.8979C68.599 63.4489 61.554 104.865 61.554 104.865" fill="#3A3E3F"/>
<path d="M81.23 53.3929C83.013 54.1869 88.404 54.2259 89.365 55.3789C90.326 56.5319 95.386 56.7879 96.988 58.6459C98.59 60.5039 108.399 78.7939 108.46 79.6559C108.521 80.5179 115.051 68.5069 116.283 67.8909C117.515 67.2749 123.12 70.9709 123.367 73.0039C123.614 75.0369 116.714 93.0849 110.924 92.9039C105.134 92.7229 99.282 82.5549 99.282 83.2329C99.282 83.9109 104.017 113.391 104.382 116.395C104.747 119.399 104.529 122.55 98.74 122.55C92.951 122.55 92.14 118.45 91.193 112.072C90.246 105.694 84.539 60.6149 82.815 57.9499C81.8394 56.6268 81.2863 55.0398 81.228 53.3969" fill="#00B2CA"/>
<path d="M75.313 54.226C71.968 54.226 70.766 56.208 68.093 56.686C65.162 57.211 61.248 57.138 58.693 61.533C56.138 65.928 57.417 100.983 56.283 104.865C55.149 108.747 51.883 113.851 53.731 115.694C55.579 117.537 58.868 125.902 72.25 123.776C85.632 121.65 81.662 110.732 81.662 105.486C81.662 100.24 80.88 69.1769 79.243 64.6799C77.606 60.1829 75.31 54.226 75.31 54.226" fill="#00B2CA"/>
<path d="M78.028 52.432C70.428 52.232 66.677 53.374 64.08 47.699C61.483 42.024 65.523 42.599 66.58 36.445C67.637 30.291 70.908 28.173 76.199 27.788C81.49 27.403 86.491 29.231 87.646 31.251C88.801 33.271 91.636 44.46 91.109 47.796C90.532 51.451 84.568 52.603 78.027 52.433" fill="#510394"/>
<path d="M76.616 43.646C76.616 43.646 75.972 51.978 75.143 53.359C74.314 54.74 75.373 60.034 79.7 59.896C80.3868 59.9473 81.0742 59.8043 81.6835 59.4832C82.2928 59.1621 82.7994 58.6759 83.1453 58.0803C83.4912 57.4847 83.6625 56.8038 83.6394 56.1154C83.6164 55.4271 83.4 54.7591 83.015 54.188C81.915 52.669 81.815 47.651 81.956 46.224C82.097 44.797 76.616 43.646 76.616 43.646Z" fill="white"/>
<path d="M79.539 60.252C78.6976 60.2598 77.8699 60.0385 77.1446 59.6119C76.4194 59.1852 75.8239 58.5693 75.422 57.83C74.422 56.13 74.313 54.051 74.838 53.176C75.482 52.102 76.084 45.912 76.261 43.618C76.2649 43.5678 76.2794 43.519 76.3037 43.4748C76.328 43.4307 76.3614 43.3922 76.4017 43.362C76.4421 43.3318 76.4884 43.3106 76.5376 43.2997C76.5868 43.2889 76.6377 43.2886 76.687 43.299C78.045 43.584 82.463 44.641 82.306 46.257C82.166 47.699 82.291 52.593 83.298 53.978C83.6841 54.5874 83.9097 55.2845 83.9538 56.0046C83.9978 56.7246 83.8589 57.4441 83.55 58.096C83.1871 58.7885 82.6307 59.3606 81.9486 59.7427C81.2665 60.1247 80.488 60.3003 79.708 60.248H79.536M76.936 44.074C76.787 45.89 76.214 52.256 75.446 53.537C75.2537 54.1957 75.2066 54.8883 75.308 55.5669C75.4093 56.2456 75.6567 56.8942 76.033 57.468C76.3845 58.123 76.9143 58.6651 77.5612 59.0315C78.208 59.3978 78.9454 59.5734 79.688 59.538C80.3373 59.5822 80.9857 59.4406 81.5574 59.1296C82.1291 58.8186 82.6004 58.3511 82.916 57.782C83.1682 57.2456 83.283 56.6549 83.25 56.0631C83.217 55.4713 83.0373 54.897 82.727 54.392C81.543 52.764 81.465 47.603 81.602 46.186C81.652 45.673 79.802 44.725 76.935 44.075" fill="#510394"/>
<path d="M84.418 31.824C87.896 31.877 87.476 37.557 87.571 40.042C87.5935 41.4562 88.0617 42.8274 88.909 43.96L86.663 44.438C86.663 44.438 86.603 48.868 85.663 49.502C84.723 50.136 77.886 47.952 76.398 45.912C75.59 44.629 75.1048 43.1694 74.984 41.658C74.984 41.658 71.284 39.67 72.502 38.047C74.279 35.678 74.392 38.16 76.108 38.225C80.12 38.377 78.115 31.725 84.422 31.825" fill="white"/>
<path d="M85.063 49.96C82.829 49.96 77.424 47.925 76.109 46.123C75.2861 44.8466 74.7835 43.3903 74.644 41.878C74.044 41.532 72.222 40.391 71.937 39.097C71.8867 38.8796 71.8855 38.6536 71.9336 38.4356C71.9817 38.2176 72.0778 38.0131 72.215 37.837C72.78 37.083 73.238 36.726 73.701 36.678C73.93 36.6812 74.1555 36.7334 74.3626 36.8312C74.5696 36.9291 74.7532 37.0702 74.901 37.245C75.2157 37.5947 75.6468 37.8179 76.114 37.873C77.666 37.931 78.175 36.83 78.823 35.434C79.654 33.643 80.69 31.421 84.423 31.47C87.823 31.522 87.873 36.203 87.905 39C87.905 39.38 87.913 39.728 87.925 40.029C87.95 41.3621 88.3874 42.6547 89.177 43.729C89.2168 43.7761 89.2436 43.8327 89.2549 43.8933C89.2662 43.9538 89.2615 44.0163 89.2413 44.0745C89.2211 44.1327 89.1862 44.1847 89.1398 44.2253C89.0935 44.2659 89.0374 44.2937 88.977 44.306L87.005 44.726C86.992 45.134 86.956 45.926 86.862 46.772C86.607 49.045 86.162 49.587 85.853 49.796C85.6068 49.9239 85.3296 49.9804 85.053 49.959M73.793 37.38H73.763C73.598 37.397 73.292 37.563 72.771 38.259C72.6946 38.3532 72.6411 38.4638 72.6145 38.5821C72.588 38.7004 72.5892 38.8233 72.618 38.941C72.834 39.918 74.51 41.007 75.138 41.341C75.1908 41.3694 75.2357 41.4106 75.2682 41.461C75.3007 41.5114 75.3199 41.5692 75.324 41.629C75.4421 43.0734 75.9039 44.4685 76.671 45.698C78.163 47.741 84.757 49.657 85.453 49.198C85.94 48.87 86.272 46.464 86.3 44.422C86.3012 44.3419 86.3295 44.2645 86.3804 44.2026C86.4313 44.1406 86.5016 44.0978 86.58 44.081L88.299 43.715C87.6216 42.6077 87.2455 41.3426 87.208 40.045C87.196 39.738 87.192 39.384 87.188 38.997C87.149 35.562 86.902 32.205 84.403 32.168C81.136 32.117 80.282 33.95 79.46 35.722C78.792 37.16 78.106 38.645 76.082 38.571C75.4509 38.5172 74.862 38.2323 74.428 37.771C74.152 37.528 73.968 37.371 73.795 37.371" fill="#510394"/>
<path d="M58.094 113.27C57.4937 115.108 57.053 116.994 56.777 118.907C56.766 119.507 57.198 122.121 57.198 122.121L57.83 118.855L58.567 124.655L59.305 119.176L60.011 125.462L60.217 121.262L62.308 124.862L61.237 121.362L62.308 119.124L63.467 122.97V117.754L62.778 113.57L58.094 113.27Z" fill="white"/>
<path d="M60.012 125.811C59.925 125.811 59.841 125.779 59.7761 125.721C59.7111 125.663 59.6698 125.583 59.66 125.497L59.275 122.062L58.92 124.698C58.9086 124.783 58.8667 124.861 58.8022 124.917C58.7376 124.974 58.6548 125.005 58.569 125.005C58.4831 125.005 58.4002 124.973 58.3358 124.916C58.2714 124.86 58.2299 124.781 58.219 124.696L57.761 121.096L57.549 122.196C57.5317 122.277 57.4872 122.349 57.423 122.402C57.3588 122.454 57.2787 122.483 57.196 122.483C57.1125 122.482 57.0321 122.451 56.9692 122.396C56.9062 122.341 56.8647 122.266 56.852 122.183C56.807 121.912 56.414 119.519 56.426 118.905C56.7046 116.942 57.1567 115.007 57.777 113.124C57.8076 113.06 57.8567 113.007 57.9178 112.971C57.979 112.936 58.0494 112.919 58.12 112.924L62.805 113.218C62.8855 113.223 62.9619 113.256 63.0213 113.31C63.0808 113.365 63.1199 113.438 63.132 113.518L63.821 117.701C63.8225 117.72 63.8225 117.74 63.821 117.759V122.975C63.8205 123.06 63.7896 123.142 63.734 123.206C63.6783 123.269 63.6015 123.311 63.5176 123.323C63.4336 123.336 63.3481 123.317 63.2767 123.271C63.2052 123.226 63.1524 123.156 63.128 123.075L62.228 120.105L61.611 121.394L62.641 124.767C62.6666 124.85 62.6607 124.94 62.6244 125.019C62.588 125.098 62.5238 125.161 62.4441 125.196C62.3643 125.23 62.2745 125.235 62.1918 125.207C62.1092 125.18 62.0395 125.123 61.996 125.048L60.503 122.481L60.355 125.481C60.3507 125.57 60.3131 125.654 60.2495 125.717C60.1859 125.779 60.1011 125.815 60.012 125.818H60.003M60.209 120.918C60.2709 120.918 60.3318 120.934 60.3855 120.965C60.4392 120.996 60.4838 121.04 60.515 121.094L61.064 122.039L60.89 121.47C60.8641 121.385 60.8709 121.294 60.909 121.214L61.98 118.976C62.0107 118.911 62.0604 118.857 62.1223 118.822C62.1843 118.786 62.2556 118.769 62.327 118.775C62.3984 118.781 62.4664 118.808 62.5221 118.853C62.5778 118.898 62.6186 118.958 62.639 119.027L63.105 120.573V117.781L62.466 113.904L58.317 113.643C57.7902 115.37 57.3892 117.132 57.117 118.917C57.1337 119.292 57.1707 119.665 57.228 120.036L57.469 118.79C57.4842 118.706 57.5289 118.631 57.5949 118.578C57.661 118.524 57.744 118.497 57.8289 118.499C57.9138 118.502 57.9948 118.535 58.0572 118.593C58.1197 118.651 58.1593 118.729 58.169 118.813L58.569 121.925L58.946 119.125C58.9574 119.04 58.9992 118.962 59.0638 118.906C59.1284 118.849 59.2112 118.818 59.297 118.818C59.3835 118.819 59.4666 118.851 59.5307 118.909C59.5948 118.968 59.6355 119.047 59.645 119.133L59.871 121.145C59.8904 121.089 59.9234 121.039 59.9671 121C60.0108 120.96 60.0637 120.932 60.121 120.918C60.1485 120.911 60.1767 120.908 60.205 120.908" fill="#510394"/>
<path d="M60.219 121.615C60.1664 121.615 60.1144 121.603 60.0669 121.581C60.0193 121.558 59.9774 121.525 59.9441 121.485C59.9109 121.444 59.8872 121.396 59.8747 121.345C59.8622 121.294 59.8613 121.241 59.872 121.189L60.301 119.108C60.3104 119.062 60.3287 119.019 60.3548 118.981C60.3809 118.942 60.4144 118.909 60.4532 118.884C60.4921 118.858 60.5356 118.84 60.5813 118.832C60.627 118.823 60.674 118.823 60.7195 118.832C60.7651 118.842 60.8084 118.86 60.8469 118.886C60.8854 118.912 60.9184 118.946 60.944 118.985C60.9695 119.024 60.9872 119.067 60.996 119.113C61.0047 119.158 61.0044 119.205 60.995 119.251L60.567 121.332C60.5507 121.412 60.5072 121.484 60.444 121.535C60.3807 121.587 60.3016 121.615 60.22 121.615" fill="#510394"/>
<path d="M63.662 113.939C63.138 113.939 62.788 113.921 62.762 113.919L58.074 113.619C58.0322 113.616 57.9912 113.606 57.953 113.589L56.636 113.005C56.577 112.979 56.5262 112.937 56.4892 112.884C56.4522 112.831 56.4303 112.769 56.426 112.705L55.934 104.883C55.931 104.837 55.9373 104.79 55.9523 104.746C55.9673 104.702 55.9909 104.661 56.0216 104.626C56.0524 104.592 56.0897 104.563 56.1314 104.543C56.1732 104.522 56.2186 104.51 56.265 104.507C56.3114 104.504 56.358 104.51 56.402 104.525C56.446 104.54 56.4866 104.564 56.5216 104.595C56.5565 104.625 56.585 104.663 56.6055 104.704C56.626 104.746 56.6381 104.792 56.641 104.838L57.12 112.446L58.183 112.917L62.804 113.207C64.737 113.307 68.004 113.091 68.516 112.059C68.879 111.232 68.501 101.141 68.168 92.238C67.791 82.183 67.435 72.685 67.816 70.973C67.8384 70.8836 67.8948 70.8064 67.9732 70.7579C68.0516 70.7094 68.1459 70.6934 68.2359 70.7133C68.326 70.7333 68.4047 70.7876 68.4553 70.8646C68.5059 70.9417 68.5245 71.0355 68.507 71.126C68.146 72.749 68.517 82.643 68.876 92.211C69.324 104.157 69.576 111.523 69.151 112.375C68.751 113.166 67.539 113.662 65.537 113.851C64.837 113.916 64.172 113.933 63.666 113.933" fill="#510394"/>
<path d="M129.068 56.645L130.947 57.445L129.097 58.045L130.363 59.081L128.837 58.881L129.902 60.32L128.282 60.411L129.068 56.645Z" fill="white"/>
<path d="M128.278 60.77C128.225 60.77 128.173 60.7583 128.126 60.7358C128.078 60.7132 128.036 60.6803 128.003 60.6395C127.97 60.5987 127.946 60.551 127.934 60.4999C127.921 60.4488 127.92 60.3955 127.931 60.344L128.716 56.573C128.727 56.5215 128.749 56.4731 128.78 56.4312C128.812 56.3893 128.852 56.355 128.899 56.3307C128.945 56.3064 128.997 56.2927 129.049 56.2907C129.101 56.2886 129.154 56.2983 129.202 56.319L131.081 57.119C131.147 57.1472 131.203 57.195 131.242 57.256C131.28 57.3169 131.299 57.3881 131.296 57.46C131.292 57.5319 131.267 57.6012 131.224 57.6585C131.18 57.7159 131.12 57.7586 131.052 57.781L129.817 58.181L130.583 58.807C130.643 58.8557 130.685 58.9226 130.703 58.9975C130.721 59.0724 130.714 59.1512 130.684 59.2219C130.653 59.2926 130.6 59.3514 130.533 59.3893C130.466 59.4272 130.388 59.4422 130.312 59.432L129.612 59.34L130.181 60.108C130.219 60.1593 130.242 60.22 130.249 60.2836C130.255 60.3471 130.244 60.4112 130.217 60.469C130.19 60.5269 130.147 60.5762 130.094 60.612C130.041 60.6477 129.98 60.6684 129.916 60.672L128.296 60.763H128.276M128.832 59.476L128.717 60.03L129.217 60.002L128.832 59.476ZM129.025 58.548L129.169 58.567L129.043 58.467L129.025 58.548ZM129.319 57.134L129.219 57.634L129.938 57.4L129.319 57.134Z" fill="#510394"/>
<path d="M127.651 48.8129C127.624 48.8129 127.597 48.8099 127.571 48.8039L124.794 48.1619C124.749 48.1514 124.706 48.1321 124.668 48.105C124.63 48.078 124.598 48.0438 124.573 48.0043C124.524 47.9246 124.508 47.8284 124.529 47.7369C124.55 47.6454 124.607 47.5661 124.687 47.5164C124.766 47.4667 124.862 47.4507 124.954 47.4719L127.731 48.1139C127.817 48.1324 127.893 48.1822 127.944 48.2534C127.995 48.3247 128.018 48.4125 128.008 48.4996C127.998 48.5868 127.956 48.6673 127.891 48.7253C127.825 48.7834 127.74 48.815 127.652 48.8139" fill="#510394"/>
<path d="M79.372 88.774C79.2984 88.7741 79.2265 88.7513 79.1664 88.7086C79.1064 88.6659 79.0611 88.6056 79.037 88.536L68.677 58.71C68.6618 58.6661 68.6553 58.6196 68.6581 58.5732C68.6608 58.5268 68.6726 58.4814 68.6929 58.4395C68.7132 58.3977 68.7416 58.3603 68.7763 58.3294C68.8111 58.2985 68.8516 58.2748 68.8955 58.2595C68.9394 58.2443 68.9859 58.2379 69.0324 58.2406C69.0788 58.2433 69.1242 58.2552 69.166 58.2755C69.2079 58.2958 69.2453 58.3241 69.2762 58.3589C69.307 58.3936 69.3308 58.4341 69.346 58.478L79.71 88.304C79.7285 88.3573 79.734 88.4143 79.726 88.4701C79.718 88.526 79.6968 88.5791 79.6641 88.6251C79.6314 88.6711 79.5882 88.7086 79.5381 88.7345C79.488 88.7604 79.4324 88.774 79.376 88.774" fill="#510394"/>
<path d="M88.91 87.3349H88.901C88.8545 87.3338 88.8087 87.3234 88.7662 87.3046C88.7237 87.2857 88.6853 87.2586 88.6533 87.2249C88.6212 87.1912 88.5961 87.1515 88.5794 87.1081C88.5627 87.0647 88.5548 87.0184 88.556 86.9719L89.319 57.6289C89.3233 57.5357 89.3635 57.4478 89.4312 57.3835C89.4988 57.3193 89.5887 57.2836 89.682 57.2839C89.7285 57.2851 89.7743 57.2954 89.8168 57.3143C89.8593 57.3332 89.8976 57.3602 89.9297 57.394C89.9617 57.4277 89.9868 57.4674 90.0035 57.5108C90.0202 57.5542 90.0282 57.6005 90.027 57.6469L89.26 86.993C89.2576 87.0853 89.2193 87.173 89.1532 87.2375C89.087 87.3019 88.9983 87.338 88.906 87.338" fill="#510394"/>
<path d="M93.275 99.009C93.1893 99.0041 93.1082 98.9682 93.047 98.908C92.9857 98.8478 92.9484 98.7674 92.9421 98.6818C92.9357 98.5961 92.9607 98.5111 93.0124 98.4425C93.0641 98.3739 93.1389 98.3265 93.223 98.309L99.141 97.429C99.2314 97.4207 99.3216 97.4474 99.3928 97.5037C99.4641 97.56 99.511 97.6415 99.5238 97.7314C99.5367 97.8213 99.5145 97.9127 99.4618 97.9867C99.4092 98.0607 99.3301 98.1116 99.241 98.129L93.324 99.009C93.3063 99.0102 93.2886 99.0102 93.271 99.009" fill="#510394"/>
<path d="M76.963 99.329C76.9477 99.33 76.9323 99.33 76.917 99.329L71.08 98.569C70.9927 98.5507 70.9156 98.5002 70.8639 98.4275C70.8123 98.3548 70.79 98.2653 70.8015 98.1769C70.813 98.0885 70.8575 98.0077 70.926 97.9506C70.9945 97.8935 71.0819 97.8644 71.171 97.869L77.008 98.629C77.0918 98.646 77.1667 98.6928 77.2187 98.7608C77.2707 98.8287 77.2963 98.9132 77.2908 98.9986C77.2853 99.084 77.2491 99.1645 77.1888 99.2252C77.1286 99.286 77.0483 99.3228 76.963 99.329Z" fill="#510394"/>
<path d="M187.808 94.7159C186.447 93.0409 190.723 86.4229 191.075 84.9999C191.575 82.9749 189.134 80.9429 189.975 77.6939C190.054 77.3879 190.394 75.6789 190.394 75.6789C190.439 75.5043 190.413 75.3188 190.322 75.1634C190.23 75.0079 190.081 74.8951 189.906 74.8499C189.731 74.8047 189.546 74.8307 189.39 74.9222C189.235 75.0138 189.122 75.1633 189.077 75.3379L188.577 77.2659C187.347 78.4498 185.866 79.3417 184.244 79.8757C182.622 80.4097 180.901 80.5722 179.208 80.3509C176.574 80.0929 176.07 79.0839 176.021 78.4509L176.739 75.6759C176.784 75.5013 176.758 75.3158 176.667 75.1603C176.575 75.0049 176.426 74.8921 176.251 74.8469C176.076 74.8017 175.891 74.8277 175.735 74.9192C175.58 75.0107 175.467 75.1603 175.422 75.3349C175.422 75.3349 172.631 82.9459 173.569 85.7879C174.312 88.0379 175.68 87.6399 176.024 89.0189C176.368 90.3979 177.214 93.0279 176.024 95.6579C174.834 98.2879 158.456 132.728 158.456 132.728C158.456 132.728 173.456 141.759 180.344 141.912C187.232 142.065 206.518 135.177 207.283 131.657C208.048 128.137 189.172 96.3879 187.815 94.7129" fill="#BE73FF"/>
<path d="M197.093 75.493L184.229 67.084V66.349C184.72 66.2259 185.166 65.9675 185.517 65.6032C185.868 65.2389 186.109 64.7833 186.214 64.2884C186.318 63.7935 186.282 63.2792 186.108 62.8041C185.935 62.329 185.631 61.9121 185.232 61.6011C184.834 61.29 184.355 61.0972 183.852 61.0447C183.349 60.9922 182.841 61.0821 182.387 61.3041C181.932 61.5261 181.549 61.8713 181.282 62.3004C181.014 62.7295 180.872 63.2252 180.872 63.731C180.872 63.9055 180.941 64.0729 181.065 64.1963C181.188 64.3197 181.355 64.389 181.53 64.389C181.704 64.389 181.872 64.3197 181.995 64.1963C182.119 64.0729 182.188 63.9055 182.188 63.731C182.188 63.4575 182.269 63.1901 182.421 62.9626C182.573 62.7352 182.789 62.5579 183.042 62.4533C183.294 62.3486 183.573 62.3212 183.841 62.3746C184.109 62.4279 184.355 62.5597 184.549 62.7531C184.742 62.9465 184.874 63.1929 184.927 63.4612C184.981 63.7295 184.953 64.0075 184.849 64.2602C184.744 64.513 184.567 64.7289 184.339 64.8809C184.112 65.0329 183.845 65.114 183.571 65.114C183.396 65.114 183.229 65.1833 183.106 65.3067C182.982 65.4301 182.913 65.5975 182.913 65.772V67.084L170.053 75.492C169.934 75.5695 169.844 75.6833 169.795 75.8164C169.746 75.9496 169.742 76.0949 169.782 76.2308C169.822 76.3667 169.906 76.4859 170.019 76.5706C170.133 76.6553 170.271 76.7011 170.413 76.701H196.729C196.871 76.7011 197.009 76.6553 197.123 76.5706C197.236 76.4859 197.319 76.3667 197.36 76.2308C197.4 76.0949 197.396 75.9496 197.347 75.8164C197.298 75.6833 197.208 75.5695 197.089 75.492M172.629 75.384L183.578 68.226L194.529 75.384H172.629Z" fill="#BE73FF"/>
<path d="M174.573 94.7159C173.212 93.0409 177.487 86.4229 177.84 84.9999C178.34 82.9749 175.899 80.9429 176.74 77.6939C176.819 77.3879 177.159 75.6789 177.159 75.6789C177.204 75.5043 177.178 75.3188 177.087 75.1634C176.995 75.0079 176.846 74.8951 176.671 74.8499C176.496 74.8047 176.311 74.8307 176.155 74.9222C176 75.0138 175.887 75.1633 175.842 75.3379L175.342 77.2659C174.112 78.4498 172.631 79.3417 171.009 79.8757C169.387 80.4097 167.666 80.5722 165.973 80.3509C163.339 80.0929 162.835 79.0839 162.786 78.4509L163.504 75.6759C163.549 75.5013 163.523 75.3158 163.432 75.1603C163.34 75.0049 163.191 74.8921 163.016 74.8469C162.841 74.8017 162.656 74.8277 162.5 74.9192C162.345 75.0107 162.232 75.1603 162.187 75.3349C162.187 75.3349 159.396 82.9459 160.334 85.7879C161.077 88.0379 162.445 87.6399 162.79 89.0189C163.135 90.3979 163.98 93.0279 162.79 95.6579C161.6 98.2879 145.222 132.728 145.222 132.728C145.222 132.728 160.222 141.759 167.11 141.912C173.998 142.065 193.284 135.177 194.049 131.657C194.814 128.137 175.938 96.3879 174.577 94.7129" fill="#D19CFF"/>
<path d="M183.861 75.493L171.001 67.084V66.349C171.492 66.2259 171.938 65.9675 172.289 65.6032C172.64 65.2389 172.881 64.7833 172.986 64.2884C173.09 63.7935 173.054 63.2792 172.88 62.8041C172.707 62.329 172.403 61.9121 172.004 61.6011C171.606 61.29 171.127 61.0972 170.624 61.0447C170.121 60.9922 169.613 61.0821 169.159 61.3041C168.704 61.5261 168.321 61.8713 168.054 62.3004C167.786 62.7295 167.644 63.2252 167.644 63.731C167.644 63.9055 167.713 64.0729 167.837 64.1963C167.96 64.3197 168.128 64.389 168.302 64.389C168.477 64.389 168.644 64.3197 168.767 64.1963C168.891 64.0729 168.96 63.9055 168.96 63.731C168.96 63.4575 169.041 63.1901 169.193 62.9626C169.345 62.7352 169.561 62.5579 169.814 62.4533C170.066 62.3486 170.345 62.3212 170.613 62.3746C170.881 62.4279 171.128 62.5597 171.321 62.7531C171.514 62.9465 171.646 63.1929 171.699 63.4612C171.753 63.7295 171.725 64.0075 171.621 64.2602C171.516 64.513 171.339 64.7289 171.111 64.8809C170.884 65.0329 170.617 65.114 170.343 65.114C170.169 65.114 170.001 65.1833 169.878 65.3067C169.754 65.4301 169.685 65.5975 169.685 65.772V67.084L156.825 75.492C156.706 75.5695 156.616 75.6833 156.567 75.8164C156.518 75.9496 156.514 76.0949 156.554 76.2308C156.595 76.3667 156.678 76.4859 156.792 76.5706C156.905 76.6553 157.043 76.7011 157.185 76.701H183.502C183.644 76.7011 183.782 76.6553 183.896 76.5706C184.009 76.4859 184.092 76.3667 184.133 76.2308C184.173 76.0949 184.169 75.9496 184.12 75.8164C184.071 75.6833 183.981 75.5695 183.862 75.492M159.391 75.384L170.34 68.226L181.289 75.384H159.391Z" fill="#D19CFF"/>
<path d="M161.338 94.7159C159.977 93.0409 164.253 86.4229 164.605 84.9999C165.105 82.9749 162.664 80.9429 163.505 77.6939C163.584 77.3879 163.924 75.6789 163.924 75.6789C163.969 75.5043 163.943 75.3188 163.852 75.1634C163.76 75.0079 163.611 74.8951 163.436 74.8499C163.261 74.8047 163.076 74.8307 162.92 74.9222C162.765 75.0138 162.652 75.1633 162.607 75.3379L162.107 77.2659C160.877 78.4498 159.396 79.3417 157.774 79.8757C156.152 80.4097 154.431 80.5722 152.738 80.3509C150.103 80.0929 149.6 79.0839 149.551 78.4509L150.269 75.6759C150.314 75.5013 150.288 75.3158 150.197 75.1603C150.105 75.0049 149.956 74.8921 149.781 74.8469C149.606 74.8017 149.421 74.8277 149.265 74.9192C149.11 75.0107 148.997 75.1603 148.952 75.3349C148.952 75.3349 146.161 82.9459 147.099 85.7879C147.842 88.0379 149.21 87.6399 149.554 89.0189C149.898 90.3979 150.744 93.0279 149.554 95.6579C148.364 98.2879 131.986 132.728 131.986 132.728C131.986 132.728 146.986 141.759 153.874 141.912C160.762 142.065 180.048 135.177 180.813 131.657C181.578 128.137 162.702 96.3879 161.341 94.7129" fill="#DFBAFF"/>
<path d="M170.622 75.493L157.762 67.085V66.35C158.253 66.2269 158.699 65.9685 159.05 65.6042C159.401 65.2398 159.642 64.7843 159.747 64.2894C159.851 63.7945 159.815 63.2802 159.641 62.8051C159.468 62.3299 159.164 61.9131 158.765 61.602C158.367 61.291 157.888 61.0982 157.385 61.0457C156.882 60.9932 156.374 61.0831 155.92 61.3051C155.466 61.5271 155.083 61.8723 154.815 62.3014C154.547 62.7305 154.405 63.2261 154.405 63.732C154.405 63.9065 154.474 64.0739 154.598 64.1973C154.721 64.3207 154.888 64.39 155.063 64.39C155.238 64.39 155.405 64.3207 155.528 64.1973C155.652 64.0739 155.721 63.9065 155.721 63.732C155.721 63.4584 155.802 63.1911 155.954 62.9636C156.106 62.7362 156.322 62.5589 156.575 62.4543C156.827 62.3496 157.106 62.3222 157.374 62.3755C157.642 62.4289 157.889 62.5606 158.082 62.7541C158.275 62.9475 158.407 63.1939 158.46 63.4622C158.514 63.7304 158.486 64.0085 158.382 64.2612C158.277 64.5139 158.1 64.7299 157.872 64.8819C157.645 65.0339 157.378 65.115 157.104 65.115C156.93 65.115 156.762 65.1843 156.639 65.3077C156.515 65.4311 156.446 65.5985 156.446 65.773V67.084L143.586 75.492C143.467 75.5695 143.377 75.6833 143.328 75.8164C143.279 75.9495 143.275 76.0949 143.315 76.2308C143.356 76.3667 143.439 76.4859 143.553 76.5706C143.666 76.6553 143.804 76.7011 143.946 76.701H170.263C170.405 76.7011 170.543 76.6553 170.657 76.5706C170.77 76.4859 170.854 76.3667 170.894 76.2308C170.934 76.0949 170.93 75.9495 170.881 75.8164C170.832 75.6833 170.742 75.5695 170.623 75.492M146.156 75.385L157.105 68.227L168.054 75.385H146.156Z" fill="#DFBAFF"/>
<path d="M201.708 63.376H129.948C129.465 63.376 129.001 63.5679 128.66 63.9096C128.318 64.2513 128.126 64.7147 128.126 65.198V194.664H138.012C138.254 194.664 138.485 194.568 138.656 194.397C138.827 194.226 138.923 193.995 138.923 193.753C138.923 193.511 138.827 193.28 138.656 193.109C138.485 192.938 138.254 192.842 138.012 192.842H129.948V66.042C129.948 65.8189 130.037 65.605 130.194 65.4473C130.352 65.2896 130.566 65.201 130.789 65.201H200.863C201.086 65.201 201.3 65.2896 201.458 65.4473C201.615 65.605 201.704 65.8189 201.704 66.042V192.842H193.648C193.406 192.842 193.175 192.938 193.004 193.109C192.833 193.28 192.737 193.511 192.737 193.753C192.737 193.995 192.833 194.226 193.004 194.397C193.175 194.568 193.406 194.664 193.648 194.664H203.534V65.201C203.534 64.9617 203.487 64.7248 203.395 64.5037C203.304 64.2827 203.17 64.0818 203 63.9126C202.831 63.7434 202.63 63.6092 202.409 63.5177C202.188 63.4261 201.951 63.379 201.712 63.379" fill="#BE73FF"/>
</g>
</g>
</g>
<defs>
<linearGradient id="paint0_linear_3_4488" x1="123.523" y1="303.855" x2="123.68" y2="303.708" gradientUnits="userSpaceOnUse">
<stop stop-color="#510394"/>
<stop offset="0.141" stop-color="#4A0387"/>
<stop offset="0.397" stop-color="#380368"/>
<stop offset="0.736" stop-color="#1B0334"/>
<stop offset="1" stop-color="#030408"/>
</linearGradient>
<linearGradient id="paint1_linear_3_4488" x1="-0.0539551" y1="221.19" x2="0.256917" y2="221.19" gradientUnits="userSpaceOnUse">
<stop stop-color="#D3D6DB"/>
<stop offset="0.999" stop-color="#7A869B"/>
<stop offset="1" stop-color="#7A869B"/>
</linearGradient>
<clipPath id="clip0_3_4488">
<rect width="339" height="221.201" fill="white"/>
</clipPath>
</defs>
</svg>
