<svg width="339" height="225" viewBox="0 0 339 225" fill="none" xmlns="http://www.w3.org/2000/svg">
<g clip-path="url(#clip0_3_4577)">
<mask id="mask0_3_4577" style="mask-type:luminance" maskUnits="userSpaceOnUse" x="0" y="0" width="339" height="225">
<path d="M339 0H0V224.415H339V0Z" fill="white"/>
</mask>
<g mask="url(#mask0_3_4577)">
<mask id="mask1_3_4577" style="mask-type:luminance" maskUnits="userSpaceOnUse" x="0" y="0" width="339" height="225">
<path d="M338.999 0H0V224.415H338.999V0Z" fill="white"/>
</mask>
<g mask="url(#mask1_3_4577)">
<g opacity="0.59">
<mask id="mask2_3_4577" style="mask-type:luminance" maskUnits="userSpaceOnUse" x="0" y="14" width="339" height="178">
<path d="M339 14.037H0V191.935H339V14.037Z" fill="white"/>
</mask>
<g mask="url(#mask2_3_4577)">
<path d="M0.132977 96.4489C-3.73702 16.8489 77.542 4.24193 110.639 19.8799C124.894 26.6149 119.239 40.8799 133.482 56.1799C174.154 99.8549 287.263 61.7529 316.982 96.0579C336.246 118.292 347.37 141.942 331.241 164.076C282.835 230.507 3.52098 166.114 0.132977 96.4489Z" fill="#F6F5FA"/>
</g>
</g>
</g>
<mask id="mask3_3_4577" style="mask-type:luminance" maskUnits="userSpaceOnUse" x="112" y="0" width="106" height="212">
<path d="M127.208 3.42052e-08C125.287 -0.000131323 123.386 0.378073 121.611 1.11301C119.837 1.84795 118.225 2.92523 116.867 4.28333C115.509 5.64143 114.431 7.25374 113.697 9.02818C112.962 10.8026 112.584 12.7044 112.584 14.625V196.633C112.584 200.512 114.125 204.231 116.867 206.974C119.61 209.716 123.329 211.257 127.208 211.257H202.769C204.69 211.258 206.591 210.88 208.366 210.145C210.14 209.41 211.753 208.333 213.111 206.975C214.469 205.617 215.546 204.004 216.281 202.23C217.016 200.455 217.394 198.554 217.393 196.633V14.624C217.393 10.7455 215.852 7.0258 213.11 4.28327C210.367 1.54074 206.647 3.42052e-08 202.769 3.42052e-08H127.208Z" fill="white"/>
</mask>
<g mask="url(#mask3_3_4577)">
<path d="M168.593 -52.1866L7.20398 98.384L161.298 263.549L322.687 112.978L168.593 -52.1866Z" fill="url(#paint0_linear_3_4577)"/>
</g>
<mask id="mask4_3_4577" style="mask-type:luminance" maskUnits="userSpaceOnUse" x="0" y="0" width="339" height="225">
<path d="M338.999 0H0V224.415H338.999V0Z" fill="white"/>
</mask>
<g mask="url(#mask4_3_4577)">
<path d="M200.357 5.71204H128.583C127.267 5.7119 125.964 5.97102 124.748 6.47459C123.532 6.97816 122.428 7.71631 121.497 8.64689C120.567 9.57746 119.829 10.6822 119.325 11.8981C118.822 13.1139 118.563 14.4171 118.563 15.733V193.973C118.563 195.289 118.822 196.592 119.326 197.808C119.829 199.024 120.567 200.128 121.498 201.059C122.428 201.989 123.533 202.727 124.749 203.231C125.965 203.734 127.268 203.993 128.584 203.993H200.358C201.674 203.993 202.977 203.734 204.193 203.23C205.409 202.727 206.513 201.989 207.444 201.058C208.374 200.128 209.112 199.023 209.616 197.807C210.119 196.591 210.378 195.288 210.378 193.972V15.732C210.378 14.4161 210.119 13.113 209.615 11.8972C209.112 10.6814 208.374 9.57666 207.443 8.64618C206.513 7.7157 205.408 6.97765 204.192 6.47421C202.976 5.97076 201.673 5.71177 200.357 5.71204Z" fill="white"/>
<path d="M134.97 13.7231H125.87C125.475 13.7231 125.095 13.566 124.816 13.2864C124.536 13.0068 124.379 12.6275 124.379 12.2321C124.379 11.8367 124.536 11.4574 124.816 11.1778C125.095 10.8982 125.475 10.7411 125.87 10.7411H134.97C135.365 10.7411 135.745 10.8982 136.024 11.1778C136.304 11.4574 136.461 11.8367 136.461 12.2321C136.461 12.6275 136.304 13.0068 136.024 13.2864C135.745 13.566 135.365 13.7231 134.97 13.7231Z" fill="#510394"/>
<path d="M195.043 13.7231H194.643C194.248 13.7231 193.868 13.566 193.589 13.2864C193.309 13.0068 193.152 12.6275 193.152 12.2321C193.152 11.8367 193.309 11.4574 193.589 11.1778C193.868 10.8982 194.248 10.7411 194.643 10.7411H195.043C195.438 10.7411 195.818 10.8982 196.097 11.1778C196.377 11.4574 196.534 11.8367 196.534 12.2321C196.534 12.6275 196.377 13.0068 196.097 13.2864C195.818 13.566 195.438 13.7231 195.043 13.7231Z" fill="#510394"/>
<path d="M203.744 13.7231H199.757C199.362 13.7231 198.982 13.566 198.703 13.2864C198.423 13.0068 198.266 12.6275 198.266 12.2321C198.266 11.8367 198.423 11.4574 198.703 11.1778C198.982 10.8982 199.362 10.7411 199.757 10.7411H203.744C204.139 10.7411 204.519 10.8982 204.798 11.1778C205.078 11.4574 205.235 11.8367 205.235 12.2321C205.235 12.6275 205.078 13.0068 204.798 13.2864C204.519 13.566 204.139 13.7231 203.744 13.7231Z" fill="#510394"/>
<path d="M167.517 12.232C167.517 12.732 167.369 13.2207 167.091 13.6365C166.813 14.0522 166.418 14.3762 165.956 14.5675C165.494 14.7589 164.986 14.8089 164.496 14.7114C164.005 14.6139 163.555 14.3731 163.201 14.0195C162.848 13.666 162.607 13.2156 162.51 12.7252C162.412 12.2348 162.462 11.7265 162.653 11.2646C162.845 10.8026 163.169 10.4078 163.585 10.13C164 9.85224 164.489 9.70398 164.989 9.70398C165.321 9.70398 165.65 9.76937 165.956 9.89641C166.263 10.0235 166.542 10.2097 166.777 10.4444C167.011 10.6792 167.198 10.9578 167.325 11.2646C167.452 11.5713 167.517 11.9 167.517 12.232Z" fill="#510394"/>
<g opacity="0.3">
<mask id="mask5_3_4577" style="mask-type:luminance" maskUnits="userSpaceOnUse" x="15" y="202" width="320" height="23">
<path d="M334.852 202.004H15.417V224.415H334.852V202.004Z" fill="white"/>
</mask>
<g mask="url(#mask5_3_4577)">
<mask id="mask6_3_4577" style="mask-type:luminance" maskUnits="userSpaceOnUse" x="15" y="202" width="320" height="23">
<path d="M31.056 210.412C25.121 211.106 15.478 212.378 15.417 214.212C15.361 215.866 23.126 217.221 25.843 217.695C56.921 223.119 63.671 214.025 104.792 217.951C126.359 220.01 123.105 223.425 142.232 224.284C168.402 225.459 208.288 218.324 241.003 218.645C254.961 218.782 255.181 219.938 274.177 220.862C281.639 221.225 333.909 223.712 334.839 219.912C335.007 219.225 333.747 217.312 311.139 212.629C311.139 212.629 203.224 190.279 31.052 210.413" fill="white"/>
</mask>
<g mask="url(#mask6_3_4577)">
<path d="M335.007 190.278H15.361V225.459H335.007V190.278Z" fill="url(#paint1_linear_3_4577)"/>
</g>
</g>
</g>
<path d="M89.4769 192.586C89.4769 192.586 89.559 195.686 88.823 197.08C88.087 198.474 87.4339 198.755 87.7609 199.245C88.0879 199.735 91.219 205.845 94.324 205.272C95.5488 204.937 96.6872 204.343 97.6616 203.529C98.6361 202.715 99.4237 201.701 99.971 200.555C100.053 199.861 96.465 196.501 96.707 193.444C96.807 192.144 89.4769 192.586 89.4769 192.586Z" fill="white"/>
<path d="M93.906 205.672C92.006 205.672 89.906 203.679 87.629 199.737C87.546 199.593 87.488 199.492 87.457 199.445C87.117 198.935 87.413 198.532 87.757 198.066C88.0356 197.7 88.2848 197.313 88.502 196.907C89.184 195.619 89.114 192.623 89.113 192.593C89.1105 192.499 89.1448 192.407 89.2086 192.337C89.2724 192.268 89.3607 192.226 89.455 192.22C90.515 192.155 95.855 191.886 96.855 192.9C96.9314 192.973 96.9906 193.062 97.0285 193.16C97.0664 193.259 97.0819 193.365 97.074 193.47C96.922 195.392 98.432 197.504 99.432 198.902C100.089 199.821 100.378 200.242 100.332 200.595C100.221 201.538 97.532 205.049 94.389 205.627C94.2297 205.656 94.068 205.671 93.906 205.671M89.843 192.927C89.8932 194.399 89.6554 195.866 89.143 197.247C88.9096 197.684 88.6421 198.101 88.343 198.496C88.021 198.934 88.019 198.973 88.064 199.04C88.109 199.107 88.164 199.208 88.264 199.372C89.843 202.112 92.164 205.296 94.264 204.91C97.125 204.383 99.5 201.153 99.613 200.526C99.3966 200.101 99.1383 199.699 98.842 199.326C97.781 197.842 96.177 195.6 96.351 193.412C96.126 192.98 93.131 192.754 89.851 192.927" fill="#510394"/>
<path d="M61.627 196.408C59.142 196.494 56.321 198.632 56.05 200.74C55.779 202.848 56.275 211.749 57.626 212.559C58.977 213.369 63.194 213.478 64.492 212.559C65.79 211.64 66.66 206.197 66.439 203.02C66.218 199.843 64.384 196.313 61.627 196.408Z" fill="#00B2CA"/>
<path d="M59.021 197.238C59.021 197.238 58.744 201.113 58.537 203.051C58.33 204.989 59.575 207.895 62.481 207.618C65.387 207.341 65.891 203.763 65.681 202.667C65.311 200.773 64.422 196.408 64.422 196.408L59.021 197.238Z" fill="white"/>
<path d="M62.103 208.001C61.6193 208.007 61.1394 207.915 60.6924 207.73C60.2454 207.545 59.8407 207.271 59.503 206.925C59.0208 206.402 58.6537 205.783 58.4255 205.11C58.1973 204.436 58.1129 203.721 58.178 203.013C58.378 201.104 58.659 197.252 58.661 197.213C58.6668 197.131 58.7005 197.053 58.7565 196.992C58.8124 196.931 58.8874 196.891 58.969 196.879L64.369 196.049C64.4614 196.035 64.5559 196.056 64.6326 196.11C64.7094 196.163 64.7625 196.244 64.781 196.336C64.79 196.38 65.675 200.724 66.04 202.598C66.1998 203.994 65.8442 205.401 65.04 206.553C64.749 206.96 64.373 207.298 63.938 207.545C63.5029 207.791 63.0194 207.94 62.521 207.981C62.3816 207.994 62.2443 208.001 62.109 208.001M59.363 197.559C59.294 198.497 59.071 201.481 58.899 203.095C58.8426 203.696 58.913 204.303 59.1055 204.875C59.2981 205.447 59.6086 205.973 60.017 206.418C60.3287 206.737 60.7104 206.98 61.132 207.126C61.5536 207.272 62.0035 207.319 62.446 207.261C62.842 207.227 63.2259 207.108 63.5713 206.911C63.9166 206.715 64.2151 206.445 64.446 206.122C65.123 205.132 65.4306 203.936 65.315 202.742C65.01 201.178 64.343 197.89 64.126 196.826L59.363 197.559Z" fill="#510394"/>
<path d="M52.819 105.629C52.819 105.629 48.249 129.187 50.533 151.401C52.817 173.615 55.162 193.124 55.78 195.949C56.398 198.774 59.841 199.127 62.666 198.597C65.491 198.067 67.433 195.949 67.521 194.536C67.609 193.123 70.432 136.398 70.432 132.436C70.432 128.474 82.388 147.209 84.38 158.368C86.372 169.527 88.365 192.442 88.365 192.442C88.8294 193.39 89.5787 194.168 90.5078 194.668C91.4369 195.169 92.4993 195.366 93.546 195.232C97.332 194.832 100.321 192.841 100.321 190.649C100.321 188.457 101.716 153.387 98.727 143.822C95.738 134.257 84.978 107.556 81.192 104.567C77.406 101.578 52.82 105.624 52.82 105.624" fill="#3A3E3F"/>
<path d="M49.752 86.525C49.752 86.525 47.315 98.475 47.944 99.575C48.573 100.675 52.818 105.628 52.818 105.628L55.805 87.468L49.752 86.525Z" fill="white"/>
<path d="M52.819 105.993C52.7666 105.993 52.7148 105.982 52.6672 105.96C52.6195 105.938 52.5772 105.906 52.543 105.866C52.369 105.666 48.268 100.874 47.629 99.7561C46.99 98.6381 48.818 89.2871 49.397 86.4561C49.4155 86.3642 49.4688 86.283 49.5457 86.2295C49.6227 86.176 49.7174 86.1543 49.81 86.1691L55.863 87.1121C55.9102 87.1199 55.9555 87.1368 55.9961 87.1621C56.0368 87.1874 56.072 87.2205 56.0999 87.2594C56.1278 87.2983 56.1477 87.3423 56.1585 87.389C56.1693 87.4356 56.1709 87.4839 56.163 87.5311L53.176 105.691C53.1647 105.759 53.1341 105.823 53.0879 105.875C53.0416 105.926 52.9817 105.963 52.915 105.982C52.8825 105.991 52.8488 105.996 52.815 105.996M50.037 86.9421C48.893 92.6051 47.927 98.7311 48.258 99.4001C48.734 100.233 51.441 103.452 52.583 104.8L55.383 87.7771L50.037 86.9421Z" fill="#510394"/>
<path d="M89.457 79.994L96.292 87.4051C96.292 87.4051 109.243 78.6271 110.613 76.0341C111.983 73.4411 116.369 69.127 116.369 69.127L115.002 72.7271L120.902 67.691L118.456 71.864L123.78 67.3311L119.895 73.1591L123.78 70.497L120.398 75.0301L123.492 73.015L119.535 77.692C117.692 78.4087 115.889 79.2253 114.135 80.1381C111.905 81.3611 101.041 95.247 96.22 95.679C91.399 96.111 84.42 84.023 84.42 84.023L89.457 79.994Z" fill="white"/>
<path d="M95.972 96.053C91.005 96.053 84.39 84.697 84.105 84.204C84.0615 84.1285 84.0465 84.0399 84.0626 83.9542C84.0787 83.8686 84.125 83.7915 84.193 83.737L89.23 79.708C89.3019 79.6504 89.3929 79.6222 89.4848 79.629C89.5766 79.6359 89.6625 79.6773 89.725 79.745L96.348 86.925C100.871 83.847 109.261 77.812 110.289 75.865C111.667 73.255 115.93 69.046 116.112 68.865C116.171 68.8038 116.249 68.765 116.333 68.7552C116.417 68.7455 116.502 68.7653 116.573 68.8114C116.644 68.8575 116.697 68.9269 116.722 69.0076C116.747 69.0884 116.744 69.1755 116.712 69.254L115.85 71.522L120.668 67.409C120.733 67.3526 120.817 67.3213 120.903 67.3206C120.989 67.32 121.073 67.3501 121.139 67.4055C121.205 67.4609 121.25 67.538 121.264 67.6231C121.279 67.7082 121.263 67.7957 121.219 67.87L119.861 70.187L123.547 67.049C123.614 66.992 123.699 66.961 123.787 66.9619C123.875 66.9628 123.959 66.9955 124.025 67.0538C124.091 67.1122 124.133 67.1923 124.144 67.2795C124.155 67.3666 124.135 67.4549 124.086 67.528L121.245 71.79L123.578 70.19C123.649 70.1394 123.736 70.116 123.823 70.124C123.909 70.1321 123.991 70.171 124.051 70.2337C124.112 70.2964 124.148 70.3788 124.153 70.4658C124.158 70.5529 124.131 70.6388 124.078 70.708L121.919 73.608L123.301 72.708C123.374 72.6608 123.462 72.6414 123.548 72.6534C123.635 72.6653 123.714 72.7079 123.771 72.7732C123.829 72.8386 123.861 72.9224 123.862 73.0095C123.863 73.0967 123.833 73.1813 123.777 73.248L119.82 77.925C119.78 77.97 119.73 78.0043 119.673 78.025C117.847 78.7366 116.06 79.5464 114.321 80.451C112.723 81.7759 111.241 83.2345 109.891 84.811C105.559 89.421 99.626 95.734 96.264 96.035C96.171 96.043 96.077 96.047 95.983 96.047M84.895 84.109C86.0813 86.0808 87.3864 87.9786 88.803 89.792C91.792 93.57 94.346 95.484 96.188 95.315C99.275 95.039 105.338 88.587 109.35 84.315C110.739 82.6708 112.283 81.1639 113.961 79.815C115.7 78.9078 117.487 78.0956 119.314 77.382L121.608 74.67L120.594 75.33C120.522 75.3772 120.436 75.3976 120.351 75.3876C120.266 75.3775 120.187 75.3377 120.128 75.2752C120.07 75.2127 120.035 75.1314 120.03 75.0457C120.026 74.96 120.051 74.8755 120.103 74.807L122.173 72.032L120.097 73.455C120.027 73.502 119.944 73.5236 119.86 73.5159C119.776 73.5083 119.698 73.472 119.638 73.4131C119.578 73.3542 119.54 73.2765 119.531 73.193C119.522 73.1095 119.542 73.0254 119.588 72.955L122.027 69.296L118.688 72.139C118.623 72.1954 118.539 72.2267 118.453 72.2273C118.367 72.228 118.283 72.1979 118.217 72.1425C118.15 72.0871 118.106 72.01 118.092 71.9249C118.077 71.8398 118.093 71.7523 118.137 71.678L119.491 69.368L115.234 73.002C115.173 73.0547 115.095 73.0853 115.014 73.0892C114.934 73.093 114.854 73.0698 114.788 73.0233C114.721 72.9767 114.673 72.9094 114.649 72.832C114.625 72.7547 114.628 72.6716 114.657 72.596L115.403 70.634C113.711 72.3204 112.212 74.1888 110.931 76.205C109.537 78.845 97.031 87.344 96.495 87.705C96.4229 87.754 96.3356 87.7755 96.249 87.7656C96.1623 87.7557 96.0821 87.715 96.023 87.651L89.418 80.49L84.895 84.109Z" fill="#510394"/>
<path d="M64.791 64.457C57.673 65.319 53.232 72.235 50.034 79.431C46.836 86.627 46.234 86.631 46.834 87.731C47.434 88.831 52.434 90.131 53.134 89.631C53.134 89.631 51.534 102.723 51.034 106.32C50.534 109.917 56.401 112.22 67.958 111.52C79.515 110.82 83.713 110.02 84.912 105.22C86.111 100.42 81.712 86.232 82.012 86.232C82.312 86.232 85.112 87.432 88.712 84.032C92.312 80.632 91.412 78.332 91.412 78.332C91.412 78.332 87.742 73.996 85.912 71.732C81.757 66.591 77.459 63.538 71.126 63.996L64.791 64.457Z" fill="#00B2CA"/>
<path d="M70.438 57.822L71.125 64.003C70.2189 64.7202 69.0779 65.0739 67.925 64.995C65.712 64.995 64.796 64.695 64.796 64.461C64.796 64.227 66.322 57.135 66.322 57.135L70.438 57.822Z" fill="white"/>
<path d="M67.92 65.3591C64.427 65.3591 64.427 64.6831 64.427 64.4591C64.427 64.2351 65.388 59.7211 65.961 57.0591C65.9808 56.9676 66.035 56.8871 66.1125 56.8345C66.1899 56.7818 66.2846 56.7609 66.377 56.7761L70.498 57.4631C70.5759 57.4765 70.6472 57.5149 70.7014 57.5724C70.7555 57.63 70.7894 57.7036 70.798 57.7821L71.485 63.9631C71.4921 64.0174 71.4867 64.0726 71.4694 64.1245C71.4521 64.1765 71.4232 64.2239 71.385 64.2631C70.4108 65.0528 69.1744 65.4457 67.923 65.3631M65.181 64.3421C66.0721 64.5929 66.9991 64.6916 67.923 64.6341C68.9227 64.6785 69.9106 64.404 70.744 63.8501L70.109 58.1381L66.603 57.5541C66.061 60.0761 65.323 63.5541 65.181 64.3411" fill="#510394"/>
<path d="M68.131 59.089C67.419 62.054 67.012 62.776 64.676 62.733C62.34 62.69 59.857 59.482 57.776 58.727C55.695 57.972 54.5 48.995 58.665 46.619C62.83 44.243 65.931 39.184 70.04 41.569C74.149 43.954 69.249 53.686 68.412 54.587C67.575 55.488 68.126 59.087 68.126 59.087" fill="#510394"/>
<path d="M69.64 45.3611C69.64 45.3611 75.509 48.2081 75.234 49.1161C74.959 50.0241 74.593 50.5361 74.811 51.2401C75.029 51.9441 77.543 57.3321 75.142 58.6851C72.741 60.0381 67.495 60.1381 67.057 59.7161C66.7042 59.3147 66.406 58.8685 66.17 58.3891C66.17 58.3891 63.531 58.6511 63.136 57.4221C62.741 56.1931 63.374 54.9901 64.036 55.1321C64.698 55.2741 64.777 56.1061 65.195 55.9321C65.613 55.7581 64.514 54.5571 64.762 54.1541C65.01 53.7511 69.475 52.1701 69.642 45.3621" fill="white"/>
<path d="M68.749 60.304C68.0839 60.3739 67.4123 60.263 66.805 59.983C66.4705 59.6194 66.186 59.2128 65.9589 58.774C65.2159 58.813 63.196 58.801 62.79 57.537C62.6492 57.1372 62.6097 56.7088 62.675 56.29C62.7403 55.8712 62.9083 55.475 63.164 55.137C63.2755 54.9983 63.4222 54.8922 63.5888 54.8298C63.7554 54.7673 63.9358 54.7508 64.111 54.782C64.2704 54.8177 64.4209 54.8858 64.553 54.982C64.454 54.8358 64.393 54.6673 64.3756 54.4917C64.3581 54.316 64.3847 54.1388 64.453 53.976C64.5962 53.8012 64.7747 53.6588 64.977 53.558C66.117 52.828 69.145 50.888 69.277 45.365C69.2784 45.3041 69.2951 45.2444 69.3255 45.1916C69.356 45.1387 69.3992 45.0944 69.4513 45.0627C69.5034 45.0309 69.5626 45.0127 69.6235 45.0098C69.6844 45.0069 69.7451 45.0194 69.7999 45.046C69.8149 45.053 71.3 45.773 72.723 46.595C75.309 48.085 75.7369 48.727 75.5839 49.234C75.5069 49.487 75.424 49.711 75.35 49.909C75.1436 50.2856 75.0767 50.7229 75.161 51.144C75.184 51.217 75.245 51.373 75.322 51.571C75.974 53.239 77.707 57.671 75.322 59.014C73.7721 59.7312 72.1001 60.1472 70.395 60.24C70.243 60.253 69.517 60.311 68.75 60.311M67.295 59.45C67.846 59.717 72.662 59.677 74.964 58.379C76.797 57.347 75.176 53.199 74.643 51.836C74.557 51.617 74.495 51.459 74.465 51.36C74.323 50.7859 74.3941 50.1798 74.665 49.654C74.735 49.467 74.807 49.275 74.874 49.054C74.699 48.554 72.31 47.11 69.98 45.943C69.649 51.422 66.555 53.405 65.366 54.166C65.266 54.231 65.154 54.302 65.09 54.348C65.1553 54.5537 65.2418 54.7521 65.348 54.94C65.548 55.34 65.729 55.68 65.618 55.98C65.594 56.0474 65.556 56.109 65.5066 56.1607C65.4571 56.2124 65.3973 56.2531 65.331 56.28C64.863 56.473 64.571 56.089 64.414 55.88C64.3129 55.7014 64.1505 55.5653 63.957 55.497C63.857 55.476 63.757 55.57 63.702 55.628C63.5305 55.8709 63.4209 56.152 63.3826 56.4468C63.3442 56.7416 63.3783 57.0414 63.482 57.32C63.73 58.093 65.525 58.096 66.133 58.037C66.2064 58.03 66.2803 58.0453 66.3449 58.081C66.4095 58.1167 66.4618 58.1711 66.495 58.237C66.709 58.6731 66.9779 59.08 67.295 59.448" fill="#510394"/>
<path d="M86.809 198.804C84.618 199.781 86.387 201.414 85.924 202.89C85.461 204.366 84.448 206.09 85.545 208.708C86.642 211.326 92.558 211.051 97.901 211.121C103.244 211.191 111.117 211.473 112.101 209.153C113.085 206.833 108.094 205.287 107.18 204.232C106.266 203.177 101.81 199.957 100.855 198.803C99.9 197.649 96.886 196.033 96.299 198.311C95.712 200.589 97.088 201.911 98.641 202.022C98.641 202.022 95.821 204.557 94.278 204.337C92.735 204.117 92.735 201.137 91.853 200.993C90.971 200.849 90.753 201.581 89.575 200.919C88.397 200.257 87.684 198.413 86.81 198.802" fill="#00B2CA"/>
<path d="M62.01 203.762C60.924 203.762 60.336 205.496 58.51 205.583C56.684 205.67 59.342 209.019 61.865 208.932C64.388 208.845 67.514 205.31 65.411 205.332C63.547 205.354 63.111 203.759 62.011 203.759" fill="#00B2CA"/>
<path d="M266.323 210.518H242.669C242.287 210.518 241.918 210.377 241.634 210.123C241.349 209.869 241.167 209.519 241.124 209.139L237.393 176.307H271.604L267.873 209.136C267.83 209.516 267.648 209.866 267.363 210.12C267.078 210.374 266.71 210.515 266.328 210.515" fill="#00B2CA"/>
<path d="M271.603 176.696C271.603 177.77 263.945 178.64 254.503 178.64C245.061 178.64 237.397 177.77 237.397 176.696C237.397 175.622 245.055 174.752 254.503 174.752C263.951 174.752 271.603 175.622 271.603 176.696Z" fill="#1C2B6B"/>
<path d="M252.946 113.328C243.616 114.105 246.726 142.096 246.726 142.096C249.059 166.196 252.169 177.085 254.501 177.862C256.833 178.639 261.501 143.651 261.501 135.098C261.501 135.098 262.278 112.55 252.948 113.327" fill="#1E3286"/>
<path d="M254.107 173.975H254.059C253.957 173.963 253.863 173.91 253.8 173.829C253.736 173.748 253.708 173.644 253.72 173.542C256.788 148.223 252.981 116.417 252.942 116.099C252.933 115.998 252.963 115.898 253.026 115.819C253.09 115.74 253.182 115.689 253.282 115.677C253.383 115.664 253.484 115.692 253.565 115.753C253.645 115.814 253.699 115.905 253.714 116.005C253.753 116.324 257.572 148.224 254.491 173.635C254.48 173.729 254.434 173.816 254.363 173.879C254.292 173.942 254.201 173.977 254.106 173.977" fill="white"/>
<path d="M224.953 100.105C224.176 103.993 228.841 104.77 229.618 110.213C230.395 115.656 228.063 117.213 228.841 120.321C229.619 123.429 234.284 124.208 235.061 131.984C235.838 139.76 232.728 138.984 233.506 143.647C234.284 148.31 238.949 148.312 239.726 152.2C240.503 156.088 240.504 161.53 242.059 166.2C243.614 170.87 248.279 177.863 250.612 177.863C252.945 177.863 259.165 164.645 257.612 160.758C256.059 156.871 253.724 156.093 253.724 152.983C253.724 149.873 256.834 142.098 256.057 136.655C255.28 131.212 248.282 128.88 247.504 124.992C246.726 121.104 249.059 110.992 243.616 106.331C238.173 101.67 225.733 96.223 224.955 100.111" fill="#FA6E53"/>
<path d="M298.822 108.662C301.571 111.411 292.602 112.55 291.822 117.992C291.042 123.434 291.045 125.767 287.934 128.877C284.823 131.987 280.159 132.764 280.934 137.43C281.709 142.096 283.267 146.76 280.934 149.093C278.601 151.426 273.159 151.426 271.604 155.313C270.049 159.2 270.827 163.866 267.717 167.753C264.607 171.64 259.942 179.416 256.054 177.861C252.166 176.306 254.499 158.423 256.054 155.313C257.609 152.203 259.164 149.87 259.164 147.538C259.164 145.206 258.387 141.318 259.941 137.43C261.495 133.542 270.049 131.987 270.826 129.655C271.603 127.323 272.381 114.882 277.046 111.772C281.711 108.662 294.146 103.997 298.817 108.662" fill="#40CD8A"/>
<path d="M257.263 176.529C257.194 176.529 257.126 176.511 257.067 176.476C257.007 176.442 256.958 176.392 256.924 176.332C256.89 176.272 256.873 176.204 256.874 176.135C256.875 176.066 256.894 175.999 256.93 175.94C256.961 175.888 260.076 170.681 260.73 168.049C260.899 167.371 261.104 166.349 261.34 165.155C262.199 160.839 263.498 154.316 265.497 152.318C268.397 149.418 273.035 140.531 276.284 129.16C280.284 115.15 293.519 111.051 293.652 111.011C293.75 110.985 293.854 110.998 293.942 111.047C294.031 111.097 294.096 111.178 294.125 111.275C294.154 111.372 294.144 111.477 294.098 111.566C294.051 111.656 293.971 111.724 293.875 111.756C293.746 111.795 280.915 115.783 277.032 129.373C273.747 140.873 269.019 149.895 266.048 152.867C264.216 154.699 262.894 161.339 262.104 165.307C261.865 166.507 261.659 167.541 261.485 168.237C260.799 170.981 257.724 176.122 257.593 176.337C257.559 176.395 257.51 176.442 257.451 176.476C257.393 176.509 257.327 176.526 257.26 176.526" fill="white"/>
<path d="M250.567 174.827C250.464 174.827 250.365 174.786 250.292 174.713C250.219 174.641 250.178 174.542 250.178 174.439C250.178 174.339 250.111 164.239 247.15 161.273C244.15 158.273 242.432 149.073 241.594 131.473C240.832 115.473 229.366 102.297 229.25 102.165C229.214 102.127 229.185 102.082 229.166 102.033C229.148 101.984 229.139 101.932 229.141 101.879C229.144 101.827 229.156 101.775 229.179 101.728C229.201 101.68 229.233 101.638 229.273 101.603C229.312 101.569 229.358 101.542 229.408 101.526C229.458 101.509 229.511 101.503 229.563 101.507C229.615 101.512 229.666 101.527 229.713 101.552C229.759 101.576 229.8 101.61 229.833 101.651C229.951 101.784 241.595 115.159 242.37 131.435C243.188 148.599 244.881 157.906 247.7 160.724C250.887 163.911 250.954 174.009 250.956 174.437C250.956 174.54 250.916 174.639 250.843 174.712C250.771 174.785 250.672 174.826 250.569 174.827H250.567Z" fill="white"/>
<g opacity="0.59">
<mask id="mask7_3_4577" style="mask-type:luminance" maskUnits="userSpaceOnUse" x="128" y="76" width="74" height="60">
<path d="M201.296 76.2571H128.681V135.388H201.296V76.2571Z" fill="white"/>
</mask>
<g mask="url(#mask7_3_4577)">
<path d="M195.174 135.386H134.802C133.179 135.386 131.622 134.741 130.474 133.593C129.326 132.445 128.681 130.888 128.681 129.265V82.3791C128.681 80.7556 129.326 79.1986 130.474 78.0505C131.622 76.9025 133.178 76.2573 134.802 76.2571H195.174C196.798 76.2571 198.355 76.9021 199.503 78.0502C200.651 79.1983 201.296 80.7554 201.296 82.3791V129.266C201.296 130.89 200.651 132.447 199.503 133.595C198.355 134.743 196.798 135.388 195.174 135.388" fill="#F6EEFF"/>
</g>
</g>
<g opacity="0.59">
<mask id="mask8_3_4577" style="mask-type:luminance" maskUnits="userSpaceOnUse" x="128" y="27" width="74" height="41">
<path d="M201.296 27.3201H128.681V67.8691H201.296V27.3201Z" fill="white"/>
</mask>
<g mask="url(#mask8_3_4577)">
<path d="M195.174 67.8691H134.802C133.179 67.8688 131.622 67.2238 130.474 66.076C129.326 64.9281 128.681 63.3714 128.681 61.7481V33.4421C128.681 31.8186 129.326 30.2616 130.474 29.1135C131.622 27.9654 133.178 27.3203 134.802 27.3201H195.174C196.798 27.3201 198.355 27.9651 199.503 29.1132C200.651 30.2613 201.296 31.8184 201.296 33.4421V61.7481C201.296 63.3717 200.651 64.9289 199.503 66.077C198.355 67.2251 196.798 67.8701 195.174 67.8701" fill="#F6EEFF"/>
</g>
</g>
<g opacity="0.59">
<mask id="mask9_3_4577" style="mask-type:luminance" maskUnits="userSpaceOnUse" x="128" y="144" width="74" height="41">
<path d="M201.296 144.005H128.681V184.554H201.296V144.005Z" fill="white"/>
</mask>
<g mask="url(#mask9_3_4577)">
<path d="M195.174 184.554H134.802C133.179 184.554 131.622 183.909 130.474 182.761C129.326 181.613 128.681 180.056 128.681 178.433V150.127C128.681 148.503 129.326 146.946 130.474 145.798C131.622 144.65 133.178 144.005 134.802 144.005H195.174C196.798 144.005 198.355 144.65 199.503 145.798C200.651 146.946 201.296 148.503 201.296 150.127V178.433C201.296 180.057 200.651 181.614 199.503 182.762C198.355 183.91 196.798 184.555 195.174 184.555" fill="#F6EEFF"/>
</g>
</g>
<g opacity="0.59">
<mask id="mask10_3_4577" style="mask-type:luminance" maskUnits="userSpaceOnUse" x="137" y="35" width="25" height="25">
<path d="M161.909 35.297H137.38V59.892H161.909V35.297Z" fill="white"/>
</mask>
<g mask="url(#mask10_3_4577)">
<path d="M161.876 45.375L159.741 38.464C159.712 38.3702 159.665 38.2832 159.601 38.2083C159.538 38.1333 159.46 38.072 159.372 38.028L154.072 35.377C153.957 35.3196 153.828 35.2941 153.699 35.303H153.668C153.258 36.0081 152.671 36.5933 151.964 37.0001C151.257 37.4068 150.456 37.6209 149.641 37.6209C148.825 37.6209 148.024 37.4068 147.317 37.0001C146.61 36.5933 146.023 36.0081 145.613 35.303H145.587C145.458 35.2941 145.33 35.3196 145.214 35.377L139.914 38.028C139.826 38.072 139.748 38.1333 139.685 38.2083C139.622 38.2832 139.574 38.3702 139.545 38.464L137.41 45.375C137.36 45.5358 137.368 45.7089 137.431 45.8647C137.495 46.0206 137.61 46.1497 137.758 46.23L141.419 48.219V55.459C141.415 56.1679 141.627 56.8612 142.025 57.4477C142.423 58.0343 142.989 58.4865 143.649 58.745C145.558 59.4972 147.591 59.8872 149.643 59.895C151.721 59.8836 153.78 59.4911 155.717 58.737C156.379 58.476 156.947 58.0225 157.349 57.4351C157.75 56.8478 157.966 56.1535 157.969 55.442V48.163L161.527 46.229C161.675 46.1487 161.79 46.0196 161.854 45.8637C161.917 45.7079 161.925 45.5348 161.875 45.374" fill="#BB88FC"/>
</g>
</g>
<path d="M191.254 40.4701H170.477C170.121 40.4701 169.779 40.3285 169.527 40.0766C169.275 39.8246 169.133 39.4829 169.133 39.1266C169.133 38.7703 169.275 38.4285 169.527 38.1766C169.779 37.9246 170.121 37.7831 170.477 37.7831H191.253C191.603 37.7926 191.935 37.9384 192.18 38.1893C192.424 38.4402 192.56 38.7765 192.56 39.1266C192.56 39.4767 192.424 39.813 192.18 40.0639C191.935 40.3148 191.603 40.4605 191.253 40.4701" fill="#BB88FC"/>
<path d="M181.773 47.5901H170.473C170.117 47.5901 169.775 47.4485 169.523 47.1966C169.271 46.9446 169.13 46.6029 169.13 46.2466C169.13 45.8903 169.271 45.5485 169.523 45.2966C169.775 45.0446 170.117 44.9031 170.473 44.9031H181.773C182.123 44.9126 182.455 45.0584 182.7 45.3093C182.944 45.5602 183.08 45.8965 183.08 46.2466C183.08 46.5967 182.944 46.933 182.7 47.1839C182.455 47.4348 182.123 47.5805 181.773 47.5901Z" fill="#BB88FC"/>
<path d="M191.254 157.154H170.477C170.297 157.159 170.119 157.128 169.952 157.063C169.784 156.997 169.632 156.899 169.503 156.774C169.374 156.649 169.272 156.499 169.202 156.333C169.132 156.168 169.096 155.99 169.096 155.811C169.096 155.631 169.132 155.453 169.202 155.288C169.272 155.122 169.374 154.973 169.503 154.847C169.632 154.722 169.784 154.624 169.952 154.559C170.119 154.493 170.297 154.462 170.477 154.467H191.253C191.603 154.477 191.935 154.622 192.18 154.873C192.424 155.124 192.56 155.46 192.56 155.811C192.56 156.161 192.424 156.497 192.18 156.748C191.935 156.999 191.603 157.145 191.253 157.154" fill="#BB88FC"/>
<path d="M181.773 164.28H170.473C170.123 164.27 169.791 164.125 169.546 163.874C169.302 163.623 169.166 163.287 169.166 162.937C169.166 162.586 169.302 162.25 169.546 161.999C169.791 161.748 170.123 161.603 170.473 161.593H181.773C182.123 161.603 182.455 161.748 182.7 161.999C182.944 162.25 183.08 162.586 183.08 162.937C183.08 163.287 182.944 163.623 182.7 163.874C182.455 164.125 182.123 164.27 181.773 164.28Z" fill="#BB88FC"/>
<path d="M191.254 118.763H138.723C138.373 118.754 138.041 118.608 137.796 118.357C137.552 118.106 137.416 117.77 137.416 117.42C137.416 117.069 137.552 116.733 137.796 116.482C138.041 116.231 138.373 116.086 138.723 116.076H191.254C191.604 116.086 191.936 116.231 192.181 116.482C192.425 116.733 192.561 117.069 192.561 117.42C192.561 117.77 192.425 118.106 192.181 118.357C191.936 118.608 191.604 118.754 191.254 118.763Z" fill="#BB88FC"/>
<path d="M168.942 125.888H138.723C138.367 125.888 138.025 125.746 137.773 125.495C137.521 125.243 137.379 124.901 137.379 124.545C137.379 124.188 137.521 123.846 137.773 123.595C138.025 123.343 138.367 123.201 138.723 123.201H168.942C169.292 123.211 169.624 123.356 169.869 123.607C170.113 123.858 170.249 124.194 170.249 124.545C170.249 124.895 170.113 125.231 169.869 125.482C169.624 125.733 169.292 125.878 168.942 125.888Z" fill="#BB88FC"/>
<path d="M142.164 107.446C142.164 107.919 142.024 108.382 141.761 108.775C141.498 109.168 141.124 109.475 140.687 109.656C140.25 109.837 139.769 109.884 139.305 109.792C138.841 109.7 138.415 109.472 138.081 109.137C137.746 108.803 137.518 108.377 137.426 107.913C137.334 107.449 137.381 106.968 137.562 106.531C137.743 106.094 138.05 105.72 138.443 105.457C138.836 105.194 139.299 105.054 139.772 105.054C140.406 105.054 141.015 105.306 141.463 105.755C141.912 106.203 142.164 106.812 142.164 107.446Z" fill="#BB88FC"/>
<path d="M154.422 107.446C154.422 107.919 154.282 108.382 154.019 108.775C153.756 109.168 153.382 109.475 152.945 109.656C152.508 109.837 152.027 109.884 151.563 109.792C151.099 109.7 150.673 109.472 150.339 109.137C150.004 108.803 149.776 108.377 149.684 107.913C149.592 107.449 149.639 106.968 149.82 106.531C150.001 106.094 150.308 105.72 150.701 105.457C151.094 105.194 151.557 105.054 152.03 105.054C152.664 105.054 153.273 105.306 153.721 105.755C154.17 106.203 154.422 106.812 154.422 107.446Z" fill="#BB88FC"/>
<g opacity="0.59">
<mask id="mask11_3_4577" style="mask-type:luminance" maskUnits="userSpaceOnUse" x="214" y="27" width="74" height="41">
<path d="M287.263 27.3201H214.648V67.8691H287.263V27.3201Z" fill="white"/>
</mask>
<g mask="url(#mask11_3_4577)">
<path d="M281.142 67.8691H220.769C219.146 67.8688 217.589 67.2238 216.441 66.076C215.293 64.9281 214.648 63.3714 214.648 61.7481V33.4421C214.648 31.8186 215.293 30.2616 216.441 29.1135C217.589 27.9654 219.145 27.3203 220.769 27.3201H281.141C282.765 27.3201 284.322 27.9651 285.47 29.1132C286.618 30.2613 287.263 31.8184 287.263 33.4421V61.7481C287.263 63.3717 286.618 64.9289 285.47 66.077C284.322 67.2251 282.765 67.8701 281.141 67.8701" fill="white"/>
</g>
</g>
<path d="M277.225 40.4701H256.445C256.089 40.4701 255.747 40.3285 255.495 40.0766C255.243 39.8246 255.101 39.4829 255.101 39.1266C255.101 38.7703 255.243 38.4285 255.495 38.1766C255.747 37.9246 256.089 37.7831 256.445 37.7831H277.221C277.571 37.7926 277.903 37.9384 278.148 38.1893C278.392 38.4402 278.528 38.7765 278.528 39.1266C278.528 39.4767 278.392 39.813 278.148 40.0639C277.903 40.3148 277.571 40.4605 277.221 40.4701" fill="#BB88FC"/>
<path d="M267.745 47.5901H256.445C256.089 47.5901 255.747 47.4485 255.495 47.1966C255.243 46.9446 255.101 46.6029 255.101 46.2466C255.101 45.8903 255.243 45.5486 255.495 45.2966C255.747 45.0446 256.089 44.9031 256.445 44.9031H267.745C267.925 44.8982 268.103 44.9293 268.271 44.9946C268.438 45.0599 268.59 45.1581 268.719 45.2834C268.848 45.4086 268.95 45.5584 269.02 45.7238C269.09 45.8893 269.126 46.067 269.126 46.2466C269.126 46.4262 269.09 46.6039 269.02 46.7694C268.95 46.9348 268.848 47.0846 268.719 47.2098C268.59 47.335 268.438 47.4332 268.271 47.4985C268.103 47.5639 267.925 47.595 267.745 47.5901Z" fill="#BB88FC"/>
<g opacity="0.59">
<path d="M189.169 83.291H193.088C193.092 83.2911 193.096 83.2927 193.1 83.2954C193.103 83.2981 193.105 83.3019 193.106 83.306L193.375 84.601C193.376 84.6038 193.376 84.6067 193.375 84.6095C193.374 84.6123 193.373 84.6149 193.371 84.6171C193.369 84.6193 193.367 84.6211 193.364 84.6223C193.362 84.6235 193.359 84.6241 193.356 84.624H188.887C188.884 84.6239 188.881 84.6232 188.879 84.622C188.876 84.6207 188.874 84.6189 188.873 84.6167C188.871 84.6145 188.87 84.612 188.869 84.6093C188.868 84.6066 188.868 84.6037 188.869 84.601L189.15 83.301C189.151 83.2967 189.153 83.2928 189.157 83.2901C189.16 83.2874 189.165 83.2859 189.169 83.286V83.291Z" fill="#BB88FC"/>
<path d="M188.781 85.079H193.459C193.463 85.0789 193.468 85.0803 193.471 85.0831C193.475 85.0858 193.477 85.0897 193.478 85.094L194.227 88.714C194.228 88.7168 194.228 88.7197 194.227 88.7225C194.226 88.7253 194.225 88.7279 194.223 88.7301C194.221 88.7323 194.219 88.7341 194.216 88.7353C194.214 88.7365 194.211 88.737 194.208 88.737H187.995C187.992 88.737 187.989 88.7365 187.987 88.7353C187.984 88.7341 187.982 88.7323 187.98 88.7301C187.978 88.7279 187.977 88.7253 187.976 88.7225C187.975 88.7197 187.975 88.7168 187.976 88.714L188.762 85.094C188.763 85.0897 188.765 85.0858 188.769 85.0831C188.772 85.0803 188.777 85.0789 188.781 85.079Z" fill="#BB88FC"/>
<path d="M191.53 108.291C191.992 108.295 192.454 108.295 192.916 108.291C193.183 108.274 193.45 108.3 193.709 108.368C193.846 108.425 193.969 108.512 194.067 108.622C194.166 108.733 194.239 108.865 194.279 109.008C194.281 109.011 194.282 109.015 194.282 109.018C194.282 109.022 194.281 109.026 194.279 109.029C194.277 109.032 194.274 109.034 194.271 109.036C194.267 109.038 194.264 109.039 194.26 109.039H188.01C187.985 109.039 187.977 109.027 187.984 109.004C188.023 108.866 188.092 108.738 188.186 108.629C188.28 108.521 188.397 108.435 188.528 108.377C188.75 108.308 188.982 108.279 189.214 108.292H190.73C190.734 108.292 190.738 108.292 190.741 108.291C190.745 108.29 190.748 108.288 190.751 108.285C190.754 108.282 190.756 108.279 190.757 108.275C190.758 108.272 190.758 108.268 190.758 108.264V89.214C190.758 89.2086 190.76 89.2034 190.764 89.1995C190.768 89.1955 190.773 89.1932 190.778 89.193H191.478C191.482 89.1923 191.487 89.1926 191.491 89.194C191.495 89.1954 191.499 89.1977 191.502 89.2008C191.505 89.2039 191.508 89.2078 191.509 89.2119C191.51 89.2161 191.511 89.2206 191.51 89.225V108.265C191.509 108.271 191.511 108.277 191.515 108.282C191.519 108.287 191.524 108.29 191.53 108.291Z" fill="#BB88FC"/>
<path d="M181.517 93.498C182.078 93.485 182.626 93.6674 183.068 94.014C183.51 94.3606 183.817 94.8498 183.938 95.398C183.995 95.7731 184.017 96.1527 184.004 96.532V98.977C184.005 99.1363 183.986 99.2952 183.948 99.45C183.807 100.023 183.663 100.596 183.515 101.167C183.514 101.175 183.509 101.182 183.503 101.186C183.497 101.191 183.489 101.194 183.481 101.193H171.028C171.024 101.193 171.019 101.191 171.016 101.189C171.013 101.186 171.01 101.182 171.009 101.178C170.867 100.605 170.724 100.03 170.581 99.453C170.542 99.2956 170.522 99.1341 170.522 98.972C170.519 97.8953 170.519 96.819 170.522 95.743C170.529 95.554 170.566 95.3674 170.632 95.19C170.762 94.7859 170.997 94.4232 171.311 94.1382C171.626 93.8532 172.01 93.6558 172.425 93.566C172.8 93.5106 173.18 93.4888 173.559 93.5009C177.735 93.5009 180.388 93.5 181.517 93.498ZM172.511 95.2769C172.511 95.2202 172.488 95.1658 172.448 95.1256C172.408 95.0855 172.354 95.063 172.297 95.063H171.911C171.854 95.063 171.8 95.0855 171.76 95.1256C171.72 95.1658 171.697 95.2202 171.697 95.2769V95.3029C171.697 95.3597 171.72 95.4141 171.76 95.4543C171.8 95.4944 171.854 95.517 171.911 95.517H172.294C172.351 95.517 172.405 95.4944 172.445 95.4543C172.485 95.4141 172.508 95.3597 172.508 95.3029L172.511 95.2769ZM177.743 95.2769C177.743 95.2197 177.72 95.1647 177.68 95.1242C177.639 95.0837 177.584 95.061 177.527 95.061H173.477C173.42 95.061 173.365 95.0837 173.324 95.1242C173.284 95.1647 173.261 95.2197 173.261 95.2769V95.299C173.261 95.3562 173.284 95.4112 173.324 95.4517C173.365 95.4922 173.42 95.515 173.477 95.515H177.527C177.584 95.515 177.639 95.4922 177.68 95.4517C177.72 95.4112 177.743 95.3562 177.743 95.299V95.2769Z" fill="#BB88FC"/>
<path d="M171.231 103.694C171.348 103.855 171.501 103.985 171.679 104.074C171.856 104.163 172.052 104.208 172.251 104.205C175.544 104.2 178.838 104.197 182.132 104.196C182.361 104.226 182.593 104.19 182.803 104.094C183.012 103.997 183.191 103.844 183.317 103.651C183.426 103.439 183.504 103.213 183.549 102.979L184.311 99.813C184.345 99.6194 184.413 99.4333 184.511 99.263C184.578 99.1745 184.665 99.1038 184.766 99.0571C184.867 99.0104 184.977 98.989 185.088 98.995H186.257C186.902 98.995 187.176 99.409 187.028 100.02L186.028 104.169C185.959 104.495 185.855 104.813 185.719 105.118C185.54 105.497 185.275 105.829 184.945 106.088C184.615 106.347 184.23 106.525 183.819 106.609C183.519 106.667 183.214 106.692 182.909 106.684H171.298C170.77 106.681 170.254 106.529 169.809 106.246C169.364 105.963 169.007 105.56 168.78 105.084C168.638 104.732 168.527 104.368 168.45 103.997C168.132 102.671 167.813 101.345 167.492 100.019C167.44 99.8981 167.422 99.7655 167.439 99.6351C167.455 99.5047 167.506 99.381 167.587 99.277C167.667 99.1729 167.774 99.0922 167.896 99.0432C168.018 98.9941 168.151 98.9785 168.281 98.998C168.86 98.994 169.24 98.994 169.42 98.998C169.905 99.005 170.084 99.288 170.194 99.741C170.465 100.862 170.736 101.984 171.008 103.106C171.048 103.313 171.123 103.512 171.231 103.694Z" fill="#BB88FC"/>
<path d="M172.237 103.742C172.096 103.748 171.957 103.714 171.835 103.643C171.714 103.572 171.616 103.468 171.552 103.342C171.5 103.199 171.458 103.053 171.426 102.905C171.325 102.498 171.227 102.088 171.132 101.675C171.127 101.655 171.135 101.645 171.155 101.645H183.368C183.388 101.645 183.396 101.655 183.391 101.675C183.288 102.127 183.181 102.576 183.068 103.021C183.035 103.199 182.962 103.366 182.855 103.512C182.785 103.589 182.699 103.649 182.603 103.689C182.507 103.729 182.404 103.748 182.3 103.743L172.237 103.742Z" fill="#BB88FC"/>
<path d="M172.293 109.041H171.319C171.316 109.041 171.313 109.041 171.311 109.039C171.308 109.038 171.306 109.036 171.304 109.034C171.302 109.032 171.301 109.029 171.301 109.026C171.3 109.024 171.3 109.021 171.301 109.018L171.801 107.155C171.802 107.151 171.804 107.148 171.807 107.145C171.81 107.143 171.814 107.141 171.818 107.141H173.271C173.274 107.141 173.277 107.142 173.28 107.143C173.283 107.145 173.285 107.147 173.287 107.15C173.289 107.153 173.289 107.156 173.289 107.159C173.289 107.162 173.289 107.165 173.287 107.168L172.304 109.031C172.303 109.033 172.301 109.035 172.3 109.037C172.298 109.039 172.295 109.04 172.293 109.041Z" fill="#BB88FC"/>
<path d="M181.246 107.142H182.702C182.706 107.142 182.71 107.143 182.713 107.146C182.716 107.148 182.718 107.151 182.719 107.155L183.219 109.019C183.22 109.022 183.22 109.024 183.219 109.027C183.218 109.029 183.217 109.032 183.216 109.034C183.214 109.036 183.212 109.038 183.21 109.039C183.207 109.04 183.205 109.041 183.202 109.041H182.228C182.225 109.041 182.221 109.04 182.219 109.038C182.216 109.037 182.213 109.034 182.212 109.031L181.228 107.167C181.227 107.164 181.226 107.161 181.226 107.158C181.226 107.155 181.227 107.153 181.228 107.15C181.23 107.147 181.232 107.145 181.235 107.144C181.237 107.142 181.24 107.141 181.243 107.141L181.246 107.142Z" fill="#BB88FC"/>
</g>
<g opacity="0.59">
<path d="M155.767 154.161L152.343 151.777C152.33 151.768 152.32 151.754 152.317 151.738C152.276 151.632 152.274 151.515 152.31 151.408C152.347 151.3 152.42 151.209 152.517 151.15C152.645 151.092 152.785 151.066 152.925 151.076H155.218C155.609 151.076 155.798 151.201 155.798 151.598V154.144C155.797 154.166 155.786 154.172 155.767 154.161Z" fill="#BB88FC"/>
<path d="M149.652 154.329C147.272 155.98 144.895 157.636 142.52 159.295C142.22 159.505 141.994 159.354 141.805 159.082L140.838 157.692C140.605 157.357 140.83 157.145 141.112 156.948L149.356 151.207C149.433 151.133 149.535 151.088 149.642 151.081C149.749 151.074 149.855 151.104 149.942 151.168L158.229 156.937C158.557 157.165 158.745 157.359 158.48 157.737C158.166 158.19 157.851 158.642 157.534 159.093C157.503 159.166 157.455 159.23 157.394 159.279C157.332 159.329 157.259 159.362 157.181 159.376C157.103 159.39 157.023 159.384 156.948 159.359C156.873 159.334 156.806 159.291 156.752 159.233C154.405 157.591 152.055 155.955 149.701 154.324C149.693 154.32 149.684 154.318 149.676 154.319C149.667 154.32 149.659 154.323 149.652 154.329Z" fill="#BB88FC"/>
<path d="M147.477 158.95C147.417 158.953 147.359 158.968 147.305 158.994C147.252 159.02 147.204 159.056 147.164 159.101C147.124 159.145 147.094 159.197 147.074 159.254C147.055 159.31 147.046 159.37 147.05 159.429C147.054 161.006 147.054 162.586 147.05 164.17C147.05 164.177 147.047 164.184 147.042 164.189C147.038 164.194 147.031 164.197 147.024 164.197H143.576C143.573 164.197 143.57 164.197 143.567 164.196C143.564 164.195 143.561 164.193 143.559 164.191C143.557 164.189 143.555 164.186 143.554 164.183C143.553 164.18 143.553 164.177 143.553 164.174V159.663C143.553 159.654 143.555 159.645 143.559 159.638C143.563 159.63 143.569 159.623 143.576 159.618L149.651 155.388C149.657 155.383 149.665 155.381 149.673 155.381C149.681 155.381 149.689 155.383 149.695 155.388L155.768 159.616C155.775 159.621 155.781 159.628 155.785 159.636C155.789 159.643 155.791 159.652 155.791 159.661V164.061C155.791 164.07 155.789 164.079 155.786 164.088C155.782 164.096 155.777 164.104 155.77 164.11L155.057 164.824C155.054 164.827 155.05 164.83 155.046 164.832C155.042 164.833 155.038 164.834 155.033 164.834C155.029 164.834 155.025 164.833 155.021 164.832C155.017 164.83 155.013 164.827 155.01 164.824C154.219 164.288 153.257 164.063 152.31 164.193C152.307 164.193 152.305 164.193 152.303 164.192C152.3 164.191 152.298 164.189 152.297 164.187C152.295 164.186 152.293 164.184 152.292 164.181C152.291 164.179 152.291 164.177 152.291 164.174V159.524C152.291 159.14 152.171 158.945 151.777 158.945L147.477 158.95Z" fill="#BB88FC"/>
<path d="M155.161 166.376C155.289 166.661 155.354 166.971 155.351 167.284C155.349 167.597 155.278 167.906 155.145 168.189C155.013 168.472 154.82 168.723 154.581 168.925C154.342 169.127 154.062 169.275 153.761 169.359C153.482 169.419 153.196 169.445 152.911 169.437H148.542C148.399 169.426 148.256 169.45 148.124 169.505C148.065 169.549 148.017 169.607 147.985 169.673C147.953 169.739 147.937 169.812 147.939 169.885C147.94 169.959 147.96 170.031 147.995 170.096C148.03 170.16 148.08 170.216 148.141 170.257C148.244 170.3 148.356 170.318 148.467 170.311H152.629C152.993 170.321 153.357 170.301 153.717 170.251C154.223 170.161 154.698 169.944 155.098 169.622C155.498 169.299 155.81 168.88 156.005 168.405C156.2 167.929 156.272 167.412 156.213 166.902C156.155 166.391 155.969 165.903 155.672 165.484C155.669 165.481 155.667 165.478 155.665 165.474C155.664 165.47 155.663 165.466 155.663 165.462C155.663 165.458 155.664 165.454 155.665 165.45C155.667 165.446 155.669 165.443 155.672 165.44C156.583 164.529 157.493 163.621 158.402 162.714C158.618 162.493 158.88 162.324 159.17 162.217C159.46 162.111 159.77 162.071 160.077 162.1C160.384 162.128 160.681 162.225 160.946 162.384C161.211 162.542 161.438 162.757 161.609 163.014C161.788 163.316 161.891 163.656 161.908 164.007C161.926 164.357 161.857 164.706 161.709 165.024C161.579 165.286 161.426 165.536 161.253 165.771C160.064 167.48 158.88 169.193 157.701 170.909C157.232 171.611 156.584 172.176 155.824 172.544C155.155 172.838 154.426 172.969 153.697 172.926H146.618C146.571 172.926 146.479 172.933 146.343 172.948C146.333 172.949 146.324 172.948 146.315 172.945C146.306 172.942 146.297 172.936 146.291 172.929L140.261 166.908C140.259 166.906 140.257 166.904 140.256 166.902C140.255 166.9 140.254 166.897 140.254 166.895C140.254 166.892 140.255 166.889 140.256 166.887C140.257 166.885 140.259 166.883 140.261 166.881C140.715 166.332 141.28 165.887 141.92 165.574C142.56 165.262 143.259 165.089 143.971 165.069C146.858 165.074 149.744 165.074 152.63 165.069C152.985 165.057 153.341 165.083 153.691 165.147C154.016 165.22 154.319 165.369 154.575 165.583C154.831 165.797 155.032 166.069 155.161 166.376Z" fill="#BB88FC"/>
<path d="M146.361 174.248L138.749 166.636L135.508 169.877L143.12 177.489L146.361 174.248Z" fill="#BB88FC"/>
</g>
<g opacity="0.59">
<path d="M232.179 36.5151C231.658 37.5529 231.444 38.7178 231.562 39.8731C231.581 40.055 231.627 40.233 231.699 40.4011C231.746 40.4993 231.77 40.6071 231.769 40.7161C231.752 40.8436 231.697 40.9632 231.612 41.0598C231.527 41.1564 231.415 41.2258 231.291 41.2591C231.283 41.2609 231.274 41.2607 231.266 41.2584C231.258 41.2562 231.25 41.2519 231.244 41.2461L231.063 41.0791C231.055 41.0722 231.049 41.0639 231.045 41.0546C231.041 41.0453 231.038 41.0353 231.038 41.0251C231.026 40.7071 230.982 40.3912 230.907 40.0821C230.902 40.0637 230.902 40.0444 230.907 40.0261C230.971 39.8432 231.005 39.651 231.007 39.4571C230.901 38.2923 231.141 37.1221 231.696 36.0928C232.251 35.0634 233.097 34.2204 234.129 33.6691C234.997 33.2512 235.97 33.104 236.923 33.2467C237.875 33.3894 238.763 33.8153 239.47 34.4691C240.634 35.5464 241.326 37.0389 241.397 38.6231C241.409 38.8324 241.414 39.2937 241.411 40.0071C241.411 40.2071 241.564 40.4911 241.57 40.6901C241.57 40.766 241.555 40.8411 241.525 40.9108C241.495 40.9806 241.451 41.0435 241.396 41.0956C241.341 41.1477 241.276 41.1881 241.204 41.214C241.133 41.24 241.057 41.2511 240.981 41.2467C240.906 41.2422 240.832 41.2223 240.764 41.1882C240.696 41.154 240.636 41.1064 240.587 41.0482C240.539 40.9899 240.502 40.9224 240.481 40.8496C240.459 40.7768 240.453 40.7004 240.462 40.6251C240.483 40.5206 240.524 40.4213 240.584 40.3331C240.747 40.0599 240.841 39.7509 240.857 39.4331C240.928 38.5056 240.752 37.5758 240.348 36.7379C239.945 35.9 239.327 35.1835 238.557 34.6611C238.026 34.3251 237.43 34.1058 236.808 34.0177C236.187 33.9296 235.553 33.9747 234.95 34.15C234.347 34.3253 233.788 34.6268 233.31 35.0346C232.832 35.4423 232.447 35.947 232.179 36.5151Z" fill="#BB88FC"/>
<path d="M228.911 38.7181C229.111 38.6261 229.318 38.5131 229.482 38.6571C230.108 39.2633 230.467 40.093 230.482 40.9641C230.483 40.9731 230.481 40.9822 230.477 40.9902C230.473 40.9982 230.466 41.0048 230.458 41.0091L229.393 41.6391C229.385 41.6441 229.377 41.6468 229.367 41.6468C229.358 41.6468 229.35 41.6441 229.342 41.6391C228.504 41.1919 227.869 40.4402 227.569 39.5391C227.532 39.3831 227.669 39.2771 227.81 39.2141L228.911 38.7181Z" fill="#BB88FC"/>
<path d="M230.447 43.3791L229.492 42.3861C229.48 42.3739 229.471 42.3592 229.466 42.3431C229.461 42.327 229.459 42.3099 229.461 42.2931C229.464 42.2763 229.47 42.2602 229.479 42.246C229.488 42.2318 229.5 42.2199 229.515 42.2111L230.636 41.5431C230.658 41.5296 230.685 41.5244 230.711 41.5282C230.737 41.532 230.76 41.5447 230.778 41.5641L231.715 42.6071C231.726 42.6198 231.735 42.6347 231.739 42.651C231.744 42.6673 231.745 42.6844 231.742 42.7011C231.739 42.7178 231.733 42.7337 231.723 42.7475C231.713 42.7614 231.701 42.7729 231.686 42.7811L230.586 43.4001C230.564 43.4129 230.538 43.4177 230.513 43.4139C230.488 43.4101 230.464 43.3978 230.447 43.3791Z" fill="#BB88FC"/>
<path d="M241.859 42.5631C242.437 42.4745 243.013 42.3744 243.586 42.2631C244.026 42.1771 244.404 42.1721 244.638 42.5631C244.717 42.7307 244.772 42.9089 244.8 43.0921C245.375 45.9234 245.8 48.783 246.073 51.6591C246.211 53.1041 246.256 54.5564 246.208 56.0071C246.235 56.5985 246.144 57.1894 245.94 57.7451C245.773 58.1218 245.52 58.454 245.201 58.7146C244.882 58.9752 244.506 59.157 244.104 59.2451C243.738 59.3024 243.367 59.3255 242.997 59.3141H229.03C228.522 59.3157 228.024 59.1707 227.595 58.8965C227.167 58.6223 226.827 58.2306 226.616 57.7681C226.478 57.424 226.381 57.0649 226.327 56.6981C226.118 55.5236 226.023 54.3318 226.043 53.1391C226.044 53.0612 226.065 52.9848 226.103 52.9171C227.069 51.0578 228.129 49.2491 229.279 47.4981C229.293 47.4788 229.299 47.4811 229.297 47.5051C229.168 49.1718 229.034 50.8385 228.897 52.5051C228.889 52.5842 228.9 52.664 228.93 52.7379C228.959 52.8118 229.005 52.8777 229.065 52.9301C229.7 53.5301 230.335 54.1321 230.972 54.7361C231.034 54.7978 231.109 54.844 231.192 54.8709C231.275 54.8977 231.363 54.9045 231.449 54.8906C231.535 54.8767 231.616 54.8426 231.687 54.7911C231.757 54.7395 231.814 54.672 231.853 54.5941C231.892 54.4738 231.912 54.3485 231.914 54.2221C232.039 52.2934 232.166 50.3655 232.294 48.4381C232.294 48.4175 232.304 48.4108 232.325 48.4181C232.486 48.4852 232.659 48.5183 232.834 48.5152C233.008 48.5121 233.18 48.4729 233.339 48.4001C233.68 48.2495 234.018 48.0948 234.355 47.9361C234.59 47.8589 234.796 47.7126 234.946 47.5163C235.096 47.32 235.184 47.083 235.197 46.8361C235.189 46.5688 235.13 46.3055 235.024 46.0601C234.611 44.7885 233.755 43.7071 232.613 43.0121C235.23 43.2047 237.86 43.124 240.46 42.7711C240.465 42.771 240.469 42.77 240.473 42.7681C240.478 42.7662 240.481 42.7635 240.484 42.7602C240.488 42.7568 240.49 42.7529 240.492 42.7486C240.493 42.7443 240.494 42.7397 240.494 42.7351L240.572 41.7591C240.572 41.7358 240.584 41.7281 240.608 41.7361C240.773 41.8008 240.951 41.8249 241.127 41.8064C241.304 41.788 241.473 41.7275 241.621 41.6301C241.644 41.6155 241.658 41.6215 241.663 41.6481L241.824 42.5481C241.826 42.5539 241.831 42.5586 241.836 42.5614C241.842 42.5642 241.848 42.5648 241.854 42.5631H241.859ZM244.298 56.8251C244.298 56.7617 244.285 56.6989 244.261 56.6404C244.236 56.5818 244.201 56.5286 244.156 56.4839C244.111 56.4391 244.058 56.4037 243.999 56.3795C243.94 56.3554 243.877 56.343 243.814 56.3431L240.906 56.3481C240.843 56.3483 240.78 56.3609 240.721 56.3853C240.663 56.4097 240.61 56.4454 240.565 56.4903C240.52 56.5352 240.485 56.5886 240.46 56.6472C240.436 56.7059 240.424 56.7687 240.424 56.8321V57.4321C240.424 57.4955 240.437 57.5583 240.461 57.6169C240.486 57.6754 240.521 57.7286 240.566 57.7734C240.611 57.8181 240.664 57.8536 240.723 57.8777C240.782 57.9019 240.845 57.9142 240.908 57.9141L243.816 57.9091C243.879 57.909 243.942 57.8964 244.001 57.872C244.059 57.8476 244.112 57.8119 244.157 57.7669C244.202 57.722 244.237 57.6687 244.262 57.61C244.286 57.5514 244.298 57.4885 244.298 57.4251V56.8251Z" fill="#BB88FC"/>
<path d="M226.743 45.5271C226.729 45.5464 226.724 45.5444 226.727 45.5211C226.806 44.8337 226.896 44.1421 226.999 43.4461C227.084 42.8731 227.11 42.4461 227.683 42.3101C228.061 42.2957 228.439 42.3555 228.794 42.4861C228.813 42.4914 228.817 42.5021 228.806 42.5181L226.743 45.5271Z" fill="#BB88FC"/>
<path d="M223.676 51.7791C224.239 50.6711 224.847 49.5877 225.499 48.5291C226.675 46.6217 227.912 44.753 229.211 42.923C229.212 42.921 229.214 42.9193 229.216 42.9181C229.218 42.9169 229.221 42.9163 229.223 42.9163C229.225 42.9163 229.228 42.9169 229.23 42.9181C229.232 42.9193 229.234 42.921 229.235 42.923C229.524 43.2284 229.817 43.5314 230.114 43.832C230.214 43.9159 230.34 43.9629 230.47 43.965C230.478 43.9657 230.485 43.969 230.491 43.9745C230.497 43.98 230.5 43.9872 230.501 43.995L230.628 45.0141C230.629 45.0208 230.628 45.0277 230.626 45.0341C230.624 45.0406 230.62 45.0463 230.615 45.051C229.343 46.3312 228.272 47.7961 227.438 49.396C226.192 51.636 224.936 53.8737 223.669 56.1091C223.664 56.117 223.658 56.1235 223.65 56.1278C223.641 56.132 223.632 56.1339 223.623 56.133C223.611 56.1325 223.598 56.129 223.588 56.1227C223.577 56.1164 223.568 56.1076 223.561 56.097C223.227 55.6645 223.01 55.1537 222.93 54.6133C222.849 54.0729 222.909 53.521 223.102 53.01C223.201 52.746 223.393 52.3357 223.676 51.7791Z" fill="#BB88FC"/>
<path d="M231.879 43.3341C233.24 43.6401 234.138 45.2341 234.579 46.4601C234.631 46.5725 234.651 46.6968 234.639 46.8199C234.626 46.943 234.58 47.0605 234.507 47.1601C234.359 47.3052 234.181 47.4176 233.987 47.4901L233.322 47.7901C233.155 47.8798 232.971 47.9342 232.782 47.9501C232.676 47.9463 232.572 47.9182 232.479 47.8679C232.385 47.8176 232.305 47.7465 232.243 47.6601C231.477 46.519 231.064 45.1774 231.057 43.8031C231.056 43.7934 231.058 43.7837 231.063 43.7751C231.067 43.7666 231.074 43.7596 231.083 43.7551L231.823 43.3381C231.841 43.3308 231.861 43.3308 231.879 43.3381V43.3341Z" fill="#BB88FC"/>
<path d="M230.772 45.7121C230.927 46.514 231.26 47.271 231.745 47.9281C231.759 47.9454 231.767 47.9676 231.765 47.9901L231.351 54.2841C231.351 54.287 231.35 54.2897 231.348 54.2921C231.346 54.2944 231.344 54.2962 231.341 54.2974C231.339 54.2985 231.336 54.2989 231.333 54.2985C231.33 54.2981 231.327 54.2969 231.325 54.2951L229.472 52.5661C229.465 52.56 229.46 52.5526 229.457 52.5443C229.454 52.5359 229.452 52.527 229.453 52.5181L229.929 46.6071C229.93 46.6001 229.932 46.5935 229.937 46.5881L230.723 45.7011C230.748 45.6731 230.765 45.6767 230.772 45.7121Z" fill="#BB88FC"/>
<path d="M243.743 56.9021H240.979V57.3581H243.743V56.9021Z" fill="#BB88FC"/>
</g>
</g>
</g>
</g>
<defs>
<linearGradient id="paint0_linear_3_4577" x1="125.441" y1="305.034" x2="125.603" y2="304.884" gradientUnits="userSpaceOnUse">
<stop stop-color="#510394"/>
<stop offset="0.141" stop-color="#4A0387"/>
<stop offset="0.397" stop-color="#380368"/>
<stop offset="0.736" stop-color="#1B0334"/>
<stop offset="1" stop-color="#030408"/>
</linearGradient>
<linearGradient id="paint1_linear_3_4577" x1="0.0179541" y1="224.404" x2="0.3376" y2="224.404" gradientUnits="userSpaceOnUse">
<stop stop-color="#D3D6DB"/>
<stop offset="0.999" stop-color="#7A869B"/>
<stop offset="1" stop-color="#7A869B"/>
</linearGradient>
<clipPath id="clip0_3_4577">
<rect width="339" height="224.415" fill="white"/>
</clipPath>
</defs>
</svg>
