<svg width="339" height="194" viewBox="0 0 339 194" fill="none" xmlns="http://www.w3.org/2000/svg">
<g clip-path="url(#clip0_3_4718)">
<mask id="mask0_3_4718" style="mask-type:luminance" maskUnits="userSpaceOnUse" x="0" y="0" width="339" height="194">
<path d="M339 0H0V193.244H339V0Z" fill="white"/>
</mask>
<g mask="url(#mask0_3_4718)">
<mask id="mask1_3_4718" style="mask-type:luminance" maskUnits="userSpaceOnUse" x="0" y="0" width="339" height="194">
<path d="M339 0H0V193.244H339V0Z" fill="white"/>
</mask>
<g mask="url(#mask1_3_4718)">
<g opacity="0.59">
<mask id="mask2_3_4718" style="mask-type:luminance" maskUnits="userSpaceOnUse" x="110" y="0" width="109" height="88">
<path d="M218.294 0H110.395V87.863H218.294V0Z" fill="white"/>
</mask>
<g mask="url(#mask2_3_4718)">
<path d="M212.539 87.863H116.149C115.393 87.863 114.645 87.7142 113.947 87.425C113.249 87.1358 112.615 86.712 112.08 86.1777C111.546 85.6434 111.122 85.0091 110.833 84.311C110.544 83.6129 110.395 82.8646 110.395 82.109V5.754C110.395 4.22794 111.001 2.76439 112.08 1.68531C113.159 0.606223 114.623 0 116.149 0L212.54 0C213.296 0 214.044 0.148832 214.742 0.437997C215.44 0.727163 216.074 1.151 216.609 1.68531C217.143 2.21962 217.567 2.85393 217.856 3.55204C218.145 4.25015 218.294 4.99837 218.294 5.754V82.109C218.294 82.8646 218.145 83.6129 217.856 84.311C217.567 85.0091 217.143 85.6434 216.609 86.1777C216.074 86.712 215.44 87.1358 214.742 87.425C214.044 87.7142 213.296 87.863 212.54 87.863" fill="white"/>
</g>
</g>
<path d="M204.106 63.16H124.584C124.249 63.159 123.929 63.0256 123.692 62.7889C123.455 62.5523 123.322 62.2317 123.321 61.897V60.433C123.322 60.0984 123.455 59.7778 123.692 59.5411C123.929 59.3045 124.249 59.1711 124.584 59.17H204.106C204.441 59.1711 204.761 59.3045 204.998 59.5411C205.235 59.7778 205.368 60.0984 205.369 60.433V61.9C205.368 62.2347 205.235 62.5553 204.998 62.792C204.761 63.0286 204.441 63.162 204.106 63.163" fill="#BB88FC"/>
<path d="M170.953 73.748H124.584C124.249 73.7469 123.929 73.6136 123.692 73.3769C123.455 73.1403 123.322 72.8196 123.321 72.485V71.013C123.322 70.6784 123.455 70.3577 123.692 70.1211C123.929 69.8845 124.249 69.7511 124.584 69.75H170.953C171.288 69.7511 171.608 69.8845 171.845 70.1211C172.082 70.3577 172.215 70.6784 172.216 71.013V72.48C172.215 72.8147 172.082 73.1353 171.845 73.3719C171.608 73.6085 171.288 73.742 170.953 73.743" fill="#BB88FC"/>
<path d="M130.429 46.345C130.429 47.0479 130.221 47.7351 129.83 48.3195C129.44 48.904 128.884 49.3595 128.235 49.6285C127.586 49.8975 126.871 49.9679 126.182 49.8307C125.492 49.6936 124.859 49.3551 124.362 48.8581C123.865 48.361 123.526 47.7278 123.389 47.0384C123.252 46.349 123.323 45.6344 123.592 44.985C123.861 44.3356 124.316 43.7805 124.9 43.39C125.485 42.9995 126.172 42.791 126.875 42.791C127.818 42.791 128.722 43.1655 129.388 43.832C130.055 44.4985 130.429 45.4024 130.429 46.345Z" fill="#BB88FC"/>
<path d="M148.653 46.345C148.653 47.0479 148.445 47.7351 148.054 48.3195C147.663 48.904 147.108 49.3595 146.459 49.6285C145.81 49.8975 145.095 49.9679 144.406 49.8307C143.716 49.6936 143.083 49.3551 142.586 48.8581C142.089 48.361 141.75 47.7278 141.613 47.0384C141.476 46.349 141.547 45.6344 141.816 44.985C142.085 44.3356 142.54 43.7805 143.125 43.39C143.709 42.9995 144.396 42.791 145.099 42.791C146.042 42.791 146.946 43.1655 147.612 43.832C148.279 44.4985 148.653 45.4024 148.653 46.345Z" fill="#BB88FC"/>
<path d="M190.795 29.275H187.795C187.511 29.275 187.238 29.1621 187.037 28.9611C186.836 28.7602 186.723 28.4877 186.723 28.2035C186.723 27.9193 186.836 27.6468 187.037 27.4458C187.238 27.2449 187.511 27.132 187.795 27.132H189.964L192.698 16.332L189.946 15.014C189.816 14.9554 189.698 14.8713 189.601 14.7666C189.503 14.662 189.428 14.5389 189.379 14.4046C189.329 14.2704 189.308 14.1276 189.314 13.9848C189.321 13.8419 189.357 13.7019 189.419 13.573C189.48 13.444 189.567 13.3287 189.674 13.2339C189.781 13.139 189.906 13.0665 190.042 13.0207C190.177 12.9749 190.32 12.9566 190.463 12.9669C190.605 12.9773 190.745 13.0161 190.872 13.081L194.415 14.781C194.638 14.8878 194.818 15.0685 194.923 15.2926C195.028 15.5166 195.052 15.7701 194.991 16.01L191.837 28.474C191.779 28.7053 191.645 28.9105 191.457 29.057C191.268 29.2036 191.037 29.2831 190.798 29.283" fill="#BB88FC"/>
<path d="M193.712 49.411C193.014 49.4093 192.318 49.3524 191.629 49.241C191.49 49.2188 191.357 49.1696 191.237 49.096C191.117 49.0223 191.013 48.9258 190.93 48.8119C190.763 48.5819 190.695 48.2951 190.739 48.0145C190.784 47.7339 190.938 47.4825 191.169 47.3157C191.399 47.1489 191.685 47.0803 191.966 47.125C193.307 47.4224 194.702 47.3715 196.018 46.9771C197.334 46.5828 198.527 45.858 199.484 44.872C197.248 43.217 191.971 38.387 189.748 28.438C189.693 28.1632 189.748 27.8777 189.9 27.6428C190.053 27.4078 190.292 27.2421 190.565 27.181C190.839 27.12 191.126 27.1685 191.364 27.3161C191.602 27.4638 191.773 27.6988 191.84 27.971C192.78 32.4555 194.78 36.6497 197.673 40.203C198.777 41.56 200.088 42.7356 201.556 43.687C201.679 43.7569 201.787 43.8505 201.874 43.9623C201.96 44.074 202.024 44.2019 202.061 44.3384C202.098 44.4749 202.108 44.6174 202.09 44.7577C202.072 44.898 202.027 45.0333 201.956 45.156C201.058 46.5085 199.829 47.6092 198.387 48.354C196.944 49.0988 195.336 49.463 193.713 49.412" fill="#BB88FC"/>
<path d="M183.299 29.275H180.299C180.06 29.2751 179.829 29.1956 179.64 29.0491C179.452 28.9025 179.318 28.6973 179.26 28.466L176.106 16.002C176.045 15.7622 176.07 15.5087 176.175 15.2847C176.28 15.0607 176.459 14.8799 176.682 14.773L180.225 13.073C180.48 12.9584 180.77 12.948 181.033 13.0442C181.295 13.1404 181.51 13.3354 181.631 13.5877C181.752 13.84 181.769 14.1296 181.68 14.3946C181.59 14.6596 181.4 14.879 181.151 15.006L178.399 16.32L181.133 27.12H183.302C183.581 27.1285 183.845 27.2451 184.039 27.4452C184.233 27.6452 184.341 27.9129 184.341 28.1915C184.341 28.4702 184.233 28.7379 184.039 28.9379C183.845 29.1379 183.581 29.2545 183.302 29.263" fill="#BB88FC"/>
<path d="M170.062 45.69C169.827 45.6881 169.599 45.6089 169.413 45.4647C169.227 45.3204 169.094 45.1191 169.034 44.8917C168.974 44.6643 168.99 44.4234 169.081 44.2063C169.171 43.9891 169.33 43.8077 169.534 43.69C171.002 42.74 172.311 41.5661 173.416 40.211C176.328 36.6698 178.33 32.4706 179.249 27.979C179.28 27.8417 179.337 27.7118 179.418 27.5967C179.499 27.4816 179.602 27.3835 179.72 27.3081C179.839 27.2327 179.972 27.1814 180.11 27.1572C180.249 27.133 180.391 27.1363 180.528 27.167C180.665 27.1977 180.795 27.2551 180.91 27.3359C181.025 27.4168 181.124 27.5196 181.199 27.6383C181.274 27.7571 181.326 27.8895 181.35 28.0281C181.374 28.1667 181.371 28.3087 181.34 28.446C178.54 40.967 170.908 45.379 170.585 45.561C170.425 45.651 170.245 45.6982 170.061 45.698" fill="#BB88FC"/>
<path d="M185.544 19.351C184.137 19.354 182.774 18.8591 181.696 17.954C180.618 17.0488 179.895 15.7917 179.655 14.405C179.626 14.2643 179.625 14.1191 179.653 13.9781C179.681 13.8371 179.737 13.7031 179.817 13.5842C179.898 13.4652 180.002 13.3637 180.123 13.2857C180.244 13.2077 180.379 13.1548 180.52 13.1301C180.662 13.1054 180.807 13.1095 180.947 13.142C181.087 13.1746 181.219 13.2349 181.335 13.3196C181.452 13.4042 181.55 13.5113 181.624 13.6345C181.698 13.7578 181.746 13.8947 181.766 14.037C181.925 14.9368 182.4 15.7503 183.106 16.3311C183.811 16.9118 184.701 17.2216 185.614 17.2047C186.528 17.1879 187.406 16.8454 188.089 16.239C188.773 15.6326 189.217 14.8021 189.343 13.897C189.381 13.6155 189.53 13.3607 189.756 13.1887C189.982 13.0168 190.267 12.9417 190.549 12.98C190.831 13.0183 191.085 13.1669 191.257 13.3931C191.429 13.6193 191.504 13.9045 191.466 14.186C191.265 15.6152 190.555 16.9241 189.468 17.8725C188.38 18.821 186.986 19.3456 185.543 19.35" fill="#BB88FC"/>
<path d="M178.221 49.898C176.365 49.9011 174.54 49.4269 172.921 48.521C171.446 47.704 170.167 46.5743 169.174 45.211C169.096 45.0939 169.042 44.9627 169.014 44.8247C168.987 44.6867 168.987 44.5446 169.014 44.4066C169.042 44.2687 169.096 44.1374 169.174 44.0205C169.253 43.9035 169.353 43.8031 169.47 43.725C169.587 43.6468 169.718 43.5925 169.856 43.5651C169.994 43.5377 170.136 43.5377 170.274 43.5652C170.412 43.5927 170.543 43.6471 170.66 43.7253C170.777 43.8035 170.878 43.9039 170.956 44.021C171.13 44.279 175.191 50.106 182.867 46.678C182.996 46.6163 183.136 46.5811 183.279 46.5744C183.422 46.5678 183.565 46.5898 183.699 46.6392C183.833 46.6886 183.957 46.7644 184.061 46.8621C184.166 46.9598 184.25 47.0775 184.308 47.2081C184.366 47.3388 184.398 47.4798 184.401 47.6228C184.404 47.7659 184.378 47.9081 184.325 48.0411C184.272 48.1741 184.194 48.2951 184.093 48.3971C183.993 48.4991 183.873 48.58 183.741 48.635C182.013 49.4421 180.133 49.8726 178.226 49.898" fill="#BB88FC"/>
<path d="M185.802 48.885C185.703 48.885 185.604 48.8712 185.509 48.844C184.7 48.615 180.598 47.418 179.3 46.377C179.186 46.2904 179.09 46.1819 179.019 46.0577C178.947 45.9335 178.901 45.7963 178.884 45.6541C178.866 45.5119 178.878 45.3676 178.917 45.2298C178.956 45.0919 179.022 44.9634 179.112 44.8517C179.202 44.74 179.313 44.6474 179.439 44.5794C179.565 44.5114 179.704 44.4693 179.846 44.4558C179.989 44.4422 180.133 44.4573 180.269 44.5003C180.406 44.5433 180.533 44.6132 180.642 44.706C182.372 45.6079 184.201 46.305 186.093 46.783C186.339 46.8557 186.551 47.0143 186.69 47.23C186.829 47.4456 186.886 47.704 186.851 47.9583C186.816 48.2125 186.691 48.4456 186.498 48.6153C186.306 48.785 186.059 48.88 185.802 48.883" fill="#BB88FC"/>
<g opacity="0.59">
<mask id="mask3_3_4718" style="mask-type:luminance" maskUnits="userSpaceOnUse" x="0" y="15" width="101" height="57">
<path d="M100.186 15.959H0V71.904H100.186V15.959Z" fill="white"/>
</mask>
<g mask="url(#mask3_3_4718)">
<path d="M94.431 71.904H5.754C4.22794 71.904 2.76439 71.2978 1.68531 70.2187C0.606223 69.1396 0 67.676 0 66.15L0 21.709C0.00106038 20.1836 0.607752 18.7211 1.68672 17.6429C2.76569 16.5647 4.22864 15.959 5.754 15.959H94.431C95.9571 15.959 97.4206 16.5652 98.4997 17.6443C99.5788 18.7234 100.185 20.1869 100.185 21.713V66.149C100.185 67.675 99.5788 69.1386 98.4997 70.2177C97.4206 71.2968 95.9571 71.904 94.431 71.904Z" fill="white"/>
</g>
</g>
<path d="M86.921 34.1H57.075C56.7404 34.0989 56.4197 33.9655 56.1831 33.7289C55.9465 33.4923 55.8131 33.1716 55.812 32.837V31.655C55.8131 31.3203 55.9465 30.9997 56.1831 30.7631C56.4197 30.5264 56.7404 30.393 57.075 30.392H86.921C87.2553 30.3938 87.5753 30.5277 87.8113 30.7645C88.0474 31.0012 88.1802 31.3217 88.181 31.656V32.838C88.1799 33.1726 88.0465 33.4933 87.8099 33.7299C87.5733 33.9665 87.2526 34.0999 86.918 34.101" fill="#BB88FC"/>
<path d="M73.84 43.931H57.075C56.7404 43.93 56.4197 43.7966 56.1831 43.5599C55.9465 43.3233 55.8131 43.0027 55.812 42.668V41.486C55.8131 41.1514 55.9465 40.8307 56.1831 40.5941C56.4197 40.3575 56.7404 40.2241 57.075 40.223H73.841C74.1756 40.2241 74.4963 40.3575 74.7329 40.5941C74.9695 40.8307 75.1029 41.1514 75.104 41.486V42.668C75.1029 43.0027 74.9695 43.3233 74.7329 43.5599C74.4963 43.7966 74.1756 43.93 73.841 43.931" fill="#BB88FC"/>
<path d="M32.249 41.926H29.46C29.2133 41.9013 28.9846 41.7857 28.8183 41.6019C28.652 41.418 28.5599 41.1789 28.5599 40.931C28.5599 40.6831 28.652 40.444 28.8183 40.2602C28.9846 40.0763 29.2133 39.9608 29.46 39.936H31.474L34.012 29.903L31.457 28.679C31.246 28.5497 31.0904 28.3468 31.0203 28.1094C30.9502 27.8721 30.9706 27.6172 31.0776 27.394C31.1846 27.1709 31.3705 26.9953 31.5995 26.9013C31.8284 26.8072 32.0841 26.8015 32.317 26.885L35.606 28.461C35.8126 28.561 35.9784 28.7289 36.0758 28.9366C36.1733 29.1444 36.1963 29.3793 36.141 29.602L33.213 41.176C33.1579 41.3903 33.0333 41.5803 32.8587 41.7162C32.684 41.8521 32.4693 41.9262 32.248 41.927" fill="#BB88FC"/>
<path d="M34.958 60.622C34.3098 60.6205 33.6628 60.5677 33.023 60.464C32.8924 60.4453 32.7669 60.4007 32.6536 60.3329C32.5404 60.2652 32.4419 60.1756 32.3636 60.0694C32.2853 59.9632 32.229 59.8424 32.1978 59.7142C32.1666 59.5861 32.1613 59.4529 32.182 59.3226C32.2028 59.1924 32.2492 59.0675 32.3187 58.9553C32.3881 58.8432 32.4792 58.7459 32.5866 58.6693C32.694 58.5926 32.8156 58.5381 32.9442 58.5089C33.0729 58.4797 33.206 58.4763 33.336 58.499C34.5814 58.7753 35.8768 58.728 37.0988 58.3618C38.3208 57.9956 39.4287 57.3227 40.317 56.407C38.241 54.87 33.341 50.386 31.277 41.148C31.2471 41.02 31.2428 40.8873 31.2645 40.7576C31.2861 40.6279 31.3333 40.5038 31.4032 40.3925C31.4731 40.2811 31.5644 40.1847 31.6718 40.1088C31.7792 40.033 31.9005 39.9791 32.0289 39.9505C32.1572 39.9218 32.2899 39.9188 32.4194 39.9418C32.5489 39.9647 32.6725 40.0131 32.7832 40.0841C32.8938 40.1551 32.9893 40.2473 33.0641 40.3554C33.1389 40.4636 33.1916 40.5854 33.219 40.714C34.0919 44.8777 35.949 48.772 38.635 52.071C39.6588 53.3304 40.8735 54.4216 42.235 55.305C42.465 55.4368 42.6332 55.6545 42.7028 55.9102C42.7724 56.166 42.7376 56.4389 42.606 56.669C41.7723 57.925 40.6316 58.9472 39.2921 59.6389C37.9527 60.3305 36.4587 60.6685 34.952 60.621" fill="#BB88FC"/>
<path d="M25.288 41.9261H22.5C22.2787 41.9253 22.064 41.8511 21.8894 41.7152C21.7147 41.5793 21.5901 41.3894 21.535 41.175L18.607 29.6021C18.5517 29.3794 18.5748 29.1444 18.6722 28.9367C18.7696 28.7289 18.9355 28.561 19.142 28.4611L22.431 26.8851C22.6679 26.7781 22.9373 26.768 23.1815 26.8571C23.4257 26.9462 23.6254 27.1273 23.7378 27.3618C23.8501 27.5962 23.8663 27.8653 23.7828 28.1114C23.6993 28.3576 23.5228 28.5614 23.291 28.6791L20.736 29.9031L23.274 39.9361H25.288C25.5347 39.9608 25.7634 40.0763 25.9297 40.2602C26.096 40.444 26.1881 40.6831 26.1881 40.931C26.1881 41.179 26.096 41.4181 25.9297 41.6019C25.7634 41.7858 25.5347 41.9013 25.288 41.9261Z" fill="#BB88FC"/>
<path d="M12.998 57.168C12.7782 57.168 12.5646 57.0952 12.3905 56.9611C12.2165 56.8269 12.0917 56.6389 12.0358 56.4263C11.9798 56.2138 11.9958 55.9887 12.0812 55.7862C12.1666 55.5837 12.3167 55.4152 12.508 55.307C13.8691 54.423 15.0837 53.3319 16.108 52.073C18.8116 48.7851 20.6708 44.8863 21.524 40.716C21.5514 40.5874 21.604 40.4655 21.6789 40.3574C21.7537 40.2492 21.8492 40.157 21.9598 40.086C22.0705 40.015 22.1941 39.9666 22.3236 39.9437C22.4531 39.9208 22.5858 39.9237 22.7141 39.9524C22.8424 39.9811 22.9638 40.0349 23.0712 40.1108C23.1786 40.1867 23.2699 40.2831 23.3398 40.3944C23.4097 40.5058 23.4569 40.6299 23.4785 40.7596C23.5002 40.8893 23.4959 41.0219 23.466 41.15C20.866 52.776 13.78 56.873 13.479 57.042C13.3307 57.1257 13.1633 57.1698 12.993 57.17" fill="#BB88FC"/>
<path d="M27.373 32.712C26.0663 32.7147 24.8008 32.2552 23.8001 31.4149C22.7995 30.5746 22.1282 29.4075 21.905 28.12C21.8797 27.9901 21.8805 27.8565 21.9075 27.727C21.9345 27.5974 21.987 27.4745 22.062 27.3656C22.137 27.2566 22.233 27.1636 22.3444 27.0922C22.4558 27.0207 22.5803 26.9722 22.7106 26.9495C22.8409 26.9267 22.9745 26.9302 23.1035 26.9597C23.2325 26.9892 23.3543 27.0442 23.4618 27.1213C23.5693 27.1985 23.6603 27.2963 23.7295 27.409C23.7988 27.5218 23.8448 27.6472 23.865 27.778C24.0119 28.6141 24.4526 29.3703 25.1077 29.9101C25.7629 30.45 26.5893 30.7381 27.4381 30.7224C28.2869 30.7067 29.1022 30.3883 29.7369 29.8246C30.3717 29.2609 30.7841 28.489 30.9 27.648C30.9576 27.4066 31.1029 27.1953 31.3077 27.0551C31.5124 26.9148 31.762 26.8558 32.0078 26.8893C32.2537 26.9228 32.4783 27.0466 32.638 27.2365C32.7978 27.4265 32.8811 27.669 32.872 27.917C32.687 29.2453 32.0288 30.4622 31.0184 31.3441C30.0079 32.2259 28.7131 32.7134 27.372 32.717" fill="#BB88FC"/>
<path d="M20.573 61.075C18.8484 61.0785 17.152 60.6381 15.647 59.796C14.2769 59.0376 13.0891 57.9888 12.167 56.723C12.0374 56.5036 11.9969 56.2429 12.0538 55.9946C12.1107 55.7462 12.2607 55.5292 12.4729 55.3881C12.685 55.2471 12.9433 55.1929 13.1943 55.2365C13.4453 55.2802 13.6699 55.4186 13.822 55.623C13.984 55.862 17.755 61.273 24.881 58.09C25.0023 58.0207 25.1367 57.9775 25.2756 57.9633C25.4146 57.9491 25.5549 57.9641 25.6877 58.0075C25.8205 58.0508 25.9427 58.1215 26.0465 58.215C26.1503 58.3084 26.2333 58.4226 26.2903 58.5501C26.3473 58.6776 26.377 58.8157 26.3773 58.9553C26.3777 59.095 26.3489 59.2332 26.2926 59.361C26.2363 59.4888 26.1539 59.6035 26.0506 59.6975C25.9474 59.7915 25.8255 59.8629 25.693 59.907C24.0887 60.6564 22.3435 61.0562 20.573 61.08" fill="#BB88FC"/>
<path d="M27.611 60.131C27.519 60.1309 27.4275 60.1181 27.339 60.093C26.588 59.88 22.779 58.769 21.574 57.802C21.4693 57.7212 21.3818 57.6203 21.3166 57.5053C21.2514 57.3903 21.2097 57.2635 21.194 57.1322C21.1784 57.0009 21.1891 56.8678 21.2255 56.7407C21.2618 56.6135 21.3232 56.4949 21.4059 56.3918C21.4887 56.2887 21.5911 56.2031 21.7073 56.14C21.8235 56.0769 21.9511 56.0376 22.0827 56.0244C22.2143 56.0112 22.3471 56.0243 22.4736 56.0631C22.6 56.1018 22.7174 56.1654 22.819 56.25C24.4256 57.0873 26.1244 57.7343 27.881 58.178C28.1055 58.2497 28.2974 58.3984 28.4229 58.5979C28.5485 58.7973 28.5995 59.0346 28.5671 59.2681C28.5347 59.5015 28.4209 59.716 28.2458 59.8737C28.0707 60.0314 27.8455 60.1221 27.61 60.13" fill="#BB88FC"/>
<g opacity="0.59">
<path d="M322.802 71.903H234.125C232.599 71.903 231.135 71.2968 230.056 70.2177C228.977 69.1386 228.371 67.675 228.371 66.149V21.708C228.371 20.1819 228.977 18.7184 230.056 17.6393C231.135 16.5602 232.599 15.954 234.125 15.954H322.802C324.328 15.954 325.792 16.5602 326.871 17.6393C327.95 18.7184 328.556 20.1819 328.556 21.708V66.144C328.556 66.8996 328.407 67.6478 328.118 68.3459C327.829 69.044 327.405 69.6784 326.871 70.2127C326.336 70.747 325.702 71.1708 325.004 71.46C324.306 71.7491 323.558 71.898 322.802 71.898" fill="white"/>
</g>
<path d="M315.283 34.1H285.437C285.102 34.0989 284.782 33.9655 284.545 33.7289C284.309 33.4923 284.175 33.1716 284.174 32.837V31.655C284.175 31.3203 284.309 30.9997 284.545 30.7631C284.782 30.5264 285.102 30.393 285.437 30.392H315.283C315.618 30.393 315.938 30.5264 316.175 30.7631C316.412 30.9997 316.545 31.3203 316.546 31.655V32.837C316.545 33.1716 316.412 33.4923 316.175 33.7289C315.938 33.9655 315.618 34.0989 315.283 34.1Z" fill="#BB88FC"/>
<path d="M302.203 43.931H285.437C285.102 43.93 284.782 43.7966 284.545 43.5599C284.309 43.3233 284.175 43.0027 284.174 42.668V41.486C284.175 41.1514 284.309 40.8307 284.545 40.5941C284.782 40.3575 285.102 40.2241 285.437 40.223H302.203C302.538 40.2241 302.858 40.3575 303.095 40.5941C303.332 40.8307 303.465 41.1514 303.466 41.486V42.668C303.465 43.0027 303.332 43.3233 303.095 43.5599C302.858 43.7966 302.538 43.93 302.203 43.931Z" fill="#BB88FC"/>
<path d="M260.614 41.9261H257.825C257.578 41.9013 257.35 41.7858 257.183 41.6019C257.017 41.4181 256.925 41.179 256.925 40.931C256.925 40.6831 257.017 40.444 257.183 40.2602C257.35 40.0763 257.578 39.9608 257.825 39.9361H259.839L262.377 29.9031L259.822 28.6791C259.59 28.5614 259.414 28.3576 259.33 28.1114C259.247 27.8653 259.263 27.5962 259.375 27.3618C259.488 27.1273 259.687 26.9462 259.932 26.8571C260.176 26.768 260.445 26.7781 260.682 26.8851L263.971 28.4611C264.178 28.561 264.344 28.7289 264.441 28.9367C264.538 29.1444 264.561 29.3794 264.506 29.6021L261.578 41.175C261.523 41.3894 261.398 41.5793 261.224 41.7152C261.049 41.8511 260.835 41.9253 260.614 41.9261Z" fill="#BB88FC"/>
<path d="M263.33 60.622C262.682 60.6204 262.035 60.5676 261.396 60.464C261.265 60.4452 261.14 60.4007 261.027 60.3329C260.913 60.2651 260.815 60.1756 260.737 60.0693C260.658 59.9631 260.602 59.8424 260.571 59.7142C260.54 59.586 260.534 59.4529 260.555 59.3226C260.576 59.1923 260.622 59.0675 260.692 58.9553C260.761 58.8431 260.852 58.7459 260.96 58.6693C261.067 58.5926 261.189 58.5381 261.317 58.5089C261.446 58.4796 261.579 58.4763 261.709 58.499C262.955 58.7752 264.25 58.728 265.472 58.3618C266.694 57.9956 267.802 57.3226 268.69 56.407C266.614 54.87 261.714 50.386 259.65 41.148C259.62 40.9019 259.683 40.6536 259.827 40.4513C259.97 40.249 260.183 40.1071 260.425 40.053C260.667 39.999 260.92 40.0366 261.136 40.1588C261.351 40.2809 261.514 40.4788 261.592 40.714C262.465 44.8777 264.322 48.772 267.008 52.071C268.032 53.3302 269.247 54.4214 270.608 55.305C270.838 55.4366 271.007 55.6542 271.076 55.91C271.146 56.1658 271.112 56.4388 270.98 56.669C270.146 57.9249 269.006 58.9471 267.666 59.6387C266.327 60.3303 264.833 60.6684 263.326 60.621" fill="#BB88FC"/>
<path d="M253.657 41.926H250.867C250.646 41.9252 250.431 41.8511 250.256 41.7152C250.082 41.5793 249.957 41.3893 249.902 41.175L246.974 29.602C246.919 29.3793 246.942 29.1444 247.039 28.9366C247.137 28.7289 247.302 28.561 247.509 28.461L250.798 26.885C251.031 26.8015 251.287 26.8072 251.515 26.9013C251.744 26.9953 251.93 27.1709 252.037 27.394C252.144 27.6172 252.165 27.8721 252.095 28.1094C252.025 28.3468 251.869 28.5497 251.658 28.679L249.103 29.903L251.641 39.936H253.655C253.794 39.9221 253.935 39.9374 254.067 39.981C254.2 40.0247 254.322 40.0957 254.426 40.1894C254.529 40.2832 254.612 40.3976 254.669 40.5254C254.726 40.6531 254.755 40.7913 254.755 40.931C254.755 41.0708 254.726 41.209 254.669 41.3367C254.612 41.4644 254.529 41.5789 254.426 41.6726C254.322 41.7664 254.2 41.8373 254.067 41.881C253.935 41.9246 253.794 41.94 253.655 41.926" fill="#BB88FC"/>
<path d="M241.361 57.168C241.143 57.164 240.933 57.089 240.762 56.9545C240.59 56.82 240.468 56.6333 240.412 56.4227C240.357 56.2122 240.372 55.9893 240.454 55.7879C240.537 55.5865 240.684 55.4176 240.871 55.3069C242.232 54.423 243.447 53.3319 244.471 52.073C247.175 48.785 249.034 44.8863 249.887 40.716C249.965 40.4807 250.128 40.2828 250.343 40.1607C250.559 40.0386 250.812 40.0009 251.054 40.055C251.296 40.109 251.509 40.251 251.652 40.4533C251.796 40.6556 251.858 40.9039 251.829 41.1499C249.229 52.7759 242.143 56.8729 241.842 57.0419C241.694 57.1257 241.526 57.1698 241.356 57.17" fill="#BB88FC"/>
<path d="M255.743 32.712C254.436 32.7147 253.171 32.2552 252.17 31.4149C251.17 30.5746 250.498 29.4075 250.275 28.12C250.25 27.9901 250.251 27.8565 250.278 27.727C250.305 27.5974 250.357 27.4745 250.432 27.3656C250.507 27.2566 250.603 27.1636 250.714 27.0922C250.826 27.0207 250.95 26.9722 251.081 26.9495C251.211 26.9267 251.345 26.9302 251.474 26.9597C251.602 26.9892 251.724 27.0442 251.832 27.1213C251.939 27.1985 252.03 27.2963 252.1 27.409C252.169 27.5218 252.215 27.6472 252.235 27.778C252.382 28.6141 252.823 29.3703 253.478 29.9101C254.133 30.45 254.959 30.7381 255.808 30.7224C256.657 30.7067 257.472 30.3883 258.107 29.8246C258.742 29.2609 259.154 28.489 259.27 27.648C259.328 27.4066 259.473 27.1953 259.678 27.0551C259.882 26.9148 260.132 26.8558 260.378 26.8893C260.624 26.9228 260.848 27.0466 261.008 27.2365C261.168 27.4265 261.251 27.669 261.242 27.917C261.057 29.2453 260.399 30.4622 259.388 31.3441C258.378 32.2259 257.083 32.7134 255.742 32.717" fill="#BB88FC"/>
<path d="M248.941 61.075C247.216 61.0785 245.52 60.638 244.015 59.7959C242.645 59.0374 241.458 57.9886 240.536 56.7229C240.424 56.5043 240.396 56.2521 240.458 56.0144C240.52 55.7767 240.668 55.5701 240.872 55.4341C241.077 55.2982 241.325 55.2422 241.568 55.2771C241.811 55.3119 242.033 55.435 242.191 55.623C242.353 55.862 246.124 61.2729 253.25 58.0899C253.371 58.0206 253.506 57.9775 253.645 57.9633C253.784 57.949 253.924 57.9641 254.057 58.0075C254.189 58.0508 254.312 58.1215 254.415 58.2149C254.519 58.3084 254.602 58.4226 254.659 58.5501C254.716 58.6776 254.746 58.8156 254.746 58.9553C254.747 59.095 254.718 59.2331 254.662 59.361C254.605 59.4888 254.523 59.6034 254.42 59.6975C254.316 59.7915 254.194 59.8629 254.062 59.907C252.458 60.6562 250.712 61.056 248.942 61.08" fill="#BB88FC"/>
<path d="M255.98 60.131C255.888 60.1309 255.796 60.1181 255.708 60.093C254.957 59.88 251.148 58.769 249.943 57.802C249.838 57.7212 249.751 57.6203 249.686 57.5053C249.62 57.3903 249.579 57.2635 249.563 57.1322C249.547 57.0009 249.558 56.8678 249.594 56.7407C249.631 56.6135 249.692 56.4949 249.775 56.3918C249.858 56.2887 249.96 56.2031 250.076 56.14C250.193 56.0769 250.32 56.0376 250.452 56.0244C250.583 56.0112 250.716 56.0243 250.843 56.0631C250.969 56.1018 251.087 56.1654 251.188 56.25C252.795 57.0873 254.493 57.7343 256.25 58.178C256.474 58.2497 256.666 58.3984 256.792 58.5979C256.918 58.7973 256.969 59.0346 256.936 59.2681C256.904 59.5015 256.79 59.716 256.615 59.8737C256.44 60.0314 256.215 60.1221 255.979 60.13" fill="#BB88FC"/>
<g opacity="0.3">
<mask id="mask4_3_4718" style="mask-type:luminance" maskUnits="userSpaceOnUse" x="14" y="166" width="309" height="28">
<path d="M322.959 166.861H14.695V193.243H322.959V166.861Z" fill="white"/>
</mask>
<g mask="url(#mask4_3_4718)">
<mask id="mask5_3_4718" style="mask-type:luminance" maskUnits="userSpaceOnUse" x="14" y="166" width="309" height="28">
<path d="M29.785 176.759C24.057 177.576 14.752 179.074 14.692 181.232C14.638 183.179 22.131 184.774 24.754 185.332C54.745 191.717 61.26 181.012 100.942 185.632C121.755 188.056 118.615 192.076 137.072 193.087C162.326 194.471 200.818 186.071 232.389 186.449C245.859 186.61 246.071 187.971 264.403 189.058C271.603 189.485 322.046 192.413 322.943 187.94C323.105 187.131 321.889 184.878 300.076 179.366C300.076 179.366 195.935 153.055 29.785 176.757" fill="white"/>
</mask>
<g mask="url(#mask5_3_4718)">
<path d="M323.109 153.057H14.642V194.473H323.109V153.057Z" fill="url(#paint0_linear_3_4718)"/>
</g>
</g>
</g>
<path d="M304.528 183.811H279.828C279.429 183.811 279.044 183.664 278.746 183.399C278.449 183.133 278.259 182.767 278.214 182.371L274.314 148.089H310.036L306.136 182.371C306.091 182.767 305.901 183.133 305.604 183.399C305.306 183.664 304.921 183.811 304.522 183.811" fill="#00B2CA"/>
<path d="M310.039 148.496C310.039 149.617 302.039 150.526 292.178 150.526C282.317 150.526 274.317 149.617 274.317 148.496C274.317 147.375 282.317 146.466 292.178 146.466C302.039 146.466 310.039 147.375 310.039 148.496Z" fill="#1C2B6B"/>
<path d="M290.556 82.327C280.814 83.139 284.056 112.366 284.056 112.366C286.492 137.534 289.739 148.9 292.175 149.712C294.611 150.524 299.482 113.99 299.482 105.059C299.482 105.059 300.294 81.515 290.551 82.327" fill="#1E3286"/>
<path d="M291.775 145.652C291.718 145.653 291.661 145.641 291.608 145.617C291.556 145.594 291.509 145.559 291.471 145.516C291.433 145.473 291.405 145.422 291.388 145.367C291.372 145.312 291.367 145.254 291.375 145.197C294.575 118.76 290.604 85.549 290.563 85.216C290.555 85.1118 290.587 85.0084 290.653 84.9274C290.719 84.8464 290.814 84.794 290.918 84.7811C291.021 84.7682 291.126 84.7959 291.21 84.8582C291.294 84.9206 291.351 85.013 291.368 85.116C291.409 85.45 295.396 118.759 292.18 145.293C292.169 145.391 292.123 145.482 292.049 145.548C291.975 145.614 291.879 145.651 291.78 145.65" fill="white"/>
<path d="M261.323 68.525C260.511 72.584 265.383 73.396 266.194 79.079C267.005 84.762 264.57 86.386 265.382 89.633C266.194 92.88 271.065 93.692 271.877 101.811C272.689 109.93 269.441 109.118 270.253 113.989C271.065 118.86 275.936 118.86 276.748 122.919C277.56 126.978 277.56 132.661 279.183 137.533C280.806 142.405 285.678 149.711 288.114 149.711C290.55 149.711 297.045 135.911 295.421 131.85C293.797 127.789 291.362 126.979 291.362 123.731C291.362 120.483 294.61 112.365 293.798 106.682C292.986 100.999 285.679 98.563 284.867 94.504C284.055 90.445 286.491 79.89 280.808 75.019C275.125 70.148 262.135 64.465 261.323 68.524" fill="#FA6E53"/>
<path d="M338.455 77.455C341.325 80.325 331.96 81.514 331.148 87.197C330.336 92.88 330.336 95.316 327.089 98.563C323.842 101.81 318.97 102.622 319.782 107.494C320.594 112.366 322.218 117.236 319.782 119.672C317.346 122.108 311.663 122.108 310.039 126.167C308.415 130.226 309.227 135.097 305.98 139.157C302.733 143.217 297.861 151.335 293.802 149.711C289.743 148.087 292.178 129.411 293.802 126.167C295.426 122.923 297.049 120.484 297.049 118.048C297.049 115.612 296.237 111.553 297.861 107.494C299.485 103.435 308.415 101.811 309.227 99.375C310.039 96.939 310.851 83.949 315.722 80.702C320.593 77.455 333.584 72.583 338.455 77.455Z" fill="#40CD8A"/>
<path d="M295.061 148.322C294.989 148.322 294.919 148.303 294.857 148.267C294.795 148.231 294.743 148.178 294.708 148.116C294.672 148.053 294.654 147.983 294.655 147.911C294.656 147.839 294.676 147.769 294.713 147.707C294.746 147.652 297.998 142.216 298.684 139.468C298.861 138.76 299.075 137.688 299.321 136.446C300.221 131.939 301.575 125.129 303.662 123.046C306.692 120.017 311.533 110.739 314.925 98.866C319.104 84.238 332.925 79.957 333.06 79.915C333.111 79.8997 333.165 79.8946 333.218 79.9001C333.271 79.9055 333.322 79.9213 333.369 79.9466C333.416 79.9719 333.458 80.0062 333.491 80.0475C333.525 80.0889 333.55 80.1364 333.566 80.1875C333.581 80.2386 333.586 80.2922 333.58 80.3452C333.575 80.3983 333.559 80.4498 333.534 80.4967C333.509 80.5436 333.474 80.5851 333.433 80.6188C333.392 80.6525 333.344 80.6777 333.293 80.693C333.158 80.733 319.76 84.893 315.705 99.093C312.275 111.099 307.339 120.522 304.236 123.625C302.323 125.538 300.943 132.472 300.118 136.614C299.868 137.866 299.653 138.947 299.472 139.674C298.756 142.54 295.545 147.907 295.409 148.134C295.373 148.195 295.323 148.245 295.262 148.28C295.201 148.315 295.131 148.334 295.061 148.334" fill="white"/>
<path d="M288.077 146.543C287.97 146.543 287.868 146.501 287.792 146.426C287.716 146.351 287.673 146.25 287.671 146.143C287.671 146.037 287.601 135.488 284.509 132.396C281.373 129.259 279.583 119.662 278.709 101.277C277.909 84.577 265.94 70.812 265.82 70.677C265.784 70.6372 265.756 70.5905 265.738 70.5399C265.721 70.4892 265.713 70.4355 265.716 70.3818C265.719 70.3282 265.733 70.2757 265.756 70.2274C265.78 70.1791 265.812 70.1359 265.853 70.1004C265.893 70.0649 265.94 70.0377 265.991 70.0204C266.042 70.0031 266.096 69.9962 266.149 69.9999C266.203 70.0035 266.255 70.0178 266.303 70.0419C266.351 70.0659 266.394 70.0993 266.429 70.14C266.552 70.279 278.711 84.245 279.519 101.24C280.373 119.162 282.141 128.88 285.084 131.824C288.412 135.152 288.484 145.696 288.484 146.143C288.484 146.25 288.442 146.352 288.368 146.429C288.293 146.505 288.191 146.548 288.084 146.55L288.077 146.543Z" fill="white"/>
<path d="M138.873 101.713L127.668 99.343C126.736 99.1459 125.921 98.5867 125.402 97.7886C124.882 96.9905 124.701 96.0187 124.898 95.087L128.462 78.238C128.659 77.3063 129.218 76.4911 130.016 75.9717C130.814 75.4522 131.786 75.271 132.718 75.468L143.923 77.838C144.855 78.0354 145.67 78.5945 146.189 79.3926C146.708 80.1907 146.89 81.1623 146.693 82.094L143.129 98.943C143.032 99.4046 142.845 99.8424 142.578 100.232C142.311 100.621 141.971 100.953 141.576 101.211C141.18 101.468 140.738 101.645 140.274 101.731C139.811 101.817 139.334 101.811 138.873 101.713Z" fill="white"/>
<path d="M139.621 102.134C139.346 102.134 139.072 102.105 138.803 102.048L127.603 99.678C127.098 99.5711 126.618 99.3657 126.192 99.0736C125.766 98.7815 125.402 98.4083 125.12 97.9754C124.839 97.5425 124.645 97.0583 124.55 96.5505C124.456 96.0428 124.462 95.5213 124.569 95.016L128.133 78.167C128.349 77.1465 128.962 76.2537 129.836 75.6847C130.71 75.1158 131.775 74.9173 132.795 75.133L143.995 77.503C144.5 77.6099 144.98 77.8152 145.406 78.1074C145.832 78.3995 146.196 78.7727 146.478 79.2056C146.759 79.6385 146.953 80.1227 147.048 80.6305C147.142 81.1382 147.136 81.6596 147.029 82.165L143.465 99.015C143.279 99.8969 142.796 100.688 142.096 101.256C141.396 101.824 140.522 102.133 139.621 102.134ZM131.967 75.735C131.224 75.7376 130.503 75.9949 129.927 76.464C129.35 76.9331 128.951 77.5856 128.797 78.313L125.233 95.162C125.055 96.0048 125.219 96.8839 125.689 97.6058C126.159 98.3278 126.896 98.8336 127.739 99.012L138.939 101.382C139.356 101.471 139.787 101.476 140.207 101.398C140.626 101.32 141.026 101.16 141.384 100.927C141.741 100.695 142.05 100.394 142.291 100.042C142.532 99.6897 142.701 99.2935 142.789 98.876L146.353 82.027C146.441 81.6096 146.447 81.179 146.368 80.7596C146.29 80.3403 146.13 79.9404 145.898 79.5829C145.665 79.2254 145.364 78.9172 145.012 78.676C144.66 78.4348 144.264 78.2652 143.847 78.177L132.647 75.807C132.423 75.7593 132.196 75.7352 131.967 75.735Z" fill="#510394"/>
<g opacity="0.59">
<mask id="mask6_3_4718" style="mask-type:luminance" maskUnits="userSpaceOnUse" x="128" y="77" width="18" height="11">
<path d="M145.086 77.847H128.997V87.562H145.086V77.847Z" fill="white"/>
</mask>
<g mask="url(#mask6_3_4718)">
<path d="M142.513 87.532L130.084 84.903C129.908 84.8658 129.741 84.7942 129.593 84.6925C129.444 84.5907 129.317 84.4608 129.219 84.31C129.121 84.1591 129.053 83.9905 129.021 83.8136C128.988 83.6367 128.99 83.455 129.027 83.279L129.946 78.933C129.983 78.757 130.055 78.5899 130.157 78.4415C130.258 78.2931 130.388 78.1663 130.539 78.0681C130.69 77.9699 130.859 77.9025 131.035 77.8695C131.212 77.8365 131.394 77.8387 131.57 77.876L143.999 80.505C144.175 80.5421 144.342 80.6135 144.491 80.7153C144.639 80.817 144.766 80.947 144.864 81.0978C144.962 81.2487 145.03 81.4174 145.063 81.5943C145.096 81.7713 145.093 81.9529 145.056 82.129L144.137 86.475C144.1 86.651 144.028 86.818 143.927 86.9664C143.825 87.1148 143.695 87.2417 143.544 87.3399C143.393 87.438 143.224 87.5055 143.048 87.5385C142.871 87.5715 142.689 87.5693 142.513 87.532Z" fill="#F6EEFF"/>
</g>
</g>
<g opacity="0.59">
<mask id="mask7_3_4718" style="mask-type:luminance" maskUnits="userSpaceOnUse" x="127" y="86" width="17" height="10">
<path d="M143.123 86.223H127.034V95.938H143.123V86.223Z" fill="white"/>
</mask>
<g mask="url(#mask7_3_4718)">
<path d="M140.55 95.908L128.121 93.279C127.945 93.2418 127.778 93.1703 127.63 93.0685C127.481 92.9668 127.354 92.8368 127.256 92.686C127.158 92.5352 127.09 92.3665 127.057 92.1896C127.025 92.0127 127.027 91.8311 127.064 91.655L127.983 87.309C128.02 87.133 128.092 86.966 128.193 86.8176C128.295 86.6692 128.425 86.5423 128.576 86.4441C128.727 86.346 128.895 86.2785 129.072 86.2455C129.249 86.2126 129.431 86.2148 129.607 86.252L142.036 88.881C142.212 88.9181 142.379 88.9896 142.528 89.0913C142.676 89.193 142.803 89.323 142.901 89.4739C142.999 89.6247 143.067 89.7934 143.1 89.9704C143.133 90.1473 143.13 90.329 143.093 90.505L142.174 94.851C142.137 95.0271 142.065 95.1941 141.964 95.3425C141.862 95.4909 141.732 95.6178 141.581 95.7159C141.43 95.8141 141.261 95.8815 141.085 95.9145C140.908 95.9475 140.726 95.9453 140.55 95.908Z" fill="#F6EEFF"/>
</g>
</g>
<path d="M135.078 98.101C135.078 98.2923 135.021 98.4793 134.915 98.6383C134.809 98.7973 134.658 98.9212 134.481 98.9944C134.304 99.0676 134.11 99.0868 133.922 99.0494C133.735 99.0121 133.562 98.92 133.427 98.7848C133.292 98.6496 133.2 98.4773 133.163 98.2897C133.125 98.1021 133.144 97.9077 133.218 97.731C133.291 97.5543 133.415 97.4033 133.574 97.297C133.733 97.1907 133.92 97.134 134.111 97.134C134.367 97.134 134.613 97.2359 134.795 97.4173C134.976 97.5986 135.078 97.8445 135.078 98.101Z" fill="#510394"/>
<path d="M254.456 174.434H186.128V137.199C186.128 137.199 185.34 125.475 220.292 125.475C255.244 125.475 254.456 137.199 254.456 137.199V174.434Z" fill="#FFAC00"/>
<path d="M252.045 170.047C251.559 169.842 251.036 169.736 250.508 169.737H190.075C189.027 169.737 188.023 170.153 187.282 170.894C186.541 171.635 186.125 172.639 186.125 173.687C186.125 174.735 186.541 175.739 187.282 176.48C188.023 177.221 189.027 177.637 190.075 177.637H192.256V181.616H198.634V177.647H241.949V181.626H248.327V177.647H250.508C251.419 177.646 252.301 177.33 253.006 176.754C253.711 176.177 254.194 175.374 254.375 174.481C254.556 173.589 254.423 172.661 253.998 171.855C253.574 171.05 252.884 170.415 252.045 170.06" fill="#FF7F00"/>
<path d="M126.688 174.434H58.36V137.199C58.36 137.199 57.572 125.475 92.524 125.475C127.476 125.475 126.688 137.199 126.688 137.199V174.434Z" fill="#FFAC00"/>
<path d="M124.277 170.047C123.791 169.842 123.268 169.736 122.74 169.737H62.307C61.2594 169.737 60.2547 170.153 59.5139 170.894C58.7731 171.635 58.357 172.639 58.357 173.687C58.357 174.735 58.7731 175.739 59.5139 176.48C60.2547 177.221 61.2594 177.637 62.307 177.637H64.488V181.616H70.868V177.647H114.183V181.626H120.561V177.647H122.742C123.653 177.646 124.535 177.33 125.24 176.754C125.945 176.177 126.429 175.374 126.609 174.481C126.79 173.589 126.657 172.661 126.232 171.855C125.808 171.05 125.118 170.415 124.279 170.06" fill="#FF7F00"/>
<path d="M108.191 89.385C108.191 89.385 119.176 88.613 121.749 86.833C124.322 85.053 123.695 84.233 125.892 84.233C128.044 84.4269 130.169 84.8475 132.232 85.488L126.646 86.053C126.646 86.053 126.897 91.263 125.077 91.702C123.257 92.141 123.068 91.514 121.377 92.141C119.686 92.768 111.208 97.79 105.245 97.916C99.282 98.042 108.195 89.379 108.195 89.379" fill="white"/>
<path d="M105.118 98.266C103.965 98.266 103.24 97.93 102.962 97.266C102.015 95.002 107.342 89.733 107.953 89.14C108.01 89.0823 108.086 89.0469 108.167 89.04C108.276 89.032 119.087 88.254 121.555 86.548C122.232 86.0888 122.854 85.5518 123.406 84.948C123.692 84.5699 124.072 84.2735 124.509 84.0884C124.945 83.9033 125.422 83.8359 125.893 83.893C128.079 84.0833 130.238 84.5091 132.332 85.163C132.408 85.1858 132.474 85.2342 132.518 85.3C132.562 85.3658 132.582 85.4449 132.574 85.5238C132.567 85.6027 132.532 85.6764 132.476 85.7325C132.42 85.7885 132.346 85.8233 132.267 85.831L126.999 86.364C127.028 87.618 126.974 91.599 125.157 92.038C124.54 92.1963 123.902 92.2517 123.267 92.202C122.663 92.143 122.053 92.2337 121.492 92.466C121.142 92.596 120.445 92.944 119.562 93.385C116.219 95.055 109.995 98.162 105.249 98.262H105.119M108.342 89.714C106.167 91.847 103.024 95.634 103.595 96.999C103.764 97.399 104.316 97.599 105.235 97.577C109.828 97.477 115.962 94.417 119.257 92.777C120.194 92.309 120.87 91.971 121.257 91.829C121.905 91.5637 122.608 91.4587 123.306 91.523C123.875 91.5686 124.447 91.5192 125 91.377C126.125 91.105 126.4 87.977 126.308 86.077C126.304 85.9895 126.333 85.9037 126.39 85.8373C126.447 85.7709 126.528 85.7289 126.615 85.72L130.373 85.34C128.912 84.9309 127.411 84.6769 125.897 84.582C125.52 84.5248 125.135 84.573 124.784 84.7212C124.433 84.8695 124.13 85.112 123.908 85.422C123.323 86.0626 122.666 86.6332 121.949 87.122C119.449 88.85 109.636 89.629 108.349 89.722" fill="#510394"/>
<path d="M145.79 167.173C144.89 168.42 144.62 171.316 146.19 172.361C147.76 173.406 147.782 173.042 148.755 174.202C149.728 175.362 155.333 181.617 155.333 181.617L156.233 180.18C156.233 180.18 149.913 173.843 150.584 173.136C151.255 172.429 154.884 173.892 156.919 175.65C158.954 177.408 159.846 178.969 162.08 177.912C164.314 176.855 167.467 173.731 167.234 173.37C166.651 172.47 160.97 172.288 160.407 171.719C159.844 171.15 154.377 167.063 150.643 166.559C146.909 166.055 145.79 167.172 145.79 167.172" fill="#510394"/>
<path d="M120.198 131.896C120.198 131.896 136.982 148.85 141.859 156.245C146.736 163.64 146.264 167.101 146.264 167.101C146.264 167.101 148.464 166.629 149.725 167.494C150.986 168.359 156.333 173.079 160.345 171.978C158.58 170.379 157.138 168.456 156.097 166.314C153.897 162.223 148.545 151.839 145.162 146.333C141.779 140.827 123.662 115.069 121.413 113.122C119.164 111.175 120.198 131.896 120.198 131.896Z" fill="white"/>
<path d="M159.072 172.485C155.71 172.485 151.945 169.608 150.217 168.285C149.923 168.06 149.691 167.885 149.532 167.774C148.412 167.004 146.357 167.429 146.332 167.433C146.278 167.444 146.223 167.443 146.17 167.428C146.117 167.413 146.068 167.386 146.028 167.349C145.988 167.312 145.957 167.265 145.938 167.214C145.92 167.162 145.914 167.106 145.921 167.052C145.921 167.02 146.288 163.586 141.569 156.431C136.769 149.149 120.118 132.303 119.95 132.131C119.89 132.071 119.854 131.991 119.85 131.907C119.85 131.862 119.625 127.335 119.614 122.765C119.591 113.321 120.473 112.892 120.85 112.708C120.98 112.648 121.125 112.63 121.265 112.657C121.405 112.683 121.534 112.753 121.632 112.857C123.855 114.784 141.96 140.469 145.449 146.148C148.07 150.415 151.92 157.701 154.469 162.522C155.234 163.969 155.894 165.222 156.393 166.146C157.418 168.242 158.828 170.126 160.549 171.701C160.599 171.74 160.638 171.792 160.66 171.851C160.682 171.911 160.687 171.975 160.675 172.037C160.663 172.1 160.634 172.157 160.591 172.204C160.547 172.25 160.492 172.284 160.431 172.301C159.986 172.421 159.528 172.48 159.067 172.477M147.605 166.622C148.415 166.586 149.218 166.788 149.914 167.204C150.087 167.323 150.325 167.504 150.627 167.736C152.392 169.085 156.376 172.127 159.597 171.764C158.069 170.199 156.786 168.412 155.791 166.464C155.291 165.535 154.63 164.284 153.864 162.835C151.32 158.021 147.475 150.747 144.864 146.499C141.387 140.839 123.381 115.273 121.182 113.367C121.166 113.352 121.149 113.339 121.13 113.328C120.408 113.838 119.989 120.806 120.53 131.735C121.88 133.105 137.489 148.989 142.142 156.043C146.107 162.054 146.587 165.511 146.616 166.683C146.945 166.639 147.276 166.617 147.608 166.617" fill="#510394"/>
<path d="M122.148 169.203C120.711 169.758 118.914 172.045 119.666 173.776C120.418 175.507 120.632 175.213 120.819 176.716C121.006 178.219 122.312 186.516 122.312 186.516L123.847 185.798C123.847 185.798 121.985 177.044 122.932 176.815C123.879 176.586 126.132 179.787 126.885 182.368C127.638 184.949 127.538 186.745 129.985 187.068C132.432 187.391 136.779 186.485 136.779 186.056C136.779 184.982 132.108 181.744 131.945 180.956C131.782 180.168 129.413 173.77 126.553 171.319C123.693 168.868 122.146 169.197 122.146 169.197" fill="#510394"/>
<path d="M109.249 106.774C109.249 106.774 115.533 102.204 118.982 103.412C122.431 104.62 125.267 121.712 125.953 135.988C126.639 150.264 127.874 167.363 128.601 169.326C129.328 171.289 131.145 179.688 131.145 179.688C131.145 179.688 128.019 173.688 125.839 172.379C123.659 171.07 121.405 170.925 121.405 169.762C121.405 168.599 117.826 146.462 117.005 141.283C116.184 136.104 113.605 124.883 112.73 124.876C111.617 125.132 110.547 125.55 109.555 126.116L109.249 106.774Z" fill="white"/>
<path d="M131.146 180.028C131.084 180.027 131.023 180.01 130.971 179.978C130.918 179.945 130.875 179.899 130.846 179.844C130.815 179.785 127.74 173.914 125.667 172.671C124.909 172.236 124.115 171.868 123.294 171.571C122.05 171.087 121.067 170.704 121.067 169.756C121.067 168.832 118.567 153.162 117.359 145.632C117.059 143.787 116.823 142.276 116.673 141.332C115.801 135.811 113.455 126.098 112.659 125.217C111.63 125.48 110.642 125.884 109.723 126.417C109.671 126.445 109.612 126.459 109.553 126.458C109.494 126.457 109.436 126.441 109.385 126.41C109.334 126.38 109.292 126.337 109.263 126.286C109.234 126.234 109.218 126.176 109.218 126.117L108.91 106.775C108.909 106.72 108.922 106.666 108.946 106.617C108.971 106.568 109.007 106.525 109.051 106.493C109.314 106.302 115.522 101.833 119.099 103.084C120.842 103.694 122.438 107.612 123.843 114.729C125.154 121.743 125.974 128.839 126.298 135.967C126.981 150.176 128.228 167.32 128.925 169.203C129.652 171.165 131.408 179.267 131.483 179.611C131.494 179.661 131.494 179.713 131.482 179.762C131.47 179.812 131.447 179.858 131.415 179.898C131.383 179.938 131.343 179.97 131.297 179.992C131.25 180.014 131.2 180.025 131.149 180.025M112.732 124.525H112.737C113.084 124.525 113.609 124.525 115.227 131.048C116.075 134.463 116.927 138.548 117.349 141.221C117.498 142.166 117.74 143.676 118.035 145.521C119.835 156.772 121.751 168.851 121.751 169.753C121.751 170.211 122.398 170.485 123.542 170.93C124.399 171.24 125.228 171.623 126.019 172.077C127.437 172.928 129.188 175.59 130.319 177.49C129.727 174.861 128.764 170.719 128.289 169.437C127.559 167.467 126.32 150.555 125.62 135.997C125.298 128.903 124.482 121.84 123.177 114.859C121.877 108.287 120.313 104.23 118.877 103.728C115.914 102.69 110.548 106.285 109.602 106.943L109.902 125.55C110.784 125.051 111.743 124.706 112.74 124.527" fill="#510394"/>
<path d="M98.841 68.329C98.841 68.329 101.976 68.801 102.375 69.842C104.82 76.212 94.611 106.797 96.682 108.764C98.753 110.731 111.174 102.864 112.934 102.864C114.694 102.864 114.59 107.833 115.315 110.11C116.04 112.387 115.108 117.874 112.624 122.325C110.14 126.776 114.901 126.259 110.243 129.675C105.585 133.091 96.993 139.405 81.88 138.475C66.767 137.545 64.8 128.227 65.318 120.049C65.836 111.871 78.672 64.565 85.918 66.738L98.841 68.329Z" fill="#00B2CA"/>
<path d="M107.722 91.292C107.722 91.292 102.643 111.958 102.468 115.373C102.293 118.788 99.318 136.564 99.318 136.564C99.318 136.564 106.027 138.096 106.718 138.378C107.409 138.66 109.939 142.978 109.939 142.978H109.251L108.688 144.385L107.937 143.009L107.405 144.385L105.716 141.977C105.716 141.977 99.836 143.447 97.366 143.416C94.896 143.385 93.3 142.853 93.425 140.382C93.55 137.911 94.56 111.503 95.148 106.922C95.736 102.341 99.96 90.474 99.96 90.474L107.722 91.292Z" fill="white"/>
<path d="M108.686 144.725C108.625 144.725 108.564 144.708 108.511 144.677C108.459 144.645 108.415 144.6 108.386 144.546L107.986 143.818L107.72 144.506C107.698 144.564 107.66 144.615 107.611 144.653C107.562 144.691 107.504 144.716 107.442 144.723C107.38 144.731 107.318 144.721 107.261 144.696C107.204 144.67 107.156 144.63 107.12 144.579L105.566 142.363C102.876 143.067 100.129 143.533 97.357 143.756C96.05 143.739 94.602 143.603 93.77 142.717C93.4978 142.394 93.2958 142.018 93.1768 141.613C93.0579 141.207 93.0246 140.782 93.079 140.363C93.103 139.894 93.159 138.542 93.237 136.67C93.563 128.87 94.326 110.601 94.804 106.876C95.389 102.311 99.464 90.845 99.637 90.359C99.6628 90.2867 99.7121 90.2252 99.777 90.1842C99.8419 90.1432 99.9187 90.1252 99.995 90.133L107.755 90.952C107.804 90.9566 107.851 90.9717 107.894 90.9963C107.936 91.0209 107.973 91.0543 108.002 91.0943C108.03 91.1344 108.05 91.1801 108.059 91.2283C108.068 91.2766 108.067 91.3263 108.055 91.374C108.004 91.58 102.982 112.047 102.811 115.391C102.648 118.576 100.123 133.821 99.711 136.303C101.147 136.632 106.217 137.803 106.848 138.062C107.586 138.362 109.627 141.762 110.235 142.803C110.266 142.855 110.282 142.915 110.283 142.976C110.283 143.037 110.267 143.096 110.236 143.149C110.206 143.202 110.162 143.245 110.109 143.275C110.056 143.305 109.996 143.32 109.935 143.319H109.479L109.002 144.511C108.978 144.572 108.937 144.624 108.883 144.662C108.83 144.701 108.767 144.723 108.702 144.726H108.682M105.711 141.633C105.766 141.633 105.82 141.646 105.869 141.672C105.918 141.697 105.959 141.734 105.991 141.779L107.312 143.662L107.612 142.884C107.635 142.823 107.676 142.77 107.729 142.731C107.781 142.693 107.844 142.67 107.909 142.665C107.974 142.661 108.04 142.676 108.097 142.707C108.154 142.739 108.201 142.787 108.232 142.844L108.632 143.582L108.925 142.85C108.95 142.786 108.994 142.732 109.051 142.694C109.108 142.655 109.175 142.635 109.243 142.635H109.33C108.567 141.221 107.644 139.899 106.579 138.696C106.038 138.474 101.095 137.324 99.237 136.896C99.1519 136.877 99.0776 136.825 99.0291 136.753C98.9806 136.68 98.9616 136.592 98.976 136.506C99.006 136.328 101.95 118.706 102.122 115.354C102.286 112.161 106.578 94.508 107.292 91.59L100.192 90.841C99.578 92.587 96.011 102.841 95.483 106.962C95.009 110.662 94.247 128.905 93.921 136.697C93.843 138.571 93.786 139.924 93.762 140.397C93.7152 140.724 93.736 141.057 93.823 141.375C93.91 141.693 94.0615 141.991 94.268 142.248C94.783 142.797 95.738 143.048 97.368 143.071C99.768 143.109 105.568 141.657 105.631 141.643C105.658 141.636 105.686 141.633 105.714 141.633" fill="#510394"/>
<path d="M95.208 59.44C95.208 59.44 92.936 63.415 93.008 65.261C93.08 67.107 99.823 68.171 100.462 69.161C101.101 70.151 97.051 71.504 93.007 70.652C90.6975 70.2947 88.4677 69.5388 86.417 68.418C85.281 67.779 85.994 56.506 89.259 55.654C92.524 54.802 95.209 59.435 95.209 59.435" fill="white"/>
<path d="M95.672 71.273C94.7529 71.2747 93.836 71.1815 92.936 70.995C90.5936 70.6262 88.3319 69.8584 86.249 68.725C85.317 68.2 85.536 64.457 85.783 62.55C86.038 60.579 86.883 55.93 89.173 55.331C92.651 54.424 95.391 59.074 95.505 59.272C95.5349 59.3241 95.5507 59.383 95.5507 59.443C95.5507 59.5031 95.5349 59.562 95.505 59.614C95.483 59.653 93.283 63.525 93.349 65.252C93.383 66.132 96.003 67.008 97.737 67.589C99.471 68.17 100.446 68.513 100.749 68.989C100.833 69.119 100.875 69.2718 100.869 69.4264C100.863 69.5811 100.809 69.7301 100.715 69.853C100.161 70.653 98.073 71.277 95.671 71.277M90.065 55.903C89.822 55.9031 89.58 55.9344 89.345 55.996C88.36 56.253 87.46 57.833 86.874 60.331C86.032 63.923 86.174 67.768 86.593 68.131C87.579 68.685 88.942 69.451 93.077 70.322C96.401 71.022 99.654 70.179 100.152 69.457C100.198 69.39 100.187 69.373 100.174 69.351C99.353 68.8434 98.4579 68.4665 97.521 68.234C95.16 67.444 92.721 66.627 92.666 65.275C92.6 63.561 94.366 60.261 94.812 59.449C94.354 58.731 92.399 55.898 90.066 55.898" fill="#510394"/>
<path d="M100.189 46.825L102.716 54.912H100.839C100.839 54.912 101.561 59.894 100.406 60.978C99.251 62.062 96.647 62.241 93.47 59.641C91.021 57.641 91.159 54.514 91.376 52.204C91.593 49.894 95.495 46.104 100.189 46.825Z" fill="white"/>
<path d="M98.268 62.071C96.3979 61.943 94.6279 61.179 93.252 59.906C90.519 57.669 90.852 54.093 91.034 52.172C91.37 50.6015 92.2956 49.2196 93.62 48.311C94.5409 47.5719 95.6031 47.0287 96.7415 46.7149C97.8799 46.401 99.0704 46.3232 100.24 46.486C100.303 46.4957 100.363 46.5229 100.411 46.5646C100.46 46.6063 100.496 46.6609 100.515 46.722L103.042 54.809C103.058 54.8603 103.061 54.9145 103.052 54.9674C103.043 55.0202 103.022 55.0703 102.99 55.1134C102.959 55.1566 102.917 55.1917 102.869 55.216C102.821 55.2402 102.769 55.2529 102.715 55.253H101.229C101.386 56.529 101.729 60.205 100.639 61.226C99.9856 61.7999 99.1371 62.1016 98.268 62.069M98.994 47.069C97.1924 47.0988 95.4511 47.7232 94.041 48.845C92.8716 49.6446 92.0425 50.8516 91.716 52.23C91.466 54.897 91.532 57.608 93.686 59.371C95.725 61.039 98.624 62.171 100.172 60.723C100.919 60.023 100.772 56.814 100.501 54.956C100.494 54.9074 100.497 54.8579 100.511 54.8108C100.525 54.7637 100.549 54.7201 100.581 54.683C100.613 54.6459 100.653 54.6162 100.698 54.5958C100.742 54.5755 100.791 54.565 100.84 54.565H102.252L99.928 47.129C99.6189 47.09 99.3076 47.0703 98.996 47.07" fill="#510394"/>
<path d="M100.695 44.123C95.686 40.523 83.623 40.905 82.995 51.631C82.595 58.507 85.587 60.552 85.587 61.767C85.587 62.982 79.42 65.932 79.867 72.993C80.314 80.054 82.681 88.545 79.844 93.372C77.007 98.199 76.284 103.635 79.331 103.919C89.878 104.902 90.631 66.473 88.573 62.356C87.493 60.194 92.82 62.056 98.727 52.883C101.866 48.007 101.976 45.046 100.693 44.124" fill="#510394"/>
<path d="M101.768 69.233C101.768 69.233 108.72 71.625 109.574 77.905C110.428 84.185 110.184 92.05 108.903 92.355C107.622 92.66 99.453 93.331 97.803 91.867C96.153 90.403 98.403 71.839 101.764 69.233" fill="#00B2CA"/>
<path d="M105.452 93.012C102.867 92.9764 100.29 92.7087 97.752 92.212C97.134 92.099 96.614 91.306 96.99 86.32C97.19 83.656 97.571 80.99 97.575 80.964C97.5798 80.9179 97.5938 80.8733 97.6162 80.8328C97.6387 80.7923 97.6691 80.7567 97.7056 80.7283C97.7422 80.6999 97.7841 80.6791 97.8289 80.6674C97.8737 80.6556 97.9204 80.653 97.9663 80.6597C98.0121 80.6665 98.056 80.6825 98.0955 80.7067C98.135 80.7309 98.1692 80.7629 98.196 80.8006C98.2228 80.8384 98.2416 80.8812 98.2514 80.9265C98.2612 80.9718 98.2618 81.0185 98.253 81.064C97.489 86.392 97.323 91.192 97.89 91.546C104.19 92.702 107.335 92.24 107.366 92.235C107.456 92.2209 107.547 92.2431 107.621 92.2965C107.694 92.35 107.743 92.4304 107.757 92.52C107.771 92.6096 107.749 92.7012 107.695 92.7745C107.642 92.8479 107.562 92.897 107.472 92.911C106.804 92.9945 106.131 93.0306 105.458 93.019" fill="#510394"/>
<path d="M109.25 143.318C109.201 143.318 109.153 143.308 109.108 143.288C109.064 143.267 109.024 143.238 108.992 143.201L106.449 140.295L101.608 139.289C101.564 139.28 101.522 139.262 101.485 139.237C101.448 139.212 101.416 139.179 101.391 139.142C101.342 139.066 101.324 138.973 101.342 138.884C101.361 138.796 101.414 138.718 101.49 138.668C101.566 138.618 101.658 138.601 101.747 138.619L106.7 139.648C106.773 139.663 106.839 139.702 106.888 139.758L109.507 142.75C109.551 142.799 109.579 142.86 109.589 142.925C109.598 142.991 109.589 143.057 109.562 143.117C109.535 143.177 109.491 143.228 109.436 143.263C109.38 143.299 109.316 143.318 109.25 143.318Z" fill="#510394"/>
<path d="M107.936 143.35C107.888 143.35 107.841 143.34 107.797 143.321C107.753 143.302 107.714 143.273 107.682 143.238L105.802 141.164L101.822 140.347C101.776 140.34 101.732 140.324 101.692 140.299C101.653 140.275 101.619 140.242 101.592 140.204C101.565 140.166 101.547 140.123 101.537 140.077C101.528 140.032 101.528 139.984 101.537 139.939C101.547 139.893 101.565 139.85 101.592 139.812C101.619 139.774 101.653 139.741 101.692 139.717C101.732 139.692 101.776 139.676 101.822 139.669C101.868 139.662 101.915 139.664 101.96 139.676L106.049 140.516C106.12 140.529 106.184 140.564 106.234 140.616L108.189 142.773C108.234 142.822 108.263 142.883 108.274 142.948C108.284 143.014 108.275 143.081 108.249 143.141C108.222 143.202 108.178 143.253 108.123 143.29C108.067 143.326 108.002 143.345 107.936 143.345" fill="#510394"/>
<path d="M172.397 176.903C172.397 176.903 164.53 182.379 165.117 183.377C165.704 184.375 171.323 187.342 173.997 185.49C176.671 183.638 178.697 178.222 178.697 178.222L177.103 184.856L179.182 185.046C179.182 185.046 178.976 180.4 180.094 179.155C181.212 177.91 183.458 176.485 182.548 174.423C181.638 172.361 180.48 168.278 179.079 169.23C177.678 170.182 172.392 176.903 172.392 176.903" fill="#510394"/>
<path d="M173.742 162.503C173.742 162.503 173.552 169.295 173.034 170.754C172.516 172.213 167.498 181.444 167.498 181.444C167.498 181.444 176.298 177.131 177.881 174.552C179.464 171.973 180.369 169.687 179.081 169.23C177.793 168.773 178.668 163.866 178.668 163.866L173.742 162.503Z" fill="white"/>
<path d="M167.494 181.786C167.435 181.786 167.376 181.771 167.325 181.741C167.273 181.712 167.23 181.669 167.2 181.618C167.17 181.567 167.153 181.509 167.152 181.45C167.151 181.391 167.166 181.332 167.194 181.28C167.244 181.188 172.205 172.055 172.708 170.638C173.108 169.525 173.331 164.823 173.397 162.492C173.398 162.44 173.412 162.389 173.436 162.343C173.46 162.297 173.494 162.257 173.536 162.227C173.577 162.196 173.625 162.175 173.676 162.165C173.727 162.156 173.78 162.158 173.83 162.172L178.756 163.535C178.838 163.558 178.909 163.61 178.954 163.683C178.999 163.755 179.016 163.841 179.001 163.925C178.601 166.157 178.586 168.692 179.192 168.907C179.365 168.965 179.523 169.061 179.653 169.19C179.783 169.318 179.881 169.474 179.941 169.647C180.271 170.581 179.691 172.247 178.169 174.73C176.556 177.364 168.008 181.572 167.645 181.75C167.598 181.773 167.546 181.786 167.494 181.786ZM174.067 162.948C174.015 164.49 173.811 169.578 173.352 170.867C172.926 172.067 169.623 178.224 168.316 180.643C170.635 179.443 176.38 176.343 177.585 174.373C179.406 171.4 179.438 170.279 179.296 169.873C179.271 169.796 179.228 169.727 179.17 169.67C179.112 169.614 179.041 169.572 178.964 169.549C178.264 169.3 177.964 168.256 178.047 166.358C178.085 165.606 178.162 164.856 178.277 164.111L174.067 162.948Z" fill="#510394"/>
<path d="M211.715 112.073C211.715 112.073 182.966 104.66 178.597 108C174.228 111.34 173.255 123.641 173.733 130.678C174.211 137.715 173.008 160.829 172.558 162.491C172.108 164.153 179.927 165.809 179.927 165.809C179.927 165.809 184.927 144.232 186.615 139.482C188.303 134.732 187.768 123.612 187.768 123.612C187.768 123.612 204.448 132.412 213.646 132.018C224.96 131.528 231.469 126.339 230.946 118.902C230.423 111.465 211.719 112.073 211.719 112.073" fill="#3A3E3F"/>
<path d="M200.413 87.922C200.413 87.922 197.977 91.892 196.44 92.299C194.903 92.706 183.24 87.171 182.264 85.799C181.288 84.427 180.299 80.192 179.064 79.753C177.829 79.314 171.051 76.321 171.051 76.321L175.13 79.895C175.13 79.895 173.692 80.85 173.66 81.351C173.628 81.852 173.933 86.357 175.3 86.843C176.667 87.329 180.805 87.843 182.717 89.477C184.629 91.111 194.475 100.467 197.544 99.877C200.613 99.287 205.51 91.622 205.51 91.622L200.413 87.922Z" fill="white"/>
<path d="M197.253 100.24C194.591 100.24 188.925 95.491 183.675 90.783C183.16 90.321 182.753 89.956 182.496 89.737C181.17 88.605 178.679 88.025 176.861 87.602C176.172 87.442 175.578 87.302 175.187 87.165C173.44 86.544 173.317 81.38 173.32 81.33C173.35 80.851 174.051 80.251 174.577 79.865L170.826 76.579C170.764 76.5254 170.722 76.451 170.71 76.3695C170.698 76.2881 170.716 76.205 170.76 76.1356C170.805 76.0662 170.872 76.015 170.951 75.9916C171.03 75.9681 171.115 75.9739 171.19 76.008C171.258 76.038 177.969 79.001 179.179 79.431C180.079 79.751 180.73 81.403 181.42 83.152C181.713 84.0035 182.09 84.8239 182.545 85.601C182.945 86.168 185.845 87.801 189.289 89.407C193.273 91.263 195.858 92.101 196.355 91.969C197.506 91.669 199.466 88.816 200.123 87.744C200.147 87.7035 200.18 87.6686 200.219 87.6414C200.257 87.6142 200.301 87.5953 200.348 87.5859C200.394 87.5765 200.442 87.5768 200.488 87.5868C200.534 87.5968 200.578 87.6163 200.616 87.644L205.716 91.338C205.787 91.3894 205.835 91.4659 205.851 91.5517C205.867 91.6376 205.85 91.7264 205.803 91.8C205.603 92.118 200.79 99.59 197.613 100.206C197.495 100.228 197.376 100.239 197.256 100.238M172.956 77.527L175.363 79.636C175.403 79.6706 175.434 79.7139 175.454 79.7625C175.474 79.8112 175.483 79.8638 175.48 79.9164C175.476 79.9689 175.46 80.02 175.434 80.0655C175.408 80.1111 175.371 80.1499 175.327 80.179C174.807 80.4806 174.358 80.8897 174.009 81.379C173.96 82.157 174.409 86.161 175.422 86.522C175.777 86.648 176.354 86.782 177.022 86.938C178.909 87.377 181.493 87.979 182.946 89.219C183.209 89.444 183.619 89.811 184.138 90.276C187.109 92.941 194.999 100.022 197.486 99.538C198.66 99.31 200.364 97.849 202.415 95.313C203.644 93.793 204.658 92.3 205.052 91.705L200.516 88.417C199.872 89.417 197.948 92.259 196.536 92.633C194.784 93.095 183.002 87.417 181.993 86C181.504 85.177 181.102 84.3057 180.793 83.4C180.246 82.014 179.566 80.288 178.96 80.073C178.151 79.786 175.066 78.447 172.96 77.526" fill="#510394"/>
<path d="M212.767 68.016C210.675 69.275 206.138 72.886 206.493 75.509C206.848 78.132 203.475 83.368 203.493 86.097C203.511 88.826 209.276 90.271 209.03 94.797C208.784 99.323 209.949 112.444 209.051 114.971C208.153 117.498 215.925 124.997 223.541 123.958C231.157 122.919 235.775 116.858 234.525 110.987C233.275 105.116 229.07 74.367 224.276 70.473C219.482 66.579 212.776 68.012 212.776 68.012" fill="#00B2CA"/>
<path d="M213.053 62.106C213.053 62.106 213.123 67.2829 212.767 68.0159C212.411 68.7489 218.667 68.8709 219.478 66.5829C220.289 64.2949 215.251 60.2159 215.251 60.2159L213.053 62.106Z" fill="white"/>
<path d="M214.563 68.83C213.63 68.83 212.763 68.704 212.504 68.356C212.452 68.2866 212.42 68.2042 212.412 68.1179C212.404 68.0316 212.421 67.9448 212.459 67.867C212.711 65.9595 212.796 64.0334 212.711 62.111C212.71 62.061 212.721 62.0115 212.741 61.9659C212.762 61.9203 212.792 61.8797 212.83 61.847L215.03 59.956C215.091 59.9037 215.168 59.8744 215.248 59.8731C215.328 59.8718 215.407 59.8987 215.469 59.949C216.346 60.676 217.167 61.4665 217.928 62.314C219.554 64.147 220.185 65.622 219.803 66.697C219.318 68.063 217.346 68.545 216.213 68.711C215.667 68.7889 215.117 68.8283 214.566 68.829M213.141 67.984C214.486 68.2476 215.874 68.1873 217.191 67.808C217.946 67.595 218.901 67.19 219.157 66.467C219.726 64.867 216.718 61.894 215.257 60.667L213.399 62.267C213.463 64.1789 213.376 66.0928 213.14 67.991" fill="#510394"/>
<path d="M207.453 54.401C207.453 54.401 206.919 62.694 210.564 63.901C214.209 65.108 216.442 61.165 216.625 60.648C216.808 60.131 215.565 54.034 207.453 54.396" fill="white"/>
<path d="M211.93 64.4749C211.429 64.4727 210.932 64.3897 210.458 64.2289C206.607 62.9489 207.091 54.7289 207.113 54.3779C207.119 54.2939 207.155 54.2148 207.215 54.1558C207.275 54.0968 207.355 54.0619 207.439 54.058C212.104 53.85 214.511 55.7309 215.706 57.3469C216.508 58.306 216.948 59.5165 216.949 60.767C216.515 61.6923 215.891 62.516 215.118 63.1849C214.25 63.9924 213.114 64.452 211.929 64.476M207.781 54.7319C207.737 56.0446 207.804 57.3586 207.981 58.6599C208.262 60.5899 208.956 63.0109 210.671 63.5809C214.245 64.7689 216.286 60.5809 216.302 60.5389C216.152 59.3286 215.623 58.1968 214.79 57.3059C213.701 56.0709 211.609 54.6429 207.779 54.7329" fill="#510394"/>
<path d="M204.472 47.9569C201.423 52.7349 207.813 56.5749 210.5 57.0879C213.187 57.6009 215.4 64.6399 215.311 66.7429C215.222 68.8459 215.069 72.3959 220.882 73.4309C226.695 74.4659 234.561 64.9719 230.176 63.0089C224.208 60.3379 223.137 47.8169 218.146 45.0869C211.819 41.6269 207.458 43.2769 204.471 47.9559" fill="#510394"/>
<path d="M207.694 72.417C207.694 72.417 198.608 84.977 197.737 86.917C196.866 88.857 203.374 93.694 205.449 94.792C207.524 95.89 212.984 85.845 213.803 83.792C214.622 81.739 212.542 73.304 207.693 72.412" fill="#00B2CA"/>
<path d="M208.613 92.907C208.547 92.9066 208.483 92.8874 208.428 92.8515C208.373 92.8156 208.329 92.7647 208.302 92.7047C208.275 92.6448 208.266 92.5784 208.276 92.5133C208.285 92.4483 208.314 92.3875 208.357 92.338C209.534 91.004 213.463 83.708 213.503 83.638C213.55 83.5657 213.622 83.5137 213.705 83.4923C213.789 83.471 213.877 83.4818 213.953 83.5227C214.028 83.5636 214.086 83.6315 214.114 83.713C214.142 83.7944 214.138 83.8833 214.103 83.962C213.94 84.262 210.097 91.402 208.868 92.795C208.836 92.8315 208.796 92.8607 208.752 92.8807C208.708 92.9007 208.66 92.9111 208.611 92.911" fill="#510394"/>
</g>
</g>
</g>
<defs>
<linearGradient id="paint0_linear_3_4718" x1="0.144049" y1="193.23" x2="0.144049" y2="193.23" gradientUnits="userSpaceOnUse">
<stop stop-color="#D3D6DB"/>
<stop offset="0.999" stop-color="#7A869B"/>
<stop offset="1" stop-color="#7A869B"/>
</linearGradient>
<clipPath id="clip0_3_4718">
<rect width="339" height="193.244" fill="white"/>
</clipPath>
</defs>
</svg>
