<svg width="111" height="127" viewBox="0 0 111 127" fill="none" xmlns="http://www.w3.org/2000/svg">
<g clip-path="url(#clip0_3_4849)">
<path d="M108.467 29.8169L57.983 0.669873C57.2229 0.231031 56.3607 0 55.483 0C54.6053 0 53.7431 0.231031 52.983 0.669873L2.5 29.8169C1.73992 30.2557 1.10875 30.8869 0.669905 31.6469C0.231064 32.407 2.23723e-05 33.2692 7.6224e-08 34.1469V92.4399C-0.000153182 93.3177 0.230805 94.1801 0.669655 94.9404C1.1085 95.7006 1.73978 96.332 2.5 96.7709L52.982 125.917C53.7421 126.356 54.6043 126.587 55.482 126.587C56.3597 126.587 57.2219 126.356 57.982 125.917L108.466 96.7709C109.226 96.332 109.857 95.7006 110.296 94.9404C110.735 94.1801 110.966 93.3177 110.966 92.4399V34.1469C110.966 33.2692 110.735 32.407 110.296 31.6469C109.857 30.8869 109.227 30.2557 108.467 29.8169Z" fill="#F6F5FA"/>
<path d="M56.5369 25.225V21.275C56.5389 21.1361 56.513 20.9981 56.4608 20.8693C56.4085 20.7405 56.331 20.6235 56.2327 20.5252C56.1344 20.427 56.0174 20.3494 55.8886 20.2971C55.7598 20.2449 55.6219 20.219 55.4829 20.221C55.3412 20.2079 55.1984 20.2262 55.0646 20.2746C54.9308 20.3229 54.8092 20.4001 54.7086 20.5007C54.608 20.6013 54.5308 20.7229 54.4824 20.8567C54.4341 20.9905 54.4158 21.1333 54.4289 21.275V25.357C54.4956 25.5967 54.6309 25.8117 54.8181 25.9755C55.0054 26.1393 55.2365 26.2448 55.4829 26.279C55.7564 26.2605 56.0138 26.1436 56.2076 25.9498C56.4014 25.756 56.5184 25.4985 56.5369 25.225Z" fill="#FA6E53"/>
<path d="M41.6519 29.967C41.7679 29.9102 41.8709 29.8302 41.9545 29.7318C42.0382 29.6335 42.1007 29.519 42.1382 29.3955C42.1758 29.272 42.1875 29.142 42.1726 29.0138C42.1578 28.8855 42.1167 28.7617 42.0519 28.65L40.0709 25.093C39.9487 24.866 39.7412 24.6968 39.4942 24.6228C39.2472 24.5487 38.9809 24.5758 38.7539 24.698C38.5269 24.8203 38.3577 25.0277 38.2837 25.2747C38.2096 25.5217 38.2367 25.788 38.3589 26.015L40.3349 29.575C40.3925 29.6903 40.473 29.7925 40.5717 29.8754C40.6703 29.9582 40.7849 30.0199 40.9084 30.0567C41.0319 30.0934 41.1616 30.1044 41.2895 30.089C41.4174 30.0736 41.5407 30.0321 41.6519 29.967Z" fill="#FA6E53"/>
<path d="M30.323 40.375C30.55 40.4973 30.8163 40.5244 31.0633 40.4503C31.3103 40.3762 31.5177 40.2071 31.64 39.98C31.7622 39.753 31.7893 39.4867 31.7152 39.2397C31.6412 38.9927 31.472 38.7853 31.245 38.663L27.689 36.685C27.462 36.5628 27.1957 36.5357 26.9487 36.6098C26.7017 36.6838 26.4942 36.853 26.372 37.08C26.2497 37.3071 26.2226 37.5734 26.2967 37.8203C26.3708 38.0673 26.54 38.2748 26.767 38.397L30.323 40.375Z" fill="#FA6E53"/>
<path d="M79.721 68.958L83.278 70.934C83.3904 70.9945 83.5136 71.0323 83.6407 71.0453C83.7677 71.0582 83.896 71.0459 84.0183 71.0093C84.1406 70.9726 84.2545 70.9122 84.3534 70.8315C84.4524 70.7508 84.5345 70.6514 84.595 70.539C84.6555 70.4266 84.6933 70.3033 84.7063 70.1763C84.7192 70.0493 84.7069 69.921 84.6703 69.7987C84.6336 69.6764 84.5732 69.5625 84.4925 69.4636C84.4118 69.3646 84.3124 69.2825 84.2 69.222L80.643 67.246C80.5324 67.1768 80.4083 67.1322 80.279 67.115C80.1498 67.0978 80.0183 67.1086 79.8935 67.1465C79.7687 67.1844 79.6535 67.2486 79.5556 67.3347C79.4577 67.4209 79.3794 67.527 79.326 67.646C79.2619 67.7572 79.2212 67.8803 79.2064 68.0078C79.1917 68.1353 79.2032 68.2644 79.2401 68.3873C79.2771 68.5102 79.3389 68.6242 79.4216 68.7224C79.5043 68.8205 79.6062 68.9007 79.721 68.958Z" fill="#FA6E53"/>
<path d="M21.8959 53.81C21.8939 53.949 21.9198 54.0869 21.9721 54.2157C22.0243 54.3445 22.1019 54.4615 22.2002 54.5598C22.2984 54.6581 22.4154 54.7356 22.5442 54.7879C22.673 54.8401 22.811 54.866 22.9499 54.864H27.0339C27.1729 54.866 27.3109 54.8401 27.4397 54.7879C27.5685 54.7356 27.6855 54.6581 27.7837 54.5598C27.882 54.4615 27.9596 54.3445 28.0118 54.2157C28.0641 54.0869 28.09 53.949 28.0879 53.81C28.101 53.6683 28.0828 53.5255 28.0344 53.3917C27.9861 53.2579 27.9088 53.1363 27.8082 53.0357C27.7076 52.9351 27.5861 52.8579 27.4523 52.8095C27.3185 52.7612 27.1756 52.7429 27.0339 52.756H22.9469C22.2879 52.888 21.8929 53.283 21.8929 53.81H21.8959Z" fill="#FA6E53"/>
<path d="M89.073 53.81C89.075 53.6711 89.0491 53.5331 88.9968 53.4043C88.9446 53.2755 88.867 53.1585 88.7688 53.0602C88.6705 52.962 88.5535 52.8844 88.4247 52.8321C88.2959 52.7799 88.1579 52.754 88.019 52.756H83.936C83.6564 52.756 83.3883 52.8671 83.1907 53.0647C82.993 53.2624 82.882 53.5305 82.882 53.81C82.882 54.0896 82.993 54.3577 83.1907 54.5553C83.3883 54.753 83.6564 54.864 83.936 54.864H88.02C88.1588 54.8659 88.2967 54.8399 88.4254 54.7876C88.5541 54.7353 88.6709 54.6577 88.7691 54.5595C88.8673 54.4612 88.9447 54.3442 88.9969 54.2155C89.0491 54.0868 89.075 53.9489 89.073 53.81Z" fill="#FA6E53"/>
<path d="M27.689 70.934L31.246 68.958C31.473 68.8357 31.6422 68.6283 31.7162 68.3813C31.7903 68.1343 31.7632 67.868 31.641 67.641C31.5187 67.414 31.3113 67.2448 31.0643 67.1707C30.8173 67.0967 30.551 67.1237 30.324 67.246L26.767 69.222C26.54 69.3443 26.3708 69.5517 26.2967 69.7987C26.2226 70.0457 26.2497 70.312 26.372 70.539C26.4942 70.766 26.7017 70.9352 26.9487 71.0093C27.1957 71.0833 27.462 71.0563 27.689 70.934Z" fill="#FA6E53"/>
<path d="M80.6429 40.375L84.1959 38.397C84.4229 38.2748 84.5921 38.0673 84.6661 37.8203C84.7402 37.5734 84.7131 37.3071 84.5909 37.08C84.4686 36.853 84.2612 36.6838 84.0142 36.6098C83.7672 36.5357 83.5009 36.5628 83.2739 36.685L79.7169 38.661C79.4896 38.7838 79.3204 38.9919 79.2465 39.2394C79.1726 39.487 79.2001 39.7537 79.3229 39.981C79.4457 40.2083 79.6537 40.3775 79.9013 40.4514C80.1488 40.5253 80.4156 40.4978 80.6429 40.375Z" fill="#FA6E53"/>
<path d="M70.6319 29.5751L72.6079 26.1501C72.6701 26.0375 72.7094 25.9138 72.7235 25.786C72.7376 25.6582 72.7262 25.5289 72.6901 25.4056C72.6539 25.2822 72.5936 25.1672 72.5127 25.0673C72.4319 24.9674 72.332 24.8844 72.2189 24.8233C72.1058 24.7622 71.9817 24.7241 71.8538 24.7112C71.7259 24.6984 71.5967 24.711 71.4737 24.7483C71.3506 24.7857 71.2362 24.8471 71.1371 24.9289C71.0379 25.0107 70.956 25.1114 70.8959 25.2251L68.9199 28.7821C68.8508 28.8926 68.8061 29.0167 68.789 29.146C68.7718 29.2753 68.7825 29.4067 68.8204 29.5315C68.8583 29.6563 68.9225 29.7715 69.0087 29.8694C69.0948 29.9673 69.201 30.0456 69.3199 30.0991C69.5667 30.1737 69.8315 30.1622 70.0708 30.0664C70.3101 29.9706 70.5098 29.7963 70.6369 29.5721L70.6319 29.5751Z" fill="#FA6E53"/>
<path d="M69.314 84.107C70.375 79.0276 72.4839 74.2253 75.506 70.007C78.536 65.397 81.697 60.654 81.17 52.092C80.379 38.924 69.051 28.255 56.142 28.255C51.3189 28.1321 46.5595 29.3765 42.414 31.8446C38.2684 34.3126 34.9059 37.9034 32.7151 42.2019C30.5243 46.5005 29.5947 51.3312 30.0337 56.1358C30.4727 60.9404 32.2624 65.5227 35.196 69.353C38.5193 73.6363 40.7773 78.6479 41.784 83.975C41.8883 84.5367 42.1209 85.0667 42.4636 85.5237C42.8064 85.9808 43.25 86.3525 43.76 86.61V89.64H42.574C42.2944 89.64 42.0263 89.7511 41.8287 89.9487C41.631 90.1464 41.52 90.4145 41.52 90.694C41.52 90.9735 41.631 91.2416 41.8287 91.4393C42.0263 91.637 42.2944 91.748 42.574 91.748H43.628V94.248H42.442C42.303 94.246 42.165 94.2719 42.0362 94.3241C41.9075 94.3764 41.7905 94.4539 41.6922 94.5522C41.5939 94.6505 41.5163 94.7675 41.4641 94.8963C41.4118 95.0251 41.386 95.163 41.388 95.302C41.3749 95.4437 41.3932 95.5865 41.4415 95.7203C41.4899 95.8542 41.5671 95.9757 41.6677 96.0763C41.7683 96.1769 41.8898 96.2541 42.0236 96.3025C42.1575 96.3508 42.3003 96.3691 42.442 96.356H43.628V96.488C43.6272 97.1456 43.7561 97.7969 44.0074 98.4047C44.2587 99.0124 44.6274 99.5645 45.0924 100.03C45.5574 100.495 46.1096 100.863 46.7173 101.115C47.325 101.366 47.9764 101.495 48.634 101.494H49.688C49.9254 102.859 50.6369 104.096 51.6972 104.988C52.7575 105.88 54.0985 106.369 55.484 106.369C56.8695 106.369 58.2105 105.88 59.2708 104.988C60.3311 104.096 61.0426 102.859 61.28 101.494H62.334C62.9916 101.495 63.6429 101.366 64.2506 101.115C64.8583 100.863 65.4105 100.495 65.8755 100.03C66.3405 99.5645 66.7092 99.0124 66.9605 98.4047C67.2118 97.7969 67.3408 97.1456 67.34 96.488V96.088H68.396C68.5349 96.09 68.6729 96.0641 68.8017 96.0119C68.9305 95.9596 69.0475 95.8821 69.1458 95.7838C69.244 95.6855 69.3216 95.5685 69.3739 95.4397C69.4261 95.3109 69.452 95.173 69.45 95.034C69.4621 94.8928 69.4431 94.7507 69.3944 94.6176C69.3456 94.4845 69.2683 94.3637 69.1678 94.2638C69.0673 94.1639 68.9461 94.0872 68.8127 94.0392C68.6794 93.9912 68.5371 93.9731 68.396 93.986H67.339V91.486H68.396C68.6703 91.4776 68.9305 91.3627 69.1216 91.1656C69.3126 90.9686 69.4195 90.7049 69.4195 90.4305C69.4195 90.1561 69.3126 89.8924 69.1216 89.6954C68.9305 89.4984 68.6703 89.3835 68.396 89.375H67.339V86.345C67.8409 86.187 68.2902 85.895 68.6385 85.5004C68.9867 85.1058 69.2206 84.6237 69.315 84.106L69.314 84.107ZM36.778 68.299C34.1125 64.8156 32.4668 60.6602 32.0245 56.2963C31.5821 51.9324 32.3605 47.5314 34.2728 43.5839C36.1851 39.6364 39.1562 36.2977 42.8548 33.9398C46.5534 31.5819 50.8342 30.2976 55.22 30.23H55.879C67.866 30.23 78.141 40.11 78.931 52.23C79.458 60.13 76.692 64.349 73.662 68.959C70.5097 73.3753 68.3114 78.3996 67.207 83.712C67.1471 84.0855 66.954 84.4247 66.6633 84.6669C66.3727 84.909 66.0042 85.0376 65.626 85.029H45.208C44.8298 85.0376 44.4613 84.909 44.1706 84.6669C43.8799 84.4247 43.6868 84.0855 43.627 83.712C42.5918 78.1061 40.2445 72.8248 36.777 68.3L36.778 68.299ZM55.483 104.129C54.6164 104.131 53.773 103.849 53.0828 103.325C52.3925 102.801 51.8937 102.064 51.663 101.229H59.171C58.9649 102.053 58.4908 102.785 57.8232 103.31C57.1555 103.835 56.3323 104.123 55.483 104.129Z" fill="black"/>
<path d="M54.429 70.934C54.7566 71.0984 55.1165 71.1882 55.483 71.197C55.847 71.1721 56.2038 71.083 56.537 70.934C66.943 65.928 68.788 54.334 68.919 47.882C68.9422 47.3121 68.7529 46.754 68.3877 46.3158C68.0226 45.8777 67.5077 45.5909 66.943 45.511C63.3315 44.9584 59.8753 43.6572 56.796 41.691C56.4298 41.434 55.9933 41.2961 55.546 41.2961C55.0986 41.2961 54.6621 41.434 54.296 41.691C51.2178 43.6567 47.7631 44.9578 44.153 45.511C43.5882 45.5909 43.0733 45.8777 42.7082 46.3158C42.3431 46.754 42.1537 47.3121 42.177 47.882C42.309 59.082 46.787 67.246 54.428 70.934H54.429ZM50.873 54.863C51.0663 54.6731 51.3265 54.5667 51.5975 54.5667C51.8684 54.5667 52.1286 54.6731 52.322 54.863L54.296 56.839L58.906 52.229C59.1001 52.0486 59.3566 51.9504 59.6216 51.955C59.8866 51.9596 60.1395 52.0667 60.3272 52.2538C60.515 52.4409 60.6229 52.6934 60.6285 52.9584C60.634 53.2234 60.5367 53.4802 60.357 53.675L55.088 58.944C54.7948 59.0754 54.4843 59.164 54.166 59.207C53.9216 59.2023 53.6874 59.1088 53.507 58.944L50.872 56.309C50.6821 56.1156 50.5757 55.8555 50.5757 55.5845C50.5757 55.3135 50.6821 55.0533 50.872 54.86L50.873 54.863Z" fill="#00B2CA"/>
</g>
<defs>
<clipPath id="clip0_3_4849">
<rect width="110.967" height="126.587" fill="white"/>
</clipPath>
</defs>
</svg>
