<svg width="255" height="255" viewBox="0 0 255 255" fill="none" xmlns="http://www.w3.org/2000/svg">
<g clip-path="url(#clip0_3_5863)">
<path opacity="0.1" d="M255 127.5C255.024 141.94 252.59 156.278 247.8 169.9C247.4 171 247 172.2 246.5 173.3C245.5 175.9 244.4 178.4 243.3 180.9C242 183.7 240.6 186.4 239.1 189.1C236.846 193.163 234.376 197.102 231.7 200.9V201.1C231.6 201.1 231.5 201.3 231.5 201.3H231.4C231.223 201.615 231.023 201.916 230.8 202.2C226.711 207.804 222.197 213.086 217.3 218L216.5 218.8C192.744 242.095 160.771 255.099 127.5 255C97.0994 255.026 67.6931 244.172 44.6 224.4C42.5 222.6 40.4 220.7 38.5 218.8L37.7 218C32.8026 213.086 28.2894 207.804 24.2 202.2C24.1 202 23.9 201.8 23.8 201.6H23.7C8.26615 179.976 -0.0204349 154.067 3.78434e-05 127.5C0.00560573 93.6866 13.4404 61.2597 37.3501 37.35C61.2598 13.4404 93.6866 0.00556789 127.5 0C161.313 0.00556789 193.74 13.4404 217.65 37.35C241.56 61.2597 254.994 93.6866 255 127.5Z" fill="#00B2CA"/>
<path d="M55.1 156.4C55.1023 173.839 58.997 191.058 66.5 206.8H183.9C209.154 190.806 227.341 165.766 234.74 136.804C242.138 107.841 238.189 77.1463 223.7 51C205.836 42.2654 186.042 38.222 166.184 39.2507C146.325 40.2794 127.056 46.3463 110.19 56.88C93.3236 67.4137 79.4167 82.0675 69.7789 99.4609C60.141 116.854 55.0894 136.415 55.1 156.3V156.4Z" fill="white"/>
<path opacity="0.2" d="M55.1 156.4C55.1023 173.839 58.997 191.058 66.5 206.8H183.9C209.154 190.806 227.341 165.766 234.74 136.804C242.138 107.841 238.189 77.1463 223.7 51C205.836 42.2654 186.042 38.222 166.184 39.2507C146.325 40.2794 127.056 46.3463 110.19 56.88C93.3236 67.4137 79.4167 82.0675 69.7789 99.4609C60.141 116.854 55.0894 136.415 55.1 156.3V156.4Z" fill="#00B2CA"/>
<path d="M236.9 206.9H10.3C10.2 206.9 10.1 206.9 10 206.7C9.90005 206.5 10 206.5 10.2 206.4H236.8C236.9 206.4 237 206.4 237.1 206.6C237.2 206.8 237.1 206.8 236.9 206.9Z" fill="#011721"/>
<path d="M176.5 74.3L174 70.2L183.3 65.2C184.112 64.9081 185.004 64.9311 185.8 65.2642C186.596 65.5974 187.238 66.2167 187.6 67C188.5 68.8 189.7 72 190.2 78.5L180.8 77.3L176.6 74.2H176.5V74.3Z" fill="#011721"/>
<path d="M176.5 79.5L180.9 81.9L183.2 79.9C183.6 79.7 184.1 79.7 184.3 80.1C184.446 80.2853 184.525 80.5142 184.525 80.75C184.525 80.9858 184.446 81.2147 184.3 81.4C184.3 81.4 188.2 78.4 190.2 78.6C189.29 78.3028 188.417 77.9001 187.6 77.4C184.6 76.1 186.3 72.7 184.4 72.1C183.8 71.9 183.5 74.2 181.9 74C180.6 73.8 176.3 72.5 176.3 72.5V79.5H176.5Z" fill="#FFD2B3"/>
<path d="M184.4 81.4C184.949 80.8421 185.552 80.3397 186.2 79.9L185.2 79.3C185.005 79.1775 184.78 79.1124 184.55 79.1124C184.32 79.1124 184.095 79.1775 183.9 79.3L183.3 79.8C183.7 79.6 184.2 79.6 184.4 80C184.546 80.1853 184.625 80.4142 184.625 80.65C184.625 80.8858 184.546 81.1147 184.4 81.3V81.4Z" fill="#D39266"/>
<path d="M154.1 104.5L135.8 106.3C135.519 106.312 135.244 106.384 134.992 106.509C134.741 106.634 134.518 106.811 134.339 107.028C134.16 107.245 134.028 107.497 133.953 107.767C133.877 108.038 133.859 108.322 133.9 108.6C133.938 109.058 134.125 109.492 134.432 109.835C134.739 110.177 135.149 110.411 135.6 110.5C142.532 111.715 149.563 112.284 156.6 112.2L165.4 110L154.1 104.5Z" fill="#00B2CA"/>
<path d="M144.5 111.7C141.5 109.8 143.1 105.6 143.1 105.6L135.8 106.3C135.519 106.312 135.244 106.384 134.992 106.509C134.741 106.634 134.518 106.811 134.339 107.028C134.16 107.245 134.028 107.497 133.953 107.767C133.877 108.038 133.859 108.322 133.9 108.6C133.938 109.058 134.125 109.492 134.432 109.835C134.739 110.177 135.149 110.411 135.6 110.5C138.536 111.103 141.509 111.504 144.5 111.7Z" fill="#FFD2B3"/>
<path d="M134.1 109.2C134.206 109.552 134.415 109.864 134.7 110.096C134.985 110.328 135.334 110.468 135.7 110.5C142.632 111.715 149.663 112.284 156.7 112.2L165.3 110.1L165 109.8L162.8 108.7L155.3 109.1C150.4 109.8 137.2 109.3 134.1 109.1V109.2Z" fill="black"/>
<path opacity="0.6" d="M134.1 109.2C134.206 109.552 134.415 109.864 134.7 110.096C134.985 110.328 135.334 110.468 135.7 110.5C142.632 111.715 149.663 112.284 156.7 112.2L165.3 110.1L165 109.8L162.8 108.7L155.3 109.1C150.4 109.8 137.2 109.3 134.1 109.1V109.2Z" fill="#00B2CA"/>
<path d="M135.6 110.5C138.536 111.103 141.509 111.504 144.5 111.7C143.696 111.208 143.121 110.416 142.9 109.5C139 109.5 135.5 109.3 134.1 109.2C134.206 109.552 134.415 109.864 134.7 110.096C134.985 110.328 135.334 110.468 135.7 110.5H135.6Z" fill="#D39266"/>
<path d="M174 73.9C168.8 78.6 160.7 88.5 153.4 106.2C153.181 106.718 153.067 107.275 153.064 107.838C153.062 108.401 153.17 108.958 153.384 109.479C153.598 109.999 153.913 110.472 154.31 110.871C154.708 111.269 155.18 111.585 155.7 111.8C156.267 112.045 156.885 112.147 157.5 112.1C165.3 111.8 177.7 109.2 184.4 104.3L195.7 130.2C195.7 130.2 212.7 136.7 224.2 129.2C224.2 129.2 214.3 99.3 203.3 83.5C201.709 81.18 199.389 79.4577 196.708 78.6063C194.027 77.7548 191.138 77.823 188.5 78.8C186.477 79.5704 184.662 80.8032 183.2 82.4L167.1 100.4C167.1 100.4 173.3 85 177 75.9C177.097 75.6774 177.149 75.4374 177.151 75.1945C177.153 74.9516 177.106 74.7108 177.012 74.4865C176.919 74.2623 176.781 74.0593 176.607 73.8897C176.433 73.7202 176.227 73.5876 176 73.5C175.682 73.3984 175.344 73.3726 175.014 73.4247C174.685 73.4768 174.371 73.6053 174.1 73.8L174 73.9Z" fill="#00B2CA"/>
<path d="M167 100.5C167 100.5 173.2 85.1 176.9 76C177.035 75.6315 177.05 75.2297 176.942 74.8523C176.834 74.475 176.609 74.1416 176.3 73.9C176.3 73.9 166.9 96.5 167 100.6V100.5Z" fill="black"/>
<path opacity="0.6" d="M167 100.5C167 100.5 173.2 85.1 176.9 76C177.035 75.6315 177.05 75.2297 176.942 74.8523C176.834 74.475 176.609 74.1416 176.3 73.9C176.3 73.9 166.9 96.5 167 100.6V100.5Z" fill="#00B2CA"/>
<path d="M174.5 81.9C175.4 79.8 176.2 77.8 176.9 76C176.997 75.7774 177.049 75.5374 177.051 75.2945C177.053 75.0516 177.006 74.8108 176.912 74.5865C176.819 74.3623 176.681 74.1593 176.507 73.9897C176.333 73.8202 176.127 73.6876 175.9 73.6C175.582 73.4984 175.244 73.4726 174.914 73.5247C174.585 73.5768 174.271 73.7053 174 73.9C172.534 75.1994 171.164 76.603 169.9 78.1C169.9 78.1 169.9 82.2 174.5 81.8V81.9Z" fill="#FFD2B3"/>
<path d="M173.1 81.9H174.5C175.4 79.8 176.2 77.8 176.9 76C177.035 75.6315 177.05 75.2297 176.942 74.8523C176.834 74.475 176.609 74.1416 176.3 73.9C176.3 73.9 174.8 77.4 173.1 81.9Z" fill="#D39266"/>
<path d="M184.8 96.9C180.6 107.7 158.1 111.8 156.6 112.1H157.5C165.3 111.8 177.7 109.2 184.4 104.3L195.7 130.2C195.943 130.228 196.179 130.296 196.4 130.4L211.8 124.3C191.4 117.8 184.9 96.8 184.9 96.8L184.8 96.9Z" fill="black"/>
<path opacity="0.6" d="M184.8 96.9C180.6 107.7 158.1 111.8 156.6 112.1H157.5C165.3 111.8 177.7 109.2 184.4 104.3L195.7 130.2C195.943 130.228 196.179 130.296 196.4 130.4L211.8 124.3C191.4 117.8 184.9 96.8 184.9 96.8L184.8 96.9Z" fill="#00B2CA"/>
<path d="M227.6 198.1H175.3C174.693 198.1 174.2 198.592 174.2 199.2V200.2C174.2 200.808 174.693 201.3 175.3 201.3H227.6C228.208 201.3 228.7 200.808 228.7 200.2V199.2C228.7 198.592 228.208 198.1 227.6 198.1Z" fill="#00B2CA"/>
<path d="M180 206.9C182.264 206.9 184.1 205.064 184.1 202.8C184.1 200.536 182.264 198.7 180 198.7C177.736 198.7 175.9 200.536 175.9 202.8C175.9 205.064 177.736 206.9 180 206.9Z" fill="#00B2CA"/>
<path d="M222.8 206.9C225.064 206.9 226.9 205.064 226.9 202.8C226.9 200.536 225.064 198.7 222.8 198.7C220.536 198.7 218.7 200.536 218.7 202.8C218.7 205.064 220.536 206.9 222.8 206.9Z" fill="#00B2CA"/>
<path d="M227.1 198.1H201.4V199.7H228.6C228.611 199.29 228.459 198.892 228.178 198.592C227.898 198.293 227.51 198.116 227.1 198.1Z" fill="black"/>
<path d="M157.4 141.9C157.4 141.9 135.8 171.3 113.8 203C113.626 203.248 113.504 203.529 113.44 203.826C113.376 204.122 113.372 204.428 113.428 204.726C113.484 205.024 113.598 205.308 113.765 205.561C113.932 205.814 114.148 206.031 114.4 206.2C114.789 206.445 115.24 206.575 115.7 206.575C116.16 206.575 116.611 206.445 117 206.2C127.2 199.4 145 186.1 166.5 164L173.5 151.7L157.5 141.9H157.4Z" fill="#05293C"/>
<path d="M166.4 164L173.4 151.7L169.8 149.5L157.4 141.9L126.6 199.4C140.81 188.706 154.121 176.866 166.4 164Z" fill="#011721"/>
<path d="M219 131.4C214.5 122.3 198.1 119.6 198.1 119.6C189.6 124.5 177.8 130.3 169 135C162.3 138.6 157.4 141.9 157.4 141.9C164.6 168.2 186.3 195.2 195.9 206.3C196.216 206.641 196.648 206.85 197.111 206.887C197.574 206.924 198.034 206.786 198.4 206.5C198.652 206.283 198.834 205.996 198.923 205.676C199.012 205.355 199.004 205.016 198.9 204.7C193.3 183.2 181.8 148.7 181.8 148.7C198.2 144.5 208 140.1 213.8 136.3C215.802 135.013 217.534 133.349 218.9 131.4H219Z" fill="#05293C"/>
<path d="M181.9 148.7C198.3 144.5 208.1 140.1 213.9 136.3C216 135 219.1 135.9 220.4 134L219 131.4C217.304 128.403 214.766 125.969 211.7 124.4C211.7 124.4 184.6 135.6 168.3 145.7C172.1 167.9 181.9 189.4 191.3 200.8L192.5 200.6L196.9 197.2C191 176 181.9 148.8 181.9 148.8V148.7Z" fill="#011721"/>
<path d="M119.7 194.5C117.7 197.3 115.7 200.2 113.7 203C113.526 203.248 113.404 203.529 113.34 203.826C113.276 204.122 113.272 204.428 113.328 204.726C113.384 205.024 113.498 205.308 113.665 205.561C113.832 205.814 114.048 206.031 114.3 206.2C114.689 206.445 115.14 206.575 115.6 206.575C116.06 206.575 116.511 206.445 116.9 206.2C119.6 204.4 122.9 202.1 126.6 199.3C126.6 199.3 123.7 199.1 122.2 197.9C121.095 196.953 120.237 195.752 119.7 194.4V194.5Z" fill="#FFD2B3"/>
<path d="M199 204.7C198.1 201.1 197.4 198.7 196.2 194.6C195.613 195.583 194.908 196.49 194.1 197.3C192.897 198.26 191.497 198.943 190 199.3C192.3 202.1 194.3 204.5 196 206.4C196.316 206.741 196.748 206.95 197.211 206.987C197.674 207.024 198.134 206.886 198.5 206.6C198.752 206.383 198.934 206.096 199.023 205.776C199.112 205.455 199.104 205.116 199 204.8V204.7Z" fill="#FFD2B3"/>
<path d="M122.3 198L114 206C114.373 206.38 114.866 206.618 115.396 206.673C115.925 206.728 116.458 206.596 116.9 206.3C119.6 204.5 122.9 202.2 126.6 199.4C125.075 199.286 123.6 198.806 122.3 198Z" fill="#D39266"/>
<path d="M193.8 197.5C192.645 198.289 191.358 198.865 190 199.2C192.3 202 194.3 204.4 196 206.3C196.229 206.597 196.557 206.801 196.925 206.875C197.293 206.949 197.675 206.886 198 206.7L193.8 197.4V197.5Z" fill="#D39266"/>
<path d="M241.9 80.4C245.379 80.4 248.2 77.5794 248.2 74.1C248.2 70.6206 245.379 67.8 241.9 67.8C238.421 67.8 235.6 70.6206 235.6 74.1C235.6 77.5794 238.421 80.4 241.9 80.4Z" fill="black"/>
<path d="M243.3 68L240.1 80.1C240.882 80.3458 241.705 80.4348 242.522 80.362C243.338 80.2892 244.133 80.0559 244.859 79.6755C245.585 79.2952 246.229 78.7752 246.754 78.1455C247.279 77.5157 247.675 76.7885 247.918 76.0057C248.162 75.2228 248.248 74.3995 248.173 73.5831C248.097 72.7667 247.862 71.9732 247.479 71.2481C247.097 70.523 246.575 69.8804 245.943 69.3574C245.312 68.8343 244.584 68.441 243.8 68.2H243.3V68Z" fill="#00B2CA"/>
<path d="M207.6 149.6H179.4C178.623 149.607 177.853 149.459 177.134 149.165C176.415 148.871 175.762 148.437 175.213 147.887C174.663 147.338 174.229 146.685 173.935 145.966C173.641 145.247 173.493 144.477 173.5 143.7C173.493 142.923 173.641 142.153 173.935 141.434C174.229 140.715 174.663 140.062 175.213 139.513C175.762 138.963 176.415 138.529 177.134 138.235C177.853 137.941 178.623 137.793 179.4 137.8H207.6C210.577 137.798 213.472 136.818 215.838 135.012C218.205 133.205 219.913 130.671 220.7 127.8L233.6 81.5C234.026 79.9896 235.034 78.7098 236.403 77.9413C237.771 77.1727 239.388 76.9781 240.9 77.4C242.41 77.8264 243.69 78.8342 244.459 80.2026C245.227 81.571 245.422 83.1883 245 84.7L232.2 130.9C230.733 136.273 227.54 141.015 223.113 144.394C218.686 147.773 213.27 149.602 207.7 149.6H207.6Z" fill="#00B2CA"/>
<path d="M227.2 125.8L240 79.6C240.219 78.8543 240.287 78.0723 240.2 77.3C238.776 77.0628 237.314 77.3604 236.095 78.1357C234.877 78.911 233.988 80.1092 233.6 81.5L220.7 127.8C219.913 130.671 218.205 133.205 215.838 135.012C213.472 136.818 210.577 137.798 207.6 137.8H179.4C178.623 137.793 177.853 137.941 177.134 138.235C176.415 138.529 175.762 138.963 175.213 139.513C174.663 140.062 174.229 140.715 173.935 141.434C173.641 142.153 173.493 142.923 173.5 143.7V144.4H202.6C208.162 144.373 213.564 142.532 217.985 139.158C222.407 135.783 225.607 131.058 227.1 125.7H227.2V125.8Z" fill="black"/>
<path d="M189.3 148.4H213.5V150.1C213.497 151.16 213.074 152.175 212.325 152.925C211.576 153.674 210.56 154.097 209.5 154.1H193.4C192.34 154.097 191.325 153.674 190.575 152.925C189.826 152.175 189.403 151.16 189.4 150.1V148.4H189.3Z" fill="#00B2CA"/>
<path d="M213.5 148.4H201.1L201.4 149.6V154.1H210.7C211.443 154.1 212.155 153.805 212.68 153.28C213.205 152.755 213.5 152.043 213.5 151.3V148.4Z" fill="#00B2CA"/>
<path d="M205.8 154.2H196.9V166.2H205.8V154.2Z" fill="#00B2CA"/>
<path d="M203.6 166.1H199.1V199.3H203.6V166.1Z" fill="#00B2CA"/>
<path d="M203.7 166.1H201.4V199.3H203.7V166.1Z" fill="black"/>
<path d="M205.9 154.2H201.4V166.2H205.9V154.2Z" fill="black"/>
<path d="M184.8 147.6C184.471 147.603 184.144 147.541 183.84 147.416C183.535 147.292 183.258 147.108 183.025 146.875C182.792 146.642 182.608 146.365 182.484 146.06C182.359 145.756 182.297 145.429 182.3 145.1C182.3 143.7 182.3 144.6 182.4 144.3L188.4 126.1C189.428 123.014 191.401 120.33 194.039 118.428C196.678 116.525 199.847 115.501 203.1 115.5H238.2C238.863 115.5 239.499 115.763 239.968 116.232C240.437 116.701 240.7 117.337 240.7 118C240.7 118.663 240.437 119.299 239.968 119.768C239.499 120.237 238.863 120.5 238.2 120.5H203.1C200.889 120.5 198.733 121.195 196.939 122.487C195.144 123.779 193.801 125.603 193.1 127.7L187.1 145.9C186.941 146.387 186.634 146.813 186.222 147.118C185.81 147.423 185.313 147.591 184.8 147.6Z" fill="#00B2CA"/>
<path d="M238.1 115.6H203C199.747 115.601 196.578 116.625 193.939 118.528C191.301 120.43 189.328 123.114 188.3 126.2L188 127.3C189.126 124.792 190.926 122.646 193.2 121.1C196.174 119.077 199.704 118.029 203.3 118.1H240.6C240.603 117.771 240.541 117.444 240.416 117.14C240.292 116.835 240.108 116.558 239.875 116.325C239.642 116.092 239.365 115.908 239.061 115.784C238.756 115.659 238.429 115.597 238.1 115.6Z" fill="black"/>
<g opacity="0.4">
<path d="M235 120.5L234.5 122.3L222 123.2L222.8 120.5H235Z" fill="#011721"/>
</g>
<path d="M56.7 113.4H54.1V206.9H56.7V113.4Z" fill="#00B2CA"/>
<path d="M174.8 113.4H172.2V206.9H174.8V113.4Z" fill="#00B2CA"/>
<path d="M189.4 112.2H36.8C36.3582 112.2 36 112.558 36 113V113.8C36 114.242 36.3582 114.6 36.8 114.6H189.4C189.842 114.6 190.2 114.242 190.2 113.8V113C190.2 112.558 189.842 112.2 189.4 112.2Z" fill="#00B2CA"/>
<path d="M140.5 66.6L127.4 66.4C127.215 66.4045 127.031 66.3714 126.859 66.3026C126.687 66.2339 126.531 66.1309 126.4 66C126.269 65.8691 126.166 65.713 126.097 65.5411C126.029 65.3692 125.996 65.1851 126 65C126 64.2 126 64.5 126.2 64.3L132.9 53.1L139.6 41.9C139.687 41.7375 139.807 41.5948 139.952 41.4806C140.096 41.3664 140.263 41.2833 140.441 41.2364C140.619 41.1895 140.805 41.1798 140.988 41.2079C141.17 41.2361 141.344 41.3015 141.5 41.4C141.7 41.4 141.9 41.7 142 41.9L148.4 53.3L154.8 64.7C154.975 65.0206 155.021 65.3962 154.928 65.7495C154.835 66.1029 154.611 66.4073 154.3 66.6C154.1 66.6 153.9 66.8 153.6 66.8L140.5 66.6Z" fill="#00B2CA"/>
<path d="M140.6 65.4L128.2 65.2C128.133 65.2041 128.066 65.194 128.004 65.1703C127.941 65.1466 127.885 65.1099 127.837 65.0626C127.79 65.0154 127.753 64.9586 127.73 64.8961C127.706 64.8336 127.696 64.7667 127.7 64.7V64.5L134 53.9L140.3 43.3C140.376 43.1909 140.487 43.1113 140.614 43.0748C140.742 43.0384 140.878 43.0472 141 43.1C141 43.1 141.1 43.1 141.2 43.3L147.2 54.1L153.2 64.9C153.245 65.0073 153.249 65.1272 153.213 65.2375C153.176 65.3478 153.1 65.441 153 65.5H152.8L140.4 65.3H140.6V65.4Z" fill="white"/>
<path opacity="0.1" d="M140.6 65.4L128.2 65.2C128.133 65.2041 128.066 65.194 128.004 65.1703C127.941 65.1466 127.885 65.1099 127.837 65.0626C127.79 65.0154 127.753 64.9586 127.73 64.8961C127.706 64.8336 127.696 64.7667 127.7 64.7V64.5L134 53.9L140.3 43.3C140.376 43.1909 140.487 43.1113 140.614 43.0748C140.742 43.0384 140.878 43.0472 141 43.1C141 43.1 141.1 43.1 141.2 43.3L147.2 54.1L153.2 64.9C153.245 65.0073 153.249 65.1272 153.213 65.2375C153.176 65.3478 153.1 65.441 153 65.5H152.8L140.4 65.3H140.6V65.4Z" fill="#00B2CA"/>
<path d="M141.6 58.7H139.7L139.3 50.5H142.3L141.6 58.7Z" fill="#00B2CA"/>
<path d="M140.6 62.3C141.428 62.3 142.1 61.6284 142.1 60.8C142.1 59.9716 141.428 59.3 140.6 59.3C139.772 59.3 139.1 59.9716 139.1 60.8C139.1 61.6284 139.772 62.3 140.6 62.3Z" fill="#00B2CA"/>
<path d="M34.3 187H101.1V193C101.086 196.762 99.5848 200.365 96.925 203.025C94.2651 205.685 90.6617 207.186 86.9001 207.2H48.5C44.7384 207.186 41.135 205.685 38.4751 203.025C35.8153 200.365 34.3145 196.762 34.3 193V187Z" fill="#00B2CA"/>
<path d="M54.5 201.9H80.9C85.3342 201.897 89.6448 200.438 93.1682 197.746C96.6915 195.053 99.2325 191.278 100.4 187H35C36.1675 191.278 38.7085 195.053 42.2318 197.746C45.7552 200.438 50.0658 201.897 54.5 201.9Z" fill="black"/>
<path opacity="0.6" d="M54.5 201.9H80.9C85.3342 201.897 89.6448 200.438 93.1682 197.746C96.6915 195.053 99.2325 191.278 100.4 187H35C36.1675 191.278 38.7085 195.053 42.2318 197.746C45.7552 200.438 50.0658 201.897 54.5 201.9Z" fill="#00B2CA"/>
<path d="M61.6001 181.7C61.6001 181.7 46.3001 148.9 76.6001 127.2C76.6001 127.2 98.1001 144.2 72.2001 181.7H61.6001Z" fill="black"/>
<path opacity="0.6" d="M61.6001 181.7C61.6001 181.7 46.3001 148.9 76.6001 127.2C76.6001 127.2 98.1001 144.2 72.2001 181.7H61.6001Z" fill="#00B2CA"/>
<path d="M76.7001 127.2C76.7001 127.2 82.4001 168.1 66.1001 181.7H72.3001C98.1001 144.2 76.7001 127.2 76.7001 127.2Z" fill="#00B2CA"/>
<path d="M84.6001 153.6C84.6001 153.6 67.1001 153.5 61.6001 170.5L66.0001 175L84.6001 153.6Z" fill="#00B2CA"/>
<path d="M59.4001 187C59.4001 187 58.6001 142.3 104.7 155.9C104.7 155.9 100.6 176 72.7001 187H59.4001Z" fill="black"/>
<path opacity="0.6" d="M59.4001 187C59.4001 187 58.6001 142.3 104.7 155.9C104.7 155.9 100.6 176 72.7001 187H59.4001Z" fill="#00B2CA"/>
<path d="M104.7 155.9C104.7 155.9 80.3001 157.8 65.6001 187H72.6001C100.5 176.1 104.6 155.9 104.6 155.9H104.7Z" fill="#00B2CA"/>
<path d="M58.3 169.3V168.8C58.3 168.8 74.3 171.5 74.2 186.4L73.2 186.7L67.3 184.9L57.9 172.1L58.4 169.3H58.3Z" fill="#00B2CA"/>
<path d="M73.1 187C73.1 187 76.3 166.6 40.9 167.5C41.1139 171.446 42.281 175.281 44.3012 178.677C46.3215 182.073 49.1347 184.929 52.5 187H73.1Z" fill="black"/>
<path opacity="0.6" d="M73.1 187C73.1 187 76.3 166.6 40.9 167.5C41.1139 171.446 42.281 175.281 44.3012 178.677C46.3215 182.073 49.1347 184.929 52.5 187H73.1Z" fill="#00B2CA"/>
<path d="M41 167.4C41.2139 171.346 42.381 175.181 44.4012 178.577C46.4214 181.973 49.2347 184.829 52.6 186.9H60.9C49.3 180.5 41 167.4 41 167.4Z" fill="#00B2CA"/>
<path d="M71 178C71 177.8 81 164.2 92.4 159.6V159.7C81.1 164.3 71.2 177.8 71.1 178H70.9H71Z" fill="#011721"/>
<path d="M77 155.6C77.5492 150.486 77.7497 145.341 77.6 140.2C77.7017 145.341 77.5013 150.483 77 155.6Z" fill="#011721"/>
<path d="M60.9001 187C57.7679 185.289 54.8762 183.17 52.3 180.7V180.6C54.9278 183.008 57.8117 185.121 60.9001 186.9V187Z" fill="#011721"/>
<path d="M149.6 109.3H79.7001C79.1478 109.3 78.7001 109.748 78.7001 110.3V111.2C78.7001 111.752 79.1478 112.2 79.7001 112.2H149.6C150.152 112.2 150.6 111.752 150.6 111.2V110.3C150.6 109.748 150.152 109.3 149.6 109.3Z" fill="#011721"/>
<path d="M80.2 109.2H132.1L117.9 72L65.8 71.2L80.2 109.2Z" fill="#011721"/>
<path d="M81.5 109.2H130.9L117 73.1L67.4 72.3L81.4 109.2H81.5Z" fill="white"/>
<path opacity="0.2" d="M81.5 109.2H130.9L117 73.1L67.4 72.3L81.4 109.2H81.5Z" fill="#00B2CA"/>
<g opacity="0.5">
<path d="M45.3 82.7H45.6L47 86.4H46.7L45.4 83.1L44.9 83.3V83.1L45.4 82.8L45.3 82.7Z" fill="#011721"/>
<path d="M46.8 82.7H47.1L48.5 86.4H48.2L46.9 83.1L46.4 83.3V83.1L46.9 82.8H46.8V82.7Z" fill="#011721"/>
<path d="M49.6 86.3C49.3791 86.1107 49.2075 85.8704 49.1 85.6L48.3 83.6V82.9C48.3 82.7 48.6001 82.6 48.9001 82.6C49.0481 82.5727 49.2007 82.5861 49.3417 82.639C49.4826 82.6918 49.6065 82.7821 49.7001 82.9C49.921 83.0893 50.0926 83.3296 50.2001 83.6L51 85.6V86.3C51 86.5 50.7001 86.6 50.4001 86.6C50.252 86.6273 50.0994 86.6138 49.9584 86.561C49.8175 86.5081 49.6936 86.4179 49.6 86.3ZM50.6 86.1V85.6L49.8 83.6C49.8 83.4 49.6 83.3 49.5 83.1C49.3502 82.9972 49.1794 82.9289 49 82.9C48.8 82.9 48.7001 82.9 48.7001 83.1V83.6L49.5 85.6C49.5 85.8 49.7 85.9 49.8 86.1C49.9499 86.2028 50.1207 86.2711 50.3 86.3C50.5 86.3 50.6 86.3 50.6 86.1Z" fill="#011721"/>
<path d="M52.3 86.3C52.079 86.1107 51.9074 85.8704 51.8 85.6L51 83.6V82.9C51 82.7 51.3 82.6 51.6 82.6C51.748 82.5727 51.9007 82.5861 52.0416 82.639C52.1826 82.6918 52.3065 82.7821 52.4 82.9C52.621 83.0893 52.7926 83.3296 52.9 83.6L53.7 85.6V86.3C53.7 86.5 53.4 86.6 53.1 86.6C52.952 86.6273 52.7993 86.6138 52.6584 86.561C52.5174 86.5081 52.3935 86.4179 52.3 86.3ZM53.3 86.1V85.6L52.5 83.6C52.5 83.4 52.3 83.3 52.2 83.1C52.0502 82.9972 51.8794 82.9289 51.7 82.9C51.5 82.9 51.4 82.9 51.4 83.1V83.6L52.2 85.6C52.2 85.8 52.4 85.9 52.5 86.1C52.6498 86.2028 52.8206 86.2711 53 86.3C53.2 86.3 53.3 86.3 53.3 86.1Z" fill="#011721"/>
<path d="M54.9 86.3C54.679 86.1107 54.5074 85.8704 54.4 85.6L53.6 83.6V82.9C53.6 82.7 53.9 82.6 54.2 82.6C54.348 82.5727 54.5007 82.5861 54.6416 82.639C54.7825 82.6918 54.9064 82.7821 55 82.9C55.2209 83.0893 55.3925 83.3296 55.5 83.6L56.3 85.6V86.3C56.3 86.5 55.9 86.6 55.7 86.6C55.552 86.6273 55.3993 86.6138 55.2584 86.561C55.1174 86.5081 54.9935 86.4179 54.9 86.3ZM55.9 86.1V85.6L55.1 83.6C55.1 83.4 54.9 83.3 54.8 83.1C54.6501 82.9972 54.4794 82.9289 54.3 82.9C54.1 82.9 54 82.9 54 83.1V83.6L54.8 85.6C54.8 85.8 55 85.9 55.1 86.1C55.2498 86.2028 55.4206 86.2711 55.6 86.3C55.8 86.3 55.9 86.3 55.9 86.1Z" fill="#011721"/>
<path d="M56.4 82.7H56.7L58.1 86.4H57.8L56.5 83.1L56 83.3V83.1L56.5 82.8H56.4V82.7Z" fill="#011721"/>
<path d="M59.2 86.3C58.9791 86.1107 58.8075 85.8704 58.7 85.6L57.9 83.6V82.9C57.9 82.7 58.2 82.6 58.5 82.6C58.648 82.5727 58.8007 82.5861 58.9416 82.639C59.0826 82.6918 59.2065 82.7821 59.3 82.9C59.521 83.0893 59.6926 83.3296 59.8 83.6L60.6 85.6V86.3C60.6 86.5 60.3 86.6 60 86.6C59.852 86.6273 59.6993 86.6138 59.5584 86.561C59.4175 86.5081 59.2936 86.4179 59.2 86.3ZM60.2 86.1V85.6L59.4 83.6C59.4 83.4 59.2 83.3 59.1 83.1C58.9502 82.9972 58.7794 82.9289 58.6 82.9C58.4 82.9 58.3 82.9 58.3 83.1V83.6L59.1 85.6C59.1 85.8 59.3 85.9 59.4 86.1C59.5499 86.2028 59.7206 86.2711 59.9 86.3C60.1 86.3 60.2 86.3 60.2 86.1Z" fill="#011721"/>
<path d="M60.7001 82.7H61L62.4001 86.4H62.1L60.8 83.1L60.3 83.3V83.1L60.8 82.8H60.7001V82.7Z" fill="#011721"/>
<path d="M63.5001 86.3C63.2791 86.1107 63.1075 85.8704 63.0001 85.6L62.2001 83.6V82.9C62.2001 82.7 62.5001 82.6 62.8001 82.6C62.9481 82.5727 63.1008 82.5861 63.2417 82.639C63.3826 82.6918 63.5065 82.7821 63.6001 82.9C63.821 83.0893 63.9926 83.3296 64.1001 83.6L64.9001 85.6V86.3C64.9001 86.5 64.6001 86.6 64.3001 86.6C64.1521 86.6273 63.9994 86.6138 63.8584 86.561C63.7175 86.5081 63.5936 86.4179 63.5001 86.3ZM64.5001 86.1V85.6L63.7001 83.6C63.7001 83.4 63.5001 83.3 63.4001 83.1C63.2502 82.9972 63.0795 82.9289 62.9001 82.9C62.7001 82.9 62.6001 82.9 62.6001 83.1V83.6L63.4001 85.6C63.4001 85.8 63.6001 85.9 63.7001 86.1C63.8499 86.2028 64.0207 86.2711 64.2001 86.3C64.4001 86.3 64.5001 86.3 64.5001 86.1Z" fill="#011721"/>
<path d="M65 82.7H65.3L66.7 86.4H66.4L65.1 83.1L64.6 83.3V83.1L65.1 82.8L65 82.7Z" fill="#011721"/>
<path d="M66.5 82.7H66.8L68.2 86.4H67.9L66.6 83.1L66.1 83.3V83.1L66.6 82.8L66.5 82.7Z" fill="#011721"/>
<path d="M68 82.7H68.3L69.7 86.4H69.4L68.1 83.1L67.6 83.3V83.1L68.1 82.8L68 82.7Z" fill="#011721"/>
<path d="M69.6001 82.7H69.9001L71.3001 86.4H71.0001L69.7001 83.1L69.2001 83.3V83.1L69.7001 82.8L69.6001 82.7Z" fill="#011721"/>
<path d="M72.4 86.3C72.179 86.1107 72.0074 85.8704 71.9 85.6L71.1 83.6V82.9C71.1 82.7 71.4 82.6 71.7 82.6C71.848 82.5727 72.0007 82.5861 72.1416 82.639C72.2825 82.6918 72.4064 82.7821 72.5 82.9C72.7209 83.0893 72.8925 83.3296 73 83.6L73.8 85.6V86.3C73.8 86.5 73.5 86.6 73.2 86.6C73.052 86.6273 72.8993 86.6138 72.7584 86.561C72.6174 86.5081 72.4935 86.4179 72.4 86.3ZM73.4 86.1V85.6L72.6 83.6C72.6 83.4 72.4 83.3 72.3 83.1C72.1501 82.9972 71.9794 82.9289 71.8 82.9C71.6 82.9 71.5 82.9 71.5 83.1V83.6L72.3 85.6C72.3 85.8 72.5 85.9 72.6 86.1C72.7498 86.2028 72.9206 86.2711 73.1 86.3C73.3 86.3 73.4 86.3 73.4 86.1Z" fill="#011721"/>
<path d="M75.1 86.3C74.8791 86.1107 74.7075 85.8704 74.6 85.6L73.8 83.6V82.9C73.8 82.7 74.1 82.6 74.4 82.6C74.5481 82.5727 74.7007 82.5861 74.8417 82.639C74.9826 82.6918 75.1065 82.7821 75.2 82.9C75.421 83.0893 75.5926 83.3296 75.7 83.6L76.5 85.6V86.3C76.5 86.5 76.2 86.6 75.9 86.6C75.752 86.6273 75.5994 86.6138 75.4584 86.561C75.3175 86.5081 75.1936 86.4179 75.1 86.3ZM76 86.1V85.6L75.2 83.6C75.2 83.4 75 83.3 74.9 83.1C74.7502 82.9972 74.5794 82.9289 74.4 82.9C74.2 82.9 74.1 82.9 74.1 83.1V83.6L74.9 85.6C74.9 85.8 75.1 85.9 75.2 86.1C75.3499 86.2028 75.5206 86.2711 75.7 86.3C75.9 86.3 76 86.3 76 86.1Z" fill="#011721"/>
<path d="M77.7 86.3C77.479 86.1107 77.3074 85.8704 77.2 85.6L76.4 83.6V82.9C76.4 82.7 76.7 82.6 77 82.6C77.148 82.5727 77.3007 82.5861 77.4417 82.639C77.5826 82.6918 77.7065 82.7821 77.8 82.9C78.021 83.0893 78.1926 83.3296 78.3 83.6L79.1 85.6V86.3C79.1 86.5 78.7 86.6 78.5 86.6C78.352 86.6273 78.1993 86.6138 78.0584 86.561C77.9175 86.5081 77.7936 86.4179 77.7 86.3ZM78.7 86.1V85.6L77.9 83.6C77.9 83.4 77.7 83.3 77.6 83.1C77.4502 82.9972 77.2794 82.9289 77.1 82.9C76.9 82.9 76.8 82.9 76.8 83.1V83.6L77.6 85.6C77.6 85.8 77.8 85.9 77.9 86.1C78.0499 86.2028 78.2206 86.2711 78.4 86.3C78.6 86.3 78.7 86.3 78.7 86.1Z" fill="#011721"/>
<path d="M80.4 86.3C80.179 86.1107 80.0074 85.8704 79.9 85.6L79.1 83.6V82.9C79.1 82.7 79.4 82.6 79.7 82.6C79.848 82.5727 80.0007 82.5861 80.1416 82.639C80.2825 82.6918 80.4064 82.7821 80.5 82.9C80.7209 83.0893 80.8925 83.3296 81 83.6L81.8 85.6V86.3C81.8 86.5 81.5 86.6 81.2 86.6C81.052 86.6273 80.8993 86.6138 80.7584 86.561C80.6174 86.5081 80.4935 86.4179 80.4 86.3ZM81.4 86.1V85.6L80.6 83.6C80.6 83.4 80.4 83.3 80.3 83.1C80.1501 82.9972 79.9794 82.9289 79.8 82.9C79.6 82.9 79.5 82.9 79.5 83.1V83.6L80.3 85.6C80.3 85.8 80.5 85.9 80.6 86.1C80.7498 86.2028 80.9206 86.2711 81.1 86.3C81.3 86.3 81.4 86.3 81.4 86.1Z" fill="#011721"/>
<path d="M83.1 86.3C82.8791 86.1107 82.7075 85.8704 82.6 85.6L81.8 83.6V82.9C81.8 82.7 82.1 82.6 82.4 82.6C82.5481 82.5727 82.7007 82.5861 82.8417 82.639C82.9826 82.6918 83.1065 82.7821 83.2 82.9C83.421 83.0893 83.5926 83.3296 83.7 83.6L84.5 85.6V86.3C84.5 86.5 84.2 86.6 83.9 86.6C83.752 86.6273 83.5994 86.6138 83.4584 86.561C83.3175 86.5081 83.1936 86.4179 83.1 86.3ZM84.1 86.1V85.6L83.3 83.6C83.3 83.4 83.1 83.3 83 83.1C82.8502 82.9972 82.6794 82.9289 82.5 82.9C82.3 82.9 82.2 82.9 82.2 83.1V83.6L83 85.6C83 85.8 83.2 85.9 83.3 86.1C83.4499 86.2028 83.6207 86.2711 83.8 86.3C84 86.3 84.1 86.3 84.1 86.1Z" fill="#011721"/>
<path d="M84.5 82.7H84.8L86.2 86.4H85.9L84.6 83.1L84.1 83.3V83.1L84.6 82.8L84.5 82.7Z" fill="#011721"/>
<path d="M47.8 89.3H48.1L49.5 93H49.2L47.9 89.7L47.4 89.9V89.7L47.9 89.4L47.8 89.3Z" fill="#011721"/>
<path d="M49.3 89.3H49.6L51 93H50.7L49.4 89.7L48.9 89.9V89.7L49.4 89.4L49.3 89.3Z" fill="#011721"/>
<path d="M50.8 89.3H51.1L52.5 93H52.2L50.9 89.7L50.4 89.9V89.7L50.9 89.4L50.8 89.3Z" fill="#011721"/>
<path d="M53.6 92.9C53.3791 92.7107 53.2075 92.4704 53.1 92.2L52.3 90.2V89.5C52.3 89.3 52.6001 89.2 52.9001 89.2C53.0481 89.1727 53.2007 89.1862 53.3417 89.239C53.4826 89.2919 53.6065 89.3821 53.7001 89.5C53.921 89.6893 54.0926 89.9296 54.2001 90.2L55 92.2V92.9C55 93.1 54.6001 93.2 54.4001 93.2C54.252 93.2273 54.0994 93.2139 53.9584 93.161C53.8175 93.1082 53.6936 93.0179 53.6 92.9ZM54.6 92.7V92.2L53.8 90.2C53.8 90 53.6 89.9 53.5 89.7C53.3502 89.5972 53.1794 89.5289 53 89.5C52.8 89.5 52.7001 89.5 52.7001 89.7V90.2L53.5 92.2C53.5 92.4 53.7 92.5 53.8 92.7C53.9499 92.8028 54.1207 92.8711 54.3 92.9C54.5 92.9 54.6 92.9 54.6 92.7Z" fill="#011721"/>
<path d="M55.1001 89.3H55.4001L56.8001 93H56.5001L55.2001 89.7L54.7001 89.9V89.7L55.2001 89.4L55.1001 89.3Z" fill="#011721"/>
<path d="M57.9 92.9C57.679 92.7107 57.5074 92.4704 57.4 92.2L56.6 90.2V89.5C56.6 89.3 56.9 89.2 57.2 89.2C57.348 89.1727 57.5007 89.1862 57.6416 89.239C57.7825 89.2919 57.9064 89.3821 58 89.5C58.2209 89.6893 58.3925 89.9296 58.5 90.2L59.3 92.2V92.9C59.3 93.1 58.9 93.2 58.7 93.2C58.552 93.2273 58.3993 93.2139 58.2584 93.161C58.1174 93.1082 57.9935 93.0179 57.9 92.9ZM58.9 92.7V92.2L58.1 90.2C58.1 90 57.9 89.9 57.8 89.7C57.6501 89.5972 57.4794 89.5289 57.3 89.5C57.1 89.5 57 89.5 57 89.7V90.2L57.8 92.2C57.8 92.4 58 92.5 58.1 92.7C58.2498 92.8028 58.4206 92.8711 58.6 92.9C58.8 92.9 58.9 92.9 58.9 92.7Z" fill="#011721"/>
<path d="M59.4 89.3H59.7L61.1 93H60.8L59.5 89.7L59 89.9V89.7L59.5 89.4L59.4 89.3Z" fill="#011721"/>
<path d="M62.2 92.9C61.9791 92.7107 61.8075 92.4704 61.7 92.2L60.9 90.2V89.5C60.9 89.3 61.2 89.2 61.5 89.2C61.648 89.1727 61.8007 89.1862 61.9416 89.239C62.0826 89.2919 62.2065 89.3821 62.3 89.5C62.521 89.6893 62.6926 89.9296 62.8 90.2L63.6 92.2V92.9C63.6 93.1 63.2 93.2 63 93.2C62.852 93.2273 62.6993 93.2139 62.5584 93.161C62.4175 93.1082 62.2936 93.0179 62.2 92.9ZM63.2 92.7V92.2L62.4 90.2C62.4 90 62.2 89.9 62.1 89.7C61.9502 89.5972 61.7794 89.5289 61.6 89.5C61.4 89.5 61.3 89.5 61.3 89.7V90.2L62.1 92.2C62.1 92.4 62.3 92.5 62.4 92.7C62.5499 92.8028 62.7206 92.8711 62.9 92.9C63.1 92.9 63.2 92.9 63.2 92.7Z" fill="#011721"/>
<path d="M63.7001 89.3H64L65.4001 93H65.1L63.8 89.7L63.3 89.9V89.7L63.8 89.4L63.7001 89.3Z" fill="#011721"/>
<path d="M65.2 89.3H65.5L66.9 93H66.6L65.3 89.7L64.8 89.9V89.7L65.3 89.4L65.2 89.3Z" fill="#011721"/>
<path d="M66.7 89.3H67L68.4 93H68.1L66.8 89.7L66.3 89.9V89.7L66.8 89.4L66.7 89.3Z" fill="#011721"/>
<path d="M69.6 92.9C69.3791 92.7107 69.2075 92.4704 69.1 92.2L68.3 90.2V89.5C68.3 89.3 68.6 89.2 68.9 89.2C69.0481 89.1727 69.2007 89.1862 69.3417 89.239C69.4826 89.2919 69.6065 89.3821 69.7 89.5C69.921 89.6893 70.0926 89.9296 70.2 90.2L71 92.2V92.9C71 93.1 70.6 93.2 70.4 93.2C70.252 93.2273 70.0994 93.2139 69.9584 93.161C69.8175 93.1082 69.6936 93.0179 69.6 92.9ZM70.6 92.7V92.2L69.8 90.2C69.8 90 69.6 89.9 69.5 89.7C69.3502 89.5972 69.1794 89.5289 69 89.5C68.8 89.5 68.7 89.5 68.7 89.7V90.2L69.5 92.2C69.5 92.4 69.7 92.5 69.8 92.7C69.9499 92.8028 70.1207 92.8711 70.3 92.9C70.5 92.9 70.6 92.9 70.6 92.7Z" fill="#011721"/>
<path d="M72.2 92.9C71.979 92.7107 71.8074 92.4704 71.7 92.2L70.9 90.2V89.5C70.9 89.3 71.2 89.2 71.5 89.2C71.648 89.1727 71.8007 89.1862 71.9417 89.239C72.0826 89.2919 72.2065 89.3821 72.3 89.5C72.521 89.6893 72.6926 89.9296 72.8 90.2L73.6 92.2V92.9C73.6 93.1 73.2 93.2 73 93.2C72.852 93.2273 72.6993 93.2139 72.5584 93.161C72.4175 93.1082 72.2936 93.0179 72.2 92.9ZM73.2 92.7V92.2L72.4 90.2C72.4 90 72.2 89.9 72.1 89.7C71.9502 89.5972 71.7794 89.5289 71.6 89.5C71.4 89.5 71.3 89.5 71.3 89.7V90.2L72.1 92.2C72.1 92.4 72.3 92.5 72.4 92.7C72.5499 92.8028 72.7206 92.8711 72.9 92.9C73.1 92.9 73.2 92.9 73.2 92.7Z" fill="#011721"/>
<path d="M74.9 92.9C74.679 92.7107 74.5074 92.4704 74.4 92.2L73.6 90.2V89.5C73.6 89.3 73.9 89.2 74.2 89.2C74.348 89.1727 74.5007 89.1862 74.6416 89.239C74.7825 89.2919 74.9064 89.3821 75 89.5C75.2209 89.6893 75.3925 89.9296 75.5 90.2L76.3 92.2V92.9C76.3 93.1 75.9 93.2 75.7 93.2C75.552 93.2273 75.3993 93.2139 75.2584 93.161C75.1174 93.1082 74.9935 93.0179 74.9 92.9ZM75.9 92.7V92.2L75.1 90.2C75.1 90 74.9 89.9 74.8 89.7C74.6501 89.5972 74.4794 89.5289 74.3 89.5C74.1 89.5 74 89.5 74 89.7V90.2L74.8 92.2C74.8 92.4 75 92.5 75.1 92.7C75.2498 92.8028 75.4206 92.8711 75.6 92.9C75.8 92.9 75.9 92.9 75.9 92.7Z" fill="#011721"/>
<path d="M76.4 89.3H76.7L78.1 93H77.8L76.5 89.7L76 89.9V89.7L76.5 89.4L76.4 89.3Z" fill="#011721"/>
<path d="M77.9 89.3H78.2L79.6 93H79.3L78 89.7L77.5 89.9V89.7L78 89.4L77.9 89.3Z" fill="#011721"/>
<path d="M80.7 92.9C80.479 92.7107 80.3074 92.4704 80.2 92.2L79.4 90.2V89.5C79.4 89.3 79.7 89.2 80 89.2C80.148 89.1727 80.3007 89.1862 80.4417 89.239C80.5826 89.2919 80.7065 89.3821 80.8 89.5C81.021 89.6893 81.1926 89.9296 81.3 90.2L82.1 92.2V92.9C82.1 93.1 81.7 93.2 81.5 93.2C81.352 93.2273 81.1993 93.2139 81.0584 93.161C80.9175 93.1082 80.7936 93.0179 80.7 92.9ZM81.7 92.7V92.2L80.9 90.2C80.9 90 80.7 89.9 80.6 89.7C80.4502 89.5972 80.2794 89.5289 80.1 89.5C79.9 89.5 79.8 89.5 79.8 89.7V90.2L80.6 92.2C80.6 92.4 80.8 92.5 80.9 92.7C81.0499 92.8028 81.2206 92.8711 81.4 92.9C81.6 92.9 81.7 92.9 81.7 92.7Z" fill="#011721"/>
<path d="M83.4 92.9C83.179 92.7107 83.0074 92.4704 82.9 92.2L82.1 90.2V89.5C82.1 89.3 82.4 89.2 82.7 89.2C82.848 89.1727 83.0007 89.1862 83.1416 89.239C83.2825 89.2919 83.4064 89.3821 83.5 89.5C83.7209 89.6893 83.8925 89.9296 84 90.2L84.8 92.2V92.9C84.8 93.1 84.4 93.2 84.2 93.2C84.052 93.2273 83.8993 93.2139 83.7584 93.161C83.6174 93.1082 83.4935 93.0179 83.4 92.9ZM84.4 92.7V92.2L83.6 90.2C83.6 90 83.4 89.9 83.3 89.7C83.1501 89.5972 82.9794 89.5289 82.8 89.5C82.6 89.5 82.5 89.5 82.5 89.7V90.2L83.3 92.2C83.3 92.4 83.5 92.5 83.6 92.7C83.7498 92.8028 83.9206 92.8711 84.1 92.9C84.3 92.9 84.4 92.9 84.4 92.7Z" fill="#011721"/>
<path d="M84.9 89.3H85.2L86.6 93H86.3L85 89.7L84.5 89.9V89.7L85 89.4L84.9 89.3Z" fill="#011721"/>
<path d="M51.5001 99.6C51.2791 99.4107 51.1075 99.1704 51.0001 98.9L50.2001 96.9V96.2C50.2001 96 50.5001 95.9 50.8001 95.9C50.9481 95.8727 51.1008 95.8861 51.2417 95.939C51.3826 95.9919 51.5065 96.0821 51.6001 96.2C51.821 96.3893 51.9926 96.6296 52.1001 96.9L52.9001 98.9V99.6C52.9001 99.8 52.5001 99.9 52.3001 99.9C52.1521 99.9273 51.9994 99.9138 51.8584 99.861C51.7175 99.8081 51.5936 99.7179 51.5001 99.6ZM52.5001 99.3V98.8L51.7001 96.8C51.7001 96.6 51.5001 96.5 51.4001 96.3C51.2502 96.1972 51.0795 96.1289 50.9001 96.1C50.7001 96.1 50.6001 96.1 50.6001 96.3V96.8L51.4001 98.8C51.4001 99 51.6001 99.1 51.7001 99.3C51.8499 99.4028 52.0207 99.4711 52.2001 99.5C52.4001 99.5 52.5001 99.5 52.5001 99.3Z" fill="#011721"/>
<path d="M54.2 99.6C53.9791 99.4107 53.8075 99.1704 53.7 98.9L52.9 96.9V96.2C52.9 96 53.2 95.9 53.5 95.9C53.648 95.8727 53.8007 95.8861 53.9416 95.939C54.0826 95.9919 54.2065 96.0821 54.3 96.2C54.521 96.3893 54.6926 96.6296 54.8 96.9L55.6 98.9V99.6C55.6 99.8 55.2 99.9 55 99.9C54.852 99.9273 54.6993 99.9138 54.5584 99.861C54.4175 99.8081 54.2936 99.7179 54.2 99.6ZM55.2 99.3V98.8L54.4 96.8C54.4 96.6 54.2 96.5 54.1 96.3C53.9502 96.1972 53.7794 96.1289 53.6 96.1C53.4 96.1 53.3 96.1 53.3 96.3V96.8L54.1 98.8C54.1 99 54.3 99.1 54.4 99.3C54.5499 99.4028 54.7206 99.4711 54.9 99.5C55.1 99.5 55.2 99.5 55.2 99.3Z" fill="#011721"/>
<path d="M55.6001 95.9H55.9001L57.3001 99.6H57.0001L55.7001 96.3L55.2001 96.5V96.3L55.7001 96L55.6001 95.9Z" fill="#011721"/>
<path d="M57.2001 95.9H57.5L58.9001 99.6H58.6L57.3 96.3L56.8 96.5V96.3L57.3 96H57.2001V95.9Z" fill="#011721"/>
<path d="M58.7001 95.9H59L60.4001 99.6H60.1L58.8 96.3L58.3 96.5V96.3L58.8 96L58.7001 95.9Z" fill="#011721"/>
<path d="M60.2001 95.9H60.5L61.9001 99.6H61.6L60.3 96.3L59.8 96.5V96.3L60.3 96L60.2001 95.9Z" fill="#011721"/>
<path d="M63.0001 99.6C62.7791 99.4107 62.6075 99.1704 62.5001 98.9L61.7001 96.9V96.2C61.7001 96 62.0001 95.9 62.3001 95.9C62.4481 95.8727 62.6008 95.8861 62.7417 95.939C62.8826 95.9919 63.0065 96.0821 63.1001 96.2C63.321 96.3893 63.4926 96.6296 63.6001 96.9L64.4001 98.9V99.6C64.4001 99.8 64.0001 99.9 63.8001 99.9C63.6521 99.9273 63.4994 99.9138 63.3584 99.861C63.2175 99.8081 63.0936 99.7179 63.0001 99.6ZM64.0001 99.3V98.8L63.2001 96.8C63.2001 96.6 63.0001 96.5 62.9001 96.3C62.7502 96.1972 62.5795 96.1289 62.4001 96.1C62.2001 96.1 62.1001 96.1 62.1001 96.3V96.8L62.9001 98.8C62.9001 99 63.1001 99.1 63.2001 99.3C63.3499 99.4028 63.5207 99.4711 63.7001 99.5C63.9001 99.5 64.0001 99.5 64.0001 99.3Z" fill="#011721"/>
<path d="M65.7 99.6C65.479 99.4107 65.3074 99.1704 65.2 98.9L64.4 96.9V96.2C64.4 96 64.7 95.9 65 95.9C65.148 95.8727 65.3007 95.8861 65.4417 95.939C65.5826 95.9919 65.7065 96.0821 65.8 96.2C66.021 96.3893 66.1926 96.6296 66.3 96.9L67.1 98.9V99.6C67.1 99.8 66.7 99.9 66.5 99.9C66.352 99.9273 66.1993 99.9138 66.0584 99.861C65.9175 99.8081 65.7936 99.7179 65.7 99.6ZM66.7 99.3V98.8L65.9 96.8C65.9 96.6 65.7 96.5 65.6 96.3C65.4502 96.1972 65.2794 96.1289 65.1 96.1C64.9 96.1 64.8 96.1 64.8 96.3V96.8L65.6 98.8C65.6 99 65.8 99.1 65.9 99.3C66.0499 99.4028 66.2206 99.4711 66.4 99.5C66.6 99.5 66.7 99.5 66.7 99.3Z" fill="#011721"/>
<path d="M67.2 95.9H67.5L68.9 99.6H68.6L67.3 96.3L66.8 96.5V96.3L67.3 96L67.2 95.9Z" fill="#011721"/>
<path d="M68.7 95.9H69L70.4 99.6H70.1L68.8 96.3L68.3 96.5V96.3L68.8 96L68.7 95.9Z" fill="#011721"/>
<path d="M71.5001 99.6C71.2791 99.4107 71.1075 99.1704 71.0001 98.9L70.2001 96.9V96.2C70.2001 96 70.5001 95.9 70.8001 95.9C70.9481 95.8727 71.1008 95.8861 71.2417 95.939C71.3826 95.9919 71.5065 96.0821 71.6001 96.2C71.821 96.3893 71.9926 96.6296 72.1001 96.9L72.9001 98.9V99.6C72.9001 99.8 72.5001 99.9 72.3001 99.9C72.1521 99.9273 71.9994 99.9138 71.8585 99.861C71.7175 99.8081 71.5936 99.7179 71.5001 99.6ZM72.5001 99.3V98.8L71.7001 96.8C71.7001 96.6 71.5001 96.5 71.4001 96.3C71.2502 96.1972 71.0795 96.1289 70.9001 96.1C70.7001 96.1 70.6001 96.1 70.6001 96.3V96.8L71.4001 98.8C71.4001 99 71.6001 99.1 71.7001 99.3C71.8499 99.4028 72.0207 99.4711 72.2001 99.5C72.4001 99.5 72.5001 99.5 72.5001 99.3Z" fill="#011721"/>
<path d="M54.0001 106.2C53.7791 106.011 53.6075 105.77 53.5001 105.5L52.7001 103.5V102.8C52.7001 102.6 53.0001 102.5 53.3001 102.5C53.4481 102.473 53.6008 102.486 53.7417 102.539C53.8826 102.592 54.0065 102.682 54.1001 102.8C54.321 102.989 54.4926 103.23 54.6001 103.5L55.4001 105.5V106.2C55.4001 106.4 55.0001 106.5 54.8001 106.5C54.6521 106.527 54.4994 106.514 54.3584 106.461C54.2175 106.408 54.0936 106.318 54.0001 106.2ZM55.0001 105.9V105.4L54.2001 103.4C54.2001 103.2 54.0001 103.1 53.9001 102.9C53.7502 102.797 53.5795 102.729 53.4001 102.7C53.2001 102.7 53.1001 102.7 53.1001 102.9V103.4L53.9001 105.4C53.9001 105.6 54.1001 105.7 54.2001 105.9C54.3499 106.003 54.5207 106.071 54.7001 106.1C54.9001 106.1 55.0001 106.1 55.0001 105.9Z" fill="#011721"/>
<path d="M56.7 106.2C56.4791 106.011 56.3075 105.77 56.2 105.5L55.4 103.5V102.8C55.4 102.6 55.7 102.5 56 102.5C56.148 102.473 56.3007 102.486 56.4416 102.539C56.5826 102.592 56.7065 102.682 56.8 102.8C57.021 102.989 57.1926 103.23 57.3 103.5L58.1 105.5V106.2C58.1 106.4 57.7 106.5 57.5 106.5C57.352 106.527 57.1993 106.514 57.0584 106.461C56.9175 106.408 56.7936 106.318 56.7 106.2ZM57.7 105.9V105.4L56.9 103.4C56.9 103.2 56.7 103.1 56.6 102.9C56.4502 102.797 56.2794 102.729 56.1 102.7C55.9 102.7 55.8 102.7 55.8 102.9V103.4L56.6 105.4C56.6 105.6 56.8 105.7 56.9 105.9C57.0499 106.003 57.2206 106.071 57.4 106.1C57.6 106.1 57.7 106.1 57.7 105.9Z" fill="#011721"/>
<path d="M59.4 106.2C59.179 106.011 59.0074 105.77 58.9 105.5L58.1 103.5V102.8C58.1 102.6 58.4 102.5 58.7 102.5C58.848 102.473 59.0007 102.486 59.1416 102.539C59.2825 102.592 59.4064 102.682 59.5 102.8C59.7209 102.989 59.8925 103.23 60 103.5L60.8 105.5V106.2C60.8 106.4 60.4 106.5 60.2 106.5C60.052 106.527 59.8993 106.514 59.7584 106.461C59.6174 106.408 59.4935 106.318 59.4 106.2ZM60.3 105.9V105.4L59.5 103.4C59.5 103.2 59.3 103.1 59.2 102.9C59.0501 102.797 58.8794 102.729 58.7 102.7C58.5 102.7 58.4 102.7 58.4 102.9V103.4L59.2 105.4C59.2 105.6 59.4 105.7 59.5 105.9C59.6498 106.003 59.8206 106.071 60 106.1C60.2 106.1 60.3 106.1 60.3 105.9Z" fill="#011721"/>
<path d="M60.8 102.5H61.1L62.5 106.2H62.2L60.9 102.9L60.4 103.1V102.9L60.9 102.6L60.8 102.5Z" fill="#011721"/>
<path d="M62.3 102.5H62.6L64 106.2H63.7L62.4 102.9L61.9 103.1V102.9L62.4 102.6L62.3 102.5Z" fill="#011721"/>
<path d="M63.9 102.5H64.2L65.6 106.2H65.3L64 102.9L63.5 103.1V102.9L64 102.6L63.9 102.5Z" fill="#011721"/>
<path d="M65.4 102.5H65.7L67.1 106.2H66.8L65.5 102.9L65 103.1V102.9L65.5 102.6L65.4 102.5Z" fill="#011721"/>
<path d="M66.9 102.5H67.2L68.6 106.2H68.3L67 102.9L66.5 103.1V102.9L67 102.6L66.9 102.5Z" fill="#011721"/>
<path d="M69.7 106.2C69.479 106.011 69.3074 105.77 69.2 105.5L68.4 103.5V102.8C68.4 102.6 68.7 102.5 69 102.5C69.148 102.473 69.3007 102.486 69.4417 102.539C69.5826 102.592 69.7065 102.682 69.8 102.8C70.021 102.989 70.1926 103.23 70.3 103.5L71.1 105.5V106.2C71.1 106.4 70.7 106.5 70.5 106.5C70.352 106.527 70.1993 106.514 70.0584 106.461C69.9175 106.408 69.7936 106.318 69.7 106.2ZM70.7 105.9V105.4L69.9 103.4C69.9 103.2 69.7 103.1 69.6 102.9C69.4502 102.797 69.2794 102.729 69.1 102.7C68.9 102.7 68.8 102.7 68.8 102.9V103.4L69.6 105.4C69.6 105.6 69.8 105.7 69.9 105.9C70.0499 106.003 70.2206 106.071 70.4 106.1C70.6 106.1 70.7 106.1 70.7 105.9Z" fill="#011721"/>
<path d="M72.4 106.2C72.179 106.011 72.0074 105.77 71.9 105.5L71.1 103.5V102.8C71.1 102.6 71.4 102.5 71.7 102.5C71.848 102.473 72.0007 102.486 72.1416 102.539C72.2825 102.592 72.4064 102.682 72.5 102.8C72.7209 102.989 72.8925 103.23 73 103.5L73.8 105.5V106.2C73.8 106.4 73.4 106.5 73.2 106.5C73.052 106.527 72.8993 106.514 72.7584 106.461C72.6174 106.408 72.4935 106.318 72.4 106.2ZM73.4 105.9V105.4L72.6 103.4C72.6 103.2 72.4 103.1 72.3 102.9C72.1501 102.797 71.9794 102.729 71.8 102.7C71.6 102.7 71.5 102.7 71.5 102.9V103.4L72.3 105.4C72.3 105.6 72.5 105.7 72.6 105.9C72.7498 106.003 72.9206 106.071 73.1 106.1C73.3 106.1 73.4 106.1 73.4 105.9Z" fill="#011721"/>
<path d="M73.9 102.5H74.2L75.6 106.2H75.3L74 102.9L73.5 103.1V102.9L74 102.6L73.9 102.5Z" fill="#011721"/>
<path d="M76.7 106.2C76.479 106.011 76.3074 105.77 76.2 105.5L75.4 103.5V102.8C75.4 102.6 75.7 102.5 76 102.5C76.148 102.473 76.3007 102.486 76.4417 102.539C76.5826 102.592 76.7065 102.682 76.8 102.8C77.021 102.989 77.1926 103.23 77.3 103.5L78.1 105.5V106.2C78.1 106.4 77.7 106.5 77.5 106.5C77.352 106.527 77.1993 106.514 77.0584 106.461C76.9175 106.408 76.7936 106.318 76.7 106.2ZM77.7 105.9V105.4L76.9 103.4C76.9 103.2 76.7 103.1 76.6 102.9C76.4502 102.797 76.2794 102.729 76.1 102.7C75.9 102.7 75.8 102.7 75.8 102.9V103.4L76.6 105.4C76.6 105.6 76.8 105.7 76.9 105.9C77.0499 106.003 77.2206 106.071 77.4 106.1C77.6 106.1 77.7 106.1 77.7 105.9Z" fill="#011721"/>
<path d="M78.2 102.5H78.5L79.9 106.2H79.6L78.3 102.9L77.8 103.1V102.9L78.3 102.6L78.2 102.5Z" fill="#011721"/>
<path d="M81.0001 106.2C80.7791 106.011 80.6075 105.77 80.5001 105.5L79.7001 103.5V102.8C79.7001 102.6 80.0001 102.5 80.3001 102.5C80.4481 102.473 80.6008 102.486 80.7417 102.539C80.8826 102.592 81.0065 102.682 81.1001 102.8C81.321 102.989 81.4926 103.23 81.6001 103.5L82.4001 105.5V106.2C82.4001 106.4 82.0001 106.5 81.8001 106.5C81.6521 106.527 81.4994 106.514 81.3585 106.461C81.2175 106.408 81.0936 106.318 81.0001 106.2ZM82.0001 105.9V105.4L81.2001 103.4C81.2001 103.2 81.0001 103.1 80.9001 102.9C80.7502 102.797 80.5795 102.729 80.4001 102.7C80.2001 102.7 80.1001 102.7 80.1001 102.9V103.4L80.9001 105.4C80.9001 105.6 81.1001 105.7 81.2001 105.9C81.3499 106.003 81.5207 106.071 81.7001 106.1C81.9001 106.1 82.0001 106.1 82.0001 105.9Z" fill="#011721"/>
<path d="M82.5 102.5H82.8L84.2 106.2H83.9L82.6 102.9L82.1 103.1V102.9L82.6 102.6L82.5 102.5Z" fill="#011721"/>
<path d="M85.3 106.2C85.079 106.011 84.9074 105.77 84.8 105.5L84 103.5V102.8C84 102.6 84.3 102.5 84.6 102.5C84.748 102.473 84.9007 102.486 85.0416 102.539C85.1826 102.592 85.3065 102.682 85.4 102.8C85.621 102.989 85.7926 103.23 85.9 103.5L86.7 105.5V106.2C86.7 106.4 86.3 106.5 86.1 106.5C85.952 106.527 85.7993 106.514 85.6584 106.461C85.5174 106.408 85.3936 106.318 85.3 106.2ZM86.3 105.9V105.4L85.5 103.4C85.5 103.2 85.3 103.1 85.2 102.9C85.0501 102.797 84.8794 102.729 84.7 102.7C84.5 102.7 84.4 102.7 84.4 102.9V103.4L85.2 105.4C85.2 105.6 85.4 105.7 85.5 105.9C85.6498 106.003 85.8206 106.071 86 106.1C86.2 106.1 86.3 106.1 86.3 105.9Z" fill="#011721"/>
<path d="M88.0001 106.2C87.7791 106.011 87.6075 105.77 87.5001 105.5L86.7001 103.5V102.8C86.7001 102.6 87.0001 102.5 87.3001 102.5C87.4481 102.473 87.6008 102.486 87.7417 102.539C87.8826 102.592 88.0065 102.682 88.1001 102.8C88.321 102.989 88.4926 103.23 88.6001 103.5L89.4001 105.5V106.2C89.4001 106.4 89.0001 106.5 88.8001 106.5C88.6521 106.527 88.4994 106.514 88.3585 106.461C88.2175 106.408 88.0936 106.318 88.0001 106.2ZM88.9001 105.9V105.4L88.1001 103.4C88.1001 103.2 87.9001 103.1 87.8001 102.9C87.6502 102.797 87.4795 102.729 87.3001 102.7C87.1001 102.7 87.0001 102.7 87.0001 102.9V103.4L87.8001 105.4C87.8001 105.6 88.0001 105.7 88.1001 105.9C88.2499 106.003 88.4207 106.071 88.6001 106.1C88.8001 106.1 88.9001 106.1 88.9001 105.9Z" fill="#011721"/>
<path d="M89.4 102.5H89.7L91.1 106.2H90.8L89.5 102.9L89 103.1V102.9L89.5 102.6L89.4 102.5Z" fill="#011721"/>
<path d="M90.9 102.5H91.2L92.6 106.2H92.3L91 102.9L90.5 103.1V102.9L91 102.6L90.9 102.5Z" fill="#011721"/>
<path d="M93.8 106.2C93.579 106.011 93.4074 105.77 93.3 105.5L92.5 103.5V102.8C92.5 102.6 92.8 102.5 93.1 102.5C93.248 102.473 93.4007 102.486 93.5416 102.539C93.6826 102.592 93.8065 102.682 93.9 102.8C94.121 102.989 94.2926 103.23 94.4 103.5L95.2 105.5V106.2C95.2 106.4 94.8 106.5 94.6 106.5C94.452 106.527 94.2993 106.514 94.1584 106.461C94.0174 106.408 93.8936 106.318 93.8 106.2ZM94.8 105.9V105.4L94 103.4C94 103.2 93.8 103.1 93.7 102.9C93.5501 102.797 93.3794 102.729 93.2 102.7C93 102.7 92.9 102.7 92.9 102.9V103.4L93.7 105.4C93.7 105.6 93.9 105.7 94 105.9C94.1498 106.003 94.3206 106.071 94.5 106.1C94.7 106.1 94.8 106.1 94.8 105.9Z" fill="#011721"/>
<path d="M96.4 106.2C96.1791 106.011 96.0075 105.77 95.9 105.5L95.1 103.5V102.8C95.1 102.6 95.4 102.5 95.7 102.5C95.8481 102.473 96.0007 102.486 96.1417 102.539C96.2826 102.592 96.4065 102.682 96.5 102.8C96.721 102.989 96.8926 103.23 97 103.5L97.8 105.5V106.2C97.8 106.4 97.4 106.5 97.2 106.5C97.052 106.527 96.8994 106.514 96.7584 106.461C96.6175 106.408 96.4936 106.318 96.4 106.2ZM97.4 105.9V105.4L96.6 103.4C96.6 103.2 96.4 103.1 96.3 102.9C96.1502 102.797 95.9794 102.729 95.8 102.7C95.6 102.7 95.5 102.7 95.5 102.9V103.4L96.3 105.4C96.3 105.6 96.5 105.7 96.6 105.9C96.7499 106.003 96.9206 106.071 97.1 106.1C97.3 106.1 97.4 106.1 97.4 105.9Z" fill="#011721"/>
<path d="M97.9 102.5H98.2L99.6 106.2H99.3L98 102.9L97.5 103.1V102.9L98 102.6L97.9 102.5Z" fill="#011721"/>
<path d="M99.4 102.5H99.7L101.1 106.2H100.8L99.5 102.9L99 103.1V102.9L99.5 102.6L99.4 102.5Z" fill="#011721"/>
<path d="M102.3 106.2C102.079 106.011 101.907 105.77 101.8 105.5L101 103.5V102.8C101 102.6 101.3 102.5 101.6 102.5C101.748 102.473 101.901 102.486 102.042 102.539C102.183 102.592 102.306 102.682 102.4 102.8C102.621 102.989 102.793 103.23 102.9 103.5L103.7 105.5V106.2C103.7 106.4 103.3 106.5 103.1 106.5C102.952 106.527 102.799 106.514 102.658 106.461C102.517 106.408 102.394 106.318 102.3 106.2ZM103.2 105.9V105.4L102.4 103.4C102.4 103.2 102.2 103.1 102.1 102.9C101.95 102.797 101.779 102.729 101.6 102.7C101.4 102.7 101.3 102.7 101.3 102.9V103.4L102.1 105.4C102.1 105.6 102.3 105.7 102.4 105.9C102.55 106.003 102.721 106.071 102.9 106.1C103.1 106.1 103.2 106.1 103.2 105.9Z" fill="#011721"/>
<path d="M104.9 106.2C104.679 106.011 104.507 105.77 104.4 105.5L103.6 103.5V102.8C103.6 102.6 103.9 102.5 104.2 102.5C104.348 102.473 104.501 102.486 104.642 102.539C104.783 102.592 104.906 102.682 105 102.8C105.221 102.989 105.393 103.23 105.5 103.5L106.3 105.5V106.2C106.3 106.4 105.9 106.5 105.7 106.5C105.552 106.527 105.399 106.514 105.258 106.461C105.117 106.408 104.994 106.318 104.9 106.2ZM105.9 105.9V105.4L105.1 103.4C105.1 103.2 104.9 103.1 104.8 102.9C104.65 102.797 104.479 102.729 104.3 102.7C104.1 102.7 104 102.7 104 102.9V103.4L104.8 105.4C104.8 105.6 105 105.7 105.1 105.9C105.25 106.003 105.421 106.071 105.6 106.1C105.8 106.1 105.9 106.1 105.9 105.9Z" fill="#011721"/>
</g>
<path d="M117.4 105.3H89.8L82.6 86.4H110.2L117.4 105.3Z" fill="#00B2CA"/>
<path d="M119.1 102.4H91.5L84.3 83.5H111.9L119.1 102.4Z" fill="white"/>
<path opacity="0.1" d="M119.1 102.4H91.5L84.3 83.5H111.9L119.1 102.4Z" fill="#00B2CA"/>
<path opacity="0.9" d="M111.9 83.4L101.7 92.9L84.3 83.4H111.9Z" fill="#00B2CA"/>
<path opacity="0.5" d="M98.5 91.1L101.7 92.9L104.3 90.5L119.1 102.4H91.5L98.4 91.2L98.5 91.1Z" fill="#00B2CA"/>
<path d="M49.1 55.2H83.3C84.1128 55.2404 84.8961 55.5174 85.5535 55.9971C86.2108 56.4768 86.7136 57.1383 87 57.9L97 84.3C97.6 85.8 96.8 87 95.4 87H61.2C60.3872 86.9596 59.604 86.6826 58.9466 86.2029C58.2892 85.7231 57.7864 85.0617 57.5 84.3L47.5 57.9C46.9 56.4 47.7 55.2 49.1 55.2Z" fill="#FA6E53"/>
<path d="M74.5 63.2C73.4 60.2 70 57.8 67 58C64.5 58 63.1 60.1 63.8 62.7C64.4169 64.5282 65.6099 66.1071 67.2 67.2C68.0748 67.7768 68.91 68.4116 69.7 69.1C69.9612 69.3569 70.2759 69.5528 70.6217 69.6739C70.9675 69.7949 71.3357 69.8379 71.7 69.8C72.4 69.8 73 69.8 73.2 69.1C73.4186 68.4626 73.7213 67.8573 74.1 67.3C74.5046 66.7237 74.7539 66.053 74.8239 65.3524C74.894 64.6518 74.7824 63.945 74.5 63.3V63.2Z" fill="url(#paint0_linear_3_5863)"/>
<path d="M83.2 78.1C83.2 78.1 83 78.4 82.6 78.1H82.3001L65.9001 70.8H65.6C65.4585 70.7168 65.3391 70.6006 65.252 70.4613C65.165 70.322 65.1128 70.1638 65.1 70C65.1072 69.3814 64.9172 68.7766 64.5577 68.2731C64.1981 67.7697 63.6875 67.3939 63.1 67.2C61.9 66.7 60.7 67.2 60.6 68.1C60.586 68.4472 60.6405 68.7937 60.7607 69.1198C60.8808 69.4458 61.0641 69.745 61.3 70C61.0034 70.0153 60.7213 70.1335 60.5023 70.3342C60.2833 70.535 60.141 70.8058 60.1 71.1C60.0929 71.7186 60.2829 72.3234 60.6424 72.8269C61.002 73.3303 61.5126 73.7061 62.1 73.9C63.3 74.4 64.5 73.9 64.6 73C64.6 73 64.8 72.7 65.2 73H65.5001L81.9001 80.3H82.2C82.3416 80.3832 82.461 80.4994 82.5481 80.6387C82.6352 80.778 82.6873 80.9362 82.7 81.1C82.6929 81.7186 82.8829 82.3234 83.2425 82.8269C83.602 83.3303 84.1126 83.7061 84.7 83.9C85.9 84.4 87.1 83.9 87.2 83C87.2141 82.6528 87.1596 82.3063 87.0394 81.9802C86.9193 81.6542 86.736 81.3551 86.5 81.1C86.7967 81.0847 87.0788 80.9665 87.2978 80.7658C87.5168 80.565 87.6591 80.2943 87.7 80C87.7072 79.3814 87.5172 78.7766 87.1576 78.2731C86.7981 77.7697 86.2875 77.3939 85.7 77.2C84.5 76.7 83.3 77.2 83.2 78.1Z" fill="url(#paint1_linear_3_5863)"/>
<path d="M66.5 78.1C66.7 78.3 67 78.4 67.2 78.1H67.4L78.4 70.8H78.6C78.9 70.5 78.6 70.1 78.6 70C77.7 69 77.6 67.7 78.4 67.2C79.2 66.7 80.6 67.2 81.6 68.1C82.6 69 82.4 69.3 82.3 70C82.6932 70.0272 83.0758 70.1398 83.4212 70.3297C83.7666 70.5197 84.0664 70.7825 84.3 71.1C85.2 72.1 85.3 73.4 84.5 73.9C83.7 74.4 82.3 73.9 81.3 73C80.3 72.1 80.8 72.7 80.6 73H80.4L69.4 80.3H69.2C68.9 80.6 69.2 81 69.2 81.1C70.1 82.1 70.2 83.4 69.4 83.9C68.6 84.4 67.2 83.9 66.2 83C65.2 82.1 65.4 81.8 65.5 81.1C65.1068 81.0728 64.7242 80.9602 64.3789 80.7703C64.0335 80.5803 63.7336 80.3175 63.5 80C62.6 79 62.5 77.7 63.3 77.2C64.1 76.7 65.5 77.2 66.5 78.1Z" fill="url(#paint2_linear_3_5863)"/>
<path d="M108.4 77.7H105.1C105.047 77.7 104.996 77.6789 104.959 77.6414C104.921 77.6039 104.9 77.553 104.9 77.5V77.3H108.2C108.253 77.3 108.304 77.3211 108.341 77.3586C108.379 77.3961 108.4 77.447 108.4 77.5V77.7Z" fill="#011721"/>
<path d="M111.2 77.7H109.6C109.547 77.7 109.496 77.6789 109.459 77.6414C109.421 77.6039 109.4 77.553 109.4 77.5V77.3H111C111.053 77.3 111.104 77.3211 111.141 77.3586C111.179 77.3961 111.2 77.447 111.2 77.5V77.7Z" fill="#011721"/>
<path d="M115.5 77.7H111.9C111.847 77.7 111.796 77.6789 111.759 77.6414C111.721 77.6039 111.7 77.553 111.7 77.5V77.3H115.3C115.353 77.3 115.404 77.3211 115.441 77.3586C115.479 77.3961 115.5 77.447 115.5 77.5V77.7Z" fill="#011721"/>
<path d="M107.7 78.9H105.6C105.547 78.9 105.496 78.8789 105.459 78.8414C105.421 78.8039 105.4 78.753 105.4 78.7V78.5H107.5C107.553 78.5 107.604 78.5211 107.641 78.5586C107.679 78.5961 107.7 78.647 107.7 78.7V78.9Z" fill="#011721"/>
<path d="M108.9 78.9H108.5C108.447 78.9 108.396 78.8789 108.359 78.8414C108.321 78.8039 108.3 78.753 108.3 78.7V78.5H108.7C108.753 78.5 108.804 78.5211 108.841 78.5586C108.879 78.5961 108.9 78.647 108.9 78.7V78.9Z" fill="#011721"/>
<path d="M112.1 78.9H109.4C109.347 78.9 109.296 78.8789 109.259 78.8414C109.221 78.8039 109.2 78.753 109.2 78.7V78.5H111.9C111.953 78.5 112.004 78.5211 112.041 78.5586C112.079 78.5961 112.1 78.647 112.1 78.7V78.9Z" fill="#011721"/>
<path d="M114.7 78.9H112.9C112.847 78.9 112.796 78.8789 112.759 78.8414C112.721 78.8039 112.7 78.753 112.7 78.7V78.5H114.5C114.553 78.5 114.604 78.5211 114.641 78.5586C114.679 78.5961 114.7 78.647 114.7 78.7V78.9Z" fill="#011721"/>
<path d="M110.1 80.1H106C105.974 80.1 105.948 80.0948 105.924 80.0848C105.899 80.0747 105.877 80.06 105.859 80.0414C105.84 80.0228 105.825 80.0008 105.815 79.9765C105.805 79.9523 105.8 79.9263 105.8 79.9V79.7H109.9C109.953 79.7 110.004 79.7211 110.041 79.7586C110.079 79.7961 110.1 79.847 110.1 79.9V80.1Z" fill="#011721"/>
<path d="M111.5 80.1H110.8C110.774 80.1 110.748 80.0948 110.724 80.0848C110.699 80.0747 110.677 80.06 110.659 80.0414C110.64 80.0228 110.625 80.0008 110.615 79.9765C110.605 79.9523 110.6 79.9263 110.6 79.9V79.7H111.3C111.353 79.7 111.404 79.7211 111.441 79.7586C111.479 79.7961 111.5 79.847 111.5 79.9V80.1Z" fill="#011721"/>
<path d="M112.8 80.1H112C111.974 80.1 111.948 80.0948 111.924 80.0848C111.899 80.0747 111.877 80.06 111.859 80.0414C111.84 80.0228 111.825 80.0008 111.815 79.9765C111.805 79.9523 111.8 79.9263 111.8 79.9V79.7H112.6C112.653 79.7 112.704 79.7211 112.741 79.7586C112.779 79.7961 112.8 79.847 112.8 79.9V80.1Z" fill="#011721"/>
<path d="M115.9 80.1H113.6C113.574 80.1 113.548 80.0948 113.523 80.0848C113.499 80.0747 113.477 80.06 113.459 80.0414C113.44 80.0228 113.425 80.0008 113.415 79.9765C113.405 79.9523 113.4 79.9263 113.4 79.9V79.7H115.7C115.753 79.7 115.804 79.7211 115.841 79.7586C115.879 79.7961 115.9 79.847 115.9 79.9V80.1Z" fill="#011721"/>
<path d="M123.6 96.7L122.9 94.8C122.698 94.2648 122.345 93.8 121.883 93.4625C121.421 93.1251 120.871 92.9296 120.3 92.9C120.071 92.8857 119.842 92.9333 119.637 93.0379C119.432 93.1425 119.26 93.3002 119.137 93.4945C119.014 93.6887 118.946 93.9125 118.94 94.1421C118.933 94.3718 118.989 94.5991 119.1 94.8L119.8 96.7C119.659 96.7044 119.523 96.756 119.414 96.8466C119.305 96.9373 119.23 97.0616 119.2 97.2V97.5L120.6 101.2C120.677 101.431 120.825 101.633 121.022 101.776C121.219 101.92 121.456 101.998 121.7 102H125.4C125.495 102.003 125.59 101.98 125.674 101.935C125.758 101.89 125.828 101.824 125.879 101.743C125.93 101.662 125.958 101.57 125.962 101.474C125.965 101.379 125.944 101.285 125.9 101.2L124.5 97.5C124.423 97.2686 124.275 97.0672 124.078 96.9237C123.881 96.7803 123.644 96.7021 123.4 96.7H123.6ZM123 100.2C122.812 100.182 122.632 100.117 122.475 100.013C122.318 99.9079 122.189 99.7662 122.1 99.6C122.1 99.3 122.1 99 122.5 99C122.688 99.0184 122.868 99.0828 123.025 99.1875C123.182 99.2921 123.311 99.4338 123.4 99.6C123.4 99.9 123.4 100.2 123 100.2ZM122.6 96.7H120.7L120 94.8C119.925 94.6664 119.904 94.509 119.941 94.3602C119.978 94.2114 120.071 94.0825 120.2 94H120.6C120.881 94.0048 121.155 94.0928 121.386 94.253C121.618 94.4132 121.797 94.6383 121.9 94.9L122.6 96.8V96.7Z" fill="#00B2CA"/>
</g>
<defs>
<linearGradient id="paint0_linear_3_5863" x1="-699.589" y1="66.1003" x2="-698.59" y2="66.1003" gradientUnits="userSpaceOnUse">
<stop stop-color="#FAFAFF"/>
<stop offset="0.6" stop-color="#FAFAFF"/>
<stop offset="1" stop-color="#E5F7F9"/>
</linearGradient>
<linearGradient id="paint1_linear_3_5863" x1="-740.118" y1="44.2981" x2="-739.125" y2="44.2981" gradientUnits="userSpaceOnUse">
<stop stop-color="#FAFAFF"/>
<stop offset="0.6" stop-color="#FAFAFF"/>
<stop offset="1" stop-color="#E5F7F9"/>
</linearGradient>
<linearGradient id="paint2_linear_3_5863" x1="-733.705" y1="44.4006" x2="-732.702" y2="44.4006" gradientUnits="userSpaceOnUse">
<stop stop-color="#FAFAFF"/>
<stop offset="0.6" stop-color="#FAFAFF"/>
<stop offset="1" stop-color="#E5F7F9"/>
</linearGradient>
<clipPath id="clip0_3_5863">
<rect width="255" height="255.001" fill="white"/>
</clipPath>
</defs>
</svg>
