<svg width="339" height="200" viewBox="0 0 339 200" fill="none" xmlns="http://www.w3.org/2000/svg">
<g clip-path="url(#clip0_3_4864)">
<path d="M209.5 133.9C159.4 102.6 175.5 39.7 175.5 39.7C197.6 29.4 227.9 21.6 227.9 21.6C227.9 21.6 254.2 38.6 271.8 55.4C271.8 55.4 267 120.2 209.6 133.9" fill="white"/>
<path d="M209.5 134.3H209.3C198.1 127.456 188.92 117.759 182.7 106.2C177.597 96.5338 174.405 85.9744 173.3 75.1C171.993 63.2467 172.601 51.2604 175.1 39.6C175.104 39.5481 175.126 39.4992 175.162 39.4625C175.199 39.4257 175.248 39.4035 175.3 39.4C197.2 29.2 227.4 21.4 227.8 21.3H228.1C228.4 21.5 254.6 38.5 272.1 55.2C272.149 55.2941 272.183 55.3953 272.2 55.5C270.879 67.3458 267.637 78.8972 262.6 89.7C258.063 99.6413 251.684 108.633 243.8 116.2C234.226 125.131 222.462 131.375 209.7 134.3M175.8 40C173.386 51.5372 172.813 63.3835 174.1 75.1C176.1 92.9 184 117.5 209.6 133.6C239 126.5 254.2 105.7 261.8 89.5C266.79 78.8273 269.999 67.4096 271.3 55.7C254.5 39.8 229.8 23.5 227.7 22.1C225.3 22.7 196.7 30.3 175.7 40.1" fill="black"/>
<path d="M211.4 122.2C203.339 116.85 196.712 109.605 192.1 101.1C187.922 93.2437 185.307 84.6518 184.4 75.8C183.398 66.6369 183.701 57.378 185.3 48.3C201.1 41.7 221.8 32.9 226 32.9C230 34.3 246.8 49.2 259.7 60.5C258.37 69.6385 255.708 78.533 251.8 86.9C248.114 95.0002 242.883 102.303 236.4 108.4C229.321 114.997 220.74 119.768 211.4 122.3" fill="#FA6E53"/>
<path d="M214.5 103.7C209.771 100.558 205.89 96.2993 203.2 91.3C200.775 86.6969 199.247 81.6741 198.7 76.5C198.115 71.1362 198.283 65.7171 199.2 60.4C208.4 56.5 220.6 51.4 223.1 51.4C225.4 52.2 235.3 61 242.9 67.6C242.132 72.9637 240.583 78.1859 238.3 83.1C236.116 87.827 233.063 92.1013 229.3 95.7C225.137 99.5846 220.092 102.399 214.6 103.9" fill="white"/>
<path d="M215.3 101.2C211.771 98.2061 208.881 94.5333 206.8 90.4C204.309 85.3966 202.782 79.9686 202.3 74.4C201.783 69.5117 201.817 64.5808 202.4 59.7C208.822 57.5188 215.524 56.2728 222.3 56C228.691 58.3363 234.718 61.5686 240.2 65.6C239.27 70.439 237.829 75.1655 235.9 79.7C233.701 84.7987 230.62 89.47 226.8 93.5C223.559 96.8105 219.681 99.4298 215.4 101.2" fill="white"/>
<path d="M214.1 83.1C213.614 82.9926 213.186 82.7072 212.9 82.3L210 77.6C209.752 77.189 209.676 76.6964 209.789 76.2298C209.903 75.7632 210.196 75.3604 210.606 75.1094C211.015 74.8585 211.507 74.7797 211.975 74.8904C212.442 75.001 212.847 75.2921 213.1 75.7L215 78.8L229 69.3C229.197 69.1687 229.418 69.0774 229.65 69.0315C229.882 68.9855 230.121 68.9858 230.354 69.0322C230.586 69.0786 230.806 69.1703 231.003 69.3021C231.2 69.4338 231.369 69.603 231.5 69.8C231.631 69.997 231.723 70.2179 231.768 70.4501C231.814 70.6824 231.814 70.9214 231.768 71.1535C231.721 71.3857 231.63 71.6064 231.498 71.8031C231.366 71.9998 231.197 72.1687 231 72.3L215.4 82.8C215.22 82.9457 215.01 83.0486 214.785 83.1006C214.559 83.1526 214.325 83.1523 214.1 83.1Z" fill="#FA6E53"/>
<path d="M282.8 35.2V43.8C282.801 44.5357 282.657 45.2645 282.376 45.9444C282.095 46.6244 281.683 47.2422 281.162 47.7624C280.642 48.2827 280.024 48.6951 279.344 48.9761C278.664 49.2571 277.936 49.4012 277.2 49.4H231C230.264 49.4012 229.535 49.2571 228.855 48.9761C228.176 48.6951 227.558 48.2827 227.037 47.7624C226.517 47.2422 226.105 46.6244 225.824 45.9444C225.543 45.2645 225.399 44.5357 225.4 43.8V35.2C225.399 34.4642 225.543 33.7355 225.824 33.0556C226.105 32.3756 226.517 31.7578 227.037 31.2375C227.558 30.7173 228.176 30.3048 228.855 30.0238C229.535 29.7428 230.264 29.5988 231 29.6H277.1C277.836 29.5988 278.564 29.7428 279.244 30.0238C279.924 30.3048 280.542 30.7173 281.062 31.2375C281.583 31.7578 281.995 32.3756 282.276 33.0556C282.557 33.7355 282.701 34.4642 282.7 35.2" fill="white"/>
<path d="M277.2 49.7H231C229.41 49.6952 227.887 49.0616 226.763 47.9374C225.638 46.8132 225.005 45.2898 225 43.7V35.1C225.005 33.5101 225.638 31.9868 226.763 30.8626C227.887 29.7384 229.41 29.1047 231 29.1H277.1C278.69 29.1047 280.213 29.7384 281.337 30.8626C282.462 31.9868 283.095 33.5101 283.1 35.1V43.7C283.095 45.2898 282.462 46.8132 281.337 47.9374C280.213 49.0616 278.69 49.6952 277.1 49.7M231 29.9C229.623 29.9073 228.305 30.4575 227.331 31.4311C226.358 32.4047 225.807 33.7231 225.8 35.1V43.7C225.807 45.0768 226.358 46.3952 227.331 47.3688C228.305 48.3424 229.623 48.8926 231 48.9H277.2C278.577 48.8926 279.895 48.3424 280.869 47.3688C281.842 46.3952 282.393 45.0768 282.4 43.7V35.1C282.391 33.6972 281.829 32.3544 280.838 31.3624C279.846 30.3705 278.503 29.8091 277.1 29.8H231V29.9Z" fill="black"/>
<path d="M245.9 40.5C246.1 40.5 246.2 40.8 246.2 41C246.174 41.3972 246.035 41.7787 245.8 42.1C245.651 42.4568 245.409 42.7675 245.1 43C245.026 43.05 244.939 43.0767 244.85 43.0767C244.761 43.0767 244.674 43.05 244.6 43L241.7 40.7L242.3 44.4C242.3 44.6 242.3 44.8 242.1 44.9C241.346 45.1002 240.554 45.1002 239.8 44.9C239.6 44.9 239.5 44.6 239.6 44.4L240.2 40.7L237.3 43C237.226 43.0489 237.139 43.075 237.05 43.075C236.961 43.075 236.874 43.0489 236.8 43C236.536 42.7251 236.301 42.4234 236.1 42.1C235.865 41.7787 235.726 41.3972 235.7 41C235.7 40.8 235.7 40.6 236 40.5L239.5 39.2L236 37.9C235.8 37.9 235.7 37.6 235.7 37.4C235.876 36.6224 236.297 35.9216 236.9 35.4C236.974 35.35 237.061 35.3233 237.15 35.3233C237.239 35.3233 237.326 35.35 237.4 35.4L240.3 37.7L239.7 34C239.7 33.8 239.7 33.6 239.9 33.5C240.654 33.2998 241.446 33.2998 242.2 33.5C242.4 33.5 242.5 33.8 242.4 34L241.8 37.7L244.7 35.4C244.774 35.3511 244.861 35.325 244.95 35.325C245.039 35.325 245.126 35.3511 245.2 35.4C245.464 35.6749 245.698 35.9766 245.9 36.3C246.135 36.6214 246.274 37.0028 246.3 37.4C246.3 37.6 246.3 37.8 246 37.9L242.6 39.2L246 40.5H245.9Z" fill="#BB88FC"/>
<path d="M261.4 40.5C261.6 40.5 261.7 40.8 261.7 41C261.674 41.3972 261.535 41.7787 261.3 42.1C261.151 42.4568 260.909 42.7675 260.6 43C260.526 43.05 260.439 43.0767 260.35 43.0767C260.261 43.0767 260.174 43.05 260.1 43L257.2 40.7L257.8 44.4C257.8 44.6 257.8 44.8 257.6 44.9C256.846 45.1002 256.054 45.1002 255.3 44.9C255.1 44.9 255 44.6 255.1 44.4L255.7 40.7L252.8 43C252.726 43.0489 252.639 43.075 252.55 43.075C252.461 43.075 252.374 43.0489 252.3 43C252.036 42.7251 251.801 42.4234 251.6 42.1C251.365 41.7787 251.226 41.3972 251.2 41C251.2 40.8 251.2 40.6 251.5 40.5L255 39.2L251.5 37.9C251.3 37.9 251.2 37.6 251.2 37.4C251.376 36.6224 251.797 35.9216 252.4 35.4C252.474 35.35 252.561 35.3233 252.65 35.3233C252.739 35.3233 252.826 35.35 252.9 35.4L255.8 37.7L255.2 34C255.2 33.8 255.2 33.6 255.4 33.5C256.154 33.2998 256.946 33.2998 257.7 33.5C257.9 33.5 258 33.8 257.9 34L257.3 37.7L260.2 35.4C260.274 35.3511 260.361 35.325 260.45 35.325C260.539 35.325 260.626 35.3511 260.7 35.4C260.964 35.6749 261.198 35.9766 261.4 36.3C261.635 36.6214 261.774 37.0028 261.8 37.4C261.8 37.6 261.8 37.8 261.5 37.9L258.1 39.2L261.5 40.5H261.4Z" fill="#BB88FC"/>
<path d="M276.9 40.5C277.1 40.5 277.2 40.8 277.2 41C277.174 41.3972 277.035 41.7787 276.8 42.1C276.651 42.4568 276.409 42.7675 276.1 43C276.026 43.05 275.939 43.0767 275.85 43.0767C275.761 43.0767 275.674 43.05 275.6 43L272.7 40.7L273.3 44.4C273.3 44.6 273.3 44.8 273.1 44.9C272.346 45.1002 271.554 45.1002 270.8 44.9C270.6 44.9 270.5 44.6 270.6 44.4L271.2 40.7L268.3 43C268.226 43.0489 268.139 43.075 268.05 43.075C267.961 43.075 267.874 43.0489 267.8 43C267.536 42.7251 267.301 42.4234 267.1 42.1C266.865 41.7787 266.726 41.3972 266.7 41C266.7 40.8 266.7 40.6 267 40.5L270.5 39.2L267 37.9C266.8 37.9 266.7 37.6 266.7 37.4C266.876 36.6224 267.297 35.9216 267.9 35.4C267.974 35.35 268.061 35.3233 268.15 35.3233C268.239 35.3233 268.326 35.35 268.4 35.4L271.3 37.7L270.7 34C270.7 33.8 270.7 33.6 270.9 33.5C271.654 33.2998 272.446 33.2998 273.2 33.5C273.4 33.5 273.5 33.8 273.4 34L272.8 37.7L275.7 35.4C275.774 35.3511 275.861 35.325 275.95 35.325C276.039 35.325 276.126 35.3511 276.2 35.4C276.464 35.6749 276.698 35.9766 276.9 36.3C277.135 36.6214 277.274 37.0028 277.3 37.4C277.3 37.6 277.3 37.8 277 37.9L273.6 39.2L277 40.5H276.9Z" fill="#BB88FC"/>
<path d="M133.9 97.2L150.7 107.3L153.1 81.3L166.7 85C166.7 85 173.9 123.1 158.9 128C147.4 131.8 119.2 109.2 119.2 109.2" fill="white"/>
<path d="M155.9 128.8C143.2 128.8 120 110.3 118.9 109.5C118.839 109.433 118.806 109.344 118.809 109.254C118.811 109.163 118.848 109.076 118.912 109.012C118.976 108.948 119.063 108.911 119.154 108.909C119.244 108.906 119.333 108.939 119.4 109C119.7 109.2 147.6 131.4 158.7 127.7C172.6 123.1 166.8 88.5 166.3 85.4L153.4 81.9L151 107.5C151 107.7 150.8 107.9 150.6 107.8H150.4L133.6 97.7C133.4 97.6 133.4 97.4 133.5 97.2C133.6 97 133.8 97 134 97.1L150.3 106.9L152.7 81.5C152.7 81.3 152.9 81.1 153.1 81.2L166.7 84.9C166.8 84.9 166.9 85 167 85.2C168.116 91.7077 168.685 98.2974 168.7 104.9C168.6 118.5 165.3 126.5 158.9 128.6C157.903 128.935 156.85 129.071 155.8 129" fill="black"/>
<path d="M139.6 70.4L60.8999 86.7C59.4015 86.9519 58.0645 87.7888 57.183 89.0266C56.3016 90.2643 55.948 91.8015 56.1999 93.3C56.4519 94.7984 57.2888 96.1355 58.5265 97.0169C59.7643 97.8983 61.3015 98.2519 62.7999 98H62.8999L141.6 81.7C143.916 86.7721 148.002 90.8257 153.092 93.1012C158.182 95.3767 163.928 95.7179 169.251 94.0609C174.575 92.4039 179.112 88.8624 182.012 84.1C184.912 79.3377 185.975 73.6813 185.004 68.1909C184.032 62.7005 181.091 57.7528 176.733 54.2751C172.375 50.7973 166.898 49.0282 161.329 49.2991C155.76 49.5701 150.481 51.8626 146.48 55.747C142.48 59.6314 140.034 64.8411 139.6 70.4ZM175.1 70C175.545 72.5217 175.232 75.1187 174.201 77.4627C173.17 79.8066 171.467 81.7922 169.308 83.1684C167.148 84.5445 164.629 85.2494 162.069 85.1939C159.509 85.1384 157.023 84.325 154.925 82.8566C152.828 81.3881 151.212 79.3306 150.284 76.9441C149.355 74.5577 149.156 71.9495 149.709 69.4495C150.263 66.9494 151.546 64.6698 153.396 62.8988C155.245 61.1278 157.578 59.945 160.1 59.5C161.775 59.1997 163.492 59.2335 165.154 59.5993C166.816 59.965 168.389 60.6557 169.783 61.6314C171.177 62.6072 172.364 63.8488 173.277 65.285C174.189 66.7212 174.809 68.3235 175.1 70Z" fill="#F6EEFF"/>
<path d="M61.9 98.5C60.2841 98.4936 58.7362 97.8489 57.5936 96.7063C56.451 95.5637 55.8063 94.0158 55.8 92.4C55.7888 90.9544 56.2979 89.553 57.2341 88.4515C58.1704 87.35 59.4715 86.6219 60.9 86.4L139.3 70.2C139.821 64.6199 142.35 59.4188 146.417 55.5625C150.483 51.7063 155.811 49.4571 161.411 49.2327C167.011 49.0083 172.502 50.824 176.864 54.3425C181.226 57.861 184.163 62.8432 185.129 68.3636C186.095 73.884 185.025 79.5674 182.117 84.3582C179.209 89.149 174.661 92.7215 169.318 94.4122C163.974 96.1028 158.199 95.7967 153.065 93.5507C147.93 91.3046 143.785 87.2713 141.4 82.2L63 98.4C62.6305 98.3835 62.2605 98.4172 61.9 98.5ZM162.4 49.7C161.056 49.6844 159.714 49.8185 158.4 50.1C153.494 50.9745 149.016 53.4514 145.669 57.1429C142.321 60.8344 140.292 65.532 139.9 70.5C139.906 70.5407 139.902 70.5823 139.889 70.6214C139.876 70.6604 139.854 70.6959 139.825 70.725C139.796 70.7542 139.76 70.7761 139.721 70.7891C139.682 70.8021 139.641 70.8058 139.6 70.8L60.9 87.1C60.2001 87.2139 59.5296 87.4651 58.9272 87.8392C58.3248 88.2133 57.8024 88.7029 57.39 89.2797C56.9776 89.8566 56.6834 90.5093 56.5244 91.2004C56.3653 91.8914 56.3446 92.6071 56.4633 93.3062C56.582 94.0053 56.8379 94.674 57.2161 95.2738C57.5943 95.8736 58.0875 96.3927 58.6672 96.8011C59.2469 97.2095 59.9017 97.4991 60.5938 97.6534C61.2859 97.8077 62.0017 97.8235 62.7 97.7L141.3 81.4C141.5 81.4 141.6 81.4 141.7 81.6C143.392 85.255 146.037 88.3878 149.355 90.6701C152.674 92.9524 156.546 94.3003 160.564 94.5726C164.583 94.8449 168.601 94.0316 172.197 92.2179C175.794 90.4042 178.836 87.6568 181.006 84.2635C183.176 80.8701 184.394 76.9557 184.532 72.9302C184.67 68.9047 183.722 64.9162 181.789 61.3825C179.856 57.8487 177.009 54.8997 173.545 52.8444C170.081 50.7891 166.128 49.703 162.1 49.7M162.3 85.5C158.873 85.4994 155.578 84.1758 153.103 81.8051C150.627 79.4344 149.163 76.1997 149.015 72.7755C148.866 69.3514 150.046 66.0021 152.307 63.4263C154.567 60.8505 157.736 59.2469 161.15 58.95C164.564 58.6531 167.962 59.6857 170.633 61.8327C173.305 63.9796 175.045 67.075 175.49 70.4733C175.935 73.8717 175.05 77.3106 173.022 80.073C170.993 82.8353 167.976 84.7078 164.6 85.3C163.805 85.4162 163.003 85.483 162.2 85.5M162.4 59.7C159.908 59.7 157.472 60.4389 155.4 61.8235C153.328 63.208 151.713 65.1758 150.759 67.4782C149.805 69.7805 149.556 72.3139 150.042 74.7581C150.528 77.2023 151.728 79.4474 153.49 81.2095C155.253 82.9717 157.498 84.1717 159.942 84.6579C162.386 85.144 164.919 84.8945 167.222 83.9408C169.524 82.9872 171.492 81.3722 172.876 79.3002C174.261 77.2281 175 74.792 175 72.3C175.033 71.561 174.966 70.8209 174.8 70.1C174.258 67.1983 172.725 64.5748 170.464 62.6779C168.202 60.781 165.352 59.7284 162.4 59.7Z" fill="black"/>
<path d="M74 70.2L81.1 68.9L83.5 82.6L63.9 86.1L61.9 74.8L68.6 73.6L69.6 79.4L75.4 78.4L73.9 70.1L74 70.2Z" fill="#BB88FC"/>
<path d="M63.6 86.6L61.5 74.6L68.9 73.3L69.9 79.1L75 78.2L73.5 69.9L81.3 68.5L83.9 83L63.6 86.6ZM62.3 75.2L64.2 85.7L83.1 82.3L80.8 69.3L74.5 70.4L76 78.7L69.4 79.9L68.4 74.1L62.4 75.2H62.3Z" fill="black"/>
<path d="M119.1 199.6C114.571 189.909 110.532 179.997 107 169.9L104.9 143.6L132.3 152.4C132.3 152.4 141.8 185.3 146.4 199.6H119.1Z" fill="white"/>
<path d="M146.3 200C146.1 200 146 199.9 145.9 199.7C141.5 186.1 132.7 155.4 131.9 152.7L105.3 144.1L107.3 169.8C110.808 179.873 114.847 189.754 119.4 199.4C119.4 199.6 119.4 199.8 119.2 199.9C119 199.9 118.8 199.9 118.7 199.7C112.1 185.9 106.7 170.1 106.6 169.9L104.5 143.6C104.5 143.4 104.6 143.2 104.8 143.2H104.9L132.3 152C132.352 152.003 132.401 152.026 132.438 152.062C132.474 152.099 132.496 152.148 132.5 152.2C132.5 152.5 142 185.2 146.6 199.4C146.6 199.6 146.6 199.8 146.4 199.9H146.3" fill="black"/>
<path d="M111.1 199.6H82.2999C84.3999 182.2 87.6999 156.2 88.1999 153.8C88.9999 150.2 120.4 157.7 120.4 157.7L116.4 175.9L111.1 199.6Z" fill="white"/>
<path d="M82.3 200C82.1 200 82 199.8 82 199.6C84.4 180 87.4 156.1 87.9 153.8C87.9212 153.652 87.9777 153.511 88.0647 153.389C88.1517 153.267 88.2667 153.168 88.4 153.1C92.2 150.7 119.4 157.2 120.5 157.4C120.7 157.4 120.8 157.6 120.8 157.8C120.8 158 120.6 158.1 120.4 158.1C112.6 156.2 91.8 151.8 88.8 153.7C88.6 153.8 88.6 153.9 88.6 154C88.1 156.4 84.7 183.7 82.7 199.7C82.7 199.9 82.5 200 82.3 200Z" fill="black"/>
<path d="M111.1 200C110.9 200 110.8 199.8 110.8 199.6L116.1 175.9C116.1 175.7 116.3 175.6 116.5 175.6C116.7 175.6 116.8 175.8 116.8 176L111.5 199.7C111.5 199.9 111.3 200 111.1 200Z" fill="black"/>
<path d="M131 146.2C133 147.5 134 151.2 135 154.3C135.097 154.648 135.102 155.015 135.015 155.366C134.927 155.717 134.75 156.039 134.5 156.3C131.3 159.4 120.7 162.8 107.6 161.4C95.9 160.2 85.9 155.8 85.2 154.1C84.5 152.4 87 145.7 87 145.7L131 146.2Z" fill="#00B2CA"/>
<path d="M113.7 162.1C111.7 162.1 109.6 162 107.6 161.8C96.3999 160.6 85.6999 156.3 84.8999 154.2C84.1999 152.4 86.4999 146.2 86.6999 145.5C86.6999 145.4 86.8999 145.3 87.0999 145.3L131.1 145.8H131.3C133.3 147.1 134.4 150.7 135.3 153.8V154.2C135.499 154.598 135.559 155.051 135.468 155.487C135.377 155.923 135.142 156.315 134.8 156.6C132.2 159.2 124.3 162.1 113.7 162.1ZM87.1999 146.1C86.4999 148.1 84.9999 152.7 85.4999 154C86.0999 155.5 95.9999 159.9 107.6 161.1C121 162.5 131.2 159 134.2 156.1C134.411 155.878 134.56 155.603 134.63 155.304C134.7 155.005 134.69 154.693 134.6 154.4V154C133.6 151.1 132.6 147.8 130.9 146.5L87.2999 146L87.1999 146.1Z" fill="black"/>
<path d="M116.8 110.1L127.8 117.2L133 120.5C136.4 122.4 147.4 103.6 143.8 101.6C143.8 101.6 142.1 100.1 139.5 98.1C138.4 97.3 137.1 96.4 135.7 95.5C131.5 92.8 128.3 90.6 126.7 90.1C126.213 89.9202 125.711 89.7863 125.2 89.7L116.9 110L116.8 110.1Z" fill="#00B2CA"/>
<path d="M128.9 117.9L132.9 120.5C136.2 122.3 147.1 103.4 143.7 101.6C143.7 101.6 143.5 101.2 140.8 99.2C140.8 99.2 135.8 115.1 128.9 117.9Z" fill="#00B2CA"/>
<path d="M133.4 121C133.276 121.021 133.148 121.014 133.027 120.979C132.906 120.945 132.794 120.883 132.7 120.8L116.6 110.3C116.5 110.3 116.4 110 116.5 109.8L124.8 89.5C124.8 89.3 125.1 89.2 125.3 89.3C125.3 89.3 126 89.5 127 89.8C128.5 90.3 131.3 92.1 135.2 94.6L135.9 95.1C138.764 96.9061 141.473 98.9464 144 101.2C144.29 101.393 144.519 101.665 144.661 101.984C144.803 102.303 144.851 102.655 144.8 103C144.8 107.3 138.8 118 134.9 120.4C134.469 120.727 133.941 120.903 133.4 120.9M117.2 109.9L133.1 120.2C133.4 120.4 133.9 120.2 134.5 119.9C138.2 117.7 144.1 107.2 144 103.1C144.023 102.874 143.989 102.646 143.902 102.437C143.815 102.227 143.677 102.043 143.5 101.9C140.948 99.6774 138.241 97.6389 135.4 95.8L134.7 95.3C132.176 93.5025 129.499 91.9298 126.7 90.6C126.1 90.4 125.6 90.3 125.3 90.2L117.2 109.9Z" fill="black"/>
<path d="M126.3 90.6C116.4 86.1 89.8999 85.6 85.1999 97C82.8999 102.4 88.4999 125.9 88.1999 128.8C87.8999 131.7 85.7999 144.8 86.5999 146.4C90.4999 154.2 132.6 157.1 135.7 147.9C136.6 145.2 131.5 138.6 131 119.8C130.8 114.4 132.6 108.3 132.9 103.1" fill="#00B2CA"/>
<path d="M115 154.5C102.2 154.5 87.7 151.6 85.4 147C84.8 145.8 85.5 140.1 86.5 133.3C86.7 131.5 86.9 130 87 129.2C86.7809 126.449 86.4137 123.712 85.9 121C84.5 112.5 82.5 100.9 84.1 97.2C85.3 94.2 88.2 91.9 92.5 90.1C102.9 86 120.2 86.7 127.5 90.1C127.7 90.1 127.8 90.4 127.7 90.6C127.7 90.8 127.4 90.9 127.2 90.8C119.9 87.5 103 86.8 92.7 90.8C88.5 92.4 85.9 94.7 84.7 97.5C83.2 101 85.2 113 86.6 120.9C87.2116 123.629 87.5797 126.406 87.7 129.2C87.7 130 87.4 131.5 87.2 133.3C86.6 137.6 85.5 145.5 86.1 146.6C88.5 151.4 106.8 154.4 120.1 153.5C128.3 152.9 133.6 151 134.5 148.2C134.8 147.3 134.3 145.8 133.6 143.5C131.204 135.957 129.891 128.112 129.7 120.2C129.736 116.91 130.07 113.63 130.7 110.4C131.1 108.1 131.4 105.8 131.6 103.5C131.6 103.394 131.642 103.292 131.717 103.217C131.792 103.142 131.894 103.1 132 103.1C132.106 103.1 132.208 103.142 132.283 103.217C132.358 103.292 132.4 103.394 132.4 103.5C132.2 105.9 131.9 108.2 131.5 110.5C130.92 113.669 130.585 116.879 130.5 120.1C130.616 127.946 131.897 135.731 134.3 143.2C135.1 145.7 135.6 147.3 135.2 148.4C133.8 152.6 125.2 153.8 120.1 154.2C118.4 154.3 116.7 154.4 115 154.4" fill="black"/>
<path d="M131 158.9C130.8 158.9 130.7 158.8 130.6 158.6C129.989 156.658 129.185 154.782 128.2 153C128.1 152.8 128.2 152.6 128.2 152.5C128.4 152.4 128.6 152.5 128.7 152.5C129.736 154.34 130.574 156.284 131.2 158.3C131.2 158.5 131.2 158.7 131 158.8H130.9" fill="black"/>
<path d="M124.9 160.9C124.7 160.9 124.5 160.7 124.6 160.5C124.8 158.4 123 153.9 123 153.9C123 153.7 123 153.5 123.2 153.4C123.4 153.4 123.6 153.4 123.7 153.6C123.7 153.8 125.6 158.3 125.4 160.6C125.4 160.8 125.2 160.9 125 160.9" fill="black"/>
<path d="M118.1 161.9C117.996 161.893 117.898 161.849 117.825 161.775C117.751 161.701 117.707 161.604 117.7 161.5C118.3 158.9 117.1 154.2 117.1 154.2C117.1 154 117.1 153.8 117.4 153.8C117.6 153.8 117.8 153.8 117.8 154.1C117.8 154.3 119 159 118.4 161.8C118.4 162 118.2 162.1 118 162.1" fill="black"/>
<path d="M110.1 162C109.996 161.993 109.898 161.949 109.825 161.875C109.751 161.801 109.707 161.704 109.7 161.6V161.4C111 158.7 110 154.1 110 154C110 153.8 110 153.6 110.3 153.6C110.5 153.6 110.7 153.6 110.7 153.9C110.7 154.1 111.7 158.8 110.4 161.8C110.4 161.9 110.2 162 110.1 162Z" fill="black"/>
<path d="M101.7 160.9C101.596 160.893 101.498 160.849 101.425 160.775C101.351 160.701 101.307 160.604 101.3 160.5C101.293 160.446 101.299 160.391 101.316 160.339C101.333 160.287 101.362 160.239 101.4 160.2C102.7 159.1 103.4 155 103.5 153.5C103.5 153.3 103.7 153.2 103.9 153.2C104.1 153.2 104.2 153.4 104.2 153.6C104.2 153.8 103.6 159.3 101.8 160.8H101.6" fill="black"/>
<path d="M94.3 159C94.1963 158.993 94.0985 158.949 94.025 158.875C93.9514 158.801 93.907 158.704 93.9 158.6V158.4C95.2 156.8 95.8 152.5 95.8 152.4C95.8 152.2 96 152 96.2 152.1C96.4 152.1 96.6 152.3 96.5 152.5C96.5 152.7 95.9 157.1 94.5 158.8C94.4059 158.849 94.3047 158.883 94.2 158.9" fill="black"/>
<path d="M89.1999 157.1C89.0961 157.093 88.9984 157.049 88.9249 156.975C88.8513 156.901 88.8069 156.804 88.7999 156.7C88.7932 156.646 88.7986 156.591 88.816 156.539C88.8333 156.487 88.8619 156.439 88.8999 156.4C89.4999 155.8 90.2999 152.9 90.6999 151.1C90.6999 150.9 90.8999 150.8 91.0999 150.8C91.2999 150.8 91.3999 151 91.3999 151.2C91.2999 151.7 90.3999 156 89.3999 156.9H89.1999" fill="black"/>
<path d="M100.9 83.7C99.3567 85.4796 97.9208 87.3496 96.6 89.3C96.6 89.3 101.4 98.5 112.1 98.5C111.392 95.9089 111.604 93.1523 112.7 90.7L100.8 83.8L100.9 83.7Z" fill="#00B2CA"/>
<path d="M112.2 98.9C101.4 98.9 96.3999 89.6 96.2999 89.5V89.1C97.596 87.1318 99.0331 85.2602 100.6 83.5C100.631 83.464 100.669 83.4352 100.712 83.4154C100.756 83.3956 100.802 83.3854 100.85 83.3854C100.897 83.3854 100.944 83.3956 100.987 83.4154C101.031 83.4352 101.069 83.464 101.1 83.5L113 90.4C113.2 90.4 113.2 90.7 113.2 90.9C112.108 93.2827 111.895 95.9754 112.6 98.5C112.6 98.7 112.6 98.9 112.4 99H112.3M97.0999 89.3C97.7999 90.6 102.5 97.8 111.7 98.1C111.146 95.6627 111.356 93.1141 112.3 90.8L101 84.2C99.59 85.813 98.2872 87.5166 97.0999 89.3Z" fill="black"/>
<path d="M112.8 90.7C112.8 90.7 115.9 92.3 117.1 97.3C117.1 97.3 119.7 94 119 90.7C118.2 86.6 116 85.5 116 85.5L112.8 90.8V90.7Z" fill="#00B2CA"/>
<path d="M117.1 97.6C117 97.6 116.9 97.5 116.8 97.3C115.6 92.6 112.7 91 112.7 91C112.5 91 112.4 90.7 112.5 90.5L115.7 85.2C115.7 85 116 85 116.2 85.1C116.2 85.1 118.6 86.2 119.4 90.5C120.1 94 117.5 97.3 117.4 97.4C117.306 97.4489 117.205 97.4827 117.1 97.5M113.3 90.6C115.218 92.0368 116.593 94.0813 117.2 96.4C118.346 94.7342 118.844 92.7071 118.6 90.7C118 87.7 116.6 86.4 116 86L113.2 90.6H113.3Z" fill="black"/>
<path d="M101.5 70.4L100.9 84.4C100.9 87.9 115.9 95.7 116 85.6V74L101.5 70.4Z" fill="white"/>
<path d="M111.4 91C107 91 100.5 87.1 100.5 84.5L101.1 70.5C101.107 70.3962 101.151 70.2985 101.225 70.2249C101.299 70.1514 101.396 70.107 101.5 70.1L116 73.7C116.2 73.7 116.3 73.9 116.3 74.1V85.7C116.3 89.2 114.5 91.1 111.3 91.1M101.9 70.8L101.3 84.4C101.3 86.2 107 90.2 111.4 90.2C114.2 90.2 115.6 88.6 115.6 85.6V74.3L101.8 70.8H101.9Z" fill="black"/>
<path d="M101.6 70.4C101.6 70.4 95.1 66 96.6 62C98.1 58 102.4 62.5 102.4 62.5C102.4 62.5 99.2 48.3 111.3 45.9C113.018 45.5005 114.816 45.6306 116.458 46.2732C118.101 46.9158 119.51 48.0408 120.5 49.5C126.1 58.1 125.9 76.5 117.9 78.9C115.881 79.5886 113.716 79.7293 111.626 79.3077C109.535 78.886 107.594 77.9172 106 76.5" fill="white"/>
<path d="M113.7 80.1C110.739 80.107 107.883 79.0005 105.7 77C105.6 76.9 105.5 76.6 105.7 76.5C105.8 76.4 106.1 76.3 106.2 76.5C107.733 77.8817 109.61 78.8245 111.634 79.2293C113.658 79.634 115.753 79.4857 117.7 78.8C119.8 78.2 121.5 76.3 122.5 73.4C125 66.6 123.9 55.9 120 50C119.071 48.5821 117.728 47.4852 116.153 46.8588C114.578 46.2324 112.849 46.1071 111.2 46.5C109.817 46.7068 108.491 47.1952 107.304 47.9348C106.117 48.6744 105.095 49.6495 104.3 50.8C101.2 55.6 102.6 62.5 102.7 62.6C102.7 62.8 102.7 63 102.4 63C102.3 63 102.1 63 102.1 62.9C101.5 62.2 99.5 60.6 98.2 60.9C97.6 61 97.2 61.5 96.9 62.3C95.5 65.9 101.7 70.2 101.8 70.3C102 70.4 102 70.6 101.9 70.8C101.8 71 101.6 71 101.4 70.9C101.1 70.7 94.7 66.3 96.3 62.1C96.3975 61.6597 96.6186 61.2564 96.9375 60.9375C97.2564 60.6187 97.6597 60.3975 98.1 60.3C99.4 60 101 61 101.9 61.8C101.6 59.6 101.2 54.5 103.8 50.5C104.653 49.2587 105.749 48.2026 107.02 47.3949C108.292 46.5873 109.714 46.0448 111.2 45.8C112.997 45.3567 114.887 45.4845 116.607 46.1656C118.328 46.8467 119.793 48.0471 120.8 49.6C124.7 55.7 125.9 66.7 123.3 73.7C122.1 76.9 120.3 78.9 118 79.6C116.628 79.9786 115.22 80.2132 113.8 80.3" fill="black"/>
<path d="M123.9 46C120.2 55.5 104.7 50.3 105.7 52.5C107.3 55.6 104.3 64.1 103.5 64.2C102.7 64.3 102.3 62.6 102.3 62.6C102.3 62.6 97.9999 58.1 96.4999 62.1C94.9999 66.1 101.5 70.5 101.5 70.5C91.9999 70.8 87.2999 58.6 87.5999 51.5C87.8999 44.4 92.5999 44.1 92.5999 44.1C92.1999 40.1 96.5999 37.2 100.2 38C103.8 38.8 116.8 43.4 117 36.9C122.2 34.3 126.2 40 123.8 46" fill="black"/>
<path d="M101.2 70.8C99.6731 70.7999 98.1632 70.4795 96.768 69.8594C95.3727 69.2393 94.1231 68.3333 93.0999 67.2C88.9999 63 87.0999 56.1 87.2999 51.4C87.5999 45.2 91.0999 44 92.2999 43.7C92.2867 42.8399 92.4688 41.988 92.8326 41.2086C93.1964 40.4291 93.7322 39.7423 94.3999 39.2C95.215 38.4988 96.178 37.9907 97.2169 37.7137C98.2558 37.4366 99.3439 37.3977 100.4 37.6C100.9 37.7 101.5 37.9 102.3 38.1C106.1 39.1 113.1 41.1 115.7 39.1C116.039 38.8412 116.314 38.5085 116.504 38.1272C116.695 37.746 116.796 37.3262 116.8 36.9C116.8 36.8 116.8 36.6 117 36.6C117.936 36.0549 119.02 35.8195 120.097 35.9272C121.175 36.035 122.191 36.4804 123 37.2C125.1 39.2 125.7 42.8 124.4 46.1C121.7 52.9 113.4 52.5 109 52.3H106.3C107.7 55.1 105.7 61.5 104.6 63.6C104.3 64.2 104.1 64.4 103.8 64.5C102.8 64.6 102.4 63.2 102.3 62.7C101.6 62 99.7999 60.5 98.4999 60.8C97.8999 60.9 97.4999 61.4 97.1999 62.2C95.7999 65.8 102 70.1 102.1 70.2C102.3 70.3 102.3 70.5 102.1 70.7C102.1 70.7 101.9 70.9 101.8 70.9H101.4M98.9999 38.2C97.4836 38.214 96.0249 38.7832 94.8999 39.8C94.2782 40.2985 93.7888 40.9425 93.4749 41.675C93.161 42.4074 93.0322 43.2059 93.0999 44C93.0999 44.2 92.9999 44.4 92.7999 44.4C92.5999 44.4 88.4999 44.7 88.1999 51.4C87.9999 55.9 89.7999 62.6 93.7999 66.7C95.5777 68.6068 98.0019 69.7833 100.6 70C98.7999 68.6 95.1999 65.1 96.3999 61.9C96.4974 61.4597 96.7186 61.0564 97.0375 60.7375C97.3563 60.4187 97.7596 60.1975 98.1999 60.1C100.2 59.7 102.7 62.2 102.8 62.3V62.5C102.9 63.1 103.3 63.8 103.5 63.8C104.2 63.1 106.9 55.5 105.5 52.7C105.45 52.5899 105.425 52.4706 105.425 52.35C105.425 52.2293 105.45 52.11 105.5 52C105.8 51.5 106.7 51.5 108.9 51.6C113.5 51.8 121.2 52.2 123.6 45.9C125 42.3 124 39.2 122.4 37.8C121.736 37.2237 120.914 36.8588 120.042 36.7519C119.169 36.6451 118.284 36.8011 117.5 37.2C117.497 37.7149 117.368 38.2213 117.124 38.6746C116.88 39.128 116.528 39.5144 116.1 39.8C113.1 42 106.2 40.1 102 38.9C101.3 38.7 100.6 38.5 100.2 38.4C99.7999 38.4 99.3999 38.3 98.9999 38.3" fill="black"/>
<path d="M110 50.6V49.9C111.831 49.761 113.641 49.4258 115.4 48.9C117.14 48.4229 118.703 47.45 119.9 46.1C120.499 45.4507 120.931 44.6649 121.157 43.8111C121.384 42.9572 121.398 42.0609 121.2 41.2L121.9 41C122.088 41.9704 122.051 42.9711 121.791 43.9248C121.531 44.8785 121.055 45.7596 120.4 46.5C119.109 47.9741 117.4 49.0205 115.5 49.5C113.664 49.9868 111.791 50.3213 109.9 50.5" fill="white"/>
<path d="M111.3 47.9C110.792 47.9323 110.282 47.8643 109.8 47.7L110 47C111.24 47.2844 112.539 47.1663 113.708 46.6629C114.877 46.1594 115.854 45.2968 116.5 44.2L117.1 44.6C116.493 45.6201 115.628 46.4622 114.593 47.0416C113.557 47.6209 112.387 47.917 111.2 47.9" fill="white"/>
<path d="M95.9 44.3C95.7516 43.5935 95.8259 42.8585 96.1124 42.1959C96.3989 41.5333 96.8836 40.9758 97.5 40.6C98.1738 40.2355 98.9347 40.0625 99.7 40.1V40.8C99.0757 40.7776 98.456 40.9153 97.9 41.2C97.4068 41.482 97.0214 41.9199 96.8042 42.4448C96.587 42.9698 96.5503 43.552 96.7 44.1L96 44.3H95.9Z" fill="white"/>
<path d="M104.7 58.6L104 58.3C104.272 57.7211 104.412 57.0895 104.412 56.45C104.412 55.8105 104.272 55.1789 104 54.6L104.7 54.3C104.997 54.9779 105.15 55.7099 105.15 56.45C105.15 57.19 104.997 57.9221 104.7 58.6Z" fill="white"/>
<path d="M110.5 61.3C110.6 62 111.2 62.5 111.7 62.4C111.976 62.3045 112.205 62.1044 112.335 61.8428C112.466 61.5811 112.489 61.2786 112.4 61C112.3 60.3 111.7 59.8 111.2 59.9C110.923 59.9955 110.695 60.1956 110.564 60.4573C110.434 60.7189 110.41 61.0215 110.5 61.3Z" fill="black"/>
<path d="M119.4 59.7C119.491 59.8677 119.626 60.0069 119.792 60.102C119.957 60.1972 120.146 60.2445 120.336 60.2388C120.527 60.2331 120.712 60.1745 120.872 60.0696C121.031 59.9648 121.158 59.8177 121.239 59.6448C121.32 59.472 121.351 59.2801 121.329 59.0906C121.307 58.9011 121.233 58.7214 121.114 58.5716C120.996 58.4218 120.839 58.3077 120.66 58.2421C120.481 58.1765 120.287 58.1619 120.1 58.2C119.955 58.25 119.823 58.3307 119.712 58.4364C119.601 58.5421 119.514 58.6705 119.457 58.8128C119.4 58.9551 119.374 59.108 119.382 59.2611C119.389 59.4142 119.43 59.5638 119.5 59.7" fill="black"/>
<path d="M112.1 58.7C110.6 58 110.3 58.9 109.9 59.5Z" fill="white"/>
<path d="M109.8 59.9C109.696 59.893 109.599 59.8486 109.525 59.775C109.451 59.7015 109.407 59.6038 109.4 59.5V59.3C109.407 59.2232 109.443 59.1519 109.5 59.1C109.578 58.8892 109.697 58.6959 109.85 58.5313C110.003 58.3667 110.187 58.234 110.391 58.141C110.596 58.048 110.817 57.9965 111.042 57.9895C111.266 57.9824 111.49 58.02 111.7 58.1C111.85 58.1249 111.99 58.1946 112.1 58.3C112.3 58.3 112.4 58.6 112.3 58.8C112.3 59 112 59.1 111.8 59C110.8 58.5 110.6 58.9 110.2 59.5C110.193 59.5768 110.157 59.6481 110.1 59.7C110.1 59.8 109.9 59.9 109.8 59.9Z" fill="black"/>
<path d="M120.7 56.8C120.287 56.6539 119.834 56.6649 119.429 56.8308C119.023 56.9968 118.692 57.3061 118.5 57.7" fill="white"/>
<path d="M118.5 58.1C118.396 58.0929 118.298 58.0485 118.225 57.975C118.151 57.9014 118.107 57.8037 118.1 57.7V57.5C118.346 57.0258 118.753 56.6548 119.248 56.4532C119.742 56.2517 120.293 56.2328 120.8 56.4C121 56.4 121.1 56.7 121 56.9C121 57.1 120.7 57.2 120.5 57.1C120.168 56.994 119.808 57.0176 119.493 57.166C119.177 57.3144 118.93 57.5766 118.8 57.9C118.8 58 118.6 58.1 118.5 58.1Z" fill="black"/>
<path d="M115.6 62.1C116.2 64 117.1 65.7 117.7 67.6C117.782 67.7626 117.829 67.9406 117.837 68.1225C117.846 68.3043 117.816 68.486 117.75 68.6557C117.684 68.8254 117.584 68.9793 117.454 69.1076C117.325 69.2358 117.17 69.3354 117 69.4C116.629 69.5928 116.218 69.6955 115.8 69.7" fill="white"/>
<path d="M115.8 70.1C115.696 70.093 115.598 70.0486 115.525 69.975C115.451 69.9015 115.407 69.8038 115.4 69.7C115.4 69.5 115.5 69.4 115.7 69.3C116.074 69.282 116.444 69.2148 116.8 69.1C117.068 68.9824 117.282 68.7682 117.4 68.5C117.416 68.2295 117.382 67.9582 117.3 67.7C117 66.8 116.6 65.9 116.3 65C115.863 64.1069 115.528 63.1678 115.3 62.2C115.3 62 115.3 61.8 115.6 61.7C115.8 61.7 116 61.7 116 61.9C116.3 62.8 116.7 63.7 117 64.6C117.437 65.4931 117.772 66.4323 118 67.4C118.132 67.751 118.166 68.131 118.1 68.5C118.04 68.7647 117.918 69.0114 117.744 69.2199C117.57 69.4285 117.349 69.593 117.1 69.7C116.694 69.8938 116.25 69.9962 115.8 70" fill="black"/>
<path d="M116.9 72.9C116.64 73.1546 116.332 73.3545 115.993 73.4877C115.654 73.6209 115.293 73.6847 114.929 73.6754C114.565 73.6661 114.207 73.5838 113.876 73.4334C113.544 73.283 113.246 73.0676 113 72.8C112.837 72.6592 112.702 72.4898 112.6 72.3" fill="white"/>
<path d="M115 74H114.7C113.738 73.8239 112.88 73.2874 112.3 72.5C112.239 72.4326 112.206 72.3445 112.209 72.2537C112.211 72.1629 112.248 72.0765 112.312 72.0123C112.376 71.948 112.463 71.911 112.554 71.9087C112.644 71.9064 112.733 71.9391 112.8 72C112.999 72.336 113.275 72.62 113.606 72.8286C113.936 73.0372 114.311 73.1645 114.7 73.2C115.429 73.2126 116.138 72.9643 116.7 72.5C116.9 72.4 117.1 72.5 117.2 72.5C117.3 72.7 117.2 72.9 117.2 73C116.58 73.5113 115.803 73.7937 115 73.8" fill="black"/>
<path d="M120.3 63.5C119.128 63.4076 118.025 62.9064 117.184 62.084C116.343 61.2616 115.818 60.1701 115.7 59C115.58 58.3611 115.589 57.7046 115.726 57.0692C115.864 56.4338 116.127 55.8323 116.5 55.3C116.772 54.8369 117.134 54.4327 117.565 54.1109C117.995 53.7892 118.485 53.5564 119.006 53.4261C119.528 53.2958 120.07 53.2705 120.601 53.3519C121.132 53.4333 121.642 53.6196 122.1 53.9C122.35 54.0425 122.584 54.21 122.8 54.4C123.766 55.283 124.394 56.4746 124.576 57.7703C124.759 59.0659 124.484 60.3847 123.8 61.5C123.495 62.0185 123.075 62.4597 122.572 62.7893C122.069 63.1188 121.497 63.3278 120.9 63.4H120.4M120 54.1H119.6C119.107 54.1736 118.636 54.3552 118.221 54.6318C117.806 54.9083 117.458 55.2731 117.2 55.7C116.628 56.6634 116.382 57.7858 116.5 58.9C116.8 61.3 118.8 63 120.8 62.7C121.293 62.6264 121.764 62.4448 122.179 62.1683C122.594 61.8917 122.942 61.5269 123.2 61.1C123.775 60.1177 124 58.969 123.836 57.8423C123.673 56.7156 123.131 55.6781 122.3 54.9C121.677 54.3169 120.853 53.9948 120 54" fill="#BB88FC"/>
<path d="M110.6 65.8C109.565 65.7824 108.57 65.3918 107.8 64.7C106.834 63.817 106.206 62.6254 106.024 61.3297C105.841 60.0341 106.116 58.7153 106.8 57.6C107.105 57.0815 107.525 56.6402 108.028 56.3107C108.531 55.9811 109.103 55.7721 109.7 55.7C112.1 55.4 114.4 57.4 114.8 60.1C114.92 60.7389 114.911 61.3954 114.774 62.0308C114.636 62.6662 114.373 63.2677 114 63.8C113.695 64.3185 113.275 64.7597 112.772 65.0893C112.269 65.4188 111.697 65.6278 111.1 65.7H110.5M110.3 56.3H109.9C109.407 56.3736 108.936 56.5551 108.521 56.8317C108.106 57.1083 107.758 57.4731 107.5 57.9C106.924 58.8822 106.7 60.031 106.864 61.1577C107.027 62.2843 107.569 63.3219 108.4 64.1C108.715 64.4024 109.086 64.6397 109.493 64.7984C109.9 64.9571 110.334 65.034 110.771 65.0247C111.207 65.0154 111.638 64.9201 112.037 64.7443C112.437 64.5684 112.798 64.3155 113.1 64C113.3 63.8 113.4 63.6 113.6 63.4C114.172 62.4366 114.418 61.3142 114.3 60.2C114.22 59.2092 113.796 58.2774 113.103 57.5655C112.409 56.8535 111.488 56.4059 110.5 56.3" fill="#BB88FC"/>
<path d="M114.4 60C114.296 59.993 114.199 59.9486 114.125 59.8751C114.051 59.8015 114.007 59.7038 114 59.6V59.4C114.206 59.0678 114.506 58.8046 114.862 58.6443C115.219 58.4839 115.615 58.4337 116 58.5C116.2 58.5 116.3 58.7 116.3 58.9C116.3 59.1 116.1 59.2 115.9 59.2C115.674 59.1193 115.425 59.1258 115.203 59.2183C114.982 59.3107 114.802 59.4825 114.7 59.7C114.7 59.8 114.5 59.9 114.4 59.9" fill="#BB88FC"/>
<path d="M106.5 62.1H106.4C106.4 62.1 104.8 61.5 100.5 61.9C100.446 61.9053 100.392 61.8985 100.341 61.8803C100.29 61.8621 100.244 61.8328 100.205 61.7945C100.167 61.7563 100.138 61.71 100.12 61.6591C100.101 61.6082 100.095 61.5538 100.1 61.5C100.1 61.3 100.2 61.1 100.4 61.1C105 60.7 106.6 61.3 106.6 61.4C106.8 61.4 106.9 61.7 106.8 61.9C106.8 62 106.6 62.1 106.5 62.1Z" fill="#BB88FC"/>
<path d="M132.1 134.9C132.1 134.9 135.5 128.4 132.9 128.1C130.3 127.8 126.3 133.9 126.3 133.9" fill="white"/>
<path d="M132.1 135.3C131.996 135.293 131.899 135.249 131.825 135.175C131.751 135.102 131.707 135.004 131.7 134.9V134.7C132.4 133.5 133.9 130 133.3 128.8C133.182 128.615 133.006 128.475 132.8 128.4C130.8 128.1 127.6 132.4 126.6 134.1C126.5 134.3 126.3 134.3 126.1 134.2C125.9 134.1 125.9 133.9 126 133.7C126.4 133 130.2 127.3 133 127.7C133.244 127.702 133.481 127.78 133.678 127.924C133.875 128.067 134.023 128.269 134.1 128.5C135 130.3 132.8 134.6 132.5 135.1C132.5 135.2 132.3 135.3 132.2 135.3" fill="black"/>
<path d="M135 147.8L144.6 147.6C145.766 147.556 146.878 147.099 147.738 146.312C148.599 145.524 149.152 144.457 149.3 143.3L151.4 124.8C151.468 124.327 151.442 123.845 151.323 123.382C151.203 122.919 150.994 122.485 150.705 122.103C150.417 121.722 150.056 121.402 149.643 121.161C149.23 120.92 148.774 120.763 148.3 120.7H147.6L138 120.9C136.834 120.944 135.722 121.401 134.862 122.188C134.001 122.976 133.448 124.043 133.3 125.2L131.2 143.7C131.132 144.173 131.158 144.655 131.277 145.118C131.397 145.581 131.606 146.015 131.895 146.397C132.183 146.778 132.544 147.098 132.957 147.339C133.37 147.58 133.826 147.737 134.3 147.8H135Z" fill="#BB88FC"/>
<path d="M134.9 148.1C134.32 148.107 133.746 147.987 133.217 147.75C132.688 147.512 132.217 147.163 131.836 146.725C131.456 146.287 131.175 145.772 131.013 145.215C130.852 144.659 130.813 144.073 130.9 143.5L133 125C133.159 123.75 133.761 122.598 134.697 121.754C135.633 120.91 136.84 120.43 138.1 120.4L147.7 120.2C148.288 120.179 148.874 120.287 149.415 120.518C149.956 120.749 150.44 121.097 150.832 121.536C151.223 121.975 151.513 122.496 151.681 123.06C151.848 123.624 151.889 124.218 151.8 124.8L149.7 143.3C149.541 144.55 148.939 145.702 148.003 146.546C147.067 147.39 145.86 147.87 144.6 147.9L135 148.1M147.7 121L138.1 121.2C137.018 121.256 135.988 121.685 135.186 122.414C134.384 123.143 133.859 124.128 133.7 125.2L131.6 143.7C131.526 144.182 131.559 144.674 131.698 145.142C131.837 145.609 132.077 146.04 132.402 146.403C132.727 146.767 133.129 147.053 133.578 147.243C134.027 147.433 134.513 147.52 135 147.5L144.6 147.3C145.676 147.257 146.702 146.83 147.491 146.096C148.28 145.363 148.779 144.371 148.9 143.3L151 124.8C151.053 124.319 151.009 123.833 150.872 123.369C150.735 122.906 150.506 122.474 150.2 122.1C149.882 121.754 149.495 121.478 149.065 121.289C148.635 121.099 148.17 121.001 147.7 121Z" fill="black"/>
<path d="M126.3 133.9L98.2 129.9L93.1 110.9L78.1 115.5C78.1 115.5 81.4 138.2 87.7 142.4C96.2 148 126.9 144.6 126.9 144.6C126.9 144.6 141.3 145.8 144.6 143.1C146.7 141.4 144.9 140.5 144.9 140.5C147.2 138.5 144.4 137.4 144.4 137.4C145.5 136.9 146.2 135.5 145 134.7C143.9 134 139.2 135.7 138.7 135.8C139.2 135.6 144.5 133.8 143.4 132.3C141.8 130.2 132.2 134.8 132.2 134.8" fill="white"/>
<path d="M107.9 146.1C99.8 146.1 91.3 145.4 87.4 142.8C81 138.6 77.8 116.6 77.7 115.7C77.7 115.5 77.7 115.3 78 115.3L93 110.7C93.2 110.7 93.4 110.7 93.5 110.9L98.5 129.6L126.3 133.6C126.5 133.6 126.6 133.8 126.6 134C126.6 134.2 126.4 134.3 126.2 134.3L98.1 130.3C98.0219 130.295 97.9482 130.262 97.8929 130.207C97.8375 130.152 97.8045 130.078 97.8 130L92.8 111.4L78.4 115.8C78.8 118.5 82.1 138.3 87.7 142.1C96 147.6 126.4 144.3 126.7 144.3C126.8 144.3 141 145.4 144.1 142.8C144.339 142.642 144.542 142.435 144.697 142.194C144.852 141.953 144.955 141.683 145 141.4C144.996 141.258 144.944 141.123 144.853 141.014C144.763 140.905 144.638 140.83 144.5 140.8C144.3 140.8 144.2 140.5 144.3 140.3V140.2C144.9 139.7 145.1 139.3 145 138.9C144.9 138.2 143.8 137.8 143.8 137.8C143.6 137.8 143.5 137.5 143.6 137.3C143.6 137.3 143.7 137.1 143.8 137.1C144.063 136.985 144.292 136.806 144.467 136.579C144.642 136.351 144.756 136.083 144.8 135.8C144.787 135.636 144.735 135.478 144.648 135.339C144.561 135.199 144.442 135.083 144.3 135C143.6 134.6 140.7 135.3 138.4 136.2C138.2 136.2 138 136.2 137.9 136C137.9 135.8 137.9 135.6 138.1 135.5H138.3C141.8 134.2 142.6 133.4 142.7 133V132.7C141.7 131.3 135.5 133.6 131.9 135.3C131.7 135.3 131.5 135.3 131.4 135.1C131.4 134.9 131.4 134.7 131.6 134.6C133.3 133.8 141.6 130 143.3 132.3C143.407 132.44 143.481 132.604 143.515 132.777C143.55 132.95 143.545 133.129 143.5 133.3C143.42 133.543 143.29 133.767 143.118 133.957C142.945 134.146 142.735 134.297 142.5 134.4C143.223 134.183 143.999 134.218 144.7 134.5C144.949 134.662 145.153 134.885 145.293 135.147C145.433 135.409 145.504 135.703 145.5 136C145.482 136.293 145.402 136.578 145.264 136.837C145.126 137.096 144.933 137.322 144.7 137.5C144.957 137.648 145.18 137.849 145.352 138.091C145.525 138.333 145.644 138.608 145.7 138.9C145.713 139.217 145.658 139.533 145.537 139.827C145.416 140.12 145.233 140.384 145 140.6C145.279 140.822 145.459 141.146 145.5 141.5C145.472 141.893 145.359 142.275 145.17 142.621C144.98 142.966 144.717 143.266 144.4 143.5C141.1 146.2 127.5 145.2 126.5 145.1C125.6 145.1 116.8 146.1 107.6 146.1" fill="black"/>
<path d="M139.1 139.2C138.996 139.193 138.898 139.149 138.825 139.075C138.751 139.001 138.707 138.904 138.7 138.8C138.7 138.6 138.8 138.5 139 138.4L144.2 137C144.4 137 144.6 137 144.6 137.3C144.6 137.5 144.6 137.7 144.3 137.7L139.1 139.1" fill="black"/>
<path d="M139.6 142.1C139.496 142.093 139.398 142.049 139.325 141.975C139.251 141.901 139.207 141.804 139.2 141.7C139.2 141.5 139.3 141.4 139.5 141.3L144.8 140.1C145 140.1 145.2 140.1 145.3 140.4C145.3 140.6 145.3 140.8 145 140.9L139.7 142.1" fill="black"/>
<path d="M77.3 126.3C80.8 125.7 93.1 124.3 96.8 116.9L93 104.7L89.2 92.1C89.2 92.1 80.9 95.8 77 103.1C73.5 109.8 77.2 126.3 77.2 126.3" fill="#00B2CA"/>
<path d="M76 119.8C76.5 122.4 77.2 126.3 77.2 126.3C81.4 125.3 93.4 124.3 96.7 116.9L95 111.7C91.1 117.1 80.7 118.8 75.9 119.8" fill="#00B2CA"/>
<path d="M77.3 126.7C77.1 126.7 77 126.6 76.9 126.4C76.7 125.7 73.2 109.7 76.7 103C80.6 95.7 89 91.9 89.1 91.9C89.3 91.9 89.5 91.9 89.6 92.1C89.6 92.3 89.6 92.5 89.4 92.6C89.4 92.6 81.2 96.3 77.4 103.4C74.2 109.4 77.1 123.6 77.6 126C81.9 125.4 93.2 123.8 96.5 117L92.8 105L91.6 100.8C91.6 100.6 91.6 100.4 91.9 100.4C92.1 100.4 92.3 100.4 92.3 100.6L93.5 104.8L97.3 117V117.3C94 124.6 82.2 126.2 77.8 126.8H77.5" fill="black"/>
<path d="M167 79.2C168.4 79.7 168.9 81.9 168.2 84.1C167.5 86.3 165.7 87.7 164.2 87.2C162.7 86.7 162.3 84.5 163 82.3C163.7 80.1 165.5 78.7 167 79.2Z" fill="white"/>
<path d="M164.8 87.6C164.562 87.6161 164.324 87.582 164.1 87.5C163.665 87.333 163.284 87.0481 163.002 86.6772C162.719 86.3063 162.545 85.864 162.5 85.4C162.317 84.299 162.385 83.1708 162.7 82.1C163.6 79.7 165.5 78.2 167.1 78.8C167.535 78.9669 167.916 79.2518 168.198 79.6227C168.481 79.9936 168.655 80.4359 168.7 80.9C168.893 81.9962 168.801 83.1236 168.434 84.1742C168.066 85.2248 167.435 86.1634 166.6 86.9C166.089 87.3181 165.459 87.5632 164.8 87.6ZM166.4 79.4C165.3 79.4 164 80.6 163.4 82.3C163.082 83.2328 163.013 84.2324 163.2 85.2C163.207 85.4345 163.263 85.665 163.364 85.8763C163.466 86.0876 163.612 86.275 163.791 86.4261C163.971 86.5772 164.18 86.6886 164.406 86.7531C164.631 86.8175 164.868 86.8335 165.1 86.8C165.334 86.8062 165.566 86.7547 165.775 86.65C165.984 86.5454 166.165 86.3908 166.3 86.2C167.035 85.5714 167.589 84.7583 167.906 83.8443C168.222 82.9303 168.289 81.9485 168.1 81C168.09 80.6534 167.968 80.3194 167.752 80.0487C167.535 79.778 167.236 79.5854 166.9 79.5H166.4" fill="black"/>
<path d="M164 78.2C165.4 78.7 165.9 81.1 165 83.5C164.1 85.9 162.3 87.5 160.9 87C159.5 86.5 159 84.1 159.9 81.7C160.8 79.3 162.6 77.7 164 78.2Z" fill="white"/>
<path d="M161.4 87.5C161.162 87.5161 160.924 87.482 160.7 87.4C159.1 86.8 158.5 84.3 159.5 81.6C160.5 78.9 162.5 77.3 164.1 77.8C165.7 78.3 166.3 80.9 165.3 83.6C164.5 85.9 162.9 87.5 161.4 87.5ZM163.4 78.5C162.3 78.5 160.9 79.9 160.2 81.9C159.4 84.1 159.8 86.3 161 86.8C162.2 87.3 163.9 85.7 164.7 83.5C165.5 81.3 165.1 79.1 163.9 78.6H163.5" fill="black"/>
<path d="M160.3 77.1C161.9 77.6 162.4 80.3 161.4 83C160.4 85.7 158.4 87.5 156.8 86.9C155.2 86.3 154.7 83.7 155.7 81C156.7 78.3 158.7 76.5 160.3 77.1Z" fill="white"/>
<path d="M157.5 87.4C157.262 87.4161 157.024 87.382 156.8 87.3C156.326 87.0906 155.918 86.7569 155.619 86.3344C155.32 85.9119 155.14 85.4162 155.1 84.9C154.914 83.5638 155.054 82.2026 155.506 80.9318C155.959 79.6609 156.712 78.518 157.7 77.6C158.057 77.2045 158.52 76.9192 159.033 76.7775C159.547 76.6357 160.091 76.6436 160.6 76.8C162.4 77.4 163 80.2 161.9 83.2C161 85.7 159.2 87.5 157.6 87.5M159.7 77.4C159.071 77.4382 158.473 77.6844 158 78.1C157.121 78.9393 156.454 79.9753 156.055 81.1228C155.655 82.2703 155.533 83.4963 155.7 84.7C155.715 85.1071 155.845 85.5017 156.075 85.8379C156.305 86.1742 156.626 86.4384 157 86.6C158.3 87.1 160.2 85.4 161.1 82.9C162 80.4 161.6 78 160.2 77.5H159.7" fill="black"/>
<path d="M156.4 76.3C157.8 76.8 158.3 79.2 157.4 81.6C156.5 84 154.7 85.6 153.3 85.1C151.9 84.6 151.4 82.2 152.3 79.8C153.2 77.4 155 75.8 156.4 76.3Z" fill="white"/>
<path d="M153.8 85.7C153.562 85.7161 153.324 85.682 153.1 85.6C152.66 85.4117 152.278 85.1079 151.997 84.7206C151.715 84.3332 151.543 83.8769 151.5 83.4C151.333 82.1963 151.455 80.9703 151.855 79.8228C152.254 78.6753 152.921 77.6392 153.8 76.8C154.002 76.5545 154.251 76.3516 154.532 76.2034C154.813 76.0551 155.12 75.9643 155.437 75.9364C155.754 75.9084 156.073 75.9439 156.375 76.0407C156.678 76.1374 156.958 76.2936 157.2 76.5C157.47 76.7183 157.69 76.9919 157.845 77.3024C158 77.6129 158.087 77.9531 158.1 78.3C158.267 79.5036 158.145 80.7297 157.745 81.8772C157.346 83.0247 156.679 84.0607 155.8 84.9C155.536 85.1591 155.224 85.3633 154.88 85.5006C154.537 85.6379 154.17 85.7057 153.8 85.7ZM155.8 76.6C155.516 76.6105 155.237 76.6778 154.979 76.7981C154.721 76.9183 154.491 77.089 154.3 77.3C153.505 78.0449 152.9 78.9691 152.535 79.9954C152.169 81.0216 152.055 82.1204 152.2 83.2C152.191 83.6365 152.353 84.0592 152.652 84.3771C152.952 84.695 153.364 84.8828 153.8 84.9C154.075 84.922 154.351 84.8685 154.598 84.7451C154.844 84.6217 155.053 84.4332 155.2 84.2C155.995 83.455 156.6 82.5309 156.965 81.5046C157.331 80.4783 157.445 79.3796 157.3 78.3C157.268 77.9486 157.152 77.6102 156.96 77.314C156.768 77.0178 156.508 76.7728 156.2 76.6H155.8Z" fill="black"/>
<path d="M198.3 142.7L201.6 159.3C201.728 159.95 201.726 160.62 201.595 161.269C201.463 161.919 201.203 162.536 200.831 163.085C200.459 163.633 199.982 164.103 199.427 164.466C198.873 164.829 198.252 165.078 197.6 165.2L181 168.5C180.35 168.628 179.68 168.627 179.031 168.495C178.381 168.363 177.764 168.103 177.215 167.731C176.667 167.359 176.197 166.882 175.834 166.327C175.471 165.773 175.222 165.152 175.1 164.5L171.8 147.9C171.672 147.25 171.673 146.58 171.805 145.931C171.937 145.281 172.197 144.664 172.569 144.115C172.941 143.567 173.418 143.097 173.973 142.734C174.527 142.371 175.148 142.122 175.8 142L192.4 138.7C193.05 138.572 193.72 138.574 194.369 138.706C195.019 138.837 195.636 139.097 196.185 139.469C196.733 139.841 197.203 140.318 197.566 140.873C197.929 141.427 198.178 142.048 198.3 142.7Z" fill="#04B5A4"/>
<path d="M177.4 166.9C176.14 166.906 174.919 166.469 173.949 165.664C172.98 164.86 172.325 163.739 172.1 162.5L168.8 145.9C168.518 144.495 168.801 143.036 169.587 141.838C170.373 140.64 171.599 139.8 173 139.5L189.6 136.2C191.005 135.918 192.464 136.201 193.662 136.987C194.86 137.773 195.7 138.999 196 140.4L199.3 157C199.582 158.405 199.299 159.864 198.513 161.062C197.727 162.26 196.501 163.1 195.1 163.4L178.5 166.7C178.1 166.7 177.8 166.8 177.4 166.8M190.7 136.9H189.8L173.2 140.2C171.987 140.451 170.92 141.167 170.228 142.195C169.536 143.223 169.275 144.481 169.5 145.7L172.8 162.3C173.051 163.513 173.767 164.58 174.795 165.272C175.823 165.964 177.082 166.225 178.3 166L194.9 162.7C196.113 162.449 197.18 161.733 197.872 160.705C198.564 159.677 198.825 158.418 198.6 157.2L195.3 140.6C195.09 139.533 194.517 138.571 193.679 137.878C192.84 137.186 191.788 136.805 190.7 136.8" fill="black"/>
<path d="M173.4 140.2C173.2 140.2 173.1 140.1 173 139.9L171.9 134.4C171.491 132.21 171.962 129.948 173.211 128.104C174.459 126.259 176.385 124.981 178.569 124.547C180.754 124.113 183.022 124.557 184.881 125.784C186.74 127.011 188.04 128.921 188.5 131.1L189.6 136.6C189.6 136.8 189.6 137 189.3 137L173.4 140.2ZM180.3 125.1C178.258 125.1 176.299 125.911 174.855 127.355C173.411 128.799 172.6 130.758 172.6 132.8C172.568 133.308 172.636 133.818 172.8 134.3L173.8 139.4L189 136.4L188 131.3C187.647 129.546 186.697 127.969 185.311 126.838C183.925 125.708 182.189 125.093 180.4 125.1" fill="black"/>
<path d="M185.3 153.1L187.6 156.9L183 157.8L183.6 153.4C183.096 153.331 182.623 153.114 182.242 152.776C181.861 152.438 181.589 151.995 181.46 151.502C181.331 151.01 181.351 150.49 181.517 150.009C181.683 149.528 181.989 149.107 182.394 148.799C182.8 148.492 183.287 148.311 183.796 148.281C184.304 148.25 184.81 148.371 185.249 148.628C185.689 148.885 186.042 149.266 186.265 149.724C186.487 150.182 186.569 150.696 186.5 151.2C186.444 151.583 186.309 151.95 186.102 152.277C185.895 152.605 185.622 152.885 185.3 153.1Z" fill="black"/>
<path fill-rule="evenodd" clip-rule="evenodd" d="M32.5 199.6H306.6C306.719 199.586 306.827 199.525 306.902 199.432C306.977 199.338 307.012 199.219 307 199.1C306.993 198.996 306.949 198.898 306.875 198.825C306.801 198.751 306.704 198.707 306.6 198.7H32.5C32.3962 198.707 32.2985 198.751 32.2249 198.825C32.1514 198.898 32.107 198.996 32.1 199.1C32.107 199.204 32.1514 199.301 32.2249 199.375C32.2985 199.449 32.3962 199.493 32.5 199.5" fill="black"/>
</g>
<defs>
<clipPath id="clip0_3_4864">
<rect width="339" height="200" fill="white"/>
</clipPath>
</defs>
</svg>
