<svg id="chat_active" xmlns="http://www.w3.org/2000/svg" width="20" height="20" viewBox="0 0 20 20">
  <rect id="back" width="20" height="20" fill="none"/>
  <g id="active" transform="translate(0.508)">
    <path id="Path_23935" data-name="Path 23935" d="M7.624,19.375a2.534,2.534,0,0,1-1.02-.219,9.788,9.788,0,0,1-4.027-3.251A10.547,10.547,0,0,1,.713,11.042a11.045,11.045,0,0,1,.353-4.495A8.136,8.136,0,0,1,6.679,1.005a10.567,10.567,0,0,1,6.227.187,7.808,7.808,0,0,1,4.766,4.663,11.194,11.194,0,0,1,.541,2.071,10.241,10.241,0,0,1-.168,4.246A6.838,6.838,0,0,1,16,15.583a6.428,6.428,0,0,1-3.591,1.629,9.485,9.485,0,0,1-1.031.043l-.437,0-.317,0a.678.678,0,0,0-.526.246l-.008.01a1.159,1.159,0,0,0-.157.27,2.535,2.535,0,0,1-2.307,1.6Z" fill="#00b2ca"/>
  </g>
  <g id="Chat" transform="translate(0.508)">
    <path id="Path_23945" data-name="Path 23945" d="M9.486,1.25a10.224,10.224,0,0,1,3.223.536,7.18,7.18,0,0,1,4.378,4.29A10.569,10.569,0,0,1,17.6,8.03a9.623,9.623,0,0,1-.158,3.988,6.217,6.217,0,0,1-1.86,3.1,5.808,5.808,0,0,1-3.244,1.473,8.977,8.977,0,0,1-.959.039l-.432,0-.32,0h-.005a1.3,1.3,0,0,0-1,.473l-.008.01-.008.01a1.788,1.788,0,0,0-.242.413v0A1.887,1.887,0,0,1,7.624,18.75a1.911,1.911,0,0,1-.77-.167,9.232,9.232,0,0,1-2.121-1.29,9.073,9.073,0,0,1-1.649-1.753,9.922,9.922,0,0,1-1.751-4.575,10.425,10.425,0,0,1,.332-4.242A7.506,7.506,0,0,1,6.842,1.609,10.147,10.147,0,0,1,9.486,1.25m0-1.25a11.338,11.338,0,0,0-2.97.4A8.749,8.749,0,0,0,.467,6.37a11.613,11.613,0,0,0-.374,4.748,10.613,10.613,0,0,0,6.26,8.611,3.093,3.093,0,0,0,4.154-1.706.57.57,0,0,1,.071-.127.054.054,0,0,1,.042-.02c.246,0,.5,0,.756,0a9.894,9.894,0,0,0,1.1-.048,7.279,7.279,0,0,0,6.172-5.507,10.817,10.817,0,0,0,.179-4.5,11.773,11.773,0,0,0-.572-2.187A8.425,8.425,0,0,0,13.1.6,11.424,11.424,0,0,0,9.486,0Z"/>
    <path id="Path_23946" data-name="Path 23946" d="M12.419,6.917H5.912a.625.625,0,0,1,0-1.25h6.507a.625.625,0,0,1,0,1.25Z"/>
    <path id="Path_23947" data-name="Path 23947" d="M10.113,10.66h-4.2a.625.625,0,0,1,0-1.25h4.2a.625.625,0,1,1,0,1.25Z"/>
  </g>
</svg>
