<svg id="home" xmlns="http://www.w3.org/2000/svg" width="20" height="20" viewBox="0 0 20 20">
  <rect id="back" width="20" height="20" transform="translate(0)" fill="none"/>
  <path id="Home-2" data-name="Home" d="M10.018,1.25a2.705,2.705,0,0,1,1.251.318A12.048,12.048,0,0,1,12.8,2.5c1.581,1.13,3,2.195,4.223,3.165A9.259,9.259,0,0,1,18,6.6a2.924,2.924,0,0,1,.675,1.283,6.558,6.558,0,0,1-.416,3.109c-.407,1.349-.839,2.71-1.282,4.046-.17.514-.366,1.027-.581,1.523a4.348,4.348,0,0,1-.643,1.095,3.293,3.293,0,0,1-2.5,1.03c-.528.044-1.218.066-2.048.066H10.148c-1.079,0-2.046,0-2.962-.037a5.685,5.685,0,0,1-2.086-.39c-.95-.442-1.468-1.492-1.956-2.932-.377-1.111-.837-2.552-1.369-4.281a9.82,9.82,0,0,1-.525-2.46A2.828,2.828,0,0,1,2.1,6.494,10.923,10.923,0,0,1,3.32,5.4C4.637,4.375,6,3.368,7.359,2.406A6.678,6.678,0,0,1,9.316,1.343a2.788,2.788,0,0,1,.7-.093M8.078,17.394h0l3.846-.007a1.954,1.954,0,0,0,1.94-1.962v-.04a1.955,1.955,0,0,0-1.945-1.955h0l-3.846.007A1.954,1.954,0,0,0,6.134,15.4v.04a1.954,1.954,0,0,0,1.944,1.955M10.018,0A4.027,4.027,0,0,0,9,.134,7.662,7.662,0,0,0,6.638,1.385Q4.561,2.851,2.553,4.412A12.124,12.124,0,0,0,1.195,5.629,4.091,4.091,0,0,0,0,8.682a10.849,10.849,0,0,0,.58,2.795q.807,2.623,1.38,4.314c.491,1.452,1.14,2.978,2.612,3.664a6.938,6.938,0,0,0,2.568.506C8.1,20,9.114,20,10.148,20h1.063q1.3,0,2.153-.071a4.537,4.537,0,0,0,3.342-1.462,5.62,5.62,0,0,0,.841-1.412q.346-.8.621-1.627.673-2.03,1.292-4.078a7.514,7.514,0,0,0,.433-3.769,4.184,4.184,0,0,0-.958-1.819A10.571,10.571,0,0,0,17.8,4.683q-1.865-1.482-4.274-3.2A13.27,13.27,0,0,0,11.837.454,3.978,3.978,0,0,0,10.018,0ZM8.078,16.144a.7.7,0,0,1-.694-.707V15.4a.7.7,0,0,1,.692-.71l3.846-.007h0a.7.7,0,0,1,.694.707v.04a.7.7,0,0,1-.692.71l-3.846.007Z" transform="translate(0 0.001)"/>
</svg>
