<svg id="myads" xmlns="http://www.w3.org/2000/svg" width="20" height="20" viewBox="0 0 20 20">
  <rect id="back" width="20" height="20" fill="none"/>
  <g id="myads-2" data-name="myads" transform="translate(0.342)">
    <path id="Path_23921" data-name="Path 23921" d="M6.03,0H6.017a5.714,5.714,0,0,0-.84.041A2.546,2.546,0,0,0,3.14,2.01a4.626,4.626,0,0,0-.055.849v8.416a.111.111,0,0,1-.037.082,8.639,8.639,0,0,0-1.558,2,.08.08,0,0,1-.068.042.076.076,0,0,1-.072-.058c-.016-.047-.033-.1-.048-.147a1.821,1.821,0,0,0-.143-.36.6.6,0,0,0-.519-.286.621.621,0,0,0-.639.56,1.571,1.571,0,0,0,.111.513C.764,15.56,1.426,17.52,2.08,19.454a1.064,1.064,0,0,0,.162.334A.6.6,0,0,0,2.7,20a.685.685,0,0,0,.491-.217.584.584,0,0,0,.152-.459,2.051,2.051,0,0,0-.121-.43c-.02-.057-.039-.111-.057-.164a.077.077,0,0,1,.035-.092,15.1,15.1,0,0,1,1.7-.85,9.772,9.772,0,0,1,3.537-.705l.277,0c.415,0,.845-.008,1.2-.039a10.812,10.812,0,0,0,4.974-1.681c.455-.291,1.5-.977,3.111-2.039a4.021,4.021,0,0,0,.64-.493,2.412,2.412,0,0,0-.73-3.857,2.321,2.321,0,0,0-.986-.222,2.631,2.631,0,0,0-.705.1.113.113,0,0,1-.027,0,.08.08,0,0,1-.08-.086c0-1.994,0-4.009,0-5.987a3.955,3.955,0,0,0-.059-.786A2.541,2.541,0,0,0,15.364.741,2.5,2.5,0,0,0,14.105.055,4.632,4.632,0,0,0,13.257,0H6.03Zm3.5,1.26h3.9a1.839,1.839,0,0,1,.522.059,1.221,1.221,0,0,1,.85.849,1.789,1.789,0,0,1,.06.513V9.513A.1.1,0,0,1,14.8,9.6l-2.229,1.317a.08.08,0,0,1-.114-.029A2,2,0,0,0,11.2,9.932a2.882,2.882,0,0,0-.66-.058l-2.258,0c-.152,0-.371-.011-.651-.033-.171-.014-.343-.02-.511-.02a6.219,6.219,0,0,0-2.66.6.091.091,0,0,1-.038.009.075.075,0,0,1-.074-.081c0-2.457,0-4.944,0-7.392a3.179,3.179,0,0,1,.07-.831A1.279,1.279,0,0,1,5.629,1.26h3.9ZM10.1,13.848h.582a2.007,2.007,0,0,0,1.966-1.47.117.117,0,0,1,.054-.068c1.209-.716,2.437-1.443,3.65-2.159A1.039,1.039,0,0,1,16.887,10a1.188,1.188,0,0,1,1.032.61,1.114,1.114,0,0,1,.005,1.045,1.369,1.369,0,0,1-.531.558c-1,.656-2.007,1.319-3.007,1.969a9.715,9.715,0,0,1-4.8,1.617c-.261.016-.552.018-.86.02-.386,0-.786.006-1.14.038A11.489,11.489,0,0,0,2.849,17.4l-.015.007a.085.085,0,0,1-.026,0,.081.081,0,0,1-.077-.056L1.948,15.06a.109.109,0,0,1,.012-.1c.351-.549.708-1.1,1.06-1.65a4.878,4.878,0,0,1,4.118-2.231c.123,0,.248,0,.371.014.285.02.493.03.619.03.821,0,1.655,0,2.477.008a1.067,1.067,0,0,1,.432.068.716.716,0,0,1,.412.662.708.708,0,0,1-.414.653,1.081,1.081,0,0,1-.431.067l-1.368,0h-.4a1.181,1.181,0,0,0-.42.054.6.6,0,0,0-.362.56.629.629,0,0,0,.374.592.958.958,0,0,0,.358.052l1.31,0h0Z"/>
    <path id="Path_23923" data-name="Path 23923" d="M12.265,3.463a.577.577,0,0,0-.488.264,2.6,2.6,0,0,0-.157.38,2.141,2.141,0,0,1-3.587.75,2.06,2.06,0,0,1-.443-.722c-.115-.316-.141-.373-.147-.384a.593.593,0,0,0-.515-.287.633.633,0,0,0-.615.45.917.917,0,0,0,.065.568A3.432,3.432,0,0,0,9.579,6.8a3.344,3.344,0,0,0,.737-.083,3.393,3.393,0,0,0,1.434-.686,3.617,3.617,0,0,0,.97-1.307A2.413,2.413,0,0,0,12.9,4.2a.58.58,0,0,0-.124-.494.685.685,0,0,0-.515-.242h0Z"/>
  </g>
</svg>
