<svg id="profile_active" xmlns="http://www.w3.org/2000/svg" width="20" height="20" viewBox="0 0 20 20">
  <rect id="back" width="20" height="20" fill="none"/>
  <g id="Active_profile" transform="translate(2.962)">
    <circle id="Ellipse_307" data-name="Ellipse 307" cx="4.123" cy="4.123" r="4.123" transform="translate(2.914 0.625)" fill="#00b2ca"/>
    <path id="Path_23943" data-name="Path 23943" d="M7.05,18.79a10.106,10.106,0,0,1-2.613-.341c-.7-.186-3.016-.935-3.686-2.755a2.7,2.7,0,0,1,.38-2.518,6.156,6.156,0,0,1,3.6-2.11A10.3,10.3,0,0,1,7.043,10.8a9.037,9.037,0,0,1,4.125.952A4.1,4.1,0,0,1,13.325,14.1a2.563,2.563,0,0,1-.141,1.756,3.678,3.678,0,0,1-1.2,1.447A8.353,8.353,0,0,1,7.05,18.79Z" transform="translate(0.032 0.585)" fill="#00b2ca"/>
  </g>
  <g id="profile" transform="translate(2.962)">
    <path id="Path_23924" data-name="Path 23924" d="M7.037,1.25a3.5,3.5,0,1,1-3.5,3.5,3.5,3.5,0,0,1,3.5-3.5m0-1.25a4.748,4.748,0,1,0,4.748,4.748A4.748,4.748,0,0,0,7.037,0h0Z"/>
    <path id="Path_23925" data-name="Path 23925" d="M7.076,10.763v1.25a8.4,8.4,0,0,1,3.838.882,3.5,3.5,0,0,1,1.84,1.959,1.955,1.955,0,0,1-.11,1.338,3.05,3.05,0,0,1-1,1.2A7.729,7.729,0,0,1,7.083,18.75a9.474,9.474,0,0,1-2.451-.32c-1.282-.343-2.811-1.145-3.261-2.366a2.071,2.071,0,0,1,.3-1.934A5.535,5.535,0,0,1,4.9,12.261a9.675,9.675,0,0,1,2.171-.247v-1.25m0,0a10.947,10.947,0,0,0-2.452.279A6.8,6.8,0,0,0,.659,13.394a3.312,3.312,0,0,0-.462,3.1c.619,1.682,2.477,2.705,4.111,3.143A10.783,10.783,0,0,0,7.083,20a8.957,8.957,0,0,0,5.3-1.605,3.639,3.639,0,0,0,1.575-3.87,4.614,4.614,0,0,0-2.473-2.739,9.65,9.65,0,0,0-4.411-1.021h0Z"/>
  </g>
</svg>
