<svg xmlns="http://www.w3.org/2000/svg" width="150.059" height="150" viewBox="0 0 150.059 150">
  <g id="mainlogo" transform="translate(-0.004 0)">
    <path id="back" d="M115.724,4.568l12.222,1.248a34.989,34.989,0,0,1,31.262,31.248l1.247,12.219a283.607,283.607,0,0,1,0,57.638l-1.247,12.216a34.993,34.993,0,0,1-31.262,31.25l-12.222,1.245a283.83,283.83,0,0,1-57.661,0L45.84,150.388a34.991,34.991,0,0,1-31.261-31.25l-1.248-12.216a283.757,283.757,0,0,1,0-57.638l1.248-12.219A34.988,34.988,0,0,1,45.84,5.816L58.062,4.568a283.838,283.838,0,0,1,57.662,0Z" transform="translate(-11.86 -3.1)" fill="#fff" fill-rule="evenodd"/>
    <g id="mainlogo-2" data-name="mainlogo" transform="translate(24.03 23.998)">
      <rect id="logoback" width="102" height="102" fill="none"/>
      <g id="logo" transform="translate(36.12 4.121)">
        <rect id="back-2" data-name="back" width="102" height="102" transform="translate(-36.12 -4.121)" fill="none"/>
        <path id="Path_16339" data-name="Path 16339" d="M5.423,243.619a5.422,5.422,0,0,1-4.229-8.813L10.832,222.8a5.424,5.424,0,1,1,8.464,6.784l-9.637,12a5.415,5.415,0,0,1-4.235,2.03Z" transform="translate(-23.714 -148.548)" fill="#00b2ca"/>
        <path id="Path_16340" data-name="Path 16340" d="M94.4,100.084A19.067,19.067,0,1,1,108.931,68.66a4.063,4.063,0,0,1-.312,5.6l-7.538,7.075a4.067,4.067,0,0,1-5.572-5.926l4.208-3.951a10.935,10.935,0,1,0,3.038,16.62,4.067,4.067,0,1,1,6.209,5.256,19.062,19.062,0,0,1-14.568,6.75Z" transform="translate(-73.491 -43.542)" fill="#fa6e53"/>
        <path id="Path_16341" data-name="Path 16341" d="M52.543,79.723a39.862,39.862,0,1,1,30.381-65.7,5.425,5.425,0,1,1-8.264,7.031A29.021,29.021,0,1,0,74.71,58.6a5.424,5.424,0,1,1,8.281,7.007A39.849,39.849,0,0,1,52.539,79.72Z" transform="translate(-32.073 -2.583)" fill="#00b2ca"/>
      </g>
    </g>
  </g>
</svg>
